%TF.GenerationSoftware,KiCad,Pcbnew,7.0.11-2.fc39*%
%TF.CreationDate,2024-04-23T12:03:01+00:00*%
%TF.ProjectId,Smart Prusa MK4 enclosure,536d6172-7420-4507-9275-7361204d4b34,1.2*%
%TF.SameCoordinates,Original*%
%TF.FileFunction,Legend,Top*%
%TF.FilePolarity,Positive*%
%FSLAX46Y46*%
G04 Gerber Fmt 4.6, Leading zero omitted, Abs format (unit mm)*
G04 Created by KiCad (PCBNEW 7.0.11-2.fc39) date 2024-04-23 12:03:01*
%MOMM*%
%LPD*%
G01*
G04 APERTURE LIST*
G04 Aperture macros list*
%AMRoundRect*
0 Rectangle with rounded corners*
0 $1 Rounding radius*
0 $2 $3 $4 $5 $6 $7 $8 $9 X,Y pos of 4 corners*
0 Add a 4 corners polygon primitive as box body*
4,1,4,$2,$3,$4,$5,$6,$7,$8,$9,$2,$3,0*
0 Add four circle primitives for the rounded corners*
1,1,$1+$1,$2,$3*
1,1,$1+$1,$4,$5*
1,1,$1+$1,$6,$7*
1,1,$1+$1,$8,$9*
0 Add four rect primitives between the rounded corners*
20,1,$1+$1,$2,$3,$4,$5,0*
20,1,$1+$1,$4,$5,$6,$7,0*
20,1,$1+$1,$6,$7,$8,$9,0*
20,1,$1+$1,$8,$9,$2,$3,0*%
G04 Aperture macros list end*
%ADD10C,0.150000*%
%ADD11C,0.100000*%
%ADD12C,0.120000*%
%ADD13C,1.524000*%
%ADD14C,2.800000*%
%ADD15O,2.800000X2.800000*%
%ADD16RoundRect,0.250000X-0.600000X-0.725000X0.600000X-0.725000X0.600000X0.725000X-0.600000X0.725000X0*%
%ADD17O,1.700000X1.950000*%
%ADD18RoundRect,0.675000X-0.675000X0.675000X-0.675000X-0.675000X0.675000X-0.675000X0.675000X0.675000X0*%
%ADD19C,2.700000*%
%ADD20R,3.500000X3.500000*%
%ADD21RoundRect,0.750000X1.000000X-0.750000X1.000000X0.750000X-1.000000X0.750000X-1.000000X-0.750000X0*%
%ADD22RoundRect,0.875000X0.875000X-0.875000X0.875000X0.875000X-0.875000X0.875000X-0.875000X-0.875000X0*%
%ADD23O,2.000000X2.000000*%
%ADD24R,2.000000X2.000000*%
%ADD25RoundRect,0.250000X0.600000X0.725000X-0.600000X0.725000X-0.600000X-0.725000X0.600000X-0.725000X0*%
%ADD26RoundRect,0.250000X-0.600000X-0.750000X0.600000X-0.750000X0.600000X0.750000X-0.600000X0.750000X0*%
%ADD27O,1.700000X2.000000*%
%ADD28C,1.600000*%
G04 APERTURE END LIST*
D10*
X25689160Y-191252200D02*
X25832017Y-191299819D01*
X25832017Y-191299819D02*
X26070112Y-191299819D01*
X26070112Y-191299819D02*
X26165350Y-191252200D01*
X26165350Y-191252200D02*
X26212969Y-191204580D01*
X26212969Y-191204580D02*
X26260588Y-191109342D01*
X26260588Y-191109342D02*
X26260588Y-191014104D01*
X26260588Y-191014104D02*
X26212969Y-190918866D01*
X26212969Y-190918866D02*
X26165350Y-190871247D01*
X26165350Y-190871247D02*
X26070112Y-190823628D01*
X26070112Y-190823628D02*
X25879636Y-190776009D01*
X25879636Y-190776009D02*
X25784398Y-190728390D01*
X25784398Y-190728390D02*
X25736779Y-190680771D01*
X25736779Y-190680771D02*
X25689160Y-190585533D01*
X25689160Y-190585533D02*
X25689160Y-190490295D01*
X25689160Y-190490295D02*
X25736779Y-190395057D01*
X25736779Y-190395057D02*
X25784398Y-190347438D01*
X25784398Y-190347438D02*
X25879636Y-190299819D01*
X25879636Y-190299819D02*
X26117731Y-190299819D01*
X26117731Y-190299819D02*
X26260588Y-190347438D01*
X26689160Y-191299819D02*
X26689160Y-190633152D01*
X26689160Y-190728390D02*
X26736779Y-190680771D01*
X26736779Y-190680771D02*
X26832017Y-190633152D01*
X26832017Y-190633152D02*
X26974874Y-190633152D01*
X26974874Y-190633152D02*
X27070112Y-190680771D01*
X27070112Y-190680771D02*
X27117731Y-190776009D01*
X27117731Y-190776009D02*
X27117731Y-191299819D01*
X27117731Y-190776009D02*
X27165350Y-190680771D01*
X27165350Y-190680771D02*
X27260588Y-190633152D01*
X27260588Y-190633152D02*
X27403445Y-190633152D01*
X27403445Y-190633152D02*
X27498684Y-190680771D01*
X27498684Y-190680771D02*
X27546303Y-190776009D01*
X27546303Y-190776009D02*
X27546303Y-191299819D01*
X28451064Y-191299819D02*
X28451064Y-190776009D01*
X28451064Y-190776009D02*
X28403445Y-190680771D01*
X28403445Y-190680771D02*
X28308207Y-190633152D01*
X28308207Y-190633152D02*
X28117731Y-190633152D01*
X28117731Y-190633152D02*
X28022493Y-190680771D01*
X28451064Y-191252200D02*
X28355826Y-191299819D01*
X28355826Y-191299819D02*
X28117731Y-191299819D01*
X28117731Y-191299819D02*
X28022493Y-191252200D01*
X28022493Y-191252200D02*
X27974874Y-191156961D01*
X27974874Y-191156961D02*
X27974874Y-191061723D01*
X27974874Y-191061723D02*
X28022493Y-190966485D01*
X28022493Y-190966485D02*
X28117731Y-190918866D01*
X28117731Y-190918866D02*
X28355826Y-190918866D01*
X28355826Y-190918866D02*
X28451064Y-190871247D01*
X28927255Y-191299819D02*
X28927255Y-190633152D01*
X28927255Y-190823628D02*
X28974874Y-190728390D01*
X28974874Y-190728390D02*
X29022493Y-190680771D01*
X29022493Y-190680771D02*
X29117731Y-190633152D01*
X29117731Y-190633152D02*
X29212969Y-190633152D01*
X29403446Y-190633152D02*
X29784398Y-190633152D01*
X29546303Y-190299819D02*
X29546303Y-191156961D01*
X29546303Y-191156961D02*
X29593922Y-191252200D01*
X29593922Y-191252200D02*
X29689160Y-191299819D01*
X29689160Y-191299819D02*
X29784398Y-191299819D01*
X30879637Y-191299819D02*
X30879637Y-190299819D01*
X30879637Y-190299819D02*
X31260589Y-190299819D01*
X31260589Y-190299819D02*
X31355827Y-190347438D01*
X31355827Y-190347438D02*
X31403446Y-190395057D01*
X31403446Y-190395057D02*
X31451065Y-190490295D01*
X31451065Y-190490295D02*
X31451065Y-190633152D01*
X31451065Y-190633152D02*
X31403446Y-190728390D01*
X31403446Y-190728390D02*
X31355827Y-190776009D01*
X31355827Y-190776009D02*
X31260589Y-190823628D01*
X31260589Y-190823628D02*
X30879637Y-190823628D01*
X31879637Y-191299819D02*
X31879637Y-190633152D01*
X31879637Y-190823628D02*
X31927256Y-190728390D01*
X31927256Y-190728390D02*
X31974875Y-190680771D01*
X31974875Y-190680771D02*
X32070113Y-190633152D01*
X32070113Y-190633152D02*
X32165351Y-190633152D01*
X32927256Y-190633152D02*
X32927256Y-191299819D01*
X32498685Y-190633152D02*
X32498685Y-191156961D01*
X32498685Y-191156961D02*
X32546304Y-191252200D01*
X32546304Y-191252200D02*
X32641542Y-191299819D01*
X32641542Y-191299819D02*
X32784399Y-191299819D01*
X32784399Y-191299819D02*
X32879637Y-191252200D01*
X32879637Y-191252200D02*
X32927256Y-191204580D01*
X33355828Y-191252200D02*
X33451066Y-191299819D01*
X33451066Y-191299819D02*
X33641542Y-191299819D01*
X33641542Y-191299819D02*
X33736780Y-191252200D01*
X33736780Y-191252200D02*
X33784399Y-191156961D01*
X33784399Y-191156961D02*
X33784399Y-191109342D01*
X33784399Y-191109342D02*
X33736780Y-191014104D01*
X33736780Y-191014104D02*
X33641542Y-190966485D01*
X33641542Y-190966485D02*
X33498685Y-190966485D01*
X33498685Y-190966485D02*
X33403447Y-190918866D01*
X33403447Y-190918866D02*
X33355828Y-190823628D01*
X33355828Y-190823628D02*
X33355828Y-190776009D01*
X33355828Y-190776009D02*
X33403447Y-190680771D01*
X33403447Y-190680771D02*
X33498685Y-190633152D01*
X33498685Y-190633152D02*
X33641542Y-190633152D01*
X33641542Y-190633152D02*
X33736780Y-190680771D01*
X34641542Y-191299819D02*
X34641542Y-190776009D01*
X34641542Y-190776009D02*
X34593923Y-190680771D01*
X34593923Y-190680771D02*
X34498685Y-190633152D01*
X34498685Y-190633152D02*
X34308209Y-190633152D01*
X34308209Y-190633152D02*
X34212971Y-190680771D01*
X34641542Y-191252200D02*
X34546304Y-191299819D01*
X34546304Y-191299819D02*
X34308209Y-191299819D01*
X34308209Y-191299819D02*
X34212971Y-191252200D01*
X34212971Y-191252200D02*
X34165352Y-191156961D01*
X34165352Y-191156961D02*
X34165352Y-191061723D01*
X34165352Y-191061723D02*
X34212971Y-190966485D01*
X34212971Y-190966485D02*
X34308209Y-190918866D01*
X34308209Y-190918866D02*
X34546304Y-190918866D01*
X34546304Y-190918866D02*
X34641542Y-190871247D01*
X35879638Y-191299819D02*
X35879638Y-190299819D01*
X35879638Y-190299819D02*
X36212971Y-191014104D01*
X36212971Y-191014104D02*
X36546304Y-190299819D01*
X36546304Y-190299819D02*
X36546304Y-191299819D01*
X37022495Y-191299819D02*
X37022495Y-190299819D01*
X37593923Y-191299819D02*
X37165352Y-190728390D01*
X37593923Y-190299819D02*
X37022495Y-190871247D01*
X38451066Y-190633152D02*
X38451066Y-191299819D01*
X38212971Y-190252200D02*
X37974876Y-190966485D01*
X37974876Y-190966485D02*
X38593923Y-190966485D01*
X40117733Y-191252200D02*
X40022495Y-191299819D01*
X40022495Y-191299819D02*
X39832019Y-191299819D01*
X39832019Y-191299819D02*
X39736781Y-191252200D01*
X39736781Y-191252200D02*
X39689162Y-191156961D01*
X39689162Y-191156961D02*
X39689162Y-190776009D01*
X39689162Y-190776009D02*
X39736781Y-190680771D01*
X39736781Y-190680771D02*
X39832019Y-190633152D01*
X39832019Y-190633152D02*
X40022495Y-190633152D01*
X40022495Y-190633152D02*
X40117733Y-190680771D01*
X40117733Y-190680771D02*
X40165352Y-190776009D01*
X40165352Y-190776009D02*
X40165352Y-190871247D01*
X40165352Y-190871247D02*
X39689162Y-190966485D01*
X40593924Y-190633152D02*
X40593924Y-191299819D01*
X40593924Y-190728390D02*
X40641543Y-190680771D01*
X40641543Y-190680771D02*
X40736781Y-190633152D01*
X40736781Y-190633152D02*
X40879638Y-190633152D01*
X40879638Y-190633152D02*
X40974876Y-190680771D01*
X40974876Y-190680771D02*
X41022495Y-190776009D01*
X41022495Y-190776009D02*
X41022495Y-191299819D01*
X41927257Y-191252200D02*
X41832019Y-191299819D01*
X41832019Y-191299819D02*
X41641543Y-191299819D01*
X41641543Y-191299819D02*
X41546305Y-191252200D01*
X41546305Y-191252200D02*
X41498686Y-191204580D01*
X41498686Y-191204580D02*
X41451067Y-191109342D01*
X41451067Y-191109342D02*
X41451067Y-190823628D01*
X41451067Y-190823628D02*
X41498686Y-190728390D01*
X41498686Y-190728390D02*
X41546305Y-190680771D01*
X41546305Y-190680771D02*
X41641543Y-190633152D01*
X41641543Y-190633152D02*
X41832019Y-190633152D01*
X41832019Y-190633152D02*
X41927257Y-190680771D01*
X42498686Y-191299819D02*
X42403448Y-191252200D01*
X42403448Y-191252200D02*
X42355829Y-191156961D01*
X42355829Y-191156961D02*
X42355829Y-190299819D01*
X43022496Y-191299819D02*
X42927258Y-191252200D01*
X42927258Y-191252200D02*
X42879639Y-191204580D01*
X42879639Y-191204580D02*
X42832020Y-191109342D01*
X42832020Y-191109342D02*
X42832020Y-190823628D01*
X42832020Y-190823628D02*
X42879639Y-190728390D01*
X42879639Y-190728390D02*
X42927258Y-190680771D01*
X42927258Y-190680771D02*
X43022496Y-190633152D01*
X43022496Y-190633152D02*
X43165353Y-190633152D01*
X43165353Y-190633152D02*
X43260591Y-190680771D01*
X43260591Y-190680771D02*
X43308210Y-190728390D01*
X43308210Y-190728390D02*
X43355829Y-190823628D01*
X43355829Y-190823628D02*
X43355829Y-191109342D01*
X43355829Y-191109342D02*
X43308210Y-191204580D01*
X43308210Y-191204580D02*
X43260591Y-191252200D01*
X43260591Y-191252200D02*
X43165353Y-191299819D01*
X43165353Y-191299819D02*
X43022496Y-191299819D01*
X43736782Y-191252200D02*
X43832020Y-191299819D01*
X43832020Y-191299819D02*
X44022496Y-191299819D01*
X44022496Y-191299819D02*
X44117734Y-191252200D01*
X44117734Y-191252200D02*
X44165353Y-191156961D01*
X44165353Y-191156961D02*
X44165353Y-191109342D01*
X44165353Y-191109342D02*
X44117734Y-191014104D01*
X44117734Y-191014104D02*
X44022496Y-190966485D01*
X44022496Y-190966485D02*
X43879639Y-190966485D01*
X43879639Y-190966485D02*
X43784401Y-190918866D01*
X43784401Y-190918866D02*
X43736782Y-190823628D01*
X43736782Y-190823628D02*
X43736782Y-190776009D01*
X43736782Y-190776009D02*
X43784401Y-190680771D01*
X43784401Y-190680771D02*
X43879639Y-190633152D01*
X43879639Y-190633152D02*
X44022496Y-190633152D01*
X44022496Y-190633152D02*
X44117734Y-190680771D01*
X45022496Y-190633152D02*
X45022496Y-191299819D01*
X44593925Y-190633152D02*
X44593925Y-191156961D01*
X44593925Y-191156961D02*
X44641544Y-191252200D01*
X44641544Y-191252200D02*
X44736782Y-191299819D01*
X44736782Y-191299819D02*
X44879639Y-191299819D01*
X44879639Y-191299819D02*
X44974877Y-191252200D01*
X44974877Y-191252200D02*
X45022496Y-191204580D01*
X45498687Y-191299819D02*
X45498687Y-190633152D01*
X45498687Y-190823628D02*
X45546306Y-190728390D01*
X45546306Y-190728390D02*
X45593925Y-190680771D01*
X45593925Y-190680771D02*
X45689163Y-190633152D01*
X45689163Y-190633152D02*
X45784401Y-190633152D01*
X46498687Y-191252200D02*
X46403449Y-191299819D01*
X46403449Y-191299819D02*
X46212973Y-191299819D01*
X46212973Y-191299819D02*
X46117735Y-191252200D01*
X46117735Y-191252200D02*
X46070116Y-191156961D01*
X46070116Y-191156961D02*
X46070116Y-190776009D01*
X46070116Y-190776009D02*
X46117735Y-190680771D01*
X46117735Y-190680771D02*
X46212973Y-190633152D01*
X46212973Y-190633152D02*
X46403449Y-190633152D01*
X46403449Y-190633152D02*
X46498687Y-190680771D01*
X46498687Y-190680771D02*
X46546306Y-190776009D01*
X46546306Y-190776009D02*
X46546306Y-190871247D01*
X46546306Y-190871247D02*
X46070116Y-190966485D01*
X25736779Y-192909819D02*
X25736779Y-191909819D01*
X26165350Y-192909819D02*
X26165350Y-192386009D01*
X26165350Y-192386009D02*
X26117731Y-192290771D01*
X26117731Y-192290771D02*
X26022493Y-192243152D01*
X26022493Y-192243152D02*
X25879636Y-192243152D01*
X25879636Y-192243152D02*
X25784398Y-192290771D01*
X25784398Y-192290771D02*
X25736779Y-192338390D01*
X26498684Y-192243152D02*
X26879636Y-192243152D01*
X26641541Y-191909819D02*
X26641541Y-192766961D01*
X26641541Y-192766961D02*
X26689160Y-192862200D01*
X26689160Y-192862200D02*
X26784398Y-192909819D01*
X26784398Y-192909819D02*
X26879636Y-192909819D01*
X27070113Y-192243152D02*
X27451065Y-192243152D01*
X27212970Y-191909819D02*
X27212970Y-192766961D01*
X27212970Y-192766961D02*
X27260589Y-192862200D01*
X27260589Y-192862200D02*
X27355827Y-192909819D01*
X27355827Y-192909819D02*
X27451065Y-192909819D01*
X27784399Y-192243152D02*
X27784399Y-193243152D01*
X27784399Y-192290771D02*
X27879637Y-192243152D01*
X27879637Y-192243152D02*
X28070113Y-192243152D01*
X28070113Y-192243152D02*
X28165351Y-192290771D01*
X28165351Y-192290771D02*
X28212970Y-192338390D01*
X28212970Y-192338390D02*
X28260589Y-192433628D01*
X28260589Y-192433628D02*
X28260589Y-192719342D01*
X28260589Y-192719342D02*
X28212970Y-192814580D01*
X28212970Y-192814580D02*
X28165351Y-192862200D01*
X28165351Y-192862200D02*
X28070113Y-192909819D01*
X28070113Y-192909819D02*
X27879637Y-192909819D01*
X27879637Y-192909819D02*
X27784399Y-192862200D01*
X28641542Y-192862200D02*
X28736780Y-192909819D01*
X28736780Y-192909819D02*
X28927256Y-192909819D01*
X28927256Y-192909819D02*
X29022494Y-192862200D01*
X29022494Y-192862200D02*
X29070113Y-192766961D01*
X29070113Y-192766961D02*
X29070113Y-192719342D01*
X29070113Y-192719342D02*
X29022494Y-192624104D01*
X29022494Y-192624104D02*
X28927256Y-192576485D01*
X28927256Y-192576485D02*
X28784399Y-192576485D01*
X28784399Y-192576485D02*
X28689161Y-192528866D01*
X28689161Y-192528866D02*
X28641542Y-192433628D01*
X28641542Y-192433628D02*
X28641542Y-192386009D01*
X28641542Y-192386009D02*
X28689161Y-192290771D01*
X28689161Y-192290771D02*
X28784399Y-192243152D01*
X28784399Y-192243152D02*
X28927256Y-192243152D01*
X28927256Y-192243152D02*
X29022494Y-192290771D01*
X29498685Y-192814580D02*
X29546304Y-192862200D01*
X29546304Y-192862200D02*
X29498685Y-192909819D01*
X29498685Y-192909819D02*
X29451066Y-192862200D01*
X29451066Y-192862200D02*
X29498685Y-192814580D01*
X29498685Y-192814580D02*
X29498685Y-192909819D01*
X29498685Y-192290771D02*
X29546304Y-192338390D01*
X29546304Y-192338390D02*
X29498685Y-192386009D01*
X29498685Y-192386009D02*
X29451066Y-192338390D01*
X29451066Y-192338390D02*
X29498685Y-192290771D01*
X29498685Y-192290771D02*
X29498685Y-192386009D01*
X30689160Y-191862200D02*
X29832018Y-193147914D01*
X31736779Y-191862200D02*
X30879637Y-193147914D01*
X32070113Y-192909819D02*
X32070113Y-192243152D01*
X32070113Y-192433628D02*
X32117732Y-192338390D01*
X32117732Y-192338390D02*
X32165351Y-192290771D01*
X32165351Y-192290771D02*
X32260589Y-192243152D01*
X32260589Y-192243152D02*
X32355827Y-192243152D01*
X33117732Y-192243152D02*
X33117732Y-192909819D01*
X32689161Y-192243152D02*
X32689161Y-192766961D01*
X32689161Y-192766961D02*
X32736780Y-192862200D01*
X32736780Y-192862200D02*
X32832018Y-192909819D01*
X32832018Y-192909819D02*
X32974875Y-192909819D01*
X32974875Y-192909819D02*
X33070113Y-192862200D01*
X33070113Y-192862200D02*
X33117732Y-192814580D01*
X34022494Y-192909819D02*
X34022494Y-191909819D01*
X34022494Y-192862200D02*
X33927256Y-192909819D01*
X33927256Y-192909819D02*
X33736780Y-192909819D01*
X33736780Y-192909819D02*
X33641542Y-192862200D01*
X33641542Y-192862200D02*
X33593923Y-192814580D01*
X33593923Y-192814580D02*
X33546304Y-192719342D01*
X33546304Y-192719342D02*
X33546304Y-192433628D01*
X33546304Y-192433628D02*
X33593923Y-192338390D01*
X33593923Y-192338390D02*
X33641542Y-192290771D01*
X33641542Y-192290771D02*
X33736780Y-192243152D01*
X33736780Y-192243152D02*
X33927256Y-192243152D01*
X33927256Y-192243152D02*
X34022494Y-192290771D01*
X34927256Y-192909819D02*
X34927256Y-191909819D01*
X34927256Y-192862200D02*
X34832018Y-192909819D01*
X34832018Y-192909819D02*
X34641542Y-192909819D01*
X34641542Y-192909819D02*
X34546304Y-192862200D01*
X34546304Y-192862200D02*
X34498685Y-192814580D01*
X34498685Y-192814580D02*
X34451066Y-192719342D01*
X34451066Y-192719342D02*
X34451066Y-192433628D01*
X34451066Y-192433628D02*
X34498685Y-192338390D01*
X34498685Y-192338390D02*
X34546304Y-192290771D01*
X34546304Y-192290771D02*
X34641542Y-192243152D01*
X34641542Y-192243152D02*
X34832018Y-192243152D01*
X34832018Y-192243152D02*
X34927256Y-192290771D01*
X35403447Y-192528866D02*
X36165352Y-192528866D01*
X36784399Y-192909819D02*
X36689161Y-192862200D01*
X36689161Y-192862200D02*
X36641542Y-192814580D01*
X36641542Y-192814580D02*
X36593923Y-192719342D01*
X36593923Y-192719342D02*
X36593923Y-192433628D01*
X36593923Y-192433628D02*
X36641542Y-192338390D01*
X36641542Y-192338390D02*
X36689161Y-192290771D01*
X36689161Y-192290771D02*
X36784399Y-192243152D01*
X36784399Y-192243152D02*
X36927256Y-192243152D01*
X36927256Y-192243152D02*
X37022494Y-192290771D01*
X37022494Y-192290771D02*
X37070113Y-192338390D01*
X37070113Y-192338390D02*
X37117732Y-192433628D01*
X37117732Y-192433628D02*
X37117732Y-192719342D01*
X37117732Y-192719342D02*
X37070113Y-192814580D01*
X37070113Y-192814580D02*
X37022494Y-192862200D01*
X37022494Y-192862200D02*
X36927256Y-192909819D01*
X36927256Y-192909819D02*
X36784399Y-192909819D01*
X37546304Y-192814580D02*
X37593923Y-192862200D01*
X37593923Y-192862200D02*
X37546304Y-192909819D01*
X37546304Y-192909819D02*
X37498685Y-192862200D01*
X37498685Y-192862200D02*
X37546304Y-192814580D01*
X37546304Y-192814580D02*
X37546304Y-192909819D01*
X38451065Y-192862200D02*
X38355827Y-192909819D01*
X38355827Y-192909819D02*
X38165351Y-192909819D01*
X38165351Y-192909819D02*
X38070113Y-192862200D01*
X38070113Y-192862200D02*
X38022494Y-192814580D01*
X38022494Y-192814580D02*
X37974875Y-192719342D01*
X37974875Y-192719342D02*
X37974875Y-192433628D01*
X37974875Y-192433628D02*
X38022494Y-192338390D01*
X38022494Y-192338390D02*
X38070113Y-192290771D01*
X38070113Y-192290771D02*
X38165351Y-192243152D01*
X38165351Y-192243152D02*
X38355827Y-192243152D01*
X38355827Y-192243152D02*
X38451065Y-192290771D01*
X39022494Y-192909819D02*
X38927256Y-192862200D01*
X38927256Y-192862200D02*
X38879637Y-192814580D01*
X38879637Y-192814580D02*
X38832018Y-192719342D01*
X38832018Y-192719342D02*
X38832018Y-192433628D01*
X38832018Y-192433628D02*
X38879637Y-192338390D01*
X38879637Y-192338390D02*
X38927256Y-192290771D01*
X38927256Y-192290771D02*
X39022494Y-192243152D01*
X39022494Y-192243152D02*
X39165351Y-192243152D01*
X39165351Y-192243152D02*
X39260589Y-192290771D01*
X39260589Y-192290771D02*
X39308208Y-192338390D01*
X39308208Y-192338390D02*
X39355827Y-192433628D01*
X39355827Y-192433628D02*
X39355827Y-192719342D01*
X39355827Y-192719342D02*
X39308208Y-192814580D01*
X39308208Y-192814580D02*
X39260589Y-192862200D01*
X39260589Y-192862200D02*
X39165351Y-192909819D01*
X39165351Y-192909819D02*
X39022494Y-192909819D01*
X39784399Y-192909819D02*
X39784399Y-192243152D01*
X39784399Y-192338390D02*
X39832018Y-192290771D01*
X39832018Y-192290771D02*
X39927256Y-192243152D01*
X39927256Y-192243152D02*
X40070113Y-192243152D01*
X40070113Y-192243152D02*
X40165351Y-192290771D01*
X40165351Y-192290771D02*
X40212970Y-192386009D01*
X40212970Y-192386009D02*
X40212970Y-192909819D01*
X40212970Y-192386009D02*
X40260589Y-192290771D01*
X40260589Y-192290771D02*
X40355827Y-192243152D01*
X40355827Y-192243152D02*
X40498684Y-192243152D01*
X40498684Y-192243152D02*
X40593923Y-192290771D01*
X40593923Y-192290771D02*
X40641542Y-192386009D01*
X40641542Y-192386009D02*
X40641542Y-192909819D01*
X41832017Y-191862200D02*
X40974875Y-193147914D01*
X42117732Y-192862200D02*
X42212970Y-192909819D01*
X42212970Y-192909819D02*
X42403446Y-192909819D01*
X42403446Y-192909819D02*
X42498684Y-192862200D01*
X42498684Y-192862200D02*
X42546303Y-192766961D01*
X42546303Y-192766961D02*
X42546303Y-192719342D01*
X42546303Y-192719342D02*
X42498684Y-192624104D01*
X42498684Y-192624104D02*
X42403446Y-192576485D01*
X42403446Y-192576485D02*
X42260589Y-192576485D01*
X42260589Y-192576485D02*
X42165351Y-192528866D01*
X42165351Y-192528866D02*
X42117732Y-192433628D01*
X42117732Y-192433628D02*
X42117732Y-192386009D01*
X42117732Y-192386009D02*
X42165351Y-192290771D01*
X42165351Y-192290771D02*
X42260589Y-192243152D01*
X42260589Y-192243152D02*
X42403446Y-192243152D01*
X42403446Y-192243152D02*
X42498684Y-192290771D01*
X42974875Y-192909819D02*
X42974875Y-192243152D01*
X42974875Y-192338390D02*
X43022494Y-192290771D01*
X43022494Y-192290771D02*
X43117732Y-192243152D01*
X43117732Y-192243152D02*
X43260589Y-192243152D01*
X43260589Y-192243152D02*
X43355827Y-192290771D01*
X43355827Y-192290771D02*
X43403446Y-192386009D01*
X43403446Y-192386009D02*
X43403446Y-192909819D01*
X43403446Y-192386009D02*
X43451065Y-192290771D01*
X43451065Y-192290771D02*
X43546303Y-192243152D01*
X43546303Y-192243152D02*
X43689160Y-192243152D01*
X43689160Y-192243152D02*
X43784399Y-192290771D01*
X43784399Y-192290771D02*
X43832018Y-192386009D01*
X43832018Y-192386009D02*
X43832018Y-192909819D01*
X44308208Y-192909819D02*
X44308208Y-191909819D01*
X44403446Y-192528866D02*
X44689160Y-192909819D01*
X44689160Y-192243152D02*
X44308208Y-192624104D01*
X45546303Y-192243152D02*
X45546303Y-192909819D01*
X45308208Y-191862200D02*
X45070113Y-192576485D01*
X45070113Y-192576485D02*
X45689160Y-192576485D01*
X46451065Y-192862200D02*
X46355827Y-192909819D01*
X46355827Y-192909819D02*
X46165351Y-192909819D01*
X46165351Y-192909819D02*
X46070113Y-192862200D01*
X46070113Y-192862200D02*
X46022494Y-192766961D01*
X46022494Y-192766961D02*
X46022494Y-192386009D01*
X46022494Y-192386009D02*
X46070113Y-192290771D01*
X46070113Y-192290771D02*
X46165351Y-192243152D01*
X46165351Y-192243152D02*
X46355827Y-192243152D01*
X46355827Y-192243152D02*
X46451065Y-192290771D01*
X46451065Y-192290771D02*
X46498684Y-192386009D01*
X46498684Y-192386009D02*
X46498684Y-192481247D01*
X46498684Y-192481247D02*
X46022494Y-192576485D01*
X48714819Y-91606666D02*
X48238628Y-91939999D01*
X48714819Y-92178094D02*
X47714819Y-92178094D01*
X47714819Y-92178094D02*
X47714819Y-91797142D01*
X47714819Y-91797142D02*
X47762438Y-91701904D01*
X47762438Y-91701904D02*
X47810057Y-91654285D01*
X47810057Y-91654285D02*
X47905295Y-91606666D01*
X47905295Y-91606666D02*
X48048152Y-91606666D01*
X48048152Y-91606666D02*
X48143390Y-91654285D01*
X48143390Y-91654285D02*
X48191009Y-91701904D01*
X48191009Y-91701904D02*
X48238628Y-91797142D01*
X48238628Y-91797142D02*
X48238628Y-92178094D01*
X47810057Y-91225713D02*
X47762438Y-91178094D01*
X47762438Y-91178094D02*
X47714819Y-91082856D01*
X47714819Y-91082856D02*
X47714819Y-90844761D01*
X47714819Y-90844761D02*
X47762438Y-90749523D01*
X47762438Y-90749523D02*
X47810057Y-90701904D01*
X47810057Y-90701904D02*
X47905295Y-90654285D01*
X47905295Y-90654285D02*
X48000533Y-90654285D01*
X48000533Y-90654285D02*
X48143390Y-90701904D01*
X48143390Y-90701904D02*
X48714819Y-91273332D01*
X48714819Y-91273332D02*
X48714819Y-90654285D01*
X46778152Y-95416190D02*
X47444819Y-95416190D01*
X46397200Y-95654285D02*
X47111485Y-95892380D01*
X47111485Y-95892380D02*
X47111485Y-95273333D01*
X46444819Y-94463809D02*
X46444819Y-94654285D01*
X46444819Y-94654285D02*
X46492438Y-94749523D01*
X46492438Y-94749523D02*
X46540057Y-94797142D01*
X46540057Y-94797142D02*
X46682914Y-94892380D01*
X46682914Y-94892380D02*
X46873390Y-94939999D01*
X46873390Y-94939999D02*
X47254342Y-94939999D01*
X47254342Y-94939999D02*
X47349580Y-94892380D01*
X47349580Y-94892380D02*
X47397200Y-94844761D01*
X47397200Y-94844761D02*
X47444819Y-94749523D01*
X47444819Y-94749523D02*
X47444819Y-94559047D01*
X47444819Y-94559047D02*
X47397200Y-94463809D01*
X47397200Y-94463809D02*
X47349580Y-94416190D01*
X47349580Y-94416190D02*
X47254342Y-94368571D01*
X47254342Y-94368571D02*
X47016247Y-94368571D01*
X47016247Y-94368571D02*
X46921009Y-94416190D01*
X46921009Y-94416190D02*
X46873390Y-94463809D01*
X46873390Y-94463809D02*
X46825771Y-94559047D01*
X46825771Y-94559047D02*
X46825771Y-94749523D01*
X46825771Y-94749523D02*
X46873390Y-94844761D01*
X46873390Y-94844761D02*
X46921009Y-94892380D01*
X46921009Y-94892380D02*
X47016247Y-94939999D01*
X46444819Y-93749523D02*
X46444819Y-93654285D01*
X46444819Y-93654285D02*
X46492438Y-93559047D01*
X46492438Y-93559047D02*
X46540057Y-93511428D01*
X46540057Y-93511428D02*
X46635295Y-93463809D01*
X46635295Y-93463809D02*
X46825771Y-93416190D01*
X46825771Y-93416190D02*
X47063866Y-93416190D01*
X47063866Y-93416190D02*
X47254342Y-93463809D01*
X47254342Y-93463809D02*
X47349580Y-93511428D01*
X47349580Y-93511428D02*
X47397200Y-93559047D01*
X47397200Y-93559047D02*
X47444819Y-93654285D01*
X47444819Y-93654285D02*
X47444819Y-93749523D01*
X47444819Y-93749523D02*
X47397200Y-93844761D01*
X47397200Y-93844761D02*
X47349580Y-93892380D01*
X47349580Y-93892380D02*
X47254342Y-93939999D01*
X47254342Y-93939999D02*
X47063866Y-93987618D01*
X47063866Y-93987618D02*
X46825771Y-93987618D01*
X46825771Y-93987618D02*
X46635295Y-93939999D01*
X46635295Y-93939999D02*
X46540057Y-93892380D01*
X46540057Y-93892380D02*
X46492438Y-93844761D01*
X46492438Y-93844761D02*
X46444819Y-93749523D01*
X46444819Y-92797142D02*
X46444819Y-92701904D01*
X46444819Y-92701904D02*
X46492438Y-92606666D01*
X46492438Y-92606666D02*
X46540057Y-92559047D01*
X46540057Y-92559047D02*
X46635295Y-92511428D01*
X46635295Y-92511428D02*
X46825771Y-92463809D01*
X46825771Y-92463809D02*
X47063866Y-92463809D01*
X47063866Y-92463809D02*
X47254342Y-92511428D01*
X47254342Y-92511428D02*
X47349580Y-92559047D01*
X47349580Y-92559047D02*
X47397200Y-92606666D01*
X47397200Y-92606666D02*
X47444819Y-92701904D01*
X47444819Y-92701904D02*
X47444819Y-92797142D01*
X47444819Y-92797142D02*
X47397200Y-92892380D01*
X47397200Y-92892380D02*
X47349580Y-92939999D01*
X47349580Y-92939999D02*
X47254342Y-92987618D01*
X47254342Y-92987618D02*
X47063866Y-93035237D01*
X47063866Y-93035237D02*
X46825771Y-93035237D01*
X46825771Y-93035237D02*
X46635295Y-92987618D01*
X46635295Y-92987618D02*
X46540057Y-92939999D01*
X46540057Y-92939999D02*
X46492438Y-92892380D01*
X46492438Y-92892380D02*
X46444819Y-92797142D01*
X46397200Y-90559047D02*
X47682914Y-91416189D01*
X46778152Y-89035237D02*
X47444819Y-89035237D01*
X46397200Y-89273332D02*
X47111485Y-89511427D01*
X47111485Y-89511427D02*
X47111485Y-88892380D01*
X47444819Y-88511427D02*
X46444819Y-88511427D01*
X47444819Y-87939999D02*
X46873390Y-88368570D01*
X46444819Y-87939999D02*
X47016247Y-88511427D01*
X46444819Y-87606665D02*
X46444819Y-86939999D01*
X46444819Y-86939999D02*
X47444819Y-87368570D01*
X28347200Y-90931428D02*
X28394819Y-90788571D01*
X28394819Y-90788571D02*
X28394819Y-90550476D01*
X28394819Y-90550476D02*
X28347200Y-90455238D01*
X28347200Y-90455238D02*
X28299580Y-90407619D01*
X28299580Y-90407619D02*
X28204342Y-90360000D01*
X28204342Y-90360000D02*
X28109104Y-90360000D01*
X28109104Y-90360000D02*
X28013866Y-90407619D01*
X28013866Y-90407619D02*
X27966247Y-90455238D01*
X27966247Y-90455238D02*
X27918628Y-90550476D01*
X27918628Y-90550476D02*
X27871009Y-90740952D01*
X27871009Y-90740952D02*
X27823390Y-90836190D01*
X27823390Y-90836190D02*
X27775771Y-90883809D01*
X27775771Y-90883809D02*
X27680533Y-90931428D01*
X27680533Y-90931428D02*
X27585295Y-90931428D01*
X27585295Y-90931428D02*
X27490057Y-90883809D01*
X27490057Y-90883809D02*
X27442438Y-90836190D01*
X27442438Y-90836190D02*
X27394819Y-90740952D01*
X27394819Y-90740952D02*
X27394819Y-90502857D01*
X27394819Y-90502857D02*
X27442438Y-90360000D01*
X27871009Y-89931428D02*
X27871009Y-89598095D01*
X28394819Y-89455238D02*
X28394819Y-89931428D01*
X28394819Y-89931428D02*
X27394819Y-89931428D01*
X27394819Y-89931428D02*
X27394819Y-89455238D01*
X28394819Y-89026666D02*
X27394819Y-89026666D01*
X27394819Y-89026666D02*
X28394819Y-88455238D01*
X28394819Y-88455238D02*
X27394819Y-88455238D01*
X28347200Y-88026666D02*
X28394819Y-87883809D01*
X28394819Y-87883809D02*
X28394819Y-87645714D01*
X28394819Y-87645714D02*
X28347200Y-87550476D01*
X28347200Y-87550476D02*
X28299580Y-87502857D01*
X28299580Y-87502857D02*
X28204342Y-87455238D01*
X28204342Y-87455238D02*
X28109104Y-87455238D01*
X28109104Y-87455238D02*
X28013866Y-87502857D01*
X28013866Y-87502857D02*
X27966247Y-87550476D01*
X27966247Y-87550476D02*
X27918628Y-87645714D01*
X27918628Y-87645714D02*
X27871009Y-87836190D01*
X27871009Y-87836190D02*
X27823390Y-87931428D01*
X27823390Y-87931428D02*
X27775771Y-87979047D01*
X27775771Y-87979047D02*
X27680533Y-88026666D01*
X27680533Y-88026666D02*
X27585295Y-88026666D01*
X27585295Y-88026666D02*
X27490057Y-87979047D01*
X27490057Y-87979047D02*
X27442438Y-87931428D01*
X27442438Y-87931428D02*
X27394819Y-87836190D01*
X27394819Y-87836190D02*
X27394819Y-87598095D01*
X27394819Y-87598095D02*
X27442438Y-87455238D01*
X27394819Y-86836190D02*
X27394819Y-86645714D01*
X27394819Y-86645714D02*
X27442438Y-86550476D01*
X27442438Y-86550476D02*
X27537676Y-86455238D01*
X27537676Y-86455238D02*
X27728152Y-86407619D01*
X27728152Y-86407619D02*
X28061485Y-86407619D01*
X28061485Y-86407619D02*
X28251961Y-86455238D01*
X28251961Y-86455238D02*
X28347200Y-86550476D01*
X28347200Y-86550476D02*
X28394819Y-86645714D01*
X28394819Y-86645714D02*
X28394819Y-86836190D01*
X28394819Y-86836190D02*
X28347200Y-86931428D01*
X28347200Y-86931428D02*
X28251961Y-87026666D01*
X28251961Y-87026666D02*
X28061485Y-87074285D01*
X28061485Y-87074285D02*
X27728152Y-87074285D01*
X27728152Y-87074285D02*
X27537676Y-87026666D01*
X27537676Y-87026666D02*
X27442438Y-86931428D01*
X27442438Y-86931428D02*
X27394819Y-86836190D01*
X28299580Y-85407619D02*
X28347200Y-85455238D01*
X28347200Y-85455238D02*
X28394819Y-85598095D01*
X28394819Y-85598095D02*
X28394819Y-85693333D01*
X28394819Y-85693333D02*
X28347200Y-85836190D01*
X28347200Y-85836190D02*
X28251961Y-85931428D01*
X28251961Y-85931428D02*
X28156723Y-85979047D01*
X28156723Y-85979047D02*
X27966247Y-86026666D01*
X27966247Y-86026666D02*
X27823390Y-86026666D01*
X27823390Y-86026666D02*
X27632914Y-85979047D01*
X27632914Y-85979047D02*
X27537676Y-85931428D01*
X27537676Y-85931428D02*
X27442438Y-85836190D01*
X27442438Y-85836190D02*
X27394819Y-85693333D01*
X27394819Y-85693333D02*
X27394819Y-85598095D01*
X27394819Y-85598095D02*
X27442438Y-85455238D01*
X27442438Y-85455238D02*
X27490057Y-85407619D01*
X28394819Y-84979047D02*
X27394819Y-84979047D01*
X28394819Y-84407619D02*
X27823390Y-84836190D01*
X27394819Y-84407619D02*
X27966247Y-84979047D01*
X27871009Y-83979047D02*
X27871009Y-83645714D01*
X28394819Y-83502857D02*
X28394819Y-83979047D01*
X28394819Y-83979047D02*
X27394819Y-83979047D01*
X27394819Y-83979047D02*
X27394819Y-83502857D01*
X27394819Y-83217142D02*
X27394819Y-82645714D01*
X28394819Y-82931428D02*
X27394819Y-82931428D01*
X28394819Y-81788571D02*
X28394819Y-82359999D01*
X28394819Y-82074285D02*
X27394819Y-82074285D01*
X27394819Y-82074285D02*
X27537676Y-82169523D01*
X27537676Y-82169523D02*
X27632914Y-82264761D01*
X27632914Y-82264761D02*
X27680533Y-82359999D01*
X44381009Y-156543333D02*
X44381009Y-156876666D01*
X44904819Y-156876666D02*
X43904819Y-156876666D01*
X43904819Y-156876666D02*
X43904819Y-156400476D01*
X44904819Y-155495714D02*
X44904819Y-156067142D01*
X44904819Y-155781428D02*
X43904819Y-155781428D01*
X43904819Y-155781428D02*
X44047676Y-155876666D01*
X44047676Y-155876666D02*
X44142914Y-155971904D01*
X44142914Y-155971904D02*
X44190533Y-156067142D01*
X47545714Y-157030057D02*
X47593333Y-156982438D01*
X47593333Y-156982438D02*
X47688571Y-156934819D01*
X47688571Y-156934819D02*
X47926666Y-156934819D01*
X47926666Y-156934819D02*
X48021904Y-156982438D01*
X48021904Y-156982438D02*
X48069523Y-157030057D01*
X48069523Y-157030057D02*
X48117142Y-157125295D01*
X48117142Y-157125295D02*
X48117142Y-157220533D01*
X48117142Y-157220533D02*
X48069523Y-157363390D01*
X48069523Y-157363390D02*
X47498095Y-157934819D01*
X47498095Y-157934819D02*
X48117142Y-157934819D01*
X48498095Y-157649104D02*
X48974285Y-157649104D01*
X48402857Y-157934819D02*
X48736190Y-156934819D01*
X48736190Y-156934819D02*
X49069523Y-157934819D01*
D11*
X25857419Y-163186666D02*
X24857419Y-163186666D01*
X24857419Y-163186666D02*
X25571704Y-162853333D01*
X25571704Y-162853333D02*
X24857419Y-162520000D01*
X24857419Y-162520000D02*
X25857419Y-162520000D01*
X24857419Y-161853333D02*
X24857419Y-161662857D01*
X24857419Y-161662857D02*
X24905038Y-161567619D01*
X24905038Y-161567619D02*
X25000276Y-161472381D01*
X25000276Y-161472381D02*
X25190752Y-161424762D01*
X25190752Y-161424762D02*
X25524085Y-161424762D01*
X25524085Y-161424762D02*
X25714561Y-161472381D01*
X25714561Y-161472381D02*
X25809800Y-161567619D01*
X25809800Y-161567619D02*
X25857419Y-161662857D01*
X25857419Y-161662857D02*
X25857419Y-161853333D01*
X25857419Y-161853333D02*
X25809800Y-161948571D01*
X25809800Y-161948571D02*
X25714561Y-162043809D01*
X25714561Y-162043809D02*
X25524085Y-162091428D01*
X25524085Y-162091428D02*
X25190752Y-162091428D01*
X25190752Y-162091428D02*
X25000276Y-162043809D01*
X25000276Y-162043809D02*
X24905038Y-161948571D01*
X24905038Y-161948571D02*
X24857419Y-161853333D01*
X25809800Y-161043809D02*
X25857419Y-160900952D01*
X25857419Y-160900952D02*
X25857419Y-160662857D01*
X25857419Y-160662857D02*
X25809800Y-160567619D01*
X25809800Y-160567619D02*
X25762180Y-160520000D01*
X25762180Y-160520000D02*
X25666942Y-160472381D01*
X25666942Y-160472381D02*
X25571704Y-160472381D01*
X25571704Y-160472381D02*
X25476466Y-160520000D01*
X25476466Y-160520000D02*
X25428847Y-160567619D01*
X25428847Y-160567619D02*
X25381228Y-160662857D01*
X25381228Y-160662857D02*
X25333609Y-160853333D01*
X25333609Y-160853333D02*
X25285990Y-160948571D01*
X25285990Y-160948571D02*
X25238371Y-160996190D01*
X25238371Y-160996190D02*
X25143133Y-161043809D01*
X25143133Y-161043809D02*
X25047895Y-161043809D01*
X25047895Y-161043809D02*
X24952657Y-160996190D01*
X24952657Y-160996190D02*
X24905038Y-160948571D01*
X24905038Y-160948571D02*
X24857419Y-160853333D01*
X24857419Y-160853333D02*
X24857419Y-160615238D01*
X24857419Y-160615238D02*
X24905038Y-160472381D01*
X25857419Y-159567619D02*
X25857419Y-160043809D01*
X25857419Y-160043809D02*
X24857419Y-160043809D01*
X25333609Y-159234285D02*
X25333609Y-158900952D01*
X25857419Y-158758095D02*
X25857419Y-159234285D01*
X25857419Y-159234285D02*
X24857419Y-159234285D01*
X24857419Y-159234285D02*
X24857419Y-158758095D01*
X25857419Y-158329523D02*
X24857419Y-158329523D01*
X24857419Y-158329523D02*
X24857419Y-158091428D01*
X24857419Y-158091428D02*
X24905038Y-157948571D01*
X24905038Y-157948571D02*
X25000276Y-157853333D01*
X25000276Y-157853333D02*
X25095514Y-157805714D01*
X25095514Y-157805714D02*
X25285990Y-157758095D01*
X25285990Y-157758095D02*
X25428847Y-157758095D01*
X25428847Y-157758095D02*
X25619323Y-157805714D01*
X25619323Y-157805714D02*
X25714561Y-157853333D01*
X25714561Y-157853333D02*
X25809800Y-157948571D01*
X25809800Y-157948571D02*
X25857419Y-158091428D01*
X25857419Y-158091428D02*
X25857419Y-158329523D01*
X25857419Y-156805714D02*
X25857419Y-157377142D01*
X25857419Y-157091428D02*
X24857419Y-157091428D01*
X24857419Y-157091428D02*
X25000276Y-157186666D01*
X25000276Y-157186666D02*
X25095514Y-157281904D01*
X25095514Y-157281904D02*
X25143133Y-157377142D01*
D10*
X29664819Y-164726666D02*
X28664819Y-164726666D01*
X28664819Y-164726666D02*
X28664819Y-164488571D01*
X28664819Y-164488571D02*
X28712438Y-164345714D01*
X28712438Y-164345714D02*
X28807676Y-164250476D01*
X28807676Y-164250476D02*
X28902914Y-164202857D01*
X28902914Y-164202857D02*
X29093390Y-164155238D01*
X29093390Y-164155238D02*
X29236247Y-164155238D01*
X29236247Y-164155238D02*
X29426723Y-164202857D01*
X29426723Y-164202857D02*
X29521961Y-164250476D01*
X29521961Y-164250476D02*
X29617200Y-164345714D01*
X29617200Y-164345714D02*
X29664819Y-164488571D01*
X29664819Y-164488571D02*
X29664819Y-164726666D01*
X28998152Y-163298095D02*
X29664819Y-163298095D01*
X28617200Y-163536190D02*
X29331485Y-163774285D01*
X29331485Y-163774285D02*
X29331485Y-163155238D01*
X29664819Y-162250476D02*
X29664819Y-162821904D01*
X29664819Y-162536190D02*
X28664819Y-162536190D01*
X28664819Y-162536190D02*
X28807676Y-162631428D01*
X28807676Y-162631428D02*
X28902914Y-162726666D01*
X28902914Y-162726666D02*
X28950533Y-162821904D01*
X29093390Y-161679047D02*
X29045771Y-161774285D01*
X29045771Y-161774285D02*
X28998152Y-161821904D01*
X28998152Y-161821904D02*
X28902914Y-161869523D01*
X28902914Y-161869523D02*
X28855295Y-161869523D01*
X28855295Y-161869523D02*
X28760057Y-161821904D01*
X28760057Y-161821904D02*
X28712438Y-161774285D01*
X28712438Y-161774285D02*
X28664819Y-161679047D01*
X28664819Y-161679047D02*
X28664819Y-161488571D01*
X28664819Y-161488571D02*
X28712438Y-161393333D01*
X28712438Y-161393333D02*
X28760057Y-161345714D01*
X28760057Y-161345714D02*
X28855295Y-161298095D01*
X28855295Y-161298095D02*
X28902914Y-161298095D01*
X28902914Y-161298095D02*
X28998152Y-161345714D01*
X28998152Y-161345714D02*
X29045771Y-161393333D01*
X29045771Y-161393333D02*
X29093390Y-161488571D01*
X29093390Y-161488571D02*
X29093390Y-161679047D01*
X29093390Y-161679047D02*
X29141009Y-161774285D01*
X29141009Y-161774285D02*
X29188628Y-161821904D01*
X29188628Y-161821904D02*
X29283866Y-161869523D01*
X29283866Y-161869523D02*
X29474342Y-161869523D01*
X29474342Y-161869523D02*
X29569580Y-161821904D01*
X29569580Y-161821904D02*
X29617200Y-161774285D01*
X29617200Y-161774285D02*
X29664819Y-161679047D01*
X29664819Y-161679047D02*
X29664819Y-161488571D01*
X29664819Y-161488571D02*
X29617200Y-161393333D01*
X29617200Y-161393333D02*
X29569580Y-161345714D01*
X29569580Y-161345714D02*
X29474342Y-161298095D01*
X29474342Y-161298095D02*
X29283866Y-161298095D01*
X29283866Y-161298095D02*
X29188628Y-161345714D01*
X29188628Y-161345714D02*
X29141009Y-161393333D01*
X29141009Y-161393333D02*
X29093390Y-161488571D01*
X28998152Y-160440952D02*
X29664819Y-160440952D01*
X28617200Y-160679047D02*
X29331485Y-160917142D01*
X29331485Y-160917142D02*
X29331485Y-160298095D01*
D11*
X34747419Y-159275789D02*
X34747419Y-159751979D01*
X34747419Y-159751979D02*
X33747419Y-159751979D01*
X33747419Y-158751979D02*
X33747419Y-158561503D01*
X33747419Y-158561503D02*
X33795038Y-158466265D01*
X33795038Y-158466265D02*
X33890276Y-158371027D01*
X33890276Y-158371027D02*
X34080752Y-158323408D01*
X34080752Y-158323408D02*
X34414085Y-158323408D01*
X34414085Y-158323408D02*
X34604561Y-158371027D01*
X34604561Y-158371027D02*
X34699800Y-158466265D01*
X34699800Y-158466265D02*
X34747419Y-158561503D01*
X34747419Y-158561503D02*
X34747419Y-158751979D01*
X34747419Y-158751979D02*
X34699800Y-158847217D01*
X34699800Y-158847217D02*
X34604561Y-158942455D01*
X34604561Y-158942455D02*
X34414085Y-158990074D01*
X34414085Y-158990074D02*
X34080752Y-158990074D01*
X34080752Y-158990074D02*
X33890276Y-158942455D01*
X33890276Y-158942455D02*
X33795038Y-158847217D01*
X33795038Y-158847217D02*
X33747419Y-158751979D01*
X34461704Y-157942455D02*
X34461704Y-157466265D01*
X34747419Y-158037693D02*
X33747419Y-157704360D01*
X33747419Y-157704360D02*
X34747419Y-157371027D01*
X34747419Y-157037693D02*
X33747419Y-157037693D01*
X33747419Y-157037693D02*
X33747419Y-156799598D01*
X33747419Y-156799598D02*
X33795038Y-156656741D01*
X33795038Y-156656741D02*
X33890276Y-156561503D01*
X33890276Y-156561503D02*
X33985514Y-156513884D01*
X33985514Y-156513884D02*
X34175990Y-156466265D01*
X34175990Y-156466265D02*
X34318847Y-156466265D01*
X34318847Y-156466265D02*
X34509323Y-156513884D01*
X34509323Y-156513884D02*
X34604561Y-156561503D01*
X34604561Y-156561503D02*
X34699800Y-156656741D01*
X34699800Y-156656741D02*
X34747419Y-156799598D01*
X34747419Y-156799598D02*
X34747419Y-157037693D01*
X38176466Y-157275788D02*
X38176466Y-156513884D01*
X38557419Y-156894836D02*
X37795514Y-156894836D01*
X37287419Y-172416115D02*
X36287419Y-172416115D01*
X36287419Y-172416115D02*
X36287419Y-172035163D01*
X36287419Y-172035163D02*
X36335038Y-171939925D01*
X36335038Y-171939925D02*
X36382657Y-171892306D01*
X36382657Y-171892306D02*
X36477895Y-171844687D01*
X36477895Y-171844687D02*
X36620752Y-171844687D01*
X36620752Y-171844687D02*
X36715990Y-171892306D01*
X36715990Y-171892306D02*
X36763609Y-171939925D01*
X36763609Y-171939925D02*
X36811228Y-172035163D01*
X36811228Y-172035163D02*
X36811228Y-172416115D01*
X36287419Y-171511353D02*
X37287419Y-171273258D01*
X37287419Y-171273258D02*
X36573133Y-171082782D01*
X36573133Y-171082782D02*
X37287419Y-170892306D01*
X37287419Y-170892306D02*
X36287419Y-170654211D01*
X37287419Y-170273258D02*
X36287419Y-170273258D01*
X36287419Y-170273258D02*
X37001704Y-169939925D01*
X37001704Y-169939925D02*
X36287419Y-169606592D01*
X36287419Y-169606592D02*
X37287419Y-169606592D01*
X30556466Y-157275788D02*
X30556466Y-156513884D01*
X32525038Y-171892306D02*
X32477419Y-171987544D01*
X32477419Y-171987544D02*
X32477419Y-172130401D01*
X32477419Y-172130401D02*
X32525038Y-172273258D01*
X32525038Y-172273258D02*
X32620276Y-172368496D01*
X32620276Y-172368496D02*
X32715514Y-172416115D01*
X32715514Y-172416115D02*
X32905990Y-172463734D01*
X32905990Y-172463734D02*
X33048847Y-172463734D01*
X33048847Y-172463734D02*
X33239323Y-172416115D01*
X33239323Y-172416115D02*
X33334561Y-172368496D01*
X33334561Y-172368496D02*
X33429800Y-172273258D01*
X33429800Y-172273258D02*
X33477419Y-172130401D01*
X33477419Y-172130401D02*
X33477419Y-172035163D01*
X33477419Y-172035163D02*
X33429800Y-171892306D01*
X33429800Y-171892306D02*
X33382180Y-171844687D01*
X33382180Y-171844687D02*
X33048847Y-171844687D01*
X33048847Y-171844687D02*
X33048847Y-172035163D01*
X33477419Y-171416115D02*
X32477419Y-171416115D01*
X32477419Y-171416115D02*
X33477419Y-170844687D01*
X33477419Y-170844687D02*
X32477419Y-170844687D01*
X33477419Y-170368496D02*
X32477419Y-170368496D01*
X32477419Y-170368496D02*
X32477419Y-170130401D01*
X32477419Y-170130401D02*
X32525038Y-169987544D01*
X32525038Y-169987544D02*
X32620276Y-169892306D01*
X32620276Y-169892306D02*
X32715514Y-169844687D01*
X32715514Y-169844687D02*
X32905990Y-169797068D01*
X32905990Y-169797068D02*
X33048847Y-169797068D01*
X33048847Y-169797068D02*
X33239323Y-169844687D01*
X33239323Y-169844687D02*
X33334561Y-169892306D01*
X33334561Y-169892306D02*
X33429800Y-169987544D01*
X33429800Y-169987544D02*
X33477419Y-170130401D01*
X33477419Y-170130401D02*
X33477419Y-170368496D01*
D10*
X47926666Y-184239819D02*
X47926666Y-184954104D01*
X47926666Y-184954104D02*
X47879047Y-185096961D01*
X47879047Y-185096961D02*
X47783809Y-185192200D01*
X47783809Y-185192200D02*
X47640952Y-185239819D01*
X47640952Y-185239819D02*
X47545714Y-185239819D01*
X48926666Y-185239819D02*
X48355238Y-185239819D01*
X48640952Y-185239819D02*
X48640952Y-184239819D01*
X48640952Y-184239819D02*
X48545714Y-184382676D01*
X48545714Y-184382676D02*
X48450476Y-184477914D01*
X48450476Y-184477914D02*
X48355238Y-184525533D01*
X42691009Y-185198096D02*
X42738628Y-185055239D01*
X42738628Y-185055239D02*
X42786247Y-185007620D01*
X42786247Y-185007620D02*
X42881485Y-184960001D01*
X42881485Y-184960001D02*
X43024342Y-184960001D01*
X43024342Y-184960001D02*
X43119580Y-185007620D01*
X43119580Y-185007620D02*
X43167200Y-185055239D01*
X43167200Y-185055239D02*
X43214819Y-185150477D01*
X43214819Y-185150477D02*
X43214819Y-185531429D01*
X43214819Y-185531429D02*
X42214819Y-185531429D01*
X42214819Y-185531429D02*
X42214819Y-185198096D01*
X42214819Y-185198096D02*
X42262438Y-185102858D01*
X42262438Y-185102858D02*
X42310057Y-185055239D01*
X42310057Y-185055239D02*
X42405295Y-185007620D01*
X42405295Y-185007620D02*
X42500533Y-185007620D01*
X42500533Y-185007620D02*
X42595771Y-185055239D01*
X42595771Y-185055239D02*
X42643390Y-185102858D01*
X42643390Y-185102858D02*
X42691009Y-185198096D01*
X42691009Y-185198096D02*
X42691009Y-185531429D01*
X43214819Y-184102858D02*
X42691009Y-184102858D01*
X42691009Y-184102858D02*
X42595771Y-184150477D01*
X42595771Y-184150477D02*
X42548152Y-184245715D01*
X42548152Y-184245715D02*
X42548152Y-184436191D01*
X42548152Y-184436191D02*
X42595771Y-184531429D01*
X43167200Y-184102858D02*
X43214819Y-184198096D01*
X43214819Y-184198096D02*
X43214819Y-184436191D01*
X43214819Y-184436191D02*
X43167200Y-184531429D01*
X43167200Y-184531429D02*
X43071961Y-184579048D01*
X43071961Y-184579048D02*
X42976723Y-184579048D01*
X42976723Y-184579048D02*
X42881485Y-184531429D01*
X42881485Y-184531429D02*
X42833866Y-184436191D01*
X42833866Y-184436191D02*
X42833866Y-184198096D01*
X42833866Y-184198096D02*
X42786247Y-184102858D01*
X43214819Y-183626667D02*
X42548152Y-183626667D01*
X42738628Y-183626667D02*
X42643390Y-183579048D01*
X42643390Y-183579048D02*
X42595771Y-183531429D01*
X42595771Y-183531429D02*
X42548152Y-183436191D01*
X42548152Y-183436191D02*
X42548152Y-183340953D01*
X43214819Y-183007619D02*
X42548152Y-183007619D01*
X42738628Y-183007619D02*
X42643390Y-182960000D01*
X42643390Y-182960000D02*
X42595771Y-182912381D01*
X42595771Y-182912381D02*
X42548152Y-182817143D01*
X42548152Y-182817143D02*
X42548152Y-182721905D01*
X43167200Y-182007619D02*
X43214819Y-182102857D01*
X43214819Y-182102857D02*
X43214819Y-182293333D01*
X43214819Y-182293333D02*
X43167200Y-182388571D01*
X43167200Y-182388571D02*
X43071961Y-182436190D01*
X43071961Y-182436190D02*
X42691009Y-182436190D01*
X42691009Y-182436190D02*
X42595771Y-182388571D01*
X42595771Y-182388571D02*
X42548152Y-182293333D01*
X42548152Y-182293333D02*
X42548152Y-182102857D01*
X42548152Y-182102857D02*
X42595771Y-182007619D01*
X42595771Y-182007619D02*
X42691009Y-181960000D01*
X42691009Y-181960000D02*
X42786247Y-181960000D01*
X42786247Y-181960000D02*
X42881485Y-182436190D01*
X43214819Y-181388571D02*
X43167200Y-181483809D01*
X43167200Y-181483809D02*
X43071961Y-181531428D01*
X43071961Y-181531428D02*
X42214819Y-181531428D01*
X43310057Y-181245714D02*
X43310057Y-180483809D01*
X42214819Y-179959999D02*
X42929104Y-179959999D01*
X42929104Y-179959999D02*
X43071961Y-180007618D01*
X43071961Y-180007618D02*
X43167200Y-180102856D01*
X43167200Y-180102856D02*
X43214819Y-180245713D01*
X43214819Y-180245713D02*
X43214819Y-180340951D01*
X43214819Y-179055237D02*
X42691009Y-179055237D01*
X42691009Y-179055237D02*
X42595771Y-179102856D01*
X42595771Y-179102856D02*
X42548152Y-179198094D01*
X42548152Y-179198094D02*
X42548152Y-179388570D01*
X42548152Y-179388570D02*
X42595771Y-179483808D01*
X43167200Y-179055237D02*
X43214819Y-179150475D01*
X43214819Y-179150475D02*
X43214819Y-179388570D01*
X43214819Y-179388570D02*
X43167200Y-179483808D01*
X43167200Y-179483808D02*
X43071961Y-179531427D01*
X43071961Y-179531427D02*
X42976723Y-179531427D01*
X42976723Y-179531427D02*
X42881485Y-179483808D01*
X42881485Y-179483808D02*
X42833866Y-179388570D01*
X42833866Y-179388570D02*
X42833866Y-179150475D01*
X42833866Y-179150475D02*
X42786247Y-179055237D01*
X43167200Y-178150475D02*
X43214819Y-178245713D01*
X43214819Y-178245713D02*
X43214819Y-178436189D01*
X43214819Y-178436189D02*
X43167200Y-178531427D01*
X43167200Y-178531427D02*
X43119580Y-178579046D01*
X43119580Y-178579046D02*
X43024342Y-178626665D01*
X43024342Y-178626665D02*
X42738628Y-178626665D01*
X42738628Y-178626665D02*
X42643390Y-178579046D01*
X42643390Y-178579046D02*
X42595771Y-178531427D01*
X42595771Y-178531427D02*
X42548152Y-178436189D01*
X42548152Y-178436189D02*
X42548152Y-178245713D01*
X42548152Y-178245713D02*
X42595771Y-178150475D01*
X43214819Y-177721903D02*
X42214819Y-177721903D01*
X42833866Y-177626665D02*
X43214819Y-177340951D01*
X42548152Y-177340951D02*
X42929104Y-177721903D01*
X38031009Y-137469047D02*
X38031009Y-137802380D01*
X38554819Y-137802380D02*
X37554819Y-137802380D01*
X37554819Y-137802380D02*
X37554819Y-137326190D01*
X38269104Y-136992856D02*
X38269104Y-136516666D01*
X38554819Y-137088094D02*
X37554819Y-136754761D01*
X37554819Y-136754761D02*
X38554819Y-136421428D01*
X38554819Y-136088094D02*
X37554819Y-136088094D01*
X37554819Y-136088094D02*
X38554819Y-135516666D01*
X38554819Y-135516666D02*
X37554819Y-135516666D01*
X38507200Y-135088094D02*
X38554819Y-134945237D01*
X38554819Y-134945237D02*
X38554819Y-134707142D01*
X38554819Y-134707142D02*
X38507200Y-134611904D01*
X38507200Y-134611904D02*
X38459580Y-134564285D01*
X38459580Y-134564285D02*
X38364342Y-134516666D01*
X38364342Y-134516666D02*
X38269104Y-134516666D01*
X38269104Y-134516666D02*
X38173866Y-134564285D01*
X38173866Y-134564285D02*
X38126247Y-134611904D01*
X38126247Y-134611904D02*
X38078628Y-134707142D01*
X38078628Y-134707142D02*
X38031009Y-134897618D01*
X38031009Y-134897618D02*
X37983390Y-134992856D01*
X37983390Y-134992856D02*
X37935771Y-135040475D01*
X37935771Y-135040475D02*
X37840533Y-135088094D01*
X37840533Y-135088094D02*
X37745295Y-135088094D01*
X37745295Y-135088094D02*
X37650057Y-135040475D01*
X37650057Y-135040475D02*
X37602438Y-134992856D01*
X37602438Y-134992856D02*
X37554819Y-134897618D01*
X37554819Y-134897618D02*
X37554819Y-134659523D01*
X37554819Y-134659523D02*
X37602438Y-134516666D01*
X37554819Y-133897618D02*
X37554819Y-133707142D01*
X37554819Y-133707142D02*
X37602438Y-133611904D01*
X37602438Y-133611904D02*
X37697676Y-133516666D01*
X37697676Y-133516666D02*
X37888152Y-133469047D01*
X37888152Y-133469047D02*
X38221485Y-133469047D01*
X38221485Y-133469047D02*
X38411961Y-133516666D01*
X38411961Y-133516666D02*
X38507200Y-133611904D01*
X38507200Y-133611904D02*
X38554819Y-133707142D01*
X38554819Y-133707142D02*
X38554819Y-133897618D01*
X38554819Y-133897618D02*
X38507200Y-133992856D01*
X38507200Y-133992856D02*
X38411961Y-134088094D01*
X38411961Y-134088094D02*
X38221485Y-134135713D01*
X38221485Y-134135713D02*
X37888152Y-134135713D01*
X37888152Y-134135713D02*
X37697676Y-134088094D01*
X37697676Y-134088094D02*
X37602438Y-133992856D01*
X37602438Y-133992856D02*
X37554819Y-133897618D01*
X38459580Y-132469047D02*
X38507200Y-132516666D01*
X38507200Y-132516666D02*
X38554819Y-132659523D01*
X38554819Y-132659523D02*
X38554819Y-132754761D01*
X38554819Y-132754761D02*
X38507200Y-132897618D01*
X38507200Y-132897618D02*
X38411961Y-132992856D01*
X38411961Y-132992856D02*
X38316723Y-133040475D01*
X38316723Y-133040475D02*
X38126247Y-133088094D01*
X38126247Y-133088094D02*
X37983390Y-133088094D01*
X37983390Y-133088094D02*
X37792914Y-133040475D01*
X37792914Y-133040475D02*
X37697676Y-132992856D01*
X37697676Y-132992856D02*
X37602438Y-132897618D01*
X37602438Y-132897618D02*
X37554819Y-132754761D01*
X37554819Y-132754761D02*
X37554819Y-132659523D01*
X37554819Y-132659523D02*
X37602438Y-132516666D01*
X37602438Y-132516666D02*
X37650057Y-132469047D01*
X38554819Y-132040475D02*
X37554819Y-132040475D01*
X38554819Y-131469047D02*
X37983390Y-131897618D01*
X37554819Y-131469047D02*
X38126247Y-132040475D01*
X38031009Y-131040475D02*
X38031009Y-130707142D01*
X38554819Y-130564285D02*
X38554819Y-131040475D01*
X38554819Y-131040475D02*
X37554819Y-131040475D01*
X37554819Y-131040475D02*
X37554819Y-130564285D01*
X37554819Y-130278570D02*
X37554819Y-129707142D01*
X38554819Y-129992856D02*
X37554819Y-129992856D01*
X38554819Y-128849999D02*
X38554819Y-129421427D01*
X38554819Y-129135713D02*
X37554819Y-129135713D01*
X37554819Y-129135713D02*
X37697676Y-129230951D01*
X37697676Y-129230951D02*
X37792914Y-129326189D01*
X37792914Y-129326189D02*
X37840533Y-129421427D01*
X39878095Y-129947200D02*
X40020952Y-129994819D01*
X40020952Y-129994819D02*
X40259047Y-129994819D01*
X40259047Y-129994819D02*
X40354285Y-129947200D01*
X40354285Y-129947200D02*
X40401904Y-129899580D01*
X40401904Y-129899580D02*
X40449523Y-129804342D01*
X40449523Y-129804342D02*
X40449523Y-129709104D01*
X40449523Y-129709104D02*
X40401904Y-129613866D01*
X40401904Y-129613866D02*
X40354285Y-129566247D01*
X40354285Y-129566247D02*
X40259047Y-129518628D01*
X40259047Y-129518628D02*
X40068571Y-129471009D01*
X40068571Y-129471009D02*
X39973333Y-129423390D01*
X39973333Y-129423390D02*
X39925714Y-129375771D01*
X39925714Y-129375771D02*
X39878095Y-129280533D01*
X39878095Y-129280533D02*
X39878095Y-129185295D01*
X39878095Y-129185295D02*
X39925714Y-129090057D01*
X39925714Y-129090057D02*
X39973333Y-129042438D01*
X39973333Y-129042438D02*
X40068571Y-128994819D01*
X40068571Y-128994819D02*
X40306666Y-128994819D01*
X40306666Y-128994819D02*
X40449523Y-129042438D01*
X41401904Y-129994819D02*
X40830476Y-129994819D01*
X41116190Y-129994819D02*
X41116190Y-128994819D01*
X41116190Y-128994819D02*
X41020952Y-129137676D01*
X41020952Y-129137676D02*
X40925714Y-129232914D01*
X40925714Y-129232914D02*
X40830476Y-129280533D01*
X50538095Y-129994819D02*
X50538095Y-128994819D01*
X51109523Y-129994819D02*
X50680952Y-129423390D01*
X51109523Y-128994819D02*
X50538095Y-129566247D01*
X42307142Y-127454819D02*
X41735714Y-127454819D01*
X42021428Y-127454819D02*
X42021428Y-126454819D01*
X42021428Y-126454819D02*
X41926190Y-126597676D01*
X41926190Y-126597676D02*
X41830952Y-126692914D01*
X41830952Y-126692914D02*
X41735714Y-126740533D01*
X42735714Y-127454819D02*
X42735714Y-126454819D01*
X42735714Y-126454819D02*
X43307142Y-127454819D01*
X43307142Y-127454819D02*
X43307142Y-126454819D01*
X44259523Y-126454819D02*
X43783333Y-126454819D01*
X43783333Y-126454819D02*
X43735714Y-126931009D01*
X43735714Y-126931009D02*
X43783333Y-126883390D01*
X43783333Y-126883390D02*
X43878571Y-126835771D01*
X43878571Y-126835771D02*
X44116666Y-126835771D01*
X44116666Y-126835771D02*
X44211904Y-126883390D01*
X44211904Y-126883390D02*
X44259523Y-126931009D01*
X44259523Y-126931009D02*
X44307142Y-127026247D01*
X44307142Y-127026247D02*
X44307142Y-127264342D01*
X44307142Y-127264342D02*
X44259523Y-127359580D01*
X44259523Y-127359580D02*
X44211904Y-127407200D01*
X44211904Y-127407200D02*
X44116666Y-127454819D01*
X44116666Y-127454819D02*
X43878571Y-127454819D01*
X43878571Y-127454819D02*
X43783333Y-127407200D01*
X43783333Y-127407200D02*
X43735714Y-127359580D01*
X44878571Y-126883390D02*
X44783333Y-126835771D01*
X44783333Y-126835771D02*
X44735714Y-126788152D01*
X44735714Y-126788152D02*
X44688095Y-126692914D01*
X44688095Y-126692914D02*
X44688095Y-126645295D01*
X44688095Y-126645295D02*
X44735714Y-126550057D01*
X44735714Y-126550057D02*
X44783333Y-126502438D01*
X44783333Y-126502438D02*
X44878571Y-126454819D01*
X44878571Y-126454819D02*
X45069047Y-126454819D01*
X45069047Y-126454819D02*
X45164285Y-126502438D01*
X45164285Y-126502438D02*
X45211904Y-126550057D01*
X45211904Y-126550057D02*
X45259523Y-126645295D01*
X45259523Y-126645295D02*
X45259523Y-126692914D01*
X45259523Y-126692914D02*
X45211904Y-126788152D01*
X45211904Y-126788152D02*
X45164285Y-126835771D01*
X45164285Y-126835771D02*
X45069047Y-126883390D01*
X45069047Y-126883390D02*
X44878571Y-126883390D01*
X44878571Y-126883390D02*
X44783333Y-126931009D01*
X44783333Y-126931009D02*
X44735714Y-126978628D01*
X44735714Y-126978628D02*
X44688095Y-127073866D01*
X44688095Y-127073866D02*
X44688095Y-127264342D01*
X44688095Y-127264342D02*
X44735714Y-127359580D01*
X44735714Y-127359580D02*
X44783333Y-127407200D01*
X44783333Y-127407200D02*
X44878571Y-127454819D01*
X44878571Y-127454819D02*
X45069047Y-127454819D01*
X45069047Y-127454819D02*
X45164285Y-127407200D01*
X45164285Y-127407200D02*
X45211904Y-127359580D01*
X45211904Y-127359580D02*
X45259523Y-127264342D01*
X45259523Y-127264342D02*
X45259523Y-127073866D01*
X45259523Y-127073866D02*
X45211904Y-126978628D01*
X45211904Y-126978628D02*
X45164285Y-126931009D01*
X45164285Y-126931009D02*
X45069047Y-126883390D01*
X46211904Y-127454819D02*
X45640476Y-127454819D01*
X45926190Y-127454819D02*
X45926190Y-126454819D01*
X45926190Y-126454819D02*
X45830952Y-126597676D01*
X45830952Y-126597676D02*
X45735714Y-126692914D01*
X45735714Y-126692914D02*
X45640476Y-126740533D01*
X46688095Y-127454819D02*
X46878571Y-127454819D01*
X46878571Y-127454819D02*
X46973809Y-127407200D01*
X46973809Y-127407200D02*
X47021428Y-127359580D01*
X47021428Y-127359580D02*
X47116666Y-127216723D01*
X47116666Y-127216723D02*
X47164285Y-127026247D01*
X47164285Y-127026247D02*
X47164285Y-126645295D01*
X47164285Y-126645295D02*
X47116666Y-126550057D01*
X47116666Y-126550057D02*
X47069047Y-126502438D01*
X47069047Y-126502438D02*
X46973809Y-126454819D01*
X46973809Y-126454819D02*
X46783333Y-126454819D01*
X46783333Y-126454819D02*
X46688095Y-126502438D01*
X46688095Y-126502438D02*
X46640476Y-126550057D01*
X46640476Y-126550057D02*
X46592857Y-126645295D01*
X46592857Y-126645295D02*
X46592857Y-126883390D01*
X46592857Y-126883390D02*
X46640476Y-126978628D01*
X46640476Y-126978628D02*
X46688095Y-127026247D01*
X46688095Y-127026247D02*
X46783333Y-127073866D01*
X46783333Y-127073866D02*
X46973809Y-127073866D01*
X46973809Y-127073866D02*
X47069047Y-127026247D01*
X47069047Y-127026247D02*
X47116666Y-126978628D01*
X47116666Y-126978628D02*
X47164285Y-126883390D01*
X34123333Y-76654819D02*
X33790000Y-76178628D01*
X33551905Y-76654819D02*
X33551905Y-75654819D01*
X33551905Y-75654819D02*
X33932857Y-75654819D01*
X33932857Y-75654819D02*
X34028095Y-75702438D01*
X34028095Y-75702438D02*
X34075714Y-75750057D01*
X34075714Y-75750057D02*
X34123333Y-75845295D01*
X34123333Y-75845295D02*
X34123333Y-75988152D01*
X34123333Y-75988152D02*
X34075714Y-76083390D01*
X34075714Y-76083390D02*
X34028095Y-76131009D01*
X34028095Y-76131009D02*
X33932857Y-76178628D01*
X33932857Y-76178628D02*
X33551905Y-76178628D01*
X35075714Y-76654819D02*
X34504286Y-76654819D01*
X34790000Y-76654819D02*
X34790000Y-75654819D01*
X34790000Y-75654819D02*
X34694762Y-75797676D01*
X34694762Y-75797676D02*
X34599524Y-75892914D01*
X34599524Y-75892914D02*
X34504286Y-75940533D01*
X30361428Y-76924819D02*
X29885238Y-76924819D01*
X29885238Y-76924819D02*
X29837619Y-77401009D01*
X29837619Y-77401009D02*
X29885238Y-77353390D01*
X29885238Y-77353390D02*
X29980476Y-77305771D01*
X29980476Y-77305771D02*
X30218571Y-77305771D01*
X30218571Y-77305771D02*
X30313809Y-77353390D01*
X30313809Y-77353390D02*
X30361428Y-77401009D01*
X30361428Y-77401009D02*
X30409047Y-77496247D01*
X30409047Y-77496247D02*
X30409047Y-77734342D01*
X30409047Y-77734342D02*
X30361428Y-77829580D01*
X30361428Y-77829580D02*
X30313809Y-77877200D01*
X30313809Y-77877200D02*
X30218571Y-77924819D01*
X30218571Y-77924819D02*
X29980476Y-77924819D01*
X29980476Y-77924819D02*
X29885238Y-77877200D01*
X29885238Y-77877200D02*
X29837619Y-77829580D01*
X31028095Y-76924819D02*
X31123333Y-76924819D01*
X31123333Y-76924819D02*
X31218571Y-76972438D01*
X31218571Y-76972438D02*
X31266190Y-77020057D01*
X31266190Y-77020057D02*
X31313809Y-77115295D01*
X31313809Y-77115295D02*
X31361428Y-77305771D01*
X31361428Y-77305771D02*
X31361428Y-77543866D01*
X31361428Y-77543866D02*
X31313809Y-77734342D01*
X31313809Y-77734342D02*
X31266190Y-77829580D01*
X31266190Y-77829580D02*
X31218571Y-77877200D01*
X31218571Y-77877200D02*
X31123333Y-77924819D01*
X31123333Y-77924819D02*
X31028095Y-77924819D01*
X31028095Y-77924819D02*
X30932857Y-77877200D01*
X30932857Y-77877200D02*
X30885238Y-77829580D01*
X30885238Y-77829580D02*
X30837619Y-77734342D01*
X30837619Y-77734342D02*
X30790000Y-77543866D01*
X30790000Y-77543866D02*
X30790000Y-77305771D01*
X30790000Y-77305771D02*
X30837619Y-77115295D01*
X30837619Y-77115295D02*
X30885238Y-77020057D01*
X30885238Y-77020057D02*
X30932857Y-76972438D01*
X30932857Y-76972438D02*
X31028095Y-76924819D01*
X31980476Y-76924819D02*
X32075714Y-76924819D01*
X32075714Y-76924819D02*
X32170952Y-76972438D01*
X32170952Y-76972438D02*
X32218571Y-77020057D01*
X32218571Y-77020057D02*
X32266190Y-77115295D01*
X32266190Y-77115295D02*
X32313809Y-77305771D01*
X32313809Y-77305771D02*
X32313809Y-77543866D01*
X32313809Y-77543866D02*
X32266190Y-77734342D01*
X32266190Y-77734342D02*
X32218571Y-77829580D01*
X32218571Y-77829580D02*
X32170952Y-77877200D01*
X32170952Y-77877200D02*
X32075714Y-77924819D01*
X32075714Y-77924819D02*
X31980476Y-77924819D01*
X31980476Y-77924819D02*
X31885238Y-77877200D01*
X31885238Y-77877200D02*
X31837619Y-77829580D01*
X31837619Y-77829580D02*
X31790000Y-77734342D01*
X31790000Y-77734342D02*
X31742381Y-77543866D01*
X31742381Y-77543866D02*
X31742381Y-77305771D01*
X31742381Y-77305771D02*
X31790000Y-77115295D01*
X31790000Y-77115295D02*
X31837619Y-77020057D01*
X31837619Y-77020057D02*
X31885238Y-76972438D01*
X31885238Y-76972438D02*
X31980476Y-76924819D01*
X32932857Y-76924819D02*
X33028095Y-76924819D01*
X33028095Y-76924819D02*
X33123333Y-76972438D01*
X33123333Y-76972438D02*
X33170952Y-77020057D01*
X33170952Y-77020057D02*
X33218571Y-77115295D01*
X33218571Y-77115295D02*
X33266190Y-77305771D01*
X33266190Y-77305771D02*
X33266190Y-77543866D01*
X33266190Y-77543866D02*
X33218571Y-77734342D01*
X33218571Y-77734342D02*
X33170952Y-77829580D01*
X33170952Y-77829580D02*
X33123333Y-77877200D01*
X33123333Y-77877200D02*
X33028095Y-77924819D01*
X33028095Y-77924819D02*
X32932857Y-77924819D01*
X32932857Y-77924819D02*
X32837619Y-77877200D01*
X32837619Y-77877200D02*
X32790000Y-77829580D01*
X32790000Y-77829580D02*
X32742381Y-77734342D01*
X32742381Y-77734342D02*
X32694762Y-77543866D01*
X32694762Y-77543866D02*
X32694762Y-77305771D01*
X32694762Y-77305771D02*
X32742381Y-77115295D01*
X32742381Y-77115295D02*
X32790000Y-77020057D01*
X32790000Y-77020057D02*
X32837619Y-76972438D01*
X32837619Y-76972438D02*
X32932857Y-76924819D01*
X35170952Y-76877200D02*
X34313810Y-78162914D01*
X36742381Y-76924819D02*
X36266191Y-76924819D01*
X36266191Y-76924819D02*
X36218572Y-77401009D01*
X36218572Y-77401009D02*
X36266191Y-77353390D01*
X36266191Y-77353390D02*
X36361429Y-77305771D01*
X36361429Y-77305771D02*
X36599524Y-77305771D01*
X36599524Y-77305771D02*
X36694762Y-77353390D01*
X36694762Y-77353390D02*
X36742381Y-77401009D01*
X36742381Y-77401009D02*
X36790000Y-77496247D01*
X36790000Y-77496247D02*
X36790000Y-77734342D01*
X36790000Y-77734342D02*
X36742381Y-77829580D01*
X36742381Y-77829580D02*
X36694762Y-77877200D01*
X36694762Y-77877200D02*
X36599524Y-77924819D01*
X36599524Y-77924819D02*
X36361429Y-77924819D01*
X36361429Y-77924819D02*
X36266191Y-77877200D01*
X36266191Y-77877200D02*
X36218572Y-77829580D01*
X37218572Y-77924819D02*
X37218572Y-76924819D01*
X37790000Y-77924819D02*
X37361429Y-77353390D01*
X37790000Y-76924819D02*
X37218572Y-77496247D01*
X38742381Y-77924819D02*
X38170953Y-77924819D01*
X38456667Y-77924819D02*
X38456667Y-76924819D01*
X38456667Y-76924819D02*
X38361429Y-77067676D01*
X38361429Y-77067676D02*
X38266191Y-77162914D01*
X38266191Y-77162914D02*
X38170953Y-77210533D01*
X29519999Y-181969580D02*
X29472380Y-182017200D01*
X29472380Y-182017200D02*
X29329523Y-182064819D01*
X29329523Y-182064819D02*
X29234285Y-182064819D01*
X29234285Y-182064819D02*
X29091428Y-182017200D01*
X29091428Y-182017200D02*
X28996190Y-181921961D01*
X28996190Y-181921961D02*
X28948571Y-181826723D01*
X28948571Y-181826723D02*
X28900952Y-181636247D01*
X28900952Y-181636247D02*
X28900952Y-181493390D01*
X28900952Y-181493390D02*
X28948571Y-181302914D01*
X28948571Y-181302914D02*
X28996190Y-181207676D01*
X28996190Y-181207676D02*
X29091428Y-181112438D01*
X29091428Y-181112438D02*
X29234285Y-181064819D01*
X29234285Y-181064819D02*
X29329523Y-181064819D01*
X29329523Y-181064819D02*
X29472380Y-181112438D01*
X29472380Y-181112438D02*
X29519999Y-181160057D01*
X29948571Y-182064819D02*
X29948571Y-181064819D01*
X29948571Y-181064819D02*
X30329523Y-181064819D01*
X30329523Y-181064819D02*
X30424761Y-181112438D01*
X30424761Y-181112438D02*
X30472380Y-181160057D01*
X30472380Y-181160057D02*
X30519999Y-181255295D01*
X30519999Y-181255295D02*
X30519999Y-181398152D01*
X30519999Y-181398152D02*
X30472380Y-181493390D01*
X30472380Y-181493390D02*
X30424761Y-181541009D01*
X30424761Y-181541009D02*
X30329523Y-181588628D01*
X30329523Y-181588628D02*
X29948571Y-181588628D01*
X30900952Y-182017200D02*
X31043809Y-182064819D01*
X31043809Y-182064819D02*
X31281904Y-182064819D01*
X31281904Y-182064819D02*
X31377142Y-182017200D01*
X31377142Y-182017200D02*
X31424761Y-181969580D01*
X31424761Y-181969580D02*
X31472380Y-181874342D01*
X31472380Y-181874342D02*
X31472380Y-181779104D01*
X31472380Y-181779104D02*
X31424761Y-181683866D01*
X31424761Y-181683866D02*
X31377142Y-181636247D01*
X31377142Y-181636247D02*
X31281904Y-181588628D01*
X31281904Y-181588628D02*
X31091428Y-181541009D01*
X31091428Y-181541009D02*
X30996190Y-181493390D01*
X30996190Y-181493390D02*
X30948571Y-181445771D01*
X30948571Y-181445771D02*
X30900952Y-181350533D01*
X30900952Y-181350533D02*
X30900952Y-181255295D01*
X30900952Y-181255295D02*
X30948571Y-181160057D01*
X30948571Y-181160057D02*
X30996190Y-181112438D01*
X30996190Y-181112438D02*
X31091428Y-181064819D01*
X31091428Y-181064819D02*
X31329523Y-181064819D01*
X31329523Y-181064819D02*
X31472380Y-181112438D01*
X32091428Y-181064819D02*
X32281904Y-181064819D01*
X32281904Y-181064819D02*
X32377142Y-181112438D01*
X32377142Y-181112438D02*
X32472380Y-181207676D01*
X32472380Y-181207676D02*
X32519999Y-181398152D01*
X32519999Y-181398152D02*
X32519999Y-181731485D01*
X32519999Y-181731485D02*
X32472380Y-181921961D01*
X32472380Y-181921961D02*
X32377142Y-182017200D01*
X32377142Y-182017200D02*
X32281904Y-182064819D01*
X32281904Y-182064819D02*
X32091428Y-182064819D01*
X32091428Y-182064819D02*
X31996190Y-182017200D01*
X31996190Y-182017200D02*
X31900952Y-181921961D01*
X31900952Y-181921961D02*
X31853333Y-181731485D01*
X31853333Y-181731485D02*
X31853333Y-181398152D01*
X31853333Y-181398152D02*
X31900952Y-181207676D01*
X31900952Y-181207676D02*
X31996190Y-181112438D01*
X31996190Y-181112438D02*
X32091428Y-181064819D01*
X33519999Y-181969580D02*
X33472380Y-182017200D01*
X33472380Y-182017200D02*
X33329523Y-182064819D01*
X33329523Y-182064819D02*
X33234285Y-182064819D01*
X33234285Y-182064819D02*
X33091428Y-182017200D01*
X33091428Y-182017200D02*
X32996190Y-181921961D01*
X32996190Y-181921961D02*
X32948571Y-181826723D01*
X32948571Y-181826723D02*
X32900952Y-181636247D01*
X32900952Y-181636247D02*
X32900952Y-181493390D01*
X32900952Y-181493390D02*
X32948571Y-181302914D01*
X32948571Y-181302914D02*
X32996190Y-181207676D01*
X32996190Y-181207676D02*
X33091428Y-181112438D01*
X33091428Y-181112438D02*
X33234285Y-181064819D01*
X33234285Y-181064819D02*
X33329523Y-181064819D01*
X33329523Y-181064819D02*
X33472380Y-181112438D01*
X33472380Y-181112438D02*
X33519999Y-181160057D01*
X33948571Y-182064819D02*
X33948571Y-181064819D01*
X34519999Y-182064819D02*
X34091428Y-181493390D01*
X34519999Y-181064819D02*
X33948571Y-181636247D01*
X34948571Y-181541009D02*
X35281904Y-181541009D01*
X35424761Y-182064819D02*
X34948571Y-182064819D01*
X34948571Y-182064819D02*
X34948571Y-181064819D01*
X34948571Y-181064819D02*
X35424761Y-181064819D01*
X35710476Y-181064819D02*
X36281904Y-181064819D01*
X35996190Y-182064819D02*
X35996190Y-181064819D01*
X37139047Y-182064819D02*
X36567619Y-182064819D01*
X36853333Y-182064819D02*
X36853333Y-181064819D01*
X36853333Y-181064819D02*
X36758095Y-181207676D01*
X36758095Y-181207676D02*
X36662857Y-181302914D01*
X36662857Y-181302914D02*
X36567619Y-181350533D01*
X51254819Y-141112381D02*
X51254819Y-141588571D01*
X51254819Y-141588571D02*
X50254819Y-141588571D01*
X50731009Y-140779047D02*
X50731009Y-140445714D01*
X51254819Y-140302857D02*
X51254819Y-140779047D01*
X51254819Y-140779047D02*
X50254819Y-140779047D01*
X50254819Y-140779047D02*
X50254819Y-140302857D01*
X51254819Y-139874285D02*
X50254819Y-139874285D01*
X50254819Y-139874285D02*
X50254819Y-139636190D01*
X50254819Y-139636190D02*
X50302438Y-139493333D01*
X50302438Y-139493333D02*
X50397676Y-139398095D01*
X50397676Y-139398095D02*
X50492914Y-139350476D01*
X50492914Y-139350476D02*
X50683390Y-139302857D01*
X50683390Y-139302857D02*
X50826247Y-139302857D01*
X50826247Y-139302857D02*
X51016723Y-139350476D01*
X51016723Y-139350476D02*
X51111961Y-139398095D01*
X51111961Y-139398095D02*
X51207200Y-139493333D01*
X51207200Y-139493333D02*
X51254819Y-139636190D01*
X51254819Y-139636190D02*
X51254819Y-139874285D01*
X51207200Y-138921904D02*
X51254819Y-138779047D01*
X51254819Y-138779047D02*
X51254819Y-138540952D01*
X51254819Y-138540952D02*
X51207200Y-138445714D01*
X51207200Y-138445714D02*
X51159580Y-138398095D01*
X51159580Y-138398095D02*
X51064342Y-138350476D01*
X51064342Y-138350476D02*
X50969104Y-138350476D01*
X50969104Y-138350476D02*
X50873866Y-138398095D01*
X50873866Y-138398095D02*
X50826247Y-138445714D01*
X50826247Y-138445714D02*
X50778628Y-138540952D01*
X50778628Y-138540952D02*
X50731009Y-138731428D01*
X50731009Y-138731428D02*
X50683390Y-138826666D01*
X50683390Y-138826666D02*
X50635771Y-138874285D01*
X50635771Y-138874285D02*
X50540533Y-138921904D01*
X50540533Y-138921904D02*
X50445295Y-138921904D01*
X50445295Y-138921904D02*
X50350057Y-138874285D01*
X50350057Y-138874285D02*
X50302438Y-138826666D01*
X50302438Y-138826666D02*
X50254819Y-138731428D01*
X50254819Y-138731428D02*
X50254819Y-138493333D01*
X50254819Y-138493333D02*
X50302438Y-138350476D01*
X50254819Y-137731428D02*
X50254819Y-137540952D01*
X50254819Y-137540952D02*
X50302438Y-137445714D01*
X50302438Y-137445714D02*
X50397676Y-137350476D01*
X50397676Y-137350476D02*
X50588152Y-137302857D01*
X50588152Y-137302857D02*
X50921485Y-137302857D01*
X50921485Y-137302857D02*
X51111961Y-137350476D01*
X51111961Y-137350476D02*
X51207200Y-137445714D01*
X51207200Y-137445714D02*
X51254819Y-137540952D01*
X51254819Y-137540952D02*
X51254819Y-137731428D01*
X51254819Y-137731428D02*
X51207200Y-137826666D01*
X51207200Y-137826666D02*
X51111961Y-137921904D01*
X51111961Y-137921904D02*
X50921485Y-137969523D01*
X50921485Y-137969523D02*
X50588152Y-137969523D01*
X50588152Y-137969523D02*
X50397676Y-137921904D01*
X50397676Y-137921904D02*
X50302438Y-137826666D01*
X50302438Y-137826666D02*
X50254819Y-137731428D01*
X51159580Y-136302857D02*
X51207200Y-136350476D01*
X51207200Y-136350476D02*
X51254819Y-136493333D01*
X51254819Y-136493333D02*
X51254819Y-136588571D01*
X51254819Y-136588571D02*
X51207200Y-136731428D01*
X51207200Y-136731428D02*
X51111961Y-136826666D01*
X51111961Y-136826666D02*
X51016723Y-136874285D01*
X51016723Y-136874285D02*
X50826247Y-136921904D01*
X50826247Y-136921904D02*
X50683390Y-136921904D01*
X50683390Y-136921904D02*
X50492914Y-136874285D01*
X50492914Y-136874285D02*
X50397676Y-136826666D01*
X50397676Y-136826666D02*
X50302438Y-136731428D01*
X50302438Y-136731428D02*
X50254819Y-136588571D01*
X50254819Y-136588571D02*
X50254819Y-136493333D01*
X50254819Y-136493333D02*
X50302438Y-136350476D01*
X50302438Y-136350476D02*
X50350057Y-136302857D01*
X51254819Y-135874285D02*
X50254819Y-135874285D01*
X51254819Y-135302857D02*
X50683390Y-135731428D01*
X50254819Y-135302857D02*
X50826247Y-135874285D01*
X50731009Y-134874285D02*
X50731009Y-134540952D01*
X51254819Y-134398095D02*
X51254819Y-134874285D01*
X51254819Y-134874285D02*
X50254819Y-134874285D01*
X50254819Y-134874285D02*
X50254819Y-134398095D01*
X50254819Y-134112380D02*
X50254819Y-133540952D01*
X51254819Y-133826666D02*
X50254819Y-133826666D01*
X51254819Y-132683809D02*
X51254819Y-133255237D01*
X51254819Y-132969523D02*
X50254819Y-132969523D01*
X50254819Y-132969523D02*
X50397676Y-133064761D01*
X50397676Y-133064761D02*
X50492914Y-133159999D01*
X50492914Y-133159999D02*
X50540533Y-133255237D01*
X49383333Y-75529580D02*
X49335714Y-75577200D01*
X49335714Y-75577200D02*
X49192857Y-75624819D01*
X49192857Y-75624819D02*
X49097619Y-75624819D01*
X49097619Y-75624819D02*
X48954762Y-75577200D01*
X48954762Y-75577200D02*
X48859524Y-75481961D01*
X48859524Y-75481961D02*
X48811905Y-75386723D01*
X48811905Y-75386723D02*
X48764286Y-75196247D01*
X48764286Y-75196247D02*
X48764286Y-75053390D01*
X48764286Y-75053390D02*
X48811905Y-74862914D01*
X48811905Y-74862914D02*
X48859524Y-74767676D01*
X48859524Y-74767676D02*
X48954762Y-74672438D01*
X48954762Y-74672438D02*
X49097619Y-74624819D01*
X49097619Y-74624819D02*
X49192857Y-74624819D01*
X49192857Y-74624819D02*
X49335714Y-74672438D01*
X49335714Y-74672438D02*
X49383333Y-74720057D01*
X50335714Y-75624819D02*
X49764286Y-75624819D01*
X50050000Y-75624819D02*
X50050000Y-74624819D01*
X50050000Y-74624819D02*
X49954762Y-74767676D01*
X49954762Y-74767676D02*
X49859524Y-74862914D01*
X49859524Y-74862914D02*
X49764286Y-74910533D01*
X53794819Y-81874762D02*
X53794819Y-82446190D01*
X53794819Y-82160476D02*
X52794819Y-82160476D01*
X52794819Y-82160476D02*
X52937676Y-82255714D01*
X52937676Y-82255714D02*
X53032914Y-82350952D01*
X53032914Y-82350952D02*
X53080533Y-82446190D01*
X52794819Y-80970000D02*
X52794819Y-81446190D01*
X52794819Y-81446190D02*
X53271009Y-81493809D01*
X53271009Y-81493809D02*
X53223390Y-81446190D01*
X53223390Y-81446190D02*
X53175771Y-81350952D01*
X53175771Y-81350952D02*
X53175771Y-81112857D01*
X53175771Y-81112857D02*
X53223390Y-81017619D01*
X53223390Y-81017619D02*
X53271009Y-80970000D01*
X53271009Y-80970000D02*
X53366247Y-80922381D01*
X53366247Y-80922381D02*
X53604342Y-80922381D01*
X53604342Y-80922381D02*
X53699580Y-80970000D01*
X53699580Y-80970000D02*
X53747200Y-81017619D01*
X53747200Y-81017619D02*
X53794819Y-81112857D01*
X53794819Y-81112857D02*
X53794819Y-81350952D01*
X53794819Y-81350952D02*
X53747200Y-81446190D01*
X53747200Y-81446190D02*
X53699580Y-81493809D01*
X53794819Y-79970000D02*
X53794819Y-80541428D01*
X53794819Y-80255714D02*
X52794819Y-80255714D01*
X52794819Y-80255714D02*
X52937676Y-80350952D01*
X52937676Y-80350952D02*
X53032914Y-80446190D01*
X53032914Y-80446190D02*
X53080533Y-80541428D01*
X54175771Y-78493809D02*
X54128152Y-78541428D01*
X54128152Y-78541428D02*
X53985295Y-78636666D01*
X53985295Y-78636666D02*
X53890057Y-78684285D01*
X53890057Y-78684285D02*
X53747200Y-78731904D01*
X53747200Y-78731904D02*
X53509104Y-78779523D01*
X53509104Y-78779523D02*
X53318628Y-78779523D01*
X53318628Y-78779523D02*
X53080533Y-78731904D01*
X53080533Y-78731904D02*
X52937676Y-78684285D01*
X52937676Y-78684285D02*
X52842438Y-78636666D01*
X52842438Y-78636666D02*
X52699580Y-78541428D01*
X52699580Y-78541428D02*
X52651961Y-78493809D01*
X53794819Y-77589047D02*
X53794819Y-78160475D01*
X53794819Y-77874761D02*
X52794819Y-77874761D01*
X52794819Y-77874761D02*
X52937676Y-77969999D01*
X52937676Y-77969999D02*
X53032914Y-78065237D01*
X53032914Y-78065237D02*
X53080533Y-78160475D01*
X52794819Y-76684285D02*
X52794819Y-77160475D01*
X52794819Y-77160475D02*
X53271009Y-77208094D01*
X53271009Y-77208094D02*
X53223390Y-77160475D01*
X53223390Y-77160475D02*
X53175771Y-77065237D01*
X53175771Y-77065237D02*
X53175771Y-76827142D01*
X53175771Y-76827142D02*
X53223390Y-76731904D01*
X53223390Y-76731904D02*
X53271009Y-76684285D01*
X53271009Y-76684285D02*
X53366247Y-76636666D01*
X53366247Y-76636666D02*
X53604342Y-76636666D01*
X53604342Y-76636666D02*
X53699580Y-76684285D01*
X53699580Y-76684285D02*
X53747200Y-76731904D01*
X53747200Y-76731904D02*
X53794819Y-76827142D01*
X53794819Y-76827142D02*
X53794819Y-77065237D01*
X53794819Y-77065237D02*
X53747200Y-77160475D01*
X53747200Y-77160475D02*
X53699580Y-77208094D01*
X52794819Y-76017618D02*
X52794819Y-75922380D01*
X52794819Y-75922380D02*
X52842438Y-75827142D01*
X52842438Y-75827142D02*
X52890057Y-75779523D01*
X52890057Y-75779523D02*
X52985295Y-75731904D01*
X52985295Y-75731904D02*
X53175771Y-75684285D01*
X53175771Y-75684285D02*
X53413866Y-75684285D01*
X53413866Y-75684285D02*
X53604342Y-75731904D01*
X53604342Y-75731904D02*
X53699580Y-75779523D01*
X53699580Y-75779523D02*
X53747200Y-75827142D01*
X53747200Y-75827142D02*
X53794819Y-75922380D01*
X53794819Y-75922380D02*
X53794819Y-76017618D01*
X53794819Y-76017618D02*
X53747200Y-76112856D01*
X53747200Y-76112856D02*
X53699580Y-76160475D01*
X53699580Y-76160475D02*
X53604342Y-76208094D01*
X53604342Y-76208094D02*
X53413866Y-76255713D01*
X53413866Y-76255713D02*
X53175771Y-76255713D01*
X53175771Y-76255713D02*
X52985295Y-76208094D01*
X52985295Y-76208094D02*
X52890057Y-76160475D01*
X52890057Y-76160475D02*
X52842438Y-76112856D01*
X52842438Y-76112856D02*
X52794819Y-76017618D01*
X53128152Y-74493808D02*
X54128152Y-74493808D01*
X53175771Y-74493808D02*
X53128152Y-74398570D01*
X53128152Y-74398570D02*
X53128152Y-74208094D01*
X53128152Y-74208094D02*
X53175771Y-74112856D01*
X53175771Y-74112856D02*
X53223390Y-74065237D01*
X53223390Y-74065237D02*
X53318628Y-74017618D01*
X53318628Y-74017618D02*
X53604342Y-74017618D01*
X53604342Y-74017618D02*
X53699580Y-74065237D01*
X53699580Y-74065237D02*
X53747200Y-74112856D01*
X53747200Y-74112856D02*
X53794819Y-74208094D01*
X53794819Y-74208094D02*
X53794819Y-74398570D01*
X53794819Y-74398570D02*
X53747200Y-74493808D01*
X53271009Y-73255713D02*
X53271009Y-73589046D01*
X53794819Y-73589046D02*
X52794819Y-73589046D01*
X52794819Y-73589046D02*
X52794819Y-73112856D01*
X54175771Y-72827141D02*
X54128152Y-72779522D01*
X54128152Y-72779522D02*
X53985295Y-72684284D01*
X53985295Y-72684284D02*
X53890057Y-72636665D01*
X53890057Y-72636665D02*
X53747200Y-72589046D01*
X53747200Y-72589046D02*
X53509104Y-72541427D01*
X53509104Y-72541427D02*
X53318628Y-72541427D01*
X53318628Y-72541427D02*
X53080533Y-72589046D01*
X53080533Y-72589046D02*
X52937676Y-72636665D01*
X52937676Y-72636665D02*
X52842438Y-72684284D01*
X52842438Y-72684284D02*
X52699580Y-72779522D01*
X52699580Y-72779522D02*
X52651961Y-72827141D01*
X36068095Y-141377200D02*
X36210952Y-141424819D01*
X36210952Y-141424819D02*
X36449047Y-141424819D01*
X36449047Y-141424819D02*
X36544285Y-141377200D01*
X36544285Y-141377200D02*
X36591904Y-141329580D01*
X36591904Y-141329580D02*
X36639523Y-141234342D01*
X36639523Y-141234342D02*
X36639523Y-141139104D01*
X36639523Y-141139104D02*
X36591904Y-141043866D01*
X36591904Y-141043866D02*
X36544285Y-140996247D01*
X36544285Y-140996247D02*
X36449047Y-140948628D01*
X36449047Y-140948628D02*
X36258571Y-140901009D01*
X36258571Y-140901009D02*
X36163333Y-140853390D01*
X36163333Y-140853390D02*
X36115714Y-140805771D01*
X36115714Y-140805771D02*
X36068095Y-140710533D01*
X36068095Y-140710533D02*
X36068095Y-140615295D01*
X36068095Y-140615295D02*
X36115714Y-140520057D01*
X36115714Y-140520057D02*
X36163333Y-140472438D01*
X36163333Y-140472438D02*
X36258571Y-140424819D01*
X36258571Y-140424819D02*
X36496666Y-140424819D01*
X36496666Y-140424819D02*
X36639523Y-140472438D01*
X37020476Y-140520057D02*
X37068095Y-140472438D01*
X37068095Y-140472438D02*
X37163333Y-140424819D01*
X37163333Y-140424819D02*
X37401428Y-140424819D01*
X37401428Y-140424819D02*
X37496666Y-140472438D01*
X37496666Y-140472438D02*
X37544285Y-140520057D01*
X37544285Y-140520057D02*
X37591904Y-140615295D01*
X37591904Y-140615295D02*
X37591904Y-140710533D01*
X37591904Y-140710533D02*
X37544285Y-140853390D01*
X37544285Y-140853390D02*
X36972857Y-141424819D01*
X36972857Y-141424819D02*
X37591904Y-141424819D01*
X26408095Y-140154819D02*
X26408095Y-139154819D01*
X26979523Y-140154819D02*
X26550952Y-139583390D01*
X26979523Y-139154819D02*
X26408095Y-139726247D01*
X30877142Y-143991359D02*
X30305714Y-143991359D01*
X30591428Y-143991359D02*
X30591428Y-142991359D01*
X30591428Y-142991359D02*
X30496190Y-143134216D01*
X30496190Y-143134216D02*
X30400952Y-143229454D01*
X30400952Y-143229454D02*
X30305714Y-143277073D01*
X31305714Y-143991359D02*
X31305714Y-142991359D01*
X31305714Y-142991359D02*
X31877142Y-143991359D01*
X31877142Y-143991359D02*
X31877142Y-142991359D01*
X32829523Y-142991359D02*
X32353333Y-142991359D01*
X32353333Y-142991359D02*
X32305714Y-143467549D01*
X32305714Y-143467549D02*
X32353333Y-143419930D01*
X32353333Y-143419930D02*
X32448571Y-143372311D01*
X32448571Y-143372311D02*
X32686666Y-143372311D01*
X32686666Y-143372311D02*
X32781904Y-143419930D01*
X32781904Y-143419930D02*
X32829523Y-143467549D01*
X32829523Y-143467549D02*
X32877142Y-143562787D01*
X32877142Y-143562787D02*
X32877142Y-143800882D01*
X32877142Y-143800882D02*
X32829523Y-143896120D01*
X32829523Y-143896120D02*
X32781904Y-143943740D01*
X32781904Y-143943740D02*
X32686666Y-143991359D01*
X32686666Y-143991359D02*
X32448571Y-143991359D01*
X32448571Y-143991359D02*
X32353333Y-143943740D01*
X32353333Y-143943740D02*
X32305714Y-143896120D01*
X33448571Y-143419930D02*
X33353333Y-143372311D01*
X33353333Y-143372311D02*
X33305714Y-143324692D01*
X33305714Y-143324692D02*
X33258095Y-143229454D01*
X33258095Y-143229454D02*
X33258095Y-143181835D01*
X33258095Y-143181835D02*
X33305714Y-143086597D01*
X33305714Y-143086597D02*
X33353333Y-143038978D01*
X33353333Y-143038978D02*
X33448571Y-142991359D01*
X33448571Y-142991359D02*
X33639047Y-142991359D01*
X33639047Y-142991359D02*
X33734285Y-143038978D01*
X33734285Y-143038978D02*
X33781904Y-143086597D01*
X33781904Y-143086597D02*
X33829523Y-143181835D01*
X33829523Y-143181835D02*
X33829523Y-143229454D01*
X33829523Y-143229454D02*
X33781904Y-143324692D01*
X33781904Y-143324692D02*
X33734285Y-143372311D01*
X33734285Y-143372311D02*
X33639047Y-143419930D01*
X33639047Y-143419930D02*
X33448571Y-143419930D01*
X33448571Y-143419930D02*
X33353333Y-143467549D01*
X33353333Y-143467549D02*
X33305714Y-143515168D01*
X33305714Y-143515168D02*
X33258095Y-143610406D01*
X33258095Y-143610406D02*
X33258095Y-143800882D01*
X33258095Y-143800882D02*
X33305714Y-143896120D01*
X33305714Y-143896120D02*
X33353333Y-143943740D01*
X33353333Y-143943740D02*
X33448571Y-143991359D01*
X33448571Y-143991359D02*
X33639047Y-143991359D01*
X33639047Y-143991359D02*
X33734285Y-143943740D01*
X33734285Y-143943740D02*
X33781904Y-143896120D01*
X33781904Y-143896120D02*
X33829523Y-143800882D01*
X33829523Y-143800882D02*
X33829523Y-143610406D01*
X33829523Y-143610406D02*
X33781904Y-143515168D01*
X33781904Y-143515168D02*
X33734285Y-143467549D01*
X33734285Y-143467549D02*
X33639047Y-143419930D01*
X34781904Y-143991359D02*
X34210476Y-143991359D01*
X34496190Y-143991359D02*
X34496190Y-142991359D01*
X34496190Y-142991359D02*
X34400952Y-143134216D01*
X34400952Y-143134216D02*
X34305714Y-143229454D01*
X34305714Y-143229454D02*
X34210476Y-143277073D01*
X35258095Y-143991359D02*
X35448571Y-143991359D01*
X35448571Y-143991359D02*
X35543809Y-143943740D01*
X35543809Y-143943740D02*
X35591428Y-143896120D01*
X35591428Y-143896120D02*
X35686666Y-143753263D01*
X35686666Y-143753263D02*
X35734285Y-143562787D01*
X35734285Y-143562787D02*
X35734285Y-143181835D01*
X35734285Y-143181835D02*
X35686666Y-143086597D01*
X35686666Y-143086597D02*
X35639047Y-143038978D01*
X35639047Y-143038978D02*
X35543809Y-142991359D01*
X35543809Y-142991359D02*
X35353333Y-142991359D01*
X35353333Y-142991359D02*
X35258095Y-143038978D01*
X35258095Y-143038978D02*
X35210476Y-143086597D01*
X35210476Y-143086597D02*
X35162857Y-143181835D01*
X35162857Y-143181835D02*
X35162857Y-143419930D01*
X35162857Y-143419930D02*
X35210476Y-143515168D01*
X35210476Y-143515168D02*
X35258095Y-143562787D01*
X35258095Y-143562787D02*
X35353333Y-143610406D01*
X35353333Y-143610406D02*
X35543809Y-143610406D01*
X35543809Y-143610406D02*
X35639047Y-143562787D01*
X35639047Y-143562787D02*
X35686666Y-143515168D01*
X35686666Y-143515168D02*
X35734285Y-143419930D01*
X37338095Y-41364819D02*
X37338095Y-42174342D01*
X37338095Y-42174342D02*
X37385714Y-42269580D01*
X37385714Y-42269580D02*
X37433333Y-42317200D01*
X37433333Y-42317200D02*
X37528571Y-42364819D01*
X37528571Y-42364819D02*
X37719047Y-42364819D01*
X37719047Y-42364819D02*
X37814285Y-42317200D01*
X37814285Y-42317200D02*
X37861904Y-42269580D01*
X37861904Y-42269580D02*
X37909523Y-42174342D01*
X37909523Y-42174342D02*
X37909523Y-41364819D01*
X38909523Y-42364819D02*
X38338095Y-42364819D01*
X38623809Y-42364819D02*
X38623809Y-41364819D01*
X38623809Y-41364819D02*
X38528571Y-41507676D01*
X38528571Y-41507676D02*
X38433333Y-41602914D01*
X38433333Y-41602914D02*
X38338095Y-41650533D01*
X53271009Y-51020952D02*
X53271009Y-51354285D01*
X53794819Y-51354285D02*
X52794819Y-51354285D01*
X52794819Y-51354285D02*
X52794819Y-50878095D01*
X53794819Y-50497142D02*
X53128152Y-50497142D01*
X53318628Y-50497142D02*
X53223390Y-50449523D01*
X53223390Y-50449523D02*
X53175771Y-50401904D01*
X53175771Y-50401904D02*
X53128152Y-50306666D01*
X53128152Y-50306666D02*
X53128152Y-50211428D01*
X53747200Y-49497142D02*
X53794819Y-49592380D01*
X53794819Y-49592380D02*
X53794819Y-49782856D01*
X53794819Y-49782856D02*
X53747200Y-49878094D01*
X53747200Y-49878094D02*
X53651961Y-49925713D01*
X53651961Y-49925713D02*
X53271009Y-49925713D01*
X53271009Y-49925713D02*
X53175771Y-49878094D01*
X53175771Y-49878094D02*
X53128152Y-49782856D01*
X53128152Y-49782856D02*
X53128152Y-49592380D01*
X53128152Y-49592380D02*
X53175771Y-49497142D01*
X53175771Y-49497142D02*
X53271009Y-49449523D01*
X53271009Y-49449523D02*
X53366247Y-49449523D01*
X53366247Y-49449523D02*
X53461485Y-49925713D01*
X53747200Y-48639999D02*
X53794819Y-48735237D01*
X53794819Y-48735237D02*
X53794819Y-48925713D01*
X53794819Y-48925713D02*
X53747200Y-49020951D01*
X53747200Y-49020951D02*
X53651961Y-49068570D01*
X53651961Y-49068570D02*
X53271009Y-49068570D01*
X53271009Y-49068570D02*
X53175771Y-49020951D01*
X53175771Y-49020951D02*
X53128152Y-48925713D01*
X53128152Y-48925713D02*
X53128152Y-48735237D01*
X53128152Y-48735237D02*
X53175771Y-48639999D01*
X53175771Y-48639999D02*
X53271009Y-48592380D01*
X53271009Y-48592380D02*
X53366247Y-48592380D01*
X53366247Y-48592380D02*
X53461485Y-49068570D01*
X53128152Y-48163808D02*
X53794819Y-48163808D01*
X53223390Y-48163808D02*
X53175771Y-48116189D01*
X53175771Y-48116189D02*
X53128152Y-48020951D01*
X53128152Y-48020951D02*
X53128152Y-47878094D01*
X53128152Y-47878094D02*
X53175771Y-47782856D01*
X53175771Y-47782856D02*
X53271009Y-47735237D01*
X53271009Y-47735237D02*
X53794819Y-47735237D01*
X53794819Y-47116189D02*
X53747200Y-47211427D01*
X53747200Y-47211427D02*
X53699580Y-47259046D01*
X53699580Y-47259046D02*
X53604342Y-47306665D01*
X53604342Y-47306665D02*
X53318628Y-47306665D01*
X53318628Y-47306665D02*
X53223390Y-47259046D01*
X53223390Y-47259046D02*
X53175771Y-47211427D01*
X53175771Y-47211427D02*
X53128152Y-47116189D01*
X53128152Y-47116189D02*
X53128152Y-46973332D01*
X53128152Y-46973332D02*
X53175771Y-46878094D01*
X53175771Y-46878094D02*
X53223390Y-46830475D01*
X53223390Y-46830475D02*
X53318628Y-46782856D01*
X53318628Y-46782856D02*
X53604342Y-46782856D01*
X53604342Y-46782856D02*
X53699580Y-46830475D01*
X53699580Y-46830475D02*
X53747200Y-46878094D01*
X53747200Y-46878094D02*
X53794819Y-46973332D01*
X53794819Y-46973332D02*
X53794819Y-47116189D01*
X53128152Y-46449522D02*
X53794819Y-46211427D01*
X53794819Y-46211427D02*
X53128152Y-45973332D01*
X53747200Y-45211427D02*
X53794819Y-45306665D01*
X53794819Y-45306665D02*
X53794819Y-45497141D01*
X53794819Y-45497141D02*
X53747200Y-45592379D01*
X53747200Y-45592379D02*
X53651961Y-45639998D01*
X53651961Y-45639998D02*
X53271009Y-45639998D01*
X53271009Y-45639998D02*
X53175771Y-45592379D01*
X53175771Y-45592379D02*
X53128152Y-45497141D01*
X53128152Y-45497141D02*
X53128152Y-45306665D01*
X53128152Y-45306665D02*
X53175771Y-45211427D01*
X53175771Y-45211427D02*
X53271009Y-45163808D01*
X53271009Y-45163808D02*
X53366247Y-45163808D01*
X53366247Y-45163808D02*
X53461485Y-45639998D01*
X53271009Y-43973331D02*
X53271009Y-43639998D01*
X53794819Y-43497141D02*
X53794819Y-43973331D01*
X53794819Y-43973331D02*
X52794819Y-43973331D01*
X52794819Y-43973331D02*
X52794819Y-43497141D01*
X53747200Y-43116188D02*
X53794819Y-42973331D01*
X53794819Y-42973331D02*
X53794819Y-42735236D01*
X53794819Y-42735236D02*
X53747200Y-42639998D01*
X53747200Y-42639998D02*
X53699580Y-42592379D01*
X53699580Y-42592379D02*
X53604342Y-42544760D01*
X53604342Y-42544760D02*
X53509104Y-42544760D01*
X53509104Y-42544760D02*
X53413866Y-42592379D01*
X53413866Y-42592379D02*
X53366247Y-42639998D01*
X53366247Y-42639998D02*
X53318628Y-42735236D01*
X53318628Y-42735236D02*
X53271009Y-42925712D01*
X53271009Y-42925712D02*
X53223390Y-43020950D01*
X53223390Y-43020950D02*
X53175771Y-43068569D01*
X53175771Y-43068569D02*
X53080533Y-43116188D01*
X53080533Y-43116188D02*
X52985295Y-43116188D01*
X52985295Y-43116188D02*
X52890057Y-43068569D01*
X52890057Y-43068569D02*
X52842438Y-43020950D01*
X52842438Y-43020950D02*
X52794819Y-42925712D01*
X52794819Y-42925712D02*
X52794819Y-42687617D01*
X52794819Y-42687617D02*
X52842438Y-42544760D01*
X53794819Y-42116188D02*
X52794819Y-42116188D01*
X52794819Y-42116188D02*
X52794819Y-41735236D01*
X52794819Y-41735236D02*
X52842438Y-41639998D01*
X52842438Y-41639998D02*
X52890057Y-41592379D01*
X52890057Y-41592379D02*
X52985295Y-41544760D01*
X52985295Y-41544760D02*
X53128152Y-41544760D01*
X53128152Y-41544760D02*
X53223390Y-41592379D01*
X53223390Y-41592379D02*
X53271009Y-41639998D01*
X53271009Y-41639998D02*
X53318628Y-41735236D01*
X53318628Y-41735236D02*
X53318628Y-42116188D01*
X52794819Y-41211426D02*
X52794819Y-40592379D01*
X52794819Y-40592379D02*
X53175771Y-40925712D01*
X53175771Y-40925712D02*
X53175771Y-40782855D01*
X53175771Y-40782855D02*
X53223390Y-40687617D01*
X53223390Y-40687617D02*
X53271009Y-40639998D01*
X53271009Y-40639998D02*
X53366247Y-40592379D01*
X53366247Y-40592379D02*
X53604342Y-40592379D01*
X53604342Y-40592379D02*
X53699580Y-40639998D01*
X53699580Y-40639998D02*
X53747200Y-40687617D01*
X53747200Y-40687617D02*
X53794819Y-40782855D01*
X53794819Y-40782855D02*
X53794819Y-41068569D01*
X53794819Y-41068569D02*
X53747200Y-41163807D01*
X53747200Y-41163807D02*
X53699580Y-41211426D01*
X52890057Y-40211426D02*
X52842438Y-40163807D01*
X52842438Y-40163807D02*
X52794819Y-40068569D01*
X52794819Y-40068569D02*
X52794819Y-39830474D01*
X52794819Y-39830474D02*
X52842438Y-39735236D01*
X52842438Y-39735236D02*
X52890057Y-39687617D01*
X52890057Y-39687617D02*
X52985295Y-39639998D01*
X52985295Y-39639998D02*
X53080533Y-39639998D01*
X53080533Y-39639998D02*
X53223390Y-39687617D01*
X53223390Y-39687617D02*
X53794819Y-40259045D01*
X53794819Y-40259045D02*
X53794819Y-39639998D01*
X53413866Y-39211426D02*
X53413866Y-38449522D01*
X53747200Y-38020950D02*
X53794819Y-37878093D01*
X53794819Y-37878093D02*
X53794819Y-37639998D01*
X53794819Y-37639998D02*
X53747200Y-37544760D01*
X53747200Y-37544760D02*
X53699580Y-37497141D01*
X53699580Y-37497141D02*
X53604342Y-37449522D01*
X53604342Y-37449522D02*
X53509104Y-37449522D01*
X53509104Y-37449522D02*
X53413866Y-37497141D01*
X53413866Y-37497141D02*
X53366247Y-37544760D01*
X53366247Y-37544760D02*
X53318628Y-37639998D01*
X53318628Y-37639998D02*
X53271009Y-37830474D01*
X53271009Y-37830474D02*
X53223390Y-37925712D01*
X53223390Y-37925712D02*
X53175771Y-37973331D01*
X53175771Y-37973331D02*
X53080533Y-38020950D01*
X53080533Y-38020950D02*
X52985295Y-38020950D01*
X52985295Y-38020950D02*
X52890057Y-37973331D01*
X52890057Y-37973331D02*
X52842438Y-37925712D01*
X52842438Y-37925712D02*
X52794819Y-37830474D01*
X52794819Y-37830474D02*
X52794819Y-37592379D01*
X52794819Y-37592379D02*
X52842438Y-37449522D01*
X52794819Y-37116188D02*
X52794819Y-36497141D01*
X52794819Y-36497141D02*
X53175771Y-36830474D01*
X53175771Y-36830474D02*
X53175771Y-36687617D01*
X53175771Y-36687617D02*
X53223390Y-36592379D01*
X53223390Y-36592379D02*
X53271009Y-36544760D01*
X53271009Y-36544760D02*
X53366247Y-36497141D01*
X53366247Y-36497141D02*
X53604342Y-36497141D01*
X53604342Y-36497141D02*
X53699580Y-36544760D01*
X53699580Y-36544760D02*
X53747200Y-36592379D01*
X53747200Y-36592379D02*
X53794819Y-36687617D01*
X53794819Y-36687617D02*
X53794819Y-36973331D01*
X53794819Y-36973331D02*
X53747200Y-37068569D01*
X53747200Y-37068569D02*
X53699580Y-37116188D01*
X53413866Y-36068569D02*
X53413866Y-35306665D01*
X52794819Y-34925712D02*
X53794819Y-34687617D01*
X53794819Y-34687617D02*
X53080533Y-34497141D01*
X53080533Y-34497141D02*
X53794819Y-34306665D01*
X53794819Y-34306665D02*
X52794819Y-34068570D01*
X53794819Y-33116189D02*
X53318628Y-33449522D01*
X53794819Y-33687617D02*
X52794819Y-33687617D01*
X52794819Y-33687617D02*
X52794819Y-33306665D01*
X52794819Y-33306665D02*
X52842438Y-33211427D01*
X52842438Y-33211427D02*
X52890057Y-33163808D01*
X52890057Y-33163808D02*
X52985295Y-33116189D01*
X52985295Y-33116189D02*
X53128152Y-33116189D01*
X53128152Y-33116189D02*
X53223390Y-33163808D01*
X53223390Y-33163808D02*
X53271009Y-33211427D01*
X53271009Y-33211427D02*
X53318628Y-33306665D01*
X53318628Y-33306665D02*
X53318628Y-33687617D01*
X52794819Y-32497141D02*
X52794819Y-32306665D01*
X52794819Y-32306665D02*
X52842438Y-32211427D01*
X52842438Y-32211427D02*
X52937676Y-32116189D01*
X52937676Y-32116189D02*
X53128152Y-32068570D01*
X53128152Y-32068570D02*
X53461485Y-32068570D01*
X53461485Y-32068570D02*
X53651961Y-32116189D01*
X53651961Y-32116189D02*
X53747200Y-32211427D01*
X53747200Y-32211427D02*
X53794819Y-32306665D01*
X53794819Y-32306665D02*
X53794819Y-32497141D01*
X53794819Y-32497141D02*
X53747200Y-32592379D01*
X53747200Y-32592379D02*
X53651961Y-32687617D01*
X53651961Y-32687617D02*
X53461485Y-32735236D01*
X53461485Y-32735236D02*
X53128152Y-32735236D01*
X53128152Y-32735236D02*
X52937676Y-32687617D01*
X52937676Y-32687617D02*
X52842438Y-32592379D01*
X52842438Y-32592379D02*
X52794819Y-32497141D01*
X52794819Y-31449522D02*
X52794819Y-31259046D01*
X52794819Y-31259046D02*
X52842438Y-31163808D01*
X52842438Y-31163808D02*
X52937676Y-31068570D01*
X52937676Y-31068570D02*
X53128152Y-31020951D01*
X53128152Y-31020951D02*
X53461485Y-31020951D01*
X53461485Y-31020951D02*
X53651961Y-31068570D01*
X53651961Y-31068570D02*
X53747200Y-31163808D01*
X53747200Y-31163808D02*
X53794819Y-31259046D01*
X53794819Y-31259046D02*
X53794819Y-31449522D01*
X53794819Y-31449522D02*
X53747200Y-31544760D01*
X53747200Y-31544760D02*
X53651961Y-31639998D01*
X53651961Y-31639998D02*
X53461485Y-31687617D01*
X53461485Y-31687617D02*
X53128152Y-31687617D01*
X53128152Y-31687617D02*
X52937676Y-31639998D01*
X52937676Y-31639998D02*
X52842438Y-31544760D01*
X52842438Y-31544760D02*
X52794819Y-31449522D01*
X53794819Y-30592379D02*
X52794819Y-30592379D01*
X52794819Y-30592379D02*
X53509104Y-30259046D01*
X53509104Y-30259046D02*
X52794819Y-29925713D01*
X52794819Y-29925713D02*
X53794819Y-29925713D01*
X27201905Y-56334819D02*
X27201905Y-55334819D01*
X27201905Y-55334819D02*
X27440000Y-55334819D01*
X27440000Y-55334819D02*
X27582857Y-55382438D01*
X27582857Y-55382438D02*
X27678095Y-55477676D01*
X27678095Y-55477676D02*
X27725714Y-55572914D01*
X27725714Y-55572914D02*
X27773333Y-55763390D01*
X27773333Y-55763390D02*
X27773333Y-55906247D01*
X27773333Y-55906247D02*
X27725714Y-56096723D01*
X27725714Y-56096723D02*
X27678095Y-56191961D01*
X27678095Y-56191961D02*
X27582857Y-56287200D01*
X27582857Y-56287200D02*
X27440000Y-56334819D01*
X27440000Y-56334819D02*
X27201905Y-56334819D01*
X28249524Y-56334819D02*
X28440000Y-56334819D01*
X28440000Y-56334819D02*
X28535238Y-56287200D01*
X28535238Y-56287200D02*
X28582857Y-56239580D01*
X28582857Y-56239580D02*
X28678095Y-56096723D01*
X28678095Y-56096723D02*
X28725714Y-55906247D01*
X28725714Y-55906247D02*
X28725714Y-55525295D01*
X28725714Y-55525295D02*
X28678095Y-55430057D01*
X28678095Y-55430057D02*
X28630476Y-55382438D01*
X28630476Y-55382438D02*
X28535238Y-55334819D01*
X28535238Y-55334819D02*
X28344762Y-55334819D01*
X28344762Y-55334819D02*
X28249524Y-55382438D01*
X28249524Y-55382438D02*
X28201905Y-55430057D01*
X28201905Y-55430057D02*
X28154286Y-55525295D01*
X28154286Y-55525295D02*
X28154286Y-55763390D01*
X28154286Y-55763390D02*
X28201905Y-55858628D01*
X28201905Y-55858628D02*
X28249524Y-55906247D01*
X28249524Y-55906247D02*
X28344762Y-55953866D01*
X28344762Y-55953866D02*
X28535238Y-55953866D01*
X28535238Y-55953866D02*
X28630476Y-55906247D01*
X28630476Y-55906247D02*
X28678095Y-55858628D01*
X28678095Y-55858628D02*
X28725714Y-55763390D01*
X26725714Y-63954819D02*
X26725714Y-62954819D01*
X26725714Y-62954819D02*
X26963809Y-62954819D01*
X26963809Y-62954819D02*
X27106666Y-63002438D01*
X27106666Y-63002438D02*
X27201904Y-63097676D01*
X27201904Y-63097676D02*
X27249523Y-63192914D01*
X27249523Y-63192914D02*
X27297142Y-63383390D01*
X27297142Y-63383390D02*
X27297142Y-63526247D01*
X27297142Y-63526247D02*
X27249523Y-63716723D01*
X27249523Y-63716723D02*
X27201904Y-63811961D01*
X27201904Y-63811961D02*
X27106666Y-63907200D01*
X27106666Y-63907200D02*
X26963809Y-63954819D01*
X26963809Y-63954819D02*
X26725714Y-63954819D01*
X28249523Y-63954819D02*
X27678095Y-63954819D01*
X27963809Y-63954819D02*
X27963809Y-62954819D01*
X27963809Y-62954819D02*
X27868571Y-63097676D01*
X27868571Y-63097676D02*
X27773333Y-63192914D01*
X27773333Y-63192914D02*
X27678095Y-63240533D01*
X28630476Y-63050057D02*
X28678095Y-63002438D01*
X28678095Y-63002438D02*
X28773333Y-62954819D01*
X28773333Y-62954819D02*
X29011428Y-62954819D01*
X29011428Y-62954819D02*
X29106666Y-63002438D01*
X29106666Y-63002438D02*
X29154285Y-63050057D01*
X29154285Y-63050057D02*
X29201904Y-63145295D01*
X29201904Y-63145295D02*
X29201904Y-63240533D01*
X29201904Y-63240533D02*
X29154285Y-63383390D01*
X29154285Y-63383390D02*
X28582857Y-63954819D01*
X28582857Y-63954819D02*
X29201904Y-63954819D01*
X47045714Y-48714819D02*
X47045714Y-47714819D01*
X47045714Y-47714819D02*
X47283809Y-47714819D01*
X47283809Y-47714819D02*
X47426666Y-47762438D01*
X47426666Y-47762438D02*
X47521904Y-47857676D01*
X47521904Y-47857676D02*
X47569523Y-47952914D01*
X47569523Y-47952914D02*
X47617142Y-48143390D01*
X47617142Y-48143390D02*
X47617142Y-48286247D01*
X47617142Y-48286247D02*
X47569523Y-48476723D01*
X47569523Y-48476723D02*
X47521904Y-48571961D01*
X47521904Y-48571961D02*
X47426666Y-48667200D01*
X47426666Y-48667200D02*
X47283809Y-48714819D01*
X47283809Y-48714819D02*
X47045714Y-48714819D01*
X47950476Y-47714819D02*
X48569523Y-47714819D01*
X48569523Y-47714819D02*
X48236190Y-48095771D01*
X48236190Y-48095771D02*
X48379047Y-48095771D01*
X48379047Y-48095771D02*
X48474285Y-48143390D01*
X48474285Y-48143390D02*
X48521904Y-48191009D01*
X48521904Y-48191009D02*
X48569523Y-48286247D01*
X48569523Y-48286247D02*
X48569523Y-48524342D01*
X48569523Y-48524342D02*
X48521904Y-48619580D01*
X48521904Y-48619580D02*
X48474285Y-48667200D01*
X48474285Y-48667200D02*
X48379047Y-48714819D01*
X48379047Y-48714819D02*
X48093333Y-48714819D01*
X48093333Y-48714819D02*
X47998095Y-48667200D01*
X47998095Y-48667200D02*
X47950476Y-48619580D01*
X49426666Y-47714819D02*
X49236190Y-47714819D01*
X49236190Y-47714819D02*
X49140952Y-47762438D01*
X49140952Y-47762438D02*
X49093333Y-47810057D01*
X49093333Y-47810057D02*
X48998095Y-47952914D01*
X48998095Y-47952914D02*
X48950476Y-48143390D01*
X48950476Y-48143390D02*
X48950476Y-48524342D01*
X48950476Y-48524342D02*
X48998095Y-48619580D01*
X48998095Y-48619580D02*
X49045714Y-48667200D01*
X49045714Y-48667200D02*
X49140952Y-48714819D01*
X49140952Y-48714819D02*
X49331428Y-48714819D01*
X49331428Y-48714819D02*
X49426666Y-48667200D01*
X49426666Y-48667200D02*
X49474285Y-48619580D01*
X49474285Y-48619580D02*
X49521904Y-48524342D01*
X49521904Y-48524342D02*
X49521904Y-48286247D01*
X49521904Y-48286247D02*
X49474285Y-48191009D01*
X49474285Y-48191009D02*
X49426666Y-48143390D01*
X49426666Y-48143390D02*
X49331428Y-48095771D01*
X49331428Y-48095771D02*
X49140952Y-48095771D01*
X49140952Y-48095771D02*
X49045714Y-48143390D01*
X49045714Y-48143390D02*
X48998095Y-48191009D01*
X48998095Y-48191009D02*
X48950476Y-48286247D01*
X47045714Y-58874819D02*
X47045714Y-57874819D01*
X47045714Y-57874819D02*
X47283809Y-57874819D01*
X47283809Y-57874819D02*
X47426666Y-57922438D01*
X47426666Y-57922438D02*
X47521904Y-58017676D01*
X47521904Y-58017676D02*
X47569523Y-58112914D01*
X47569523Y-58112914D02*
X47617142Y-58303390D01*
X47617142Y-58303390D02*
X47617142Y-58446247D01*
X47617142Y-58446247D02*
X47569523Y-58636723D01*
X47569523Y-58636723D02*
X47521904Y-58731961D01*
X47521904Y-58731961D02*
X47426666Y-58827200D01*
X47426666Y-58827200D02*
X47283809Y-58874819D01*
X47283809Y-58874819D02*
X47045714Y-58874819D01*
X48474285Y-58208152D02*
X48474285Y-58874819D01*
X48236190Y-57827200D02*
X47998095Y-58541485D01*
X47998095Y-58541485D02*
X48617142Y-58541485D01*
X49140952Y-58303390D02*
X49045714Y-58255771D01*
X49045714Y-58255771D02*
X48998095Y-58208152D01*
X48998095Y-58208152D02*
X48950476Y-58112914D01*
X48950476Y-58112914D02*
X48950476Y-58065295D01*
X48950476Y-58065295D02*
X48998095Y-57970057D01*
X48998095Y-57970057D02*
X49045714Y-57922438D01*
X49045714Y-57922438D02*
X49140952Y-57874819D01*
X49140952Y-57874819D02*
X49331428Y-57874819D01*
X49331428Y-57874819D02*
X49426666Y-57922438D01*
X49426666Y-57922438D02*
X49474285Y-57970057D01*
X49474285Y-57970057D02*
X49521904Y-58065295D01*
X49521904Y-58065295D02*
X49521904Y-58112914D01*
X49521904Y-58112914D02*
X49474285Y-58208152D01*
X49474285Y-58208152D02*
X49426666Y-58255771D01*
X49426666Y-58255771D02*
X49331428Y-58303390D01*
X49331428Y-58303390D02*
X49140952Y-58303390D01*
X49140952Y-58303390D02*
X49045714Y-58351009D01*
X49045714Y-58351009D02*
X48998095Y-58398628D01*
X48998095Y-58398628D02*
X48950476Y-58493866D01*
X48950476Y-58493866D02*
X48950476Y-58684342D01*
X48950476Y-58684342D02*
X48998095Y-58779580D01*
X48998095Y-58779580D02*
X49045714Y-58827200D01*
X49045714Y-58827200D02*
X49140952Y-58874819D01*
X49140952Y-58874819D02*
X49331428Y-58874819D01*
X49331428Y-58874819D02*
X49426666Y-58827200D01*
X49426666Y-58827200D02*
X49474285Y-58779580D01*
X49474285Y-58779580D02*
X49521904Y-58684342D01*
X49521904Y-58684342D02*
X49521904Y-58493866D01*
X49521904Y-58493866D02*
X49474285Y-58398628D01*
X49474285Y-58398628D02*
X49426666Y-58351009D01*
X49426666Y-58351009D02*
X49331428Y-58303390D01*
X47045714Y-38554819D02*
X47045714Y-37554819D01*
X47045714Y-37554819D02*
X47283809Y-37554819D01*
X47283809Y-37554819D02*
X47426666Y-37602438D01*
X47426666Y-37602438D02*
X47521904Y-37697676D01*
X47521904Y-37697676D02*
X47569523Y-37792914D01*
X47569523Y-37792914D02*
X47617142Y-37983390D01*
X47617142Y-37983390D02*
X47617142Y-38126247D01*
X47617142Y-38126247D02*
X47569523Y-38316723D01*
X47569523Y-38316723D02*
X47521904Y-38411961D01*
X47521904Y-38411961D02*
X47426666Y-38507200D01*
X47426666Y-38507200D02*
X47283809Y-38554819D01*
X47283809Y-38554819D02*
X47045714Y-38554819D01*
X48474285Y-37888152D02*
X48474285Y-38554819D01*
X48236190Y-37507200D02*
X47998095Y-38221485D01*
X47998095Y-38221485D02*
X48617142Y-38221485D01*
X49188571Y-37554819D02*
X49283809Y-37554819D01*
X49283809Y-37554819D02*
X49379047Y-37602438D01*
X49379047Y-37602438D02*
X49426666Y-37650057D01*
X49426666Y-37650057D02*
X49474285Y-37745295D01*
X49474285Y-37745295D02*
X49521904Y-37935771D01*
X49521904Y-37935771D02*
X49521904Y-38173866D01*
X49521904Y-38173866D02*
X49474285Y-38364342D01*
X49474285Y-38364342D02*
X49426666Y-38459580D01*
X49426666Y-38459580D02*
X49379047Y-38507200D01*
X49379047Y-38507200D02*
X49283809Y-38554819D01*
X49283809Y-38554819D02*
X49188571Y-38554819D01*
X49188571Y-38554819D02*
X49093333Y-38507200D01*
X49093333Y-38507200D02*
X49045714Y-38459580D01*
X49045714Y-38459580D02*
X48998095Y-38364342D01*
X48998095Y-38364342D02*
X48950476Y-38173866D01*
X48950476Y-38173866D02*
X48950476Y-37935771D01*
X48950476Y-37935771D02*
X48998095Y-37745295D01*
X48998095Y-37745295D02*
X49045714Y-37650057D01*
X49045714Y-37650057D02*
X49093333Y-37602438D01*
X49093333Y-37602438D02*
X49188571Y-37554819D01*
X26725714Y-61414819D02*
X26725714Y-60414819D01*
X26725714Y-60414819D02*
X26963809Y-60414819D01*
X26963809Y-60414819D02*
X27106666Y-60462438D01*
X27106666Y-60462438D02*
X27201904Y-60557676D01*
X27201904Y-60557676D02*
X27249523Y-60652914D01*
X27249523Y-60652914D02*
X27297142Y-60843390D01*
X27297142Y-60843390D02*
X27297142Y-60986247D01*
X27297142Y-60986247D02*
X27249523Y-61176723D01*
X27249523Y-61176723D02*
X27201904Y-61271961D01*
X27201904Y-61271961D02*
X27106666Y-61367200D01*
X27106666Y-61367200D02*
X26963809Y-61414819D01*
X26963809Y-61414819D02*
X26725714Y-61414819D01*
X28249523Y-61414819D02*
X27678095Y-61414819D01*
X27963809Y-61414819D02*
X27963809Y-60414819D01*
X27963809Y-60414819D02*
X27868571Y-60557676D01*
X27868571Y-60557676D02*
X27773333Y-60652914D01*
X27773333Y-60652914D02*
X27678095Y-60700533D01*
X29201904Y-61414819D02*
X28630476Y-61414819D01*
X28916190Y-61414819D02*
X28916190Y-60414819D01*
X28916190Y-60414819D02*
X28820952Y-60557676D01*
X28820952Y-60557676D02*
X28725714Y-60652914D01*
X28725714Y-60652914D02*
X28630476Y-60700533D01*
X47521905Y-53794819D02*
X47521905Y-52794819D01*
X47521905Y-52794819D02*
X47760000Y-52794819D01*
X47760000Y-52794819D02*
X47902857Y-52842438D01*
X47902857Y-52842438D02*
X47998095Y-52937676D01*
X47998095Y-52937676D02*
X48045714Y-53032914D01*
X48045714Y-53032914D02*
X48093333Y-53223390D01*
X48093333Y-53223390D02*
X48093333Y-53366247D01*
X48093333Y-53366247D02*
X48045714Y-53556723D01*
X48045714Y-53556723D02*
X47998095Y-53651961D01*
X47998095Y-53651961D02*
X47902857Y-53747200D01*
X47902857Y-53747200D02*
X47760000Y-53794819D01*
X47760000Y-53794819D02*
X47521905Y-53794819D01*
X48712381Y-52794819D02*
X48807619Y-52794819D01*
X48807619Y-52794819D02*
X48902857Y-52842438D01*
X48902857Y-52842438D02*
X48950476Y-52890057D01*
X48950476Y-52890057D02*
X48998095Y-52985295D01*
X48998095Y-52985295D02*
X49045714Y-53175771D01*
X49045714Y-53175771D02*
X49045714Y-53413866D01*
X49045714Y-53413866D02*
X48998095Y-53604342D01*
X48998095Y-53604342D02*
X48950476Y-53699580D01*
X48950476Y-53699580D02*
X48902857Y-53747200D01*
X48902857Y-53747200D02*
X48807619Y-53794819D01*
X48807619Y-53794819D02*
X48712381Y-53794819D01*
X48712381Y-53794819D02*
X48617143Y-53747200D01*
X48617143Y-53747200D02*
X48569524Y-53699580D01*
X48569524Y-53699580D02*
X48521905Y-53604342D01*
X48521905Y-53604342D02*
X48474286Y-53413866D01*
X48474286Y-53413866D02*
X48474286Y-53175771D01*
X48474286Y-53175771D02*
X48521905Y-52985295D01*
X48521905Y-52985295D02*
X48569524Y-52890057D01*
X48569524Y-52890057D02*
X48617143Y-52842438D01*
X48617143Y-52842438D02*
X48712381Y-52794819D01*
X27201905Y-48714819D02*
X27201905Y-47714819D01*
X27201905Y-47714819D02*
X27440000Y-47714819D01*
X27440000Y-47714819D02*
X27582857Y-47762438D01*
X27582857Y-47762438D02*
X27678095Y-47857676D01*
X27678095Y-47857676D02*
X27725714Y-47952914D01*
X27725714Y-47952914D02*
X27773333Y-48143390D01*
X27773333Y-48143390D02*
X27773333Y-48286247D01*
X27773333Y-48286247D02*
X27725714Y-48476723D01*
X27725714Y-48476723D02*
X27678095Y-48571961D01*
X27678095Y-48571961D02*
X27582857Y-48667200D01*
X27582857Y-48667200D02*
X27440000Y-48714819D01*
X27440000Y-48714819D02*
X27201905Y-48714819D01*
X28344762Y-48143390D02*
X28249524Y-48095771D01*
X28249524Y-48095771D02*
X28201905Y-48048152D01*
X28201905Y-48048152D02*
X28154286Y-47952914D01*
X28154286Y-47952914D02*
X28154286Y-47905295D01*
X28154286Y-47905295D02*
X28201905Y-47810057D01*
X28201905Y-47810057D02*
X28249524Y-47762438D01*
X28249524Y-47762438D02*
X28344762Y-47714819D01*
X28344762Y-47714819D02*
X28535238Y-47714819D01*
X28535238Y-47714819D02*
X28630476Y-47762438D01*
X28630476Y-47762438D02*
X28678095Y-47810057D01*
X28678095Y-47810057D02*
X28725714Y-47905295D01*
X28725714Y-47905295D02*
X28725714Y-47952914D01*
X28725714Y-47952914D02*
X28678095Y-48048152D01*
X28678095Y-48048152D02*
X28630476Y-48095771D01*
X28630476Y-48095771D02*
X28535238Y-48143390D01*
X28535238Y-48143390D02*
X28344762Y-48143390D01*
X28344762Y-48143390D02*
X28249524Y-48191009D01*
X28249524Y-48191009D02*
X28201905Y-48238628D01*
X28201905Y-48238628D02*
X28154286Y-48333866D01*
X28154286Y-48333866D02*
X28154286Y-48524342D01*
X28154286Y-48524342D02*
X28201905Y-48619580D01*
X28201905Y-48619580D02*
X28249524Y-48667200D01*
X28249524Y-48667200D02*
X28344762Y-48714819D01*
X28344762Y-48714819D02*
X28535238Y-48714819D01*
X28535238Y-48714819D02*
X28630476Y-48667200D01*
X28630476Y-48667200D02*
X28678095Y-48619580D01*
X28678095Y-48619580D02*
X28725714Y-48524342D01*
X28725714Y-48524342D02*
X28725714Y-48333866D01*
X28725714Y-48333866D02*
X28678095Y-48238628D01*
X28678095Y-48238628D02*
X28630476Y-48191009D01*
X28630476Y-48191009D02*
X28535238Y-48143390D01*
X33377618Y-19504819D02*
X33044285Y-19028628D01*
X32806190Y-19504819D02*
X32806190Y-18504819D01*
X32806190Y-18504819D02*
X33187142Y-18504819D01*
X33187142Y-18504819D02*
X33282380Y-18552438D01*
X33282380Y-18552438D02*
X33329999Y-18600057D01*
X33329999Y-18600057D02*
X33377618Y-18695295D01*
X33377618Y-18695295D02*
X33377618Y-18838152D01*
X33377618Y-18838152D02*
X33329999Y-18933390D01*
X33329999Y-18933390D02*
X33282380Y-18981009D01*
X33282380Y-18981009D02*
X33187142Y-19028628D01*
X33187142Y-19028628D02*
X32806190Y-19028628D01*
X34139523Y-18981009D02*
X33806190Y-18981009D01*
X33806190Y-19504819D02*
X33806190Y-18504819D01*
X33806190Y-18504819D02*
X34282380Y-18504819D01*
X35377619Y-19219104D02*
X35853809Y-19219104D01*
X35282381Y-19504819D02*
X35615714Y-18504819D01*
X35615714Y-18504819D02*
X35949047Y-19504819D01*
X36282381Y-18838152D02*
X36282381Y-19504819D01*
X36282381Y-18933390D02*
X36330000Y-18885771D01*
X36330000Y-18885771D02*
X36425238Y-18838152D01*
X36425238Y-18838152D02*
X36568095Y-18838152D01*
X36568095Y-18838152D02*
X36663333Y-18885771D01*
X36663333Y-18885771D02*
X36710952Y-18981009D01*
X36710952Y-18981009D02*
X36710952Y-19504819D01*
X37044286Y-18838152D02*
X37425238Y-18838152D01*
X37187143Y-18504819D02*
X37187143Y-19361961D01*
X37187143Y-19361961D02*
X37234762Y-19457200D01*
X37234762Y-19457200D02*
X37330000Y-19504819D01*
X37330000Y-19504819D02*
X37425238Y-19504819D01*
X38139524Y-19457200D02*
X38044286Y-19504819D01*
X38044286Y-19504819D02*
X37853810Y-19504819D01*
X37853810Y-19504819D02*
X37758572Y-19457200D01*
X37758572Y-19457200D02*
X37710953Y-19361961D01*
X37710953Y-19361961D02*
X37710953Y-18981009D01*
X37710953Y-18981009D02*
X37758572Y-18885771D01*
X37758572Y-18885771D02*
X37853810Y-18838152D01*
X37853810Y-18838152D02*
X38044286Y-18838152D01*
X38044286Y-18838152D02*
X38139524Y-18885771D01*
X38139524Y-18885771D02*
X38187143Y-18981009D01*
X38187143Y-18981009D02*
X38187143Y-19076247D01*
X38187143Y-19076247D02*
X37710953Y-19171485D01*
X38615715Y-18838152D02*
X38615715Y-19504819D01*
X38615715Y-18933390D02*
X38663334Y-18885771D01*
X38663334Y-18885771D02*
X38758572Y-18838152D01*
X38758572Y-18838152D02*
X38901429Y-18838152D01*
X38901429Y-18838152D02*
X38996667Y-18885771D01*
X38996667Y-18885771D02*
X39044286Y-18981009D01*
X39044286Y-18981009D02*
X39044286Y-19504819D01*
X39520477Y-18838152D02*
X39520477Y-19504819D01*
X39520477Y-18933390D02*
X39568096Y-18885771D01*
X39568096Y-18885771D02*
X39663334Y-18838152D01*
X39663334Y-18838152D02*
X39806191Y-18838152D01*
X39806191Y-18838152D02*
X39901429Y-18885771D01*
X39901429Y-18885771D02*
X39949048Y-18981009D01*
X39949048Y-18981009D02*
X39949048Y-19504819D01*
X40853810Y-19504819D02*
X40853810Y-18981009D01*
X40853810Y-18981009D02*
X40806191Y-18885771D01*
X40806191Y-18885771D02*
X40710953Y-18838152D01*
X40710953Y-18838152D02*
X40520477Y-18838152D01*
X40520477Y-18838152D02*
X40425239Y-18885771D01*
X40853810Y-19457200D02*
X40758572Y-19504819D01*
X40758572Y-19504819D02*
X40520477Y-19504819D01*
X40520477Y-19504819D02*
X40425239Y-19457200D01*
X40425239Y-19457200D02*
X40377620Y-19361961D01*
X40377620Y-19361961D02*
X40377620Y-19266723D01*
X40377620Y-19266723D02*
X40425239Y-19171485D01*
X40425239Y-19171485D02*
X40520477Y-19123866D01*
X40520477Y-19123866D02*
X40758572Y-19123866D01*
X40758572Y-19123866D02*
X40853810Y-19076247D01*
X35568095Y-69304819D02*
X35568095Y-70114342D01*
X35568095Y-70114342D02*
X35615714Y-70209580D01*
X35615714Y-70209580D02*
X35663333Y-70257200D01*
X35663333Y-70257200D02*
X35758571Y-70304819D01*
X35758571Y-70304819D02*
X35949047Y-70304819D01*
X35949047Y-70304819D02*
X36044285Y-70257200D01*
X36044285Y-70257200D02*
X36091904Y-70209580D01*
X36091904Y-70209580D02*
X36139523Y-70114342D01*
X36139523Y-70114342D02*
X36139523Y-69304819D01*
X36568095Y-70257200D02*
X36710952Y-70304819D01*
X36710952Y-70304819D02*
X36949047Y-70304819D01*
X36949047Y-70304819D02*
X37044285Y-70257200D01*
X37044285Y-70257200D02*
X37091904Y-70209580D01*
X37091904Y-70209580D02*
X37139523Y-70114342D01*
X37139523Y-70114342D02*
X37139523Y-70019104D01*
X37139523Y-70019104D02*
X37091904Y-69923866D01*
X37091904Y-69923866D02*
X37044285Y-69876247D01*
X37044285Y-69876247D02*
X36949047Y-69828628D01*
X36949047Y-69828628D02*
X36758571Y-69781009D01*
X36758571Y-69781009D02*
X36663333Y-69733390D01*
X36663333Y-69733390D02*
X36615714Y-69685771D01*
X36615714Y-69685771D02*
X36568095Y-69590533D01*
X36568095Y-69590533D02*
X36568095Y-69495295D01*
X36568095Y-69495295D02*
X36615714Y-69400057D01*
X36615714Y-69400057D02*
X36663333Y-69352438D01*
X36663333Y-69352438D02*
X36758571Y-69304819D01*
X36758571Y-69304819D02*
X36996666Y-69304819D01*
X36996666Y-69304819D02*
X37139523Y-69352438D01*
X37901428Y-69781009D02*
X38044285Y-69828628D01*
X38044285Y-69828628D02*
X38091904Y-69876247D01*
X38091904Y-69876247D02*
X38139523Y-69971485D01*
X38139523Y-69971485D02*
X38139523Y-70114342D01*
X38139523Y-70114342D02*
X38091904Y-70209580D01*
X38091904Y-70209580D02*
X38044285Y-70257200D01*
X38044285Y-70257200D02*
X37949047Y-70304819D01*
X37949047Y-70304819D02*
X37568095Y-70304819D01*
X37568095Y-70304819D02*
X37568095Y-69304819D01*
X37568095Y-69304819D02*
X37901428Y-69304819D01*
X37901428Y-69304819D02*
X37996666Y-69352438D01*
X37996666Y-69352438D02*
X38044285Y-69400057D01*
X38044285Y-69400057D02*
X38091904Y-69495295D01*
X38091904Y-69495295D02*
X38091904Y-69590533D01*
X38091904Y-69590533D02*
X38044285Y-69685771D01*
X38044285Y-69685771D02*
X37996666Y-69733390D01*
X37996666Y-69733390D02*
X37901428Y-69781009D01*
X37901428Y-69781009D02*
X37568095Y-69781009D01*
X27201905Y-51254819D02*
X27201905Y-50254819D01*
X27201905Y-50254819D02*
X27440000Y-50254819D01*
X27440000Y-50254819D02*
X27582857Y-50302438D01*
X27582857Y-50302438D02*
X27678095Y-50397676D01*
X27678095Y-50397676D02*
X27725714Y-50492914D01*
X27725714Y-50492914D02*
X27773333Y-50683390D01*
X27773333Y-50683390D02*
X27773333Y-50826247D01*
X27773333Y-50826247D02*
X27725714Y-51016723D01*
X27725714Y-51016723D02*
X27678095Y-51111961D01*
X27678095Y-51111961D02*
X27582857Y-51207200D01*
X27582857Y-51207200D02*
X27440000Y-51254819D01*
X27440000Y-51254819D02*
X27201905Y-51254819D01*
X28106667Y-50254819D02*
X28725714Y-50254819D01*
X28725714Y-50254819D02*
X28392381Y-50635771D01*
X28392381Y-50635771D02*
X28535238Y-50635771D01*
X28535238Y-50635771D02*
X28630476Y-50683390D01*
X28630476Y-50683390D02*
X28678095Y-50731009D01*
X28678095Y-50731009D02*
X28725714Y-50826247D01*
X28725714Y-50826247D02*
X28725714Y-51064342D01*
X28725714Y-51064342D02*
X28678095Y-51159580D01*
X28678095Y-51159580D02*
X28630476Y-51207200D01*
X28630476Y-51207200D02*
X28535238Y-51254819D01*
X28535238Y-51254819D02*
X28249524Y-51254819D01*
X28249524Y-51254819D02*
X28154286Y-51207200D01*
X28154286Y-51207200D02*
X28106667Y-51159580D01*
X26701905Y-22314819D02*
X27320952Y-22314819D01*
X27320952Y-22314819D02*
X26987619Y-22695771D01*
X26987619Y-22695771D02*
X27130476Y-22695771D01*
X27130476Y-22695771D02*
X27225714Y-22743390D01*
X27225714Y-22743390D02*
X27273333Y-22791009D01*
X27273333Y-22791009D02*
X27320952Y-22886247D01*
X27320952Y-22886247D02*
X27320952Y-23124342D01*
X27320952Y-23124342D02*
X27273333Y-23219580D01*
X27273333Y-23219580D02*
X27225714Y-23267200D01*
X27225714Y-23267200D02*
X27130476Y-23314819D01*
X27130476Y-23314819D02*
X26844762Y-23314819D01*
X26844762Y-23314819D02*
X26749524Y-23267200D01*
X26749524Y-23267200D02*
X26701905Y-23219580D01*
X27606667Y-22314819D02*
X27940000Y-23314819D01*
X27940000Y-23314819D02*
X28273333Y-22314819D01*
X28511429Y-22314819D02*
X29130476Y-22314819D01*
X29130476Y-22314819D02*
X28797143Y-22695771D01*
X28797143Y-22695771D02*
X28940000Y-22695771D01*
X28940000Y-22695771D02*
X29035238Y-22743390D01*
X29035238Y-22743390D02*
X29082857Y-22791009D01*
X29082857Y-22791009D02*
X29130476Y-22886247D01*
X29130476Y-22886247D02*
X29130476Y-23124342D01*
X29130476Y-23124342D02*
X29082857Y-23219580D01*
X29082857Y-23219580D02*
X29035238Y-23267200D01*
X29035238Y-23267200D02*
X28940000Y-23314819D01*
X28940000Y-23314819D02*
X28654286Y-23314819D01*
X28654286Y-23314819D02*
X28559048Y-23267200D01*
X28559048Y-23267200D02*
X28511429Y-23219580D01*
X26725714Y-41094819D02*
X26725714Y-40094819D01*
X26725714Y-40094819D02*
X26963809Y-40094819D01*
X26963809Y-40094819D02*
X27106666Y-40142438D01*
X27106666Y-40142438D02*
X27201904Y-40237676D01*
X27201904Y-40237676D02*
X27249523Y-40332914D01*
X27249523Y-40332914D02*
X27297142Y-40523390D01*
X27297142Y-40523390D02*
X27297142Y-40666247D01*
X27297142Y-40666247D02*
X27249523Y-40856723D01*
X27249523Y-40856723D02*
X27201904Y-40951961D01*
X27201904Y-40951961D02*
X27106666Y-41047200D01*
X27106666Y-41047200D02*
X26963809Y-41094819D01*
X26963809Y-41094819D02*
X26725714Y-41094819D01*
X28249523Y-41094819D02*
X27678095Y-41094819D01*
X27963809Y-41094819D02*
X27963809Y-40094819D01*
X27963809Y-40094819D02*
X27868571Y-40237676D01*
X27868571Y-40237676D02*
X27773333Y-40332914D01*
X27773333Y-40332914D02*
X27678095Y-40380533D01*
X29106666Y-40094819D02*
X28916190Y-40094819D01*
X28916190Y-40094819D02*
X28820952Y-40142438D01*
X28820952Y-40142438D02*
X28773333Y-40190057D01*
X28773333Y-40190057D02*
X28678095Y-40332914D01*
X28678095Y-40332914D02*
X28630476Y-40523390D01*
X28630476Y-40523390D02*
X28630476Y-40904342D01*
X28630476Y-40904342D02*
X28678095Y-40999580D01*
X28678095Y-40999580D02*
X28725714Y-41047200D01*
X28725714Y-41047200D02*
X28820952Y-41094819D01*
X28820952Y-41094819D02*
X29011428Y-41094819D01*
X29011428Y-41094819D02*
X29106666Y-41047200D01*
X29106666Y-41047200D02*
X29154285Y-40999580D01*
X29154285Y-40999580D02*
X29201904Y-40904342D01*
X29201904Y-40904342D02*
X29201904Y-40666247D01*
X29201904Y-40666247D02*
X29154285Y-40571009D01*
X29154285Y-40571009D02*
X29106666Y-40523390D01*
X29106666Y-40523390D02*
X29011428Y-40475771D01*
X29011428Y-40475771D02*
X28820952Y-40475771D01*
X28820952Y-40475771D02*
X28725714Y-40523390D01*
X28725714Y-40523390D02*
X28678095Y-40571009D01*
X28678095Y-40571009D02*
X28630476Y-40666247D01*
X47045714Y-23314819D02*
X47045714Y-22314819D01*
X47045714Y-22314819D02*
X47283809Y-22314819D01*
X47283809Y-22314819D02*
X47426666Y-22362438D01*
X47426666Y-22362438D02*
X47521904Y-22457676D01*
X47521904Y-22457676D02*
X47569523Y-22552914D01*
X47569523Y-22552914D02*
X47617142Y-22743390D01*
X47617142Y-22743390D02*
X47617142Y-22886247D01*
X47617142Y-22886247D02*
X47569523Y-23076723D01*
X47569523Y-23076723D02*
X47521904Y-23171961D01*
X47521904Y-23171961D02*
X47426666Y-23267200D01*
X47426666Y-23267200D02*
X47283809Y-23314819D01*
X47283809Y-23314819D02*
X47045714Y-23314819D01*
X48474285Y-22648152D02*
X48474285Y-23314819D01*
X48236190Y-22267200D02*
X47998095Y-22981485D01*
X47998095Y-22981485D02*
X48617142Y-22981485D01*
X48902857Y-22314819D02*
X49521904Y-22314819D01*
X49521904Y-22314819D02*
X49188571Y-22695771D01*
X49188571Y-22695771D02*
X49331428Y-22695771D01*
X49331428Y-22695771D02*
X49426666Y-22743390D01*
X49426666Y-22743390D02*
X49474285Y-22791009D01*
X49474285Y-22791009D02*
X49521904Y-22886247D01*
X49521904Y-22886247D02*
X49521904Y-23124342D01*
X49521904Y-23124342D02*
X49474285Y-23219580D01*
X49474285Y-23219580D02*
X49426666Y-23267200D01*
X49426666Y-23267200D02*
X49331428Y-23314819D01*
X49331428Y-23314819D02*
X49045714Y-23314819D01*
X49045714Y-23314819D02*
X48950476Y-23267200D01*
X48950476Y-23267200D02*
X48902857Y-23219580D01*
X47045714Y-63954819D02*
X47045714Y-62954819D01*
X47045714Y-62954819D02*
X47283809Y-62954819D01*
X47283809Y-62954819D02*
X47426666Y-63002438D01*
X47426666Y-63002438D02*
X47521904Y-63097676D01*
X47521904Y-63097676D02*
X47569523Y-63192914D01*
X47569523Y-63192914D02*
X47617142Y-63383390D01*
X47617142Y-63383390D02*
X47617142Y-63526247D01*
X47617142Y-63526247D02*
X47569523Y-63716723D01*
X47569523Y-63716723D02*
X47521904Y-63811961D01*
X47521904Y-63811961D02*
X47426666Y-63907200D01*
X47426666Y-63907200D02*
X47283809Y-63954819D01*
X47283809Y-63954819D02*
X47045714Y-63954819D01*
X47998095Y-63050057D02*
X48045714Y-63002438D01*
X48045714Y-63002438D02*
X48140952Y-62954819D01*
X48140952Y-62954819D02*
X48379047Y-62954819D01*
X48379047Y-62954819D02*
X48474285Y-63002438D01*
X48474285Y-63002438D02*
X48521904Y-63050057D01*
X48521904Y-63050057D02*
X48569523Y-63145295D01*
X48569523Y-63145295D02*
X48569523Y-63240533D01*
X48569523Y-63240533D02*
X48521904Y-63383390D01*
X48521904Y-63383390D02*
X47950476Y-63954819D01*
X47950476Y-63954819D02*
X48569523Y-63954819D01*
X49521904Y-63954819D02*
X48950476Y-63954819D01*
X49236190Y-63954819D02*
X49236190Y-62954819D01*
X49236190Y-62954819D02*
X49140952Y-63097676D01*
X49140952Y-63097676D02*
X49045714Y-63192914D01*
X49045714Y-63192914D02*
X48950476Y-63240533D01*
X47045714Y-61414819D02*
X47045714Y-60414819D01*
X47045714Y-60414819D02*
X47283809Y-60414819D01*
X47283809Y-60414819D02*
X47426666Y-60462438D01*
X47426666Y-60462438D02*
X47521904Y-60557676D01*
X47521904Y-60557676D02*
X47569523Y-60652914D01*
X47569523Y-60652914D02*
X47617142Y-60843390D01*
X47617142Y-60843390D02*
X47617142Y-60986247D01*
X47617142Y-60986247D02*
X47569523Y-61176723D01*
X47569523Y-61176723D02*
X47521904Y-61271961D01*
X47521904Y-61271961D02*
X47426666Y-61367200D01*
X47426666Y-61367200D02*
X47283809Y-61414819D01*
X47283809Y-61414819D02*
X47045714Y-61414819D01*
X48474285Y-60748152D02*
X48474285Y-61414819D01*
X48236190Y-60367200D02*
X47998095Y-61081485D01*
X47998095Y-61081485D02*
X48617142Y-61081485D01*
X48902857Y-60414819D02*
X49569523Y-60414819D01*
X49569523Y-60414819D02*
X49140952Y-61414819D01*
X26725714Y-69034819D02*
X26725714Y-68034819D01*
X26725714Y-68034819D02*
X26963809Y-68034819D01*
X26963809Y-68034819D02*
X27106666Y-68082438D01*
X27106666Y-68082438D02*
X27201904Y-68177676D01*
X27201904Y-68177676D02*
X27249523Y-68272914D01*
X27249523Y-68272914D02*
X27297142Y-68463390D01*
X27297142Y-68463390D02*
X27297142Y-68606247D01*
X27297142Y-68606247D02*
X27249523Y-68796723D01*
X27249523Y-68796723D02*
X27201904Y-68891961D01*
X27201904Y-68891961D02*
X27106666Y-68987200D01*
X27106666Y-68987200D02*
X26963809Y-69034819D01*
X26963809Y-69034819D02*
X26725714Y-69034819D01*
X28249523Y-69034819D02*
X27678095Y-69034819D01*
X27963809Y-69034819D02*
X27963809Y-68034819D01*
X27963809Y-68034819D02*
X27868571Y-68177676D01*
X27868571Y-68177676D02*
X27773333Y-68272914D01*
X27773333Y-68272914D02*
X27678095Y-68320533D01*
X29106666Y-68368152D02*
X29106666Y-69034819D01*
X28868571Y-67987200D02*
X28630476Y-68701485D01*
X28630476Y-68701485D02*
X29249523Y-68701485D01*
X47045714Y-56334819D02*
X47045714Y-55334819D01*
X47045714Y-55334819D02*
X47283809Y-55334819D01*
X47283809Y-55334819D02*
X47426666Y-55382438D01*
X47426666Y-55382438D02*
X47521904Y-55477676D01*
X47521904Y-55477676D02*
X47569523Y-55572914D01*
X47569523Y-55572914D02*
X47617142Y-55763390D01*
X47617142Y-55763390D02*
X47617142Y-55906247D01*
X47617142Y-55906247D02*
X47569523Y-56096723D01*
X47569523Y-56096723D02*
X47521904Y-56191961D01*
X47521904Y-56191961D02*
X47426666Y-56287200D01*
X47426666Y-56287200D02*
X47283809Y-56334819D01*
X47283809Y-56334819D02*
X47045714Y-56334819D01*
X48474285Y-55668152D02*
X48474285Y-56334819D01*
X48236190Y-55287200D02*
X47998095Y-56001485D01*
X47998095Y-56001485D02*
X48617142Y-56001485D01*
X49474285Y-55334819D02*
X48998095Y-55334819D01*
X48998095Y-55334819D02*
X48950476Y-55811009D01*
X48950476Y-55811009D02*
X48998095Y-55763390D01*
X48998095Y-55763390D02*
X49093333Y-55715771D01*
X49093333Y-55715771D02*
X49331428Y-55715771D01*
X49331428Y-55715771D02*
X49426666Y-55763390D01*
X49426666Y-55763390D02*
X49474285Y-55811009D01*
X49474285Y-55811009D02*
X49521904Y-55906247D01*
X49521904Y-55906247D02*
X49521904Y-56144342D01*
X49521904Y-56144342D02*
X49474285Y-56239580D01*
X49474285Y-56239580D02*
X49426666Y-56287200D01*
X49426666Y-56287200D02*
X49331428Y-56334819D01*
X49331428Y-56334819D02*
X49093333Y-56334819D01*
X49093333Y-56334819D02*
X48998095Y-56287200D01*
X48998095Y-56287200D02*
X48950476Y-56239580D01*
X47045714Y-69034819D02*
X47045714Y-68034819D01*
X47045714Y-68034819D02*
X47283809Y-68034819D01*
X47283809Y-68034819D02*
X47426666Y-68082438D01*
X47426666Y-68082438D02*
X47521904Y-68177676D01*
X47521904Y-68177676D02*
X47569523Y-68272914D01*
X47569523Y-68272914D02*
X47617142Y-68463390D01*
X47617142Y-68463390D02*
X47617142Y-68606247D01*
X47617142Y-68606247D02*
X47569523Y-68796723D01*
X47569523Y-68796723D02*
X47521904Y-68891961D01*
X47521904Y-68891961D02*
X47426666Y-68987200D01*
X47426666Y-68987200D02*
X47283809Y-69034819D01*
X47283809Y-69034819D02*
X47045714Y-69034819D01*
X48569523Y-69034819D02*
X47998095Y-69034819D01*
X48283809Y-69034819D02*
X48283809Y-68034819D01*
X48283809Y-68034819D02*
X48188571Y-68177676D01*
X48188571Y-68177676D02*
X48093333Y-68272914D01*
X48093333Y-68272914D02*
X47998095Y-68320533D01*
X49045714Y-69034819D02*
X49236190Y-69034819D01*
X49236190Y-69034819D02*
X49331428Y-68987200D01*
X49331428Y-68987200D02*
X49379047Y-68939580D01*
X49379047Y-68939580D02*
X49474285Y-68796723D01*
X49474285Y-68796723D02*
X49521904Y-68606247D01*
X49521904Y-68606247D02*
X49521904Y-68225295D01*
X49521904Y-68225295D02*
X49474285Y-68130057D01*
X49474285Y-68130057D02*
X49426666Y-68082438D01*
X49426666Y-68082438D02*
X49331428Y-68034819D01*
X49331428Y-68034819D02*
X49140952Y-68034819D01*
X49140952Y-68034819D02*
X49045714Y-68082438D01*
X49045714Y-68082438D02*
X48998095Y-68130057D01*
X48998095Y-68130057D02*
X48950476Y-68225295D01*
X48950476Y-68225295D02*
X48950476Y-68463390D01*
X48950476Y-68463390D02*
X48998095Y-68558628D01*
X48998095Y-68558628D02*
X49045714Y-68606247D01*
X49045714Y-68606247D02*
X49140952Y-68653866D01*
X49140952Y-68653866D02*
X49331428Y-68653866D01*
X49331428Y-68653866D02*
X49426666Y-68606247D01*
X49426666Y-68606247D02*
X49474285Y-68558628D01*
X49474285Y-68558628D02*
X49521904Y-68463390D01*
X26725714Y-58874819D02*
X26725714Y-57874819D01*
X26725714Y-57874819D02*
X26963809Y-57874819D01*
X26963809Y-57874819D02*
X27106666Y-57922438D01*
X27106666Y-57922438D02*
X27201904Y-58017676D01*
X27201904Y-58017676D02*
X27249523Y-58112914D01*
X27249523Y-58112914D02*
X27297142Y-58303390D01*
X27297142Y-58303390D02*
X27297142Y-58446247D01*
X27297142Y-58446247D02*
X27249523Y-58636723D01*
X27249523Y-58636723D02*
X27201904Y-58731961D01*
X27201904Y-58731961D02*
X27106666Y-58827200D01*
X27106666Y-58827200D02*
X26963809Y-58874819D01*
X26963809Y-58874819D02*
X26725714Y-58874819D01*
X28249523Y-58874819D02*
X27678095Y-58874819D01*
X27963809Y-58874819D02*
X27963809Y-57874819D01*
X27963809Y-57874819D02*
X27868571Y-58017676D01*
X27868571Y-58017676D02*
X27773333Y-58112914D01*
X27773333Y-58112914D02*
X27678095Y-58160533D01*
X28868571Y-57874819D02*
X28963809Y-57874819D01*
X28963809Y-57874819D02*
X29059047Y-57922438D01*
X29059047Y-57922438D02*
X29106666Y-57970057D01*
X29106666Y-57970057D02*
X29154285Y-58065295D01*
X29154285Y-58065295D02*
X29201904Y-58255771D01*
X29201904Y-58255771D02*
X29201904Y-58493866D01*
X29201904Y-58493866D02*
X29154285Y-58684342D01*
X29154285Y-58684342D02*
X29106666Y-58779580D01*
X29106666Y-58779580D02*
X29059047Y-58827200D01*
X29059047Y-58827200D02*
X28963809Y-58874819D01*
X28963809Y-58874819D02*
X28868571Y-58874819D01*
X28868571Y-58874819D02*
X28773333Y-58827200D01*
X28773333Y-58827200D02*
X28725714Y-58779580D01*
X28725714Y-58779580D02*
X28678095Y-58684342D01*
X28678095Y-58684342D02*
X28630476Y-58493866D01*
X28630476Y-58493866D02*
X28630476Y-58255771D01*
X28630476Y-58255771D02*
X28678095Y-58065295D01*
X28678095Y-58065295D02*
X28725714Y-57970057D01*
X28725714Y-57970057D02*
X28773333Y-57922438D01*
X28773333Y-57922438D02*
X28868571Y-57874819D01*
X26725714Y-43634819D02*
X26725714Y-42634819D01*
X26725714Y-42634819D02*
X26963809Y-42634819D01*
X26963809Y-42634819D02*
X27106666Y-42682438D01*
X27106666Y-42682438D02*
X27201904Y-42777676D01*
X27201904Y-42777676D02*
X27249523Y-42872914D01*
X27249523Y-42872914D02*
X27297142Y-43063390D01*
X27297142Y-43063390D02*
X27297142Y-43206247D01*
X27297142Y-43206247D02*
X27249523Y-43396723D01*
X27249523Y-43396723D02*
X27201904Y-43491961D01*
X27201904Y-43491961D02*
X27106666Y-43587200D01*
X27106666Y-43587200D02*
X26963809Y-43634819D01*
X26963809Y-43634819D02*
X26725714Y-43634819D01*
X28249523Y-43634819D02*
X27678095Y-43634819D01*
X27963809Y-43634819D02*
X27963809Y-42634819D01*
X27963809Y-42634819D02*
X27868571Y-42777676D01*
X27868571Y-42777676D02*
X27773333Y-42872914D01*
X27773333Y-42872914D02*
X27678095Y-42920533D01*
X28582857Y-42634819D02*
X29249523Y-42634819D01*
X29249523Y-42634819D02*
X28820952Y-43634819D01*
X27201905Y-28394819D02*
X27201905Y-27394819D01*
X27201905Y-27394819D02*
X27440000Y-27394819D01*
X27440000Y-27394819D02*
X27582857Y-27442438D01*
X27582857Y-27442438D02*
X27678095Y-27537676D01*
X27678095Y-27537676D02*
X27725714Y-27632914D01*
X27725714Y-27632914D02*
X27773333Y-27823390D01*
X27773333Y-27823390D02*
X27773333Y-27966247D01*
X27773333Y-27966247D02*
X27725714Y-28156723D01*
X27725714Y-28156723D02*
X27678095Y-28251961D01*
X27678095Y-28251961D02*
X27582857Y-28347200D01*
X27582857Y-28347200D02*
X27440000Y-28394819D01*
X27440000Y-28394819D02*
X27201905Y-28394819D01*
X28630476Y-27728152D02*
X28630476Y-28394819D01*
X28392381Y-27347200D02*
X28154286Y-28061485D01*
X28154286Y-28061485D02*
X28773333Y-28061485D01*
X47045714Y-43634819D02*
X47045714Y-42634819D01*
X47045714Y-42634819D02*
X47283809Y-42634819D01*
X47283809Y-42634819D02*
X47426666Y-42682438D01*
X47426666Y-42682438D02*
X47521904Y-42777676D01*
X47521904Y-42777676D02*
X47569523Y-42872914D01*
X47569523Y-42872914D02*
X47617142Y-43063390D01*
X47617142Y-43063390D02*
X47617142Y-43206247D01*
X47617142Y-43206247D02*
X47569523Y-43396723D01*
X47569523Y-43396723D02*
X47521904Y-43491961D01*
X47521904Y-43491961D02*
X47426666Y-43587200D01*
X47426666Y-43587200D02*
X47283809Y-43634819D01*
X47283809Y-43634819D02*
X47045714Y-43634819D01*
X47950476Y-42634819D02*
X48569523Y-42634819D01*
X48569523Y-42634819D02*
X48236190Y-43015771D01*
X48236190Y-43015771D02*
X48379047Y-43015771D01*
X48379047Y-43015771D02*
X48474285Y-43063390D01*
X48474285Y-43063390D02*
X48521904Y-43111009D01*
X48521904Y-43111009D02*
X48569523Y-43206247D01*
X48569523Y-43206247D02*
X48569523Y-43444342D01*
X48569523Y-43444342D02*
X48521904Y-43539580D01*
X48521904Y-43539580D02*
X48474285Y-43587200D01*
X48474285Y-43587200D02*
X48379047Y-43634819D01*
X48379047Y-43634819D02*
X48093333Y-43634819D01*
X48093333Y-43634819D02*
X47998095Y-43587200D01*
X47998095Y-43587200D02*
X47950476Y-43539580D01*
X49140952Y-43063390D02*
X49045714Y-43015771D01*
X49045714Y-43015771D02*
X48998095Y-42968152D01*
X48998095Y-42968152D02*
X48950476Y-42872914D01*
X48950476Y-42872914D02*
X48950476Y-42825295D01*
X48950476Y-42825295D02*
X48998095Y-42730057D01*
X48998095Y-42730057D02*
X49045714Y-42682438D01*
X49045714Y-42682438D02*
X49140952Y-42634819D01*
X49140952Y-42634819D02*
X49331428Y-42634819D01*
X49331428Y-42634819D02*
X49426666Y-42682438D01*
X49426666Y-42682438D02*
X49474285Y-42730057D01*
X49474285Y-42730057D02*
X49521904Y-42825295D01*
X49521904Y-42825295D02*
X49521904Y-42872914D01*
X49521904Y-42872914D02*
X49474285Y-42968152D01*
X49474285Y-42968152D02*
X49426666Y-43015771D01*
X49426666Y-43015771D02*
X49331428Y-43063390D01*
X49331428Y-43063390D02*
X49140952Y-43063390D01*
X49140952Y-43063390D02*
X49045714Y-43111009D01*
X49045714Y-43111009D02*
X48998095Y-43158628D01*
X48998095Y-43158628D02*
X48950476Y-43253866D01*
X48950476Y-43253866D02*
X48950476Y-43444342D01*
X48950476Y-43444342D02*
X48998095Y-43539580D01*
X48998095Y-43539580D02*
X49045714Y-43587200D01*
X49045714Y-43587200D02*
X49140952Y-43634819D01*
X49140952Y-43634819D02*
X49331428Y-43634819D01*
X49331428Y-43634819D02*
X49426666Y-43587200D01*
X49426666Y-43587200D02*
X49474285Y-43539580D01*
X49474285Y-43539580D02*
X49521904Y-43444342D01*
X49521904Y-43444342D02*
X49521904Y-43253866D01*
X49521904Y-43253866D02*
X49474285Y-43158628D01*
X49474285Y-43158628D02*
X49426666Y-43111009D01*
X49426666Y-43111009D02*
X49331428Y-43063390D01*
X47045714Y-36014819D02*
X47045714Y-35014819D01*
X47045714Y-35014819D02*
X47283809Y-35014819D01*
X47283809Y-35014819D02*
X47426666Y-35062438D01*
X47426666Y-35062438D02*
X47521904Y-35157676D01*
X47521904Y-35157676D02*
X47569523Y-35252914D01*
X47569523Y-35252914D02*
X47617142Y-35443390D01*
X47617142Y-35443390D02*
X47617142Y-35586247D01*
X47617142Y-35586247D02*
X47569523Y-35776723D01*
X47569523Y-35776723D02*
X47521904Y-35871961D01*
X47521904Y-35871961D02*
X47426666Y-35967200D01*
X47426666Y-35967200D02*
X47283809Y-36014819D01*
X47283809Y-36014819D02*
X47045714Y-36014819D01*
X48474285Y-35348152D02*
X48474285Y-36014819D01*
X48236190Y-34967200D02*
X47998095Y-35681485D01*
X47998095Y-35681485D02*
X48617142Y-35681485D01*
X49521904Y-36014819D02*
X48950476Y-36014819D01*
X49236190Y-36014819D02*
X49236190Y-35014819D01*
X49236190Y-35014819D02*
X49140952Y-35157676D01*
X49140952Y-35157676D02*
X49045714Y-35252914D01*
X49045714Y-35252914D02*
X48950476Y-35300533D01*
X26725714Y-66494819D02*
X26725714Y-65494819D01*
X26725714Y-65494819D02*
X26963809Y-65494819D01*
X26963809Y-65494819D02*
X27106666Y-65542438D01*
X27106666Y-65542438D02*
X27201904Y-65637676D01*
X27201904Y-65637676D02*
X27249523Y-65732914D01*
X27249523Y-65732914D02*
X27297142Y-65923390D01*
X27297142Y-65923390D02*
X27297142Y-66066247D01*
X27297142Y-66066247D02*
X27249523Y-66256723D01*
X27249523Y-66256723D02*
X27201904Y-66351961D01*
X27201904Y-66351961D02*
X27106666Y-66447200D01*
X27106666Y-66447200D02*
X26963809Y-66494819D01*
X26963809Y-66494819D02*
X26725714Y-66494819D01*
X28249523Y-66494819D02*
X27678095Y-66494819D01*
X27963809Y-66494819D02*
X27963809Y-65494819D01*
X27963809Y-65494819D02*
X27868571Y-65637676D01*
X27868571Y-65637676D02*
X27773333Y-65732914D01*
X27773333Y-65732914D02*
X27678095Y-65780533D01*
X28582857Y-65494819D02*
X29201904Y-65494819D01*
X29201904Y-65494819D02*
X28868571Y-65875771D01*
X28868571Y-65875771D02*
X29011428Y-65875771D01*
X29011428Y-65875771D02*
X29106666Y-65923390D01*
X29106666Y-65923390D02*
X29154285Y-65971009D01*
X29154285Y-65971009D02*
X29201904Y-66066247D01*
X29201904Y-66066247D02*
X29201904Y-66304342D01*
X29201904Y-66304342D02*
X29154285Y-66399580D01*
X29154285Y-66399580D02*
X29106666Y-66447200D01*
X29106666Y-66447200D02*
X29011428Y-66494819D01*
X29011428Y-66494819D02*
X28725714Y-66494819D01*
X28725714Y-66494819D02*
X28630476Y-66447200D01*
X28630476Y-66447200D02*
X28582857Y-66399580D01*
X27201905Y-36014819D02*
X27201905Y-35014819D01*
X27201905Y-35014819D02*
X27440000Y-35014819D01*
X27440000Y-35014819D02*
X27582857Y-35062438D01*
X27582857Y-35062438D02*
X27678095Y-35157676D01*
X27678095Y-35157676D02*
X27725714Y-35252914D01*
X27725714Y-35252914D02*
X27773333Y-35443390D01*
X27773333Y-35443390D02*
X27773333Y-35586247D01*
X27773333Y-35586247D02*
X27725714Y-35776723D01*
X27725714Y-35776723D02*
X27678095Y-35871961D01*
X27678095Y-35871961D02*
X27582857Y-35967200D01*
X27582857Y-35967200D02*
X27440000Y-36014819D01*
X27440000Y-36014819D02*
X27201905Y-36014819D01*
X28106667Y-35014819D02*
X28773333Y-35014819D01*
X28773333Y-35014819D02*
X28344762Y-36014819D01*
X47045714Y-51254819D02*
X47045714Y-50254819D01*
X47045714Y-50254819D02*
X47283809Y-50254819D01*
X47283809Y-50254819D02*
X47426666Y-50302438D01*
X47426666Y-50302438D02*
X47521904Y-50397676D01*
X47521904Y-50397676D02*
X47569523Y-50492914D01*
X47569523Y-50492914D02*
X47617142Y-50683390D01*
X47617142Y-50683390D02*
X47617142Y-50826247D01*
X47617142Y-50826247D02*
X47569523Y-51016723D01*
X47569523Y-51016723D02*
X47521904Y-51111961D01*
X47521904Y-51111961D02*
X47426666Y-51207200D01*
X47426666Y-51207200D02*
X47283809Y-51254819D01*
X47283809Y-51254819D02*
X47045714Y-51254819D01*
X47950476Y-50254819D02*
X48569523Y-50254819D01*
X48569523Y-50254819D02*
X48236190Y-50635771D01*
X48236190Y-50635771D02*
X48379047Y-50635771D01*
X48379047Y-50635771D02*
X48474285Y-50683390D01*
X48474285Y-50683390D02*
X48521904Y-50731009D01*
X48521904Y-50731009D02*
X48569523Y-50826247D01*
X48569523Y-50826247D02*
X48569523Y-51064342D01*
X48569523Y-51064342D02*
X48521904Y-51159580D01*
X48521904Y-51159580D02*
X48474285Y-51207200D01*
X48474285Y-51207200D02*
X48379047Y-51254819D01*
X48379047Y-51254819D02*
X48093333Y-51254819D01*
X48093333Y-51254819D02*
X47998095Y-51207200D01*
X47998095Y-51207200D02*
X47950476Y-51159580D01*
X49474285Y-50254819D02*
X48998095Y-50254819D01*
X48998095Y-50254819D02*
X48950476Y-50731009D01*
X48950476Y-50731009D02*
X48998095Y-50683390D01*
X48998095Y-50683390D02*
X49093333Y-50635771D01*
X49093333Y-50635771D02*
X49331428Y-50635771D01*
X49331428Y-50635771D02*
X49426666Y-50683390D01*
X49426666Y-50683390D02*
X49474285Y-50731009D01*
X49474285Y-50731009D02*
X49521904Y-50826247D01*
X49521904Y-50826247D02*
X49521904Y-51064342D01*
X49521904Y-51064342D02*
X49474285Y-51159580D01*
X49474285Y-51159580D02*
X49426666Y-51207200D01*
X49426666Y-51207200D02*
X49331428Y-51254819D01*
X49331428Y-51254819D02*
X49093333Y-51254819D01*
X49093333Y-51254819D02*
X48998095Y-51207200D01*
X48998095Y-51207200D02*
X48950476Y-51159580D01*
X26725714Y-38554819D02*
X26725714Y-37554819D01*
X26725714Y-37554819D02*
X26963809Y-37554819D01*
X26963809Y-37554819D02*
X27106666Y-37602438D01*
X27106666Y-37602438D02*
X27201904Y-37697676D01*
X27201904Y-37697676D02*
X27249523Y-37792914D01*
X27249523Y-37792914D02*
X27297142Y-37983390D01*
X27297142Y-37983390D02*
X27297142Y-38126247D01*
X27297142Y-38126247D02*
X27249523Y-38316723D01*
X27249523Y-38316723D02*
X27201904Y-38411961D01*
X27201904Y-38411961D02*
X27106666Y-38507200D01*
X27106666Y-38507200D02*
X26963809Y-38554819D01*
X26963809Y-38554819D02*
X26725714Y-38554819D01*
X28249523Y-38554819D02*
X27678095Y-38554819D01*
X27963809Y-38554819D02*
X27963809Y-37554819D01*
X27963809Y-37554819D02*
X27868571Y-37697676D01*
X27868571Y-37697676D02*
X27773333Y-37792914D01*
X27773333Y-37792914D02*
X27678095Y-37840533D01*
X29154285Y-37554819D02*
X28678095Y-37554819D01*
X28678095Y-37554819D02*
X28630476Y-38031009D01*
X28630476Y-38031009D02*
X28678095Y-37983390D01*
X28678095Y-37983390D02*
X28773333Y-37935771D01*
X28773333Y-37935771D02*
X29011428Y-37935771D01*
X29011428Y-37935771D02*
X29106666Y-37983390D01*
X29106666Y-37983390D02*
X29154285Y-38031009D01*
X29154285Y-38031009D02*
X29201904Y-38126247D01*
X29201904Y-38126247D02*
X29201904Y-38364342D01*
X29201904Y-38364342D02*
X29154285Y-38459580D01*
X29154285Y-38459580D02*
X29106666Y-38507200D01*
X29106666Y-38507200D02*
X29011428Y-38554819D01*
X29011428Y-38554819D02*
X28773333Y-38554819D01*
X28773333Y-38554819D02*
X28678095Y-38507200D01*
X28678095Y-38507200D02*
X28630476Y-38459580D01*
X47045714Y-25854819D02*
X47045714Y-24854819D01*
X47045714Y-24854819D02*
X47283809Y-24854819D01*
X47283809Y-24854819D02*
X47426666Y-24902438D01*
X47426666Y-24902438D02*
X47521904Y-24997676D01*
X47521904Y-24997676D02*
X47569523Y-25092914D01*
X47569523Y-25092914D02*
X47617142Y-25283390D01*
X47617142Y-25283390D02*
X47617142Y-25426247D01*
X47617142Y-25426247D02*
X47569523Y-25616723D01*
X47569523Y-25616723D02*
X47521904Y-25711961D01*
X47521904Y-25711961D02*
X47426666Y-25807200D01*
X47426666Y-25807200D02*
X47283809Y-25854819D01*
X47283809Y-25854819D02*
X47045714Y-25854819D01*
X48474285Y-25188152D02*
X48474285Y-25854819D01*
X48236190Y-24807200D02*
X47998095Y-25521485D01*
X47998095Y-25521485D02*
X48617142Y-25521485D01*
X49426666Y-25188152D02*
X49426666Y-25854819D01*
X49188571Y-24807200D02*
X48950476Y-25521485D01*
X48950476Y-25521485D02*
X49569523Y-25521485D01*
X27201905Y-33474819D02*
X27201905Y-32474819D01*
X27201905Y-32474819D02*
X27440000Y-32474819D01*
X27440000Y-32474819D02*
X27582857Y-32522438D01*
X27582857Y-32522438D02*
X27678095Y-32617676D01*
X27678095Y-32617676D02*
X27725714Y-32712914D01*
X27725714Y-32712914D02*
X27773333Y-32903390D01*
X27773333Y-32903390D02*
X27773333Y-33046247D01*
X27773333Y-33046247D02*
X27725714Y-33236723D01*
X27725714Y-33236723D02*
X27678095Y-33331961D01*
X27678095Y-33331961D02*
X27582857Y-33427200D01*
X27582857Y-33427200D02*
X27440000Y-33474819D01*
X27440000Y-33474819D02*
X27201905Y-33474819D01*
X28630476Y-32474819D02*
X28440000Y-32474819D01*
X28440000Y-32474819D02*
X28344762Y-32522438D01*
X28344762Y-32522438D02*
X28297143Y-32570057D01*
X28297143Y-32570057D02*
X28201905Y-32712914D01*
X28201905Y-32712914D02*
X28154286Y-32903390D01*
X28154286Y-32903390D02*
X28154286Y-33284342D01*
X28154286Y-33284342D02*
X28201905Y-33379580D01*
X28201905Y-33379580D02*
X28249524Y-33427200D01*
X28249524Y-33427200D02*
X28344762Y-33474819D01*
X28344762Y-33474819D02*
X28535238Y-33474819D01*
X28535238Y-33474819D02*
X28630476Y-33427200D01*
X28630476Y-33427200D02*
X28678095Y-33379580D01*
X28678095Y-33379580D02*
X28725714Y-33284342D01*
X28725714Y-33284342D02*
X28725714Y-33046247D01*
X28725714Y-33046247D02*
X28678095Y-32951009D01*
X28678095Y-32951009D02*
X28630476Y-32903390D01*
X28630476Y-32903390D02*
X28535238Y-32855771D01*
X28535238Y-32855771D02*
X28344762Y-32855771D01*
X28344762Y-32855771D02*
X28249524Y-32903390D01*
X28249524Y-32903390D02*
X28201905Y-32951009D01*
X28201905Y-32951009D02*
X28154286Y-33046247D01*
X47045714Y-46174819D02*
X47045714Y-45174819D01*
X47045714Y-45174819D02*
X47283809Y-45174819D01*
X47283809Y-45174819D02*
X47426666Y-45222438D01*
X47426666Y-45222438D02*
X47521904Y-45317676D01*
X47521904Y-45317676D02*
X47569523Y-45412914D01*
X47569523Y-45412914D02*
X47617142Y-45603390D01*
X47617142Y-45603390D02*
X47617142Y-45746247D01*
X47617142Y-45746247D02*
X47569523Y-45936723D01*
X47569523Y-45936723D02*
X47521904Y-46031961D01*
X47521904Y-46031961D02*
X47426666Y-46127200D01*
X47426666Y-46127200D02*
X47283809Y-46174819D01*
X47283809Y-46174819D02*
X47045714Y-46174819D01*
X47950476Y-45174819D02*
X48569523Y-45174819D01*
X48569523Y-45174819D02*
X48236190Y-45555771D01*
X48236190Y-45555771D02*
X48379047Y-45555771D01*
X48379047Y-45555771D02*
X48474285Y-45603390D01*
X48474285Y-45603390D02*
X48521904Y-45651009D01*
X48521904Y-45651009D02*
X48569523Y-45746247D01*
X48569523Y-45746247D02*
X48569523Y-45984342D01*
X48569523Y-45984342D02*
X48521904Y-46079580D01*
X48521904Y-46079580D02*
X48474285Y-46127200D01*
X48474285Y-46127200D02*
X48379047Y-46174819D01*
X48379047Y-46174819D02*
X48093333Y-46174819D01*
X48093333Y-46174819D02*
X47998095Y-46127200D01*
X47998095Y-46127200D02*
X47950476Y-46079580D01*
X48902857Y-45174819D02*
X49569523Y-45174819D01*
X49569523Y-45174819D02*
X49140952Y-46174819D01*
X26725714Y-46174819D02*
X26725714Y-45174819D01*
X26725714Y-45174819D02*
X26963809Y-45174819D01*
X26963809Y-45174819D02*
X27106666Y-45222438D01*
X27106666Y-45222438D02*
X27201904Y-45317676D01*
X27201904Y-45317676D02*
X27249523Y-45412914D01*
X27249523Y-45412914D02*
X27297142Y-45603390D01*
X27297142Y-45603390D02*
X27297142Y-45746247D01*
X27297142Y-45746247D02*
X27249523Y-45936723D01*
X27249523Y-45936723D02*
X27201904Y-46031961D01*
X27201904Y-46031961D02*
X27106666Y-46127200D01*
X27106666Y-46127200D02*
X26963809Y-46174819D01*
X26963809Y-46174819D02*
X26725714Y-46174819D01*
X28249523Y-46174819D02*
X27678095Y-46174819D01*
X27963809Y-46174819D02*
X27963809Y-45174819D01*
X27963809Y-45174819D02*
X27868571Y-45317676D01*
X27868571Y-45317676D02*
X27773333Y-45412914D01*
X27773333Y-45412914D02*
X27678095Y-45460533D01*
X28820952Y-45603390D02*
X28725714Y-45555771D01*
X28725714Y-45555771D02*
X28678095Y-45508152D01*
X28678095Y-45508152D02*
X28630476Y-45412914D01*
X28630476Y-45412914D02*
X28630476Y-45365295D01*
X28630476Y-45365295D02*
X28678095Y-45270057D01*
X28678095Y-45270057D02*
X28725714Y-45222438D01*
X28725714Y-45222438D02*
X28820952Y-45174819D01*
X28820952Y-45174819D02*
X29011428Y-45174819D01*
X29011428Y-45174819D02*
X29106666Y-45222438D01*
X29106666Y-45222438D02*
X29154285Y-45270057D01*
X29154285Y-45270057D02*
X29201904Y-45365295D01*
X29201904Y-45365295D02*
X29201904Y-45412914D01*
X29201904Y-45412914D02*
X29154285Y-45508152D01*
X29154285Y-45508152D02*
X29106666Y-45555771D01*
X29106666Y-45555771D02*
X29011428Y-45603390D01*
X29011428Y-45603390D02*
X28820952Y-45603390D01*
X28820952Y-45603390D02*
X28725714Y-45651009D01*
X28725714Y-45651009D02*
X28678095Y-45698628D01*
X28678095Y-45698628D02*
X28630476Y-45793866D01*
X28630476Y-45793866D02*
X28630476Y-45984342D01*
X28630476Y-45984342D02*
X28678095Y-46079580D01*
X28678095Y-46079580D02*
X28725714Y-46127200D01*
X28725714Y-46127200D02*
X28820952Y-46174819D01*
X28820952Y-46174819D02*
X29011428Y-46174819D01*
X29011428Y-46174819D02*
X29106666Y-46127200D01*
X29106666Y-46127200D02*
X29154285Y-46079580D01*
X29154285Y-46079580D02*
X29201904Y-45984342D01*
X29201904Y-45984342D02*
X29201904Y-45793866D01*
X29201904Y-45793866D02*
X29154285Y-45698628D01*
X29154285Y-45698628D02*
X29106666Y-45651009D01*
X29106666Y-45651009D02*
X29011428Y-45603390D01*
X47498095Y-70622438D02*
X47402857Y-70574819D01*
X47402857Y-70574819D02*
X47260000Y-70574819D01*
X47260000Y-70574819D02*
X47117143Y-70622438D01*
X47117143Y-70622438D02*
X47021905Y-70717676D01*
X47021905Y-70717676D02*
X46974286Y-70812914D01*
X46974286Y-70812914D02*
X46926667Y-71003390D01*
X46926667Y-71003390D02*
X46926667Y-71146247D01*
X46926667Y-71146247D02*
X46974286Y-71336723D01*
X46974286Y-71336723D02*
X47021905Y-71431961D01*
X47021905Y-71431961D02*
X47117143Y-71527200D01*
X47117143Y-71527200D02*
X47260000Y-71574819D01*
X47260000Y-71574819D02*
X47355238Y-71574819D01*
X47355238Y-71574819D02*
X47498095Y-71527200D01*
X47498095Y-71527200D02*
X47545714Y-71479580D01*
X47545714Y-71479580D02*
X47545714Y-71146247D01*
X47545714Y-71146247D02*
X47355238Y-71146247D01*
X47974286Y-71574819D02*
X47974286Y-70574819D01*
X47974286Y-70574819D02*
X48545714Y-71574819D01*
X48545714Y-71574819D02*
X48545714Y-70574819D01*
X49021905Y-71574819D02*
X49021905Y-70574819D01*
X49021905Y-70574819D02*
X49260000Y-70574819D01*
X49260000Y-70574819D02*
X49402857Y-70622438D01*
X49402857Y-70622438D02*
X49498095Y-70717676D01*
X49498095Y-70717676D02*
X49545714Y-70812914D01*
X49545714Y-70812914D02*
X49593333Y-71003390D01*
X49593333Y-71003390D02*
X49593333Y-71146247D01*
X49593333Y-71146247D02*
X49545714Y-71336723D01*
X49545714Y-71336723D02*
X49498095Y-71431961D01*
X49498095Y-71431961D02*
X49402857Y-71527200D01*
X49402857Y-71527200D02*
X49260000Y-71574819D01*
X49260000Y-71574819D02*
X49021905Y-71574819D01*
X47045714Y-66494819D02*
X47045714Y-65494819D01*
X47045714Y-65494819D02*
X47283809Y-65494819D01*
X47283809Y-65494819D02*
X47426666Y-65542438D01*
X47426666Y-65542438D02*
X47521904Y-65637676D01*
X47521904Y-65637676D02*
X47569523Y-65732914D01*
X47569523Y-65732914D02*
X47617142Y-65923390D01*
X47617142Y-65923390D02*
X47617142Y-66066247D01*
X47617142Y-66066247D02*
X47569523Y-66256723D01*
X47569523Y-66256723D02*
X47521904Y-66351961D01*
X47521904Y-66351961D02*
X47426666Y-66447200D01*
X47426666Y-66447200D02*
X47283809Y-66494819D01*
X47283809Y-66494819D02*
X47045714Y-66494819D01*
X47998095Y-65590057D02*
X48045714Y-65542438D01*
X48045714Y-65542438D02*
X48140952Y-65494819D01*
X48140952Y-65494819D02*
X48379047Y-65494819D01*
X48379047Y-65494819D02*
X48474285Y-65542438D01*
X48474285Y-65542438D02*
X48521904Y-65590057D01*
X48521904Y-65590057D02*
X48569523Y-65685295D01*
X48569523Y-65685295D02*
X48569523Y-65780533D01*
X48569523Y-65780533D02*
X48521904Y-65923390D01*
X48521904Y-65923390D02*
X47950476Y-66494819D01*
X47950476Y-66494819D02*
X48569523Y-66494819D01*
X49188571Y-65494819D02*
X49283809Y-65494819D01*
X49283809Y-65494819D02*
X49379047Y-65542438D01*
X49379047Y-65542438D02*
X49426666Y-65590057D01*
X49426666Y-65590057D02*
X49474285Y-65685295D01*
X49474285Y-65685295D02*
X49521904Y-65875771D01*
X49521904Y-65875771D02*
X49521904Y-66113866D01*
X49521904Y-66113866D02*
X49474285Y-66304342D01*
X49474285Y-66304342D02*
X49426666Y-66399580D01*
X49426666Y-66399580D02*
X49379047Y-66447200D01*
X49379047Y-66447200D02*
X49283809Y-66494819D01*
X49283809Y-66494819D02*
X49188571Y-66494819D01*
X49188571Y-66494819D02*
X49093333Y-66447200D01*
X49093333Y-66447200D02*
X49045714Y-66399580D01*
X49045714Y-66399580D02*
X48998095Y-66304342D01*
X48998095Y-66304342D02*
X48950476Y-66113866D01*
X48950476Y-66113866D02*
X48950476Y-65875771D01*
X48950476Y-65875771D02*
X48998095Y-65685295D01*
X48998095Y-65685295D02*
X49045714Y-65590057D01*
X49045714Y-65590057D02*
X49093333Y-65542438D01*
X49093333Y-65542438D02*
X49188571Y-65494819D01*
X27201905Y-30934819D02*
X27201905Y-29934819D01*
X27201905Y-29934819D02*
X27440000Y-29934819D01*
X27440000Y-29934819D02*
X27582857Y-29982438D01*
X27582857Y-29982438D02*
X27678095Y-30077676D01*
X27678095Y-30077676D02*
X27725714Y-30172914D01*
X27725714Y-30172914D02*
X27773333Y-30363390D01*
X27773333Y-30363390D02*
X27773333Y-30506247D01*
X27773333Y-30506247D02*
X27725714Y-30696723D01*
X27725714Y-30696723D02*
X27678095Y-30791961D01*
X27678095Y-30791961D02*
X27582857Y-30887200D01*
X27582857Y-30887200D02*
X27440000Y-30934819D01*
X27440000Y-30934819D02*
X27201905Y-30934819D01*
X28678095Y-29934819D02*
X28201905Y-29934819D01*
X28201905Y-29934819D02*
X28154286Y-30411009D01*
X28154286Y-30411009D02*
X28201905Y-30363390D01*
X28201905Y-30363390D02*
X28297143Y-30315771D01*
X28297143Y-30315771D02*
X28535238Y-30315771D01*
X28535238Y-30315771D02*
X28630476Y-30363390D01*
X28630476Y-30363390D02*
X28678095Y-30411009D01*
X28678095Y-30411009D02*
X28725714Y-30506247D01*
X28725714Y-30506247D02*
X28725714Y-30744342D01*
X28725714Y-30744342D02*
X28678095Y-30839580D01*
X28678095Y-30839580D02*
X28630476Y-30887200D01*
X28630476Y-30887200D02*
X28535238Y-30934819D01*
X28535238Y-30934819D02*
X28297143Y-30934819D01*
X28297143Y-30934819D02*
X28201905Y-30887200D01*
X28201905Y-30887200D02*
X28154286Y-30839580D01*
X27749523Y-70574819D02*
X27273333Y-70574819D01*
X27273333Y-70574819D02*
X27225714Y-71051009D01*
X27225714Y-71051009D02*
X27273333Y-71003390D01*
X27273333Y-71003390D02*
X27368571Y-70955771D01*
X27368571Y-70955771D02*
X27606666Y-70955771D01*
X27606666Y-70955771D02*
X27701904Y-71003390D01*
X27701904Y-71003390D02*
X27749523Y-71051009D01*
X27749523Y-71051009D02*
X27797142Y-71146247D01*
X27797142Y-71146247D02*
X27797142Y-71384342D01*
X27797142Y-71384342D02*
X27749523Y-71479580D01*
X27749523Y-71479580D02*
X27701904Y-71527200D01*
X27701904Y-71527200D02*
X27606666Y-71574819D01*
X27606666Y-71574819D02*
X27368571Y-71574819D01*
X27368571Y-71574819D02*
X27273333Y-71527200D01*
X27273333Y-71527200D02*
X27225714Y-71479580D01*
X28082857Y-70574819D02*
X28416190Y-71574819D01*
X28416190Y-71574819D02*
X28749523Y-70574819D01*
X47521905Y-28394819D02*
X47521905Y-27394819D01*
X47521905Y-27394819D02*
X47760000Y-27394819D01*
X47760000Y-27394819D02*
X47902857Y-27442438D01*
X47902857Y-27442438D02*
X47998095Y-27537676D01*
X47998095Y-27537676D02*
X48045714Y-27632914D01*
X48045714Y-27632914D02*
X48093333Y-27823390D01*
X48093333Y-27823390D02*
X48093333Y-27966247D01*
X48093333Y-27966247D02*
X48045714Y-28156723D01*
X48045714Y-28156723D02*
X47998095Y-28251961D01*
X47998095Y-28251961D02*
X47902857Y-28347200D01*
X47902857Y-28347200D02*
X47760000Y-28394819D01*
X47760000Y-28394819D02*
X47521905Y-28394819D01*
X49045714Y-28394819D02*
X48474286Y-28394819D01*
X48760000Y-28394819D02*
X48760000Y-27394819D01*
X48760000Y-27394819D02*
X48664762Y-27537676D01*
X48664762Y-27537676D02*
X48569524Y-27632914D01*
X48569524Y-27632914D02*
X48474286Y-27680533D01*
X26725714Y-53794819D02*
X26725714Y-52794819D01*
X26725714Y-52794819D02*
X26963809Y-52794819D01*
X26963809Y-52794819D02*
X27106666Y-52842438D01*
X27106666Y-52842438D02*
X27201904Y-52937676D01*
X27201904Y-52937676D02*
X27249523Y-53032914D01*
X27249523Y-53032914D02*
X27297142Y-53223390D01*
X27297142Y-53223390D02*
X27297142Y-53366247D01*
X27297142Y-53366247D02*
X27249523Y-53556723D01*
X27249523Y-53556723D02*
X27201904Y-53651961D01*
X27201904Y-53651961D02*
X27106666Y-53747200D01*
X27106666Y-53747200D02*
X26963809Y-53794819D01*
X26963809Y-53794819D02*
X26725714Y-53794819D01*
X28154285Y-53128152D02*
X28154285Y-53794819D01*
X27916190Y-52747200D02*
X27678095Y-53461485D01*
X27678095Y-53461485D02*
X28297142Y-53461485D01*
X29106666Y-52794819D02*
X28916190Y-52794819D01*
X28916190Y-52794819D02*
X28820952Y-52842438D01*
X28820952Y-52842438D02*
X28773333Y-52890057D01*
X28773333Y-52890057D02*
X28678095Y-53032914D01*
X28678095Y-53032914D02*
X28630476Y-53223390D01*
X28630476Y-53223390D02*
X28630476Y-53604342D01*
X28630476Y-53604342D02*
X28678095Y-53699580D01*
X28678095Y-53699580D02*
X28725714Y-53747200D01*
X28725714Y-53747200D02*
X28820952Y-53794819D01*
X28820952Y-53794819D02*
X29011428Y-53794819D01*
X29011428Y-53794819D02*
X29106666Y-53747200D01*
X29106666Y-53747200D02*
X29154285Y-53699580D01*
X29154285Y-53699580D02*
X29201904Y-53604342D01*
X29201904Y-53604342D02*
X29201904Y-53366247D01*
X29201904Y-53366247D02*
X29154285Y-53271009D01*
X29154285Y-53271009D02*
X29106666Y-53223390D01*
X29106666Y-53223390D02*
X29011428Y-53175771D01*
X29011428Y-53175771D02*
X28820952Y-53175771D01*
X28820952Y-53175771D02*
X28725714Y-53223390D01*
X28725714Y-53223390D02*
X28678095Y-53271009D01*
X28678095Y-53271009D02*
X28630476Y-53366247D01*
X47521905Y-30934819D02*
X47521905Y-29934819D01*
X47521905Y-29934819D02*
X47760000Y-29934819D01*
X47760000Y-29934819D02*
X47902857Y-29982438D01*
X47902857Y-29982438D02*
X47998095Y-30077676D01*
X47998095Y-30077676D02*
X48045714Y-30172914D01*
X48045714Y-30172914D02*
X48093333Y-30363390D01*
X48093333Y-30363390D02*
X48093333Y-30506247D01*
X48093333Y-30506247D02*
X48045714Y-30696723D01*
X48045714Y-30696723D02*
X47998095Y-30791961D01*
X47998095Y-30791961D02*
X47902857Y-30887200D01*
X47902857Y-30887200D02*
X47760000Y-30934819D01*
X47760000Y-30934819D02*
X47521905Y-30934819D01*
X48474286Y-30030057D02*
X48521905Y-29982438D01*
X48521905Y-29982438D02*
X48617143Y-29934819D01*
X48617143Y-29934819D02*
X48855238Y-29934819D01*
X48855238Y-29934819D02*
X48950476Y-29982438D01*
X48950476Y-29982438D02*
X48998095Y-30030057D01*
X48998095Y-30030057D02*
X49045714Y-30125295D01*
X49045714Y-30125295D02*
X49045714Y-30220533D01*
X49045714Y-30220533D02*
X48998095Y-30363390D01*
X48998095Y-30363390D02*
X48426667Y-30934819D01*
X48426667Y-30934819D02*
X49045714Y-30934819D01*
X27392380Y-25854819D02*
X27059047Y-25378628D01*
X26820952Y-25854819D02*
X26820952Y-24854819D01*
X26820952Y-24854819D02*
X27201904Y-24854819D01*
X27201904Y-24854819D02*
X27297142Y-24902438D01*
X27297142Y-24902438D02*
X27344761Y-24950057D01*
X27344761Y-24950057D02*
X27392380Y-25045295D01*
X27392380Y-25045295D02*
X27392380Y-25188152D01*
X27392380Y-25188152D02*
X27344761Y-25283390D01*
X27344761Y-25283390D02*
X27297142Y-25331009D01*
X27297142Y-25331009D02*
X27201904Y-25378628D01*
X27201904Y-25378628D02*
X26820952Y-25378628D01*
X27773333Y-25807200D02*
X27916190Y-25854819D01*
X27916190Y-25854819D02*
X28154285Y-25854819D01*
X28154285Y-25854819D02*
X28249523Y-25807200D01*
X28249523Y-25807200D02*
X28297142Y-25759580D01*
X28297142Y-25759580D02*
X28344761Y-25664342D01*
X28344761Y-25664342D02*
X28344761Y-25569104D01*
X28344761Y-25569104D02*
X28297142Y-25473866D01*
X28297142Y-25473866D02*
X28249523Y-25426247D01*
X28249523Y-25426247D02*
X28154285Y-25378628D01*
X28154285Y-25378628D02*
X27963809Y-25331009D01*
X27963809Y-25331009D02*
X27868571Y-25283390D01*
X27868571Y-25283390D02*
X27820952Y-25235771D01*
X27820952Y-25235771D02*
X27773333Y-25140533D01*
X27773333Y-25140533D02*
X27773333Y-25045295D01*
X27773333Y-25045295D02*
X27820952Y-24950057D01*
X27820952Y-24950057D02*
X27868571Y-24902438D01*
X27868571Y-24902438D02*
X27963809Y-24854819D01*
X27963809Y-24854819D02*
X28201904Y-24854819D01*
X28201904Y-24854819D02*
X28344761Y-24902438D01*
X28630476Y-24854819D02*
X29201904Y-24854819D01*
X28916190Y-25854819D02*
X28916190Y-24854819D01*
X47045714Y-33474819D02*
X47045714Y-32474819D01*
X47045714Y-32474819D02*
X47283809Y-32474819D01*
X47283809Y-32474819D02*
X47426666Y-32522438D01*
X47426666Y-32522438D02*
X47521904Y-32617676D01*
X47521904Y-32617676D02*
X47569523Y-32712914D01*
X47569523Y-32712914D02*
X47617142Y-32903390D01*
X47617142Y-32903390D02*
X47617142Y-33046247D01*
X47617142Y-33046247D02*
X47569523Y-33236723D01*
X47569523Y-33236723D02*
X47521904Y-33331961D01*
X47521904Y-33331961D02*
X47426666Y-33427200D01*
X47426666Y-33427200D02*
X47283809Y-33474819D01*
X47283809Y-33474819D02*
X47045714Y-33474819D01*
X48474285Y-32808152D02*
X48474285Y-33474819D01*
X48236190Y-32427200D02*
X47998095Y-33141485D01*
X47998095Y-33141485D02*
X48617142Y-33141485D01*
X48950476Y-32570057D02*
X48998095Y-32522438D01*
X48998095Y-32522438D02*
X49093333Y-32474819D01*
X49093333Y-32474819D02*
X49331428Y-32474819D01*
X49331428Y-32474819D02*
X49426666Y-32522438D01*
X49426666Y-32522438D02*
X49474285Y-32570057D01*
X49474285Y-32570057D02*
X49521904Y-32665295D01*
X49521904Y-32665295D02*
X49521904Y-32760533D01*
X49521904Y-32760533D02*
X49474285Y-32903390D01*
X49474285Y-32903390D02*
X48902857Y-33474819D01*
X48902857Y-33474819D02*
X49521904Y-33474819D01*
X47045714Y-41094819D02*
X47045714Y-40094819D01*
X47045714Y-40094819D02*
X47283809Y-40094819D01*
X47283809Y-40094819D02*
X47426666Y-40142438D01*
X47426666Y-40142438D02*
X47521904Y-40237676D01*
X47521904Y-40237676D02*
X47569523Y-40332914D01*
X47569523Y-40332914D02*
X47617142Y-40523390D01*
X47617142Y-40523390D02*
X47617142Y-40666247D01*
X47617142Y-40666247D02*
X47569523Y-40856723D01*
X47569523Y-40856723D02*
X47521904Y-40951961D01*
X47521904Y-40951961D02*
X47426666Y-41047200D01*
X47426666Y-41047200D02*
X47283809Y-41094819D01*
X47283809Y-41094819D02*
X47045714Y-41094819D01*
X47950476Y-40094819D02*
X48569523Y-40094819D01*
X48569523Y-40094819D02*
X48236190Y-40475771D01*
X48236190Y-40475771D02*
X48379047Y-40475771D01*
X48379047Y-40475771D02*
X48474285Y-40523390D01*
X48474285Y-40523390D02*
X48521904Y-40571009D01*
X48521904Y-40571009D02*
X48569523Y-40666247D01*
X48569523Y-40666247D02*
X48569523Y-40904342D01*
X48569523Y-40904342D02*
X48521904Y-40999580D01*
X48521904Y-40999580D02*
X48474285Y-41047200D01*
X48474285Y-41047200D02*
X48379047Y-41094819D01*
X48379047Y-41094819D02*
X48093333Y-41094819D01*
X48093333Y-41094819D02*
X47998095Y-41047200D01*
X47998095Y-41047200D02*
X47950476Y-40999580D01*
X49045714Y-41094819D02*
X49236190Y-41094819D01*
X49236190Y-41094819D02*
X49331428Y-41047200D01*
X49331428Y-41047200D02*
X49379047Y-40999580D01*
X49379047Y-40999580D02*
X49474285Y-40856723D01*
X49474285Y-40856723D02*
X49521904Y-40666247D01*
X49521904Y-40666247D02*
X49521904Y-40285295D01*
X49521904Y-40285295D02*
X49474285Y-40190057D01*
X49474285Y-40190057D02*
X49426666Y-40142438D01*
X49426666Y-40142438D02*
X49331428Y-40094819D01*
X49331428Y-40094819D02*
X49140952Y-40094819D01*
X49140952Y-40094819D02*
X49045714Y-40142438D01*
X49045714Y-40142438D02*
X48998095Y-40190057D01*
X48998095Y-40190057D02*
X48950476Y-40285295D01*
X48950476Y-40285295D02*
X48950476Y-40523390D01*
X48950476Y-40523390D02*
X48998095Y-40618628D01*
X48998095Y-40618628D02*
X49045714Y-40666247D01*
X49045714Y-40666247D02*
X49140952Y-40713866D01*
X49140952Y-40713866D02*
X49331428Y-40713866D01*
X49331428Y-40713866D02*
X49426666Y-40666247D01*
X49426666Y-40666247D02*
X49474285Y-40618628D01*
X49474285Y-40618628D02*
X49521904Y-40523390D01*
D11*
X41097419Y-113768094D02*
X40097419Y-113768094D01*
X40097419Y-113768094D02*
X40097419Y-113387142D01*
X40097419Y-113387142D02*
X40145038Y-113291904D01*
X40145038Y-113291904D02*
X40192657Y-113244285D01*
X40192657Y-113244285D02*
X40287895Y-113196666D01*
X40287895Y-113196666D02*
X40430752Y-113196666D01*
X40430752Y-113196666D02*
X40525990Y-113244285D01*
X40525990Y-113244285D02*
X40573609Y-113291904D01*
X40573609Y-113291904D02*
X40621228Y-113387142D01*
X40621228Y-113387142D02*
X40621228Y-113768094D01*
X41097419Y-112244285D02*
X41097419Y-112815713D01*
X41097419Y-112529999D02*
X40097419Y-112529999D01*
X40097419Y-112529999D02*
X40240276Y-112625237D01*
X40240276Y-112625237D02*
X40335514Y-112720475D01*
X40335514Y-112720475D02*
X40383133Y-112815713D01*
D10*
X43634819Y-122006190D02*
X42634819Y-122006190D01*
X42634819Y-122006190D02*
X43349104Y-121672857D01*
X43349104Y-121672857D02*
X42634819Y-121339524D01*
X42634819Y-121339524D02*
X43634819Y-121339524D01*
X43634819Y-120863333D02*
X42634819Y-120863333D01*
X42634819Y-120863333D02*
X42634819Y-120482381D01*
X42634819Y-120482381D02*
X42682438Y-120387143D01*
X42682438Y-120387143D02*
X42730057Y-120339524D01*
X42730057Y-120339524D02*
X42825295Y-120291905D01*
X42825295Y-120291905D02*
X42968152Y-120291905D01*
X42968152Y-120291905D02*
X43063390Y-120339524D01*
X43063390Y-120339524D02*
X43111009Y-120387143D01*
X43111009Y-120387143D02*
X43158628Y-120482381D01*
X43158628Y-120482381D02*
X43158628Y-120863333D01*
X43634819Y-119339524D02*
X43634819Y-119910952D01*
X43634819Y-119625238D02*
X42634819Y-119625238D01*
X42634819Y-119625238D02*
X42777676Y-119720476D01*
X42777676Y-119720476D02*
X42872914Y-119815714D01*
X42872914Y-119815714D02*
X42920533Y-119910952D01*
X42634819Y-118434762D02*
X42634819Y-118910952D01*
X42634819Y-118910952D02*
X43111009Y-118958571D01*
X43111009Y-118958571D02*
X43063390Y-118910952D01*
X43063390Y-118910952D02*
X43015771Y-118815714D01*
X43015771Y-118815714D02*
X43015771Y-118577619D01*
X43015771Y-118577619D02*
X43063390Y-118482381D01*
X43063390Y-118482381D02*
X43111009Y-118434762D01*
X43111009Y-118434762D02*
X43206247Y-118387143D01*
X43206247Y-118387143D02*
X43444342Y-118387143D01*
X43444342Y-118387143D02*
X43539580Y-118434762D01*
X43539580Y-118434762D02*
X43587200Y-118482381D01*
X43587200Y-118482381D02*
X43634819Y-118577619D01*
X43634819Y-118577619D02*
X43634819Y-118815714D01*
X43634819Y-118815714D02*
X43587200Y-118910952D01*
X43587200Y-118910952D02*
X43539580Y-118958571D01*
X43063390Y-117815714D02*
X43015771Y-117910952D01*
X43015771Y-117910952D02*
X42968152Y-117958571D01*
X42968152Y-117958571D02*
X42872914Y-118006190D01*
X42872914Y-118006190D02*
X42825295Y-118006190D01*
X42825295Y-118006190D02*
X42730057Y-117958571D01*
X42730057Y-117958571D02*
X42682438Y-117910952D01*
X42682438Y-117910952D02*
X42634819Y-117815714D01*
X42634819Y-117815714D02*
X42634819Y-117625238D01*
X42634819Y-117625238D02*
X42682438Y-117530000D01*
X42682438Y-117530000D02*
X42730057Y-117482381D01*
X42730057Y-117482381D02*
X42825295Y-117434762D01*
X42825295Y-117434762D02*
X42872914Y-117434762D01*
X42872914Y-117434762D02*
X42968152Y-117482381D01*
X42968152Y-117482381D02*
X43015771Y-117530000D01*
X43015771Y-117530000D02*
X43063390Y-117625238D01*
X43063390Y-117625238D02*
X43063390Y-117815714D01*
X43063390Y-117815714D02*
X43111009Y-117910952D01*
X43111009Y-117910952D02*
X43158628Y-117958571D01*
X43158628Y-117958571D02*
X43253866Y-118006190D01*
X43253866Y-118006190D02*
X43444342Y-118006190D01*
X43444342Y-118006190D02*
X43539580Y-117958571D01*
X43539580Y-117958571D02*
X43587200Y-117910952D01*
X43587200Y-117910952D02*
X43634819Y-117815714D01*
X43634819Y-117815714D02*
X43634819Y-117625238D01*
X43634819Y-117625238D02*
X43587200Y-117530000D01*
X43587200Y-117530000D02*
X43539580Y-117482381D01*
X43539580Y-117482381D02*
X43444342Y-117434762D01*
X43444342Y-117434762D02*
X43253866Y-117434762D01*
X43253866Y-117434762D02*
X43158628Y-117482381D01*
X43158628Y-117482381D02*
X43111009Y-117530000D01*
X43111009Y-117530000D02*
X43063390Y-117625238D01*
X42968152Y-116577619D02*
X43634819Y-116577619D01*
X42587200Y-116815714D02*
X43301485Y-117053809D01*
X43301485Y-117053809D02*
X43301485Y-116434762D01*
X43111009Y-116053809D02*
X43111009Y-115720476D01*
X43634819Y-115577619D02*
X43634819Y-116053809D01*
X43634819Y-116053809D02*
X42634819Y-116053809D01*
X42634819Y-116053809D02*
X42634819Y-115577619D01*
X43634819Y-115149047D02*
X42634819Y-115149047D01*
X42634819Y-115149047D02*
X43634819Y-114577619D01*
X43634819Y-114577619D02*
X42634819Y-114577619D01*
X43634819Y-112863333D02*
X43634819Y-113339523D01*
X43634819Y-113339523D02*
X42634819Y-113339523D01*
X43634819Y-112529999D02*
X42634819Y-112529999D01*
X42634819Y-112529999D02*
X43349104Y-112196666D01*
X43349104Y-112196666D02*
X42634819Y-111863333D01*
X42634819Y-111863333D02*
X43634819Y-111863333D01*
X42730057Y-111434761D02*
X42682438Y-111387142D01*
X42682438Y-111387142D02*
X42634819Y-111291904D01*
X42634819Y-111291904D02*
X42634819Y-111053809D01*
X42634819Y-111053809D02*
X42682438Y-110958571D01*
X42682438Y-110958571D02*
X42730057Y-110910952D01*
X42730057Y-110910952D02*
X42825295Y-110863333D01*
X42825295Y-110863333D02*
X42920533Y-110863333D01*
X42920533Y-110863333D02*
X43063390Y-110910952D01*
X43063390Y-110910952D02*
X43634819Y-111482380D01*
X43634819Y-111482380D02*
X43634819Y-110863333D01*
X42634819Y-109958571D02*
X42634819Y-110434761D01*
X42634819Y-110434761D02*
X43111009Y-110482380D01*
X43111009Y-110482380D02*
X43063390Y-110434761D01*
X43063390Y-110434761D02*
X43015771Y-110339523D01*
X43015771Y-110339523D02*
X43015771Y-110101428D01*
X43015771Y-110101428D02*
X43063390Y-110006190D01*
X43063390Y-110006190D02*
X43111009Y-109958571D01*
X43111009Y-109958571D02*
X43206247Y-109910952D01*
X43206247Y-109910952D02*
X43444342Y-109910952D01*
X43444342Y-109910952D02*
X43539580Y-109958571D01*
X43539580Y-109958571D02*
X43587200Y-110006190D01*
X43587200Y-110006190D02*
X43634819Y-110101428D01*
X43634819Y-110101428D02*
X43634819Y-110339523D01*
X43634819Y-110339523D02*
X43587200Y-110434761D01*
X43587200Y-110434761D02*
X43539580Y-110482380D01*
X43634819Y-109434761D02*
X43634819Y-109244285D01*
X43634819Y-109244285D02*
X43587200Y-109149047D01*
X43587200Y-109149047D02*
X43539580Y-109101428D01*
X43539580Y-109101428D02*
X43396723Y-109006190D01*
X43396723Y-109006190D02*
X43206247Y-108958571D01*
X43206247Y-108958571D02*
X42825295Y-108958571D01*
X42825295Y-108958571D02*
X42730057Y-109006190D01*
X42730057Y-109006190D02*
X42682438Y-109053809D01*
X42682438Y-109053809D02*
X42634819Y-109149047D01*
X42634819Y-109149047D02*
X42634819Y-109339523D01*
X42634819Y-109339523D02*
X42682438Y-109434761D01*
X42682438Y-109434761D02*
X42730057Y-109482380D01*
X42730057Y-109482380D02*
X42825295Y-109529999D01*
X42825295Y-109529999D02*
X43063390Y-109529999D01*
X43063390Y-109529999D02*
X43158628Y-109482380D01*
X43158628Y-109482380D02*
X43206247Y-109434761D01*
X43206247Y-109434761D02*
X43253866Y-109339523D01*
X43253866Y-109339523D02*
X43253866Y-109149047D01*
X43253866Y-109149047D02*
X43206247Y-109053809D01*
X43206247Y-109053809D02*
X43158628Y-109006190D01*
X43158628Y-109006190D02*
X43063390Y-108958571D01*
X42634819Y-108101428D02*
X42634819Y-108291904D01*
X42634819Y-108291904D02*
X42682438Y-108387142D01*
X42682438Y-108387142D02*
X42730057Y-108434761D01*
X42730057Y-108434761D02*
X42872914Y-108529999D01*
X42872914Y-108529999D02*
X43063390Y-108577618D01*
X43063390Y-108577618D02*
X43444342Y-108577618D01*
X43444342Y-108577618D02*
X43539580Y-108529999D01*
X43539580Y-108529999D02*
X43587200Y-108482380D01*
X43587200Y-108482380D02*
X43634819Y-108387142D01*
X43634819Y-108387142D02*
X43634819Y-108196666D01*
X43634819Y-108196666D02*
X43587200Y-108101428D01*
X43587200Y-108101428D02*
X43539580Y-108053809D01*
X43539580Y-108053809D02*
X43444342Y-108006190D01*
X43444342Y-108006190D02*
X43206247Y-108006190D01*
X43206247Y-108006190D02*
X43111009Y-108053809D01*
X43111009Y-108053809D02*
X43063390Y-108101428D01*
X43063390Y-108101428D02*
X43015771Y-108196666D01*
X43015771Y-108196666D02*
X43015771Y-108387142D01*
X43015771Y-108387142D02*
X43063390Y-108482380D01*
X43063390Y-108482380D02*
X43111009Y-108529999D01*
X43111009Y-108529999D02*
X43206247Y-108577618D01*
X42634819Y-106910951D02*
X42634819Y-106291904D01*
X42634819Y-106291904D02*
X43015771Y-106625237D01*
X43015771Y-106625237D02*
X43015771Y-106482380D01*
X43015771Y-106482380D02*
X43063390Y-106387142D01*
X43063390Y-106387142D02*
X43111009Y-106339523D01*
X43111009Y-106339523D02*
X43206247Y-106291904D01*
X43206247Y-106291904D02*
X43444342Y-106291904D01*
X43444342Y-106291904D02*
X43539580Y-106339523D01*
X43539580Y-106339523D02*
X43587200Y-106387142D01*
X43587200Y-106387142D02*
X43634819Y-106482380D01*
X43634819Y-106482380D02*
X43634819Y-106768094D01*
X43634819Y-106768094D02*
X43587200Y-106863332D01*
X43587200Y-106863332D02*
X43539580Y-106910951D01*
X43539580Y-105863332D02*
X43587200Y-105815713D01*
X43587200Y-105815713D02*
X43634819Y-105863332D01*
X43634819Y-105863332D02*
X43587200Y-105910951D01*
X43587200Y-105910951D02*
X43539580Y-105863332D01*
X43539580Y-105863332D02*
X43634819Y-105863332D01*
X42634819Y-105482380D02*
X42634819Y-104863333D01*
X42634819Y-104863333D02*
X43015771Y-105196666D01*
X43015771Y-105196666D02*
X43015771Y-105053809D01*
X43015771Y-105053809D02*
X43063390Y-104958571D01*
X43063390Y-104958571D02*
X43111009Y-104910952D01*
X43111009Y-104910952D02*
X43206247Y-104863333D01*
X43206247Y-104863333D02*
X43444342Y-104863333D01*
X43444342Y-104863333D02*
X43539580Y-104910952D01*
X43539580Y-104910952D02*
X43587200Y-104958571D01*
X43587200Y-104958571D02*
X43634819Y-105053809D01*
X43634819Y-105053809D02*
X43634819Y-105339523D01*
X43634819Y-105339523D02*
X43587200Y-105434761D01*
X43587200Y-105434761D02*
X43539580Y-105482380D01*
X42634819Y-104577618D02*
X43634819Y-104244285D01*
X43634819Y-104244285D02*
X42634819Y-103910952D01*
D11*
X46187419Y-108052455D02*
X46187419Y-107861979D01*
X46187419Y-107861979D02*
X46235038Y-107766741D01*
X46235038Y-107766741D02*
X46330276Y-107671503D01*
X46330276Y-107671503D02*
X46520752Y-107623884D01*
X46520752Y-107623884D02*
X46854085Y-107623884D01*
X46854085Y-107623884D02*
X47044561Y-107671503D01*
X47044561Y-107671503D02*
X47139800Y-107766741D01*
X47139800Y-107766741D02*
X47187419Y-107861979D01*
X47187419Y-107861979D02*
X47187419Y-108052455D01*
X47187419Y-108052455D02*
X47139800Y-108147693D01*
X47139800Y-108147693D02*
X47044561Y-108242931D01*
X47044561Y-108242931D02*
X46854085Y-108290550D01*
X46854085Y-108290550D02*
X46520752Y-108290550D01*
X46520752Y-108290550D02*
X46330276Y-108242931D01*
X46330276Y-108242931D02*
X46235038Y-108147693D01*
X46235038Y-108147693D02*
X46187419Y-108052455D01*
X46187419Y-107195312D02*
X46996942Y-107195312D01*
X46996942Y-107195312D02*
X47092180Y-107147693D01*
X47092180Y-107147693D02*
X47139800Y-107100074D01*
X47139800Y-107100074D02*
X47187419Y-107004836D01*
X47187419Y-107004836D02*
X47187419Y-106814360D01*
X47187419Y-106814360D02*
X47139800Y-106719122D01*
X47139800Y-106719122D02*
X47092180Y-106671503D01*
X47092180Y-106671503D02*
X46996942Y-106623884D01*
X46996942Y-106623884D02*
X46187419Y-106623884D01*
X46187419Y-106290550D02*
X46187419Y-105719122D01*
X47187419Y-106004836D02*
X46187419Y-106004836D01*
X46806466Y-105385788D02*
X46806466Y-104623884D01*
X47187419Y-105004836D02*
X46425514Y-105004836D01*
X36287419Y-108052455D02*
X36287419Y-107861979D01*
X36287419Y-107861979D02*
X36335038Y-107766741D01*
X36335038Y-107766741D02*
X36430276Y-107671503D01*
X36430276Y-107671503D02*
X36620752Y-107623884D01*
X36620752Y-107623884D02*
X36954085Y-107623884D01*
X36954085Y-107623884D02*
X37144561Y-107671503D01*
X37144561Y-107671503D02*
X37239800Y-107766741D01*
X37239800Y-107766741D02*
X37287419Y-107861979D01*
X37287419Y-107861979D02*
X37287419Y-108052455D01*
X37287419Y-108052455D02*
X37239800Y-108147693D01*
X37239800Y-108147693D02*
X37144561Y-108242931D01*
X37144561Y-108242931D02*
X36954085Y-108290550D01*
X36954085Y-108290550D02*
X36620752Y-108290550D01*
X36620752Y-108290550D02*
X36430276Y-108242931D01*
X36430276Y-108242931D02*
X36335038Y-108147693D01*
X36335038Y-108147693D02*
X36287419Y-108052455D01*
X36287419Y-107195312D02*
X37096942Y-107195312D01*
X37096942Y-107195312D02*
X37192180Y-107147693D01*
X37192180Y-107147693D02*
X37239800Y-107100074D01*
X37239800Y-107100074D02*
X37287419Y-107004836D01*
X37287419Y-107004836D02*
X37287419Y-106814360D01*
X37287419Y-106814360D02*
X37239800Y-106719122D01*
X37239800Y-106719122D02*
X37192180Y-106671503D01*
X37192180Y-106671503D02*
X37096942Y-106623884D01*
X37096942Y-106623884D02*
X36287419Y-106623884D01*
X36287419Y-106290550D02*
X36287419Y-105719122D01*
X37287419Y-106004836D02*
X36287419Y-106004836D01*
X36906466Y-105385788D02*
X36906466Y-104623884D01*
X37287419Y-120346115D02*
X36287419Y-120346115D01*
X37287419Y-119869925D02*
X36287419Y-119869925D01*
X36287419Y-119869925D02*
X37287419Y-119298497D01*
X37287419Y-119298497D02*
X36287419Y-119298497D01*
X36906466Y-118822306D02*
X36906466Y-118060402D01*
X47187419Y-120526115D02*
X46187419Y-120526115D01*
X47187419Y-120049925D02*
X46187419Y-120049925D01*
X46187419Y-120049925D02*
X47187419Y-119478497D01*
X47187419Y-119478497D02*
X46187419Y-119478497D01*
X46806466Y-119002306D02*
X46806466Y-118240402D01*
X47187419Y-118621354D02*
X46425514Y-118621354D01*
D12*
%TO.C,R2*%
X51230000Y-84170000D02*
X51230000Y-98710000D01*
X45290000Y-98710000D02*
X46620000Y-98710000D01*
X49900000Y-84170000D02*
X51230000Y-84170000D01*
X46620000Y-84170000D02*
X45290000Y-84170000D01*
X51230000Y-98710000D02*
X49900000Y-98710000D01*
X45290000Y-84170000D02*
X45290000Y-98710000D01*
%TO.C,SENSOCKET1*%
X41930000Y-83900000D02*
X29310000Y-83900000D01*
X41920000Y-86160000D02*
X41170000Y-86160000D01*
X41170000Y-89110000D02*
X35620000Y-89110000D01*
X29320000Y-86160000D02*
X30070000Y-86160000D01*
X29310000Y-89870000D02*
X41930000Y-89870000D01*
X29310000Y-83900000D02*
X29310000Y-89870000D01*
X41930000Y-89870000D02*
X41930000Y-83900000D01*
X40120000Y-84660000D02*
X41920000Y-84660000D01*
X38620000Y-84660000D02*
X38620000Y-83910000D01*
X30270000Y-83610000D02*
X29020000Y-83610000D01*
X41170000Y-86160000D02*
X41170000Y-89110000D01*
X31120000Y-84660000D02*
X31120000Y-83910000D01*
X29020000Y-83610000D02*
X29020000Y-84860000D01*
X29320000Y-83910000D02*
X29320000Y-84660000D01*
X41920000Y-83910000D02*
X40120000Y-83910000D01*
X29320000Y-84660000D02*
X31120000Y-84660000D01*
X40120000Y-83910000D02*
X40120000Y-84660000D01*
X30070000Y-86160000D02*
X30070000Y-89110000D01*
X38620000Y-83910000D02*
X32620000Y-83910000D01*
X31120000Y-83910000D02*
X29320000Y-83910000D01*
X41920000Y-84660000D02*
X41920000Y-83910000D01*
X30070000Y-89110000D02*
X35620000Y-89110000D01*
X32620000Y-84660000D02*
X38620000Y-84660000D01*
X32620000Y-83910000D02*
X32620000Y-84660000D01*
%TO.C,F1*%
X51435000Y-169765000D02*
X51435000Y-163515000D01*
X51435000Y-147165000D02*
X50060000Y-147165000D01*
X45085000Y-153415000D02*
X46460000Y-153415000D01*
X51435000Y-163515000D02*
X49860000Y-163515000D01*
X51435000Y-153415000D02*
X51435000Y-147165000D01*
X45085000Y-163515000D02*
X45085000Y-169765000D01*
X45760000Y-163515000D02*
X45760000Y-153415000D01*
X49860000Y-169765000D02*
X51435000Y-169765000D01*
X51435000Y-153415000D02*
X50060000Y-153415000D01*
X45085000Y-153415000D02*
X45085000Y-147165000D01*
X46660000Y-169765000D02*
X45085000Y-169765000D01*
X45085000Y-147165000D02*
X46460000Y-147165000D01*
X45085000Y-163515000D02*
X46660000Y-163515000D01*
X50760000Y-163515000D02*
X50760000Y-153415000D01*
D11*
%TO.C,MOSLED1*%
X41910000Y-147320000D02*
X41910000Y-177800000D01*
X26670000Y-147320000D02*
X41910000Y-147320000D01*
X41910000Y-177800000D02*
X26670000Y-177800000D01*
X26670000Y-177800000D02*
X26670000Y-147320000D01*
D12*
%TO.C,J1*%
X43660000Y-189060000D02*
X43660000Y-174360000D01*
X52860000Y-189060000D02*
X43660000Y-189060000D01*
X52860000Y-174360000D02*
X52860000Y-176260000D01*
X50160000Y-174360000D02*
X52860000Y-174360000D01*
X43660000Y-174360000D02*
X46260000Y-174360000D01*
X52860000Y-180260000D02*
X52860000Y-189060000D01*
X44510000Y-174160000D02*
X43460000Y-174160000D01*
X43460000Y-175210000D02*
X43460000Y-174160000D01*
%TO.C,FANSOCKET1*%
X36770000Y-129620000D02*
X24150000Y-129620000D01*
X36760000Y-131880000D02*
X36010000Y-131880000D01*
X36010000Y-134830000D02*
X30460000Y-134830000D01*
X24160000Y-131880000D02*
X24910000Y-131880000D01*
X24150000Y-135590000D02*
X36770000Y-135590000D01*
X24150000Y-129620000D02*
X24150000Y-135590000D01*
X36770000Y-135590000D02*
X36770000Y-129620000D01*
X34960000Y-130380000D02*
X36760000Y-130380000D01*
X33460000Y-130380000D02*
X33460000Y-129630000D01*
X25110000Y-129330000D02*
X23860000Y-129330000D01*
X36010000Y-131880000D02*
X36010000Y-134830000D01*
X25960000Y-130380000D02*
X25960000Y-129630000D01*
X23860000Y-129330000D02*
X23860000Y-130580000D01*
X24160000Y-129630000D02*
X24160000Y-130380000D01*
X36760000Y-129630000D02*
X34960000Y-129630000D01*
X24160000Y-130380000D02*
X25960000Y-130380000D01*
X34960000Y-129630000D02*
X34960000Y-130380000D01*
X24910000Y-131880000D02*
X24910000Y-134830000D01*
X33460000Y-129630000D02*
X27460000Y-129630000D01*
X25960000Y-129630000D02*
X24160000Y-129630000D01*
X36760000Y-130380000D02*
X36760000Y-129630000D01*
X24910000Y-134830000D02*
X30460000Y-134830000D01*
X27460000Y-130380000D02*
X33460000Y-130380000D01*
X27460000Y-129630000D02*
X27460000Y-130380000D01*
%TO.C,S1*%
X44000000Y-130960000D02*
X44000000Y-130780000D01*
X46840000Y-130960000D02*
X46840000Y-128120000D01*
X47440000Y-128300000D02*
X47440000Y-128120000D01*
X47440000Y-128120000D02*
X44000000Y-128120000D01*
X47440000Y-130960000D02*
X44000000Y-130960000D01*
X46720000Y-130960000D02*
X46720000Y-128120000D01*
X47440000Y-130780000D02*
X47440000Y-130960000D01*
X44000000Y-128120000D02*
X44000000Y-128300000D01*
X46960000Y-130960000D02*
X46960000Y-128120000D01*
%TO.C,R1*%
X27020000Y-73230000D02*
X41560000Y-73230000D01*
X41560000Y-79170000D02*
X41560000Y-77840000D01*
X27020000Y-74560000D02*
X27020000Y-73230000D01*
X27020000Y-77840000D02*
X27020000Y-79170000D01*
X41560000Y-73230000D02*
X41560000Y-74560000D01*
X27020000Y-79170000D02*
X41560000Y-79170000D01*
%TO.C,CPSOCKET1*%
X24230000Y-189150000D02*
X36850000Y-189150000D01*
X24240000Y-186890000D02*
X24990000Y-186890000D01*
X24990000Y-183940000D02*
X30540000Y-183940000D01*
X36840000Y-186890000D02*
X36090000Y-186890000D01*
X36850000Y-183180000D02*
X24230000Y-183180000D01*
X36850000Y-189150000D02*
X36850000Y-183180000D01*
X24230000Y-183180000D02*
X24230000Y-189150000D01*
X26040000Y-188390000D02*
X24240000Y-188390000D01*
X27540000Y-188390000D02*
X27540000Y-189140000D01*
X35890000Y-189440000D02*
X37140000Y-189440000D01*
X24990000Y-186890000D02*
X24990000Y-183940000D01*
X35040000Y-188390000D02*
X35040000Y-189140000D01*
X37140000Y-189440000D02*
X37140000Y-188190000D01*
X36840000Y-189140000D02*
X36840000Y-188390000D01*
X24240000Y-189140000D02*
X26040000Y-189140000D01*
X36840000Y-188390000D02*
X35040000Y-188390000D01*
X26040000Y-189140000D02*
X26040000Y-188390000D01*
X36090000Y-186890000D02*
X36090000Y-183940000D01*
X27540000Y-189140000D02*
X33540000Y-189140000D01*
X35040000Y-189140000D02*
X36840000Y-189140000D01*
X24240000Y-188390000D02*
X24240000Y-189140000D01*
X36090000Y-183940000D02*
X30540000Y-183940000D01*
X33540000Y-188390000D02*
X27540000Y-188390000D01*
X33540000Y-189140000D02*
X33540000Y-188390000D01*
%TO.C,LEDSOCKET1*%
X48230000Y-136960000D02*
X47480000Y-136960000D01*
X47480000Y-136960000D02*
X47480000Y-139910000D01*
X47480000Y-139910000D02*
X44430000Y-139910000D01*
X41380000Y-136960000D02*
X41380000Y-139910000D01*
X44930000Y-134710000D02*
X43930000Y-134710000D01*
X43930000Y-134710000D02*
X43930000Y-135460000D01*
X43930000Y-135460000D02*
X44930000Y-135460000D01*
X46430000Y-135460000D02*
X48230000Y-135460000D01*
X48230000Y-134710000D02*
X46430000Y-134710000D01*
X40330000Y-134410000D02*
X40330000Y-135660000D01*
X40620000Y-134700000D02*
X40620000Y-140670000D01*
X40630000Y-134710000D02*
X40630000Y-135460000D01*
X40620000Y-140670000D02*
X48240000Y-140670000D01*
X44930000Y-135460000D02*
X44930000Y-134710000D01*
X40630000Y-136960000D02*
X41380000Y-136960000D01*
X40630000Y-135460000D02*
X42430000Y-135460000D01*
X41580000Y-134410000D02*
X40330000Y-134410000D01*
X48230000Y-135460000D02*
X48230000Y-134710000D01*
X42430000Y-134710000D02*
X40630000Y-134710000D01*
X48240000Y-134700000D02*
X40620000Y-134700000D01*
X41380000Y-139910000D02*
X44430000Y-139910000D01*
X46430000Y-134710000D02*
X46430000Y-135460000D01*
X48240000Y-140670000D02*
X48240000Y-134700000D01*
X42430000Y-135460000D02*
X42430000Y-134710000D01*
%TO.C,C1*%
X47730000Y-76300000D02*
X51370000Y-76300000D01*
X47730000Y-78640000D02*
X51370000Y-78640000D01*
X47730000Y-78395000D02*
X47730000Y-78640000D01*
X51370000Y-78395000D02*
X51370000Y-78640000D01*
X51370000Y-76300000D02*
X51370000Y-76545000D01*
X47730000Y-76300000D02*
X47730000Y-76545000D01*
%TO.C,S2*%
X33470000Y-139550000D02*
X33470000Y-139730000D01*
X30630000Y-139550000D02*
X30630000Y-142390000D01*
X30030000Y-142210000D02*
X30030000Y-142390000D01*
X30030000Y-142390000D02*
X33470000Y-142390000D01*
X30030000Y-139550000D02*
X33470000Y-139550000D01*
X30750000Y-139550000D02*
X30750000Y-142390000D01*
X30030000Y-139730000D02*
X30030000Y-139550000D01*
X33470000Y-142390000D02*
X33470000Y-142210000D01*
X30510000Y-139550000D02*
X30510000Y-142390000D01*
D10*
%TO.C,U1*%
X24130000Y-21590000D02*
X24130000Y-72390000D01*
X31750000Y-16510000D02*
X31750000Y-21590000D01*
X33020000Y-72390000D02*
X24130000Y-72390000D01*
X33020000Y-72390000D02*
X33020000Y-64770000D01*
X33030000Y-64770000D02*
X40630000Y-64770000D01*
X40640000Y-64770000D02*
X40640000Y-72390000D01*
X40640000Y-72390000D02*
X33020000Y-72390000D01*
X44450000Y-16510000D02*
X31750000Y-16510000D01*
X44450000Y-21590000D02*
X44450000Y-16510000D01*
X52070000Y-21590000D02*
X24130000Y-21590000D01*
X52070000Y-21590000D02*
X52070000Y-72390000D01*
X52070000Y-72390000D02*
X40640000Y-72390000D01*
D11*
%TO.C,P1*%
X32760000Y-124640000D02*
X32760000Y-102140000D01*
X50010000Y-124640000D02*
X32760000Y-124640000D01*
X50010000Y-124640000D02*
X50010000Y-102140000D01*
X32760000Y-102140000D02*
X50010000Y-102140000D01*
%TD*%
D13*
%TO.C,U1*%
X25400000Y-25400000D03*
X25400000Y-22860000D03*
X25400000Y-27940000D03*
X25400000Y-30480000D03*
X25400000Y-33020000D03*
X25400000Y-35560000D03*
X25400000Y-38100000D03*
X25400000Y-40640000D03*
X25400000Y-43180000D03*
X25400000Y-45720000D03*
X25400000Y-48260000D03*
X25400000Y-50800000D03*
X25400000Y-53340000D03*
X25400000Y-55880000D03*
X25400000Y-58420000D03*
X25400000Y-60960000D03*
X25400000Y-63500000D03*
X25400000Y-66040000D03*
X25400000Y-68580000D03*
X25400000Y-71120000D03*
X50800000Y-68580000D03*
X50800000Y-66040000D03*
X50800000Y-63500000D03*
X50800000Y-60960000D03*
X50800000Y-58420000D03*
X50800000Y-55880000D03*
X50800000Y-53340000D03*
X50800000Y-50800000D03*
X50800000Y-48260000D03*
X50800000Y-45720000D03*
X50800000Y-43180000D03*
X50800000Y-40640000D03*
X50800000Y-38100000D03*
X50800000Y-35560000D03*
X50800000Y-33020000D03*
X50800000Y-30480000D03*
X50800000Y-27940000D03*
X50800000Y-25400000D03*
X50800000Y-22860000D03*
X50800000Y-71120000D03*
%TD*%
%LPC*%
D14*
%TO.C,R2*%
X48260000Y-83820000D03*
D15*
X48260000Y-99060000D03*
%TD*%
D16*
%TO.C,SENSOCKET1*%
X31870000Y-86360000D03*
D17*
X34370000Y-86360000D03*
X36870000Y-86360000D03*
X39370000Y-86360000D03*
%TD*%
D18*
%TO.C,F1*%
X48260000Y-146910000D03*
X48260000Y-153670000D03*
D19*
X48260000Y-163260000D03*
X48260000Y-170020000D03*
%TD*%
D13*
%TO.C,MOSLED1*%
X33020000Y-176160000D03*
X35560000Y-176160000D03*
X30480000Y-148860000D03*
X34290000Y-148860000D03*
X38100000Y-148860000D03*
%TD*%
D20*
%TO.C,J1*%
X48260000Y-175260000D03*
D21*
X48260000Y-181260000D03*
D22*
X52960000Y-178260000D03*
%TD*%
D16*
%TO.C,FANSOCKET1*%
X26710000Y-132080000D03*
D17*
X29210000Y-132080000D03*
X31710000Y-132080000D03*
X34210000Y-132080000D03*
%TD*%
D23*
%TO.C,S1*%
X43180000Y-129540000D03*
D24*
X48260000Y-129540000D03*
%TD*%
D14*
%TO.C,R1*%
X26670000Y-76200000D03*
D15*
X41910000Y-76200000D03*
%TD*%
D25*
%TO.C,CPSOCKET1*%
X34290000Y-186690000D03*
D17*
X31790000Y-186690000D03*
X29290000Y-186690000D03*
X26790000Y-186690000D03*
%TD*%
D26*
%TO.C,LEDSOCKET1*%
X43180000Y-137160000D03*
D27*
X45680000Y-137160000D03*
%TD*%
D28*
%TO.C,C1*%
X48300000Y-77470000D03*
X50800000Y-77470000D03*
%TD*%
D23*
%TO.C,S2*%
X34290000Y-140970000D03*
D24*
X29210000Y-140970000D03*
%TD*%
D13*
%TO.C,U1*%
X25400000Y-25400000D03*
X25400000Y-22860000D03*
X25400000Y-27940000D03*
X25400000Y-30480000D03*
X25400000Y-33020000D03*
X25400000Y-35560000D03*
X25400000Y-38100000D03*
X25400000Y-40640000D03*
X25400000Y-43180000D03*
X25400000Y-45720000D03*
X25400000Y-48260000D03*
X25400000Y-50800000D03*
X25400000Y-53340000D03*
X25400000Y-55880000D03*
X25400000Y-58420000D03*
X25400000Y-60960000D03*
X25400000Y-63500000D03*
X25400000Y-66040000D03*
X25400000Y-68580000D03*
X25400000Y-71120000D03*
X50800000Y-68580000D03*
X50800000Y-66040000D03*
X50800000Y-63500000D03*
X50800000Y-60960000D03*
X50800000Y-58420000D03*
X50800000Y-55880000D03*
X50800000Y-53340000D03*
X50800000Y-50800000D03*
X50800000Y-48260000D03*
X50800000Y-45720000D03*
X50800000Y-43180000D03*
X50800000Y-40640000D03*
X50800000Y-38100000D03*
X50800000Y-35560000D03*
X50800000Y-33020000D03*
X50800000Y-30480000D03*
X50800000Y-27940000D03*
X50800000Y-25400000D03*
X50800000Y-22860000D03*
X50800000Y-71120000D03*
%TD*%
%TO.C,P1*%
X48260000Y-122640000D03*
X34260000Y-122640000D03*
X34260000Y-104140000D03*
X48260000Y-104140000D03*
%TD*%
%LPD*%
M02*
