M48
; DRILL file {KiCad 7.0.11-2.fc39} date Tue 23 Apr 2024 12:03:10 PM UTC
; FORMAT={-:-/ absolute / metric / decimal}
; #@! TF.CreationDate,2024-04-23T12:03:10+00:00
; #@! TF.GenerationSoftware,Kicad,Pcbnew,7.0.11-2.fc39
; #@! TF.FileFunction,Plated,1,2,PTH
FMAT,2
METRIC
; #@! TA.AperFunction,Plated,PTH,ComponentDrill
T1C0.800
; #@! TA.AperFunction,Plated,PTH,ComponentDrill
T2C0.870
; #@! TA.AperFunction,Plated,PTH,ComponentDrill
T3C0.950
; #@! TA.AperFunction,Plated,PTH,ComponentDrill
T4C1.000
; #@! TA.AperFunction,Plated,PTH,ComponentDrill
T5C1.400
; #@! TA.AperFunction,Plated,PTH,ComponentDrill
T6C1.700
%
G90
G05
T1
X48.3Y-77.47
X50.8Y-77.47
T2
X25.4Y-22.86
X25.4Y-25.4
X25.4Y-27.94
X25.4Y-30.48
X25.4Y-33.02
X25.4Y-35.56
X25.4Y-38.1
X25.4Y-40.64
X25.4Y-43.18
X25.4Y-45.72
X25.4Y-48.26
X25.4Y-50.8
X25.4Y-53.34
X25.4Y-55.88
X25.4Y-58.42
X25.4Y-60.96
X25.4Y-63.5
X25.4Y-66.04
X25.4Y-68.58
X25.4Y-71.12
X30.48Y-148.86
X33.02Y-176.16
X34.26Y-104.14
X34.26Y-122.64
X34.29Y-148.86
X35.56Y-176.16
X38.1Y-148.86
X48.26Y-104.14
X48.26Y-122.64
X50.8Y-22.86
X50.8Y-25.4
X50.8Y-27.94
X50.8Y-30.48
X50.8Y-33.02
X50.8Y-35.56
X50.8Y-38.1
X50.8Y-40.64
X50.8Y-43.18
X50.8Y-45.72
X50.8Y-48.26
X50.8Y-50.8
X50.8Y-53.34
X50.8Y-55.88
X50.8Y-58.42
X50.8Y-60.96
X50.8Y-63.5
X50.8Y-66.04
X50.8Y-68.58
X50.8Y-71.12
T3
X26.71Y-132.08
X26.79Y-186.69
X29.21Y-132.08
X29.29Y-186.69
X31.71Y-132.08
X31.79Y-186.69
X31.87Y-86.36
X34.21Y-132.08
X34.29Y-186.69
X34.37Y-86.36
X36.87Y-86.36
X39.37Y-86.36
T4
X29.21Y-140.97
X34.29Y-140.97
X43.18Y-129.54
X43.18Y-137.16
X45.68Y-137.16
X48.26Y-129.54
T5
X26.67Y-76.2
X41.91Y-76.2
X48.26Y-83.82
X48.26Y-99.06
T6
X48.26Y-146.91
X48.26Y-153.67
X48.26Y-163.26
X48.26Y-170.02
T4
X47.26Y-175.26G85X49.26Y-175.26
G05
X47.26Y-181.26G85X49.26Y-181.26
G05
X52.96Y-179.26G85X52.96Y-177.26
G05
M30
