%TF.GenerationSoftware,KiCad,Pcbnew,7.0.11-2.fc39*%
%TF.CreationDate,2024-04-23T12:03:12+00:00*%
%TF.ProjectId,Smart Prusa MK4 enclosure,536d6172-7420-4507-9275-7361204d4b34,1.2*%
%TF.SameCoordinates,Original*%
%TF.FileFunction,Drillmap*%
%TF.FilePolarity,Positive*%
%FSLAX45Y45*%
G04 Gerber Fmt 4.5, Leading zero omitted, Abs format (unit mm)*
G04 Created by KiCad (PCBNEW 7.0.11-2.fc39) date 2024-04-23 12:03:12*
%MOMM*%
%LPD*%
G01*
G04 APERTURE LIST*
%ADD10C,0.100000*%
%ADD11C,0.200000*%
G04 APERTURE END LIST*
D10*
X5588000Y-1651000D02*
X5588000Y-19431000D01*
X2459000Y-1905000D02*
G75*
G03*
X2159000Y-1905000I-150000J0D01*
G01*
X2159000Y-1905000D02*
G75*
G03*
X2459000Y-1905000I150000J0D01*
G01*
X5484000Y-19177000D02*
G75*
G03*
X5184000Y-19177000I-150000J0D01*
G01*
X5184000Y-19177000D02*
G75*
G03*
X5484000Y-19177000I150000J0D01*
G01*
X2436000Y-19177000D02*
G75*
G03*
X2136000Y-19177000I-150000J0D01*
G01*
X2136000Y-19177000D02*
G75*
G03*
X2436000Y-19177000I150000J0D01*
G01*
X2032000Y-1651000D02*
X5588000Y-1651000D01*
X5484000Y-1905000D02*
G75*
G03*
X5184000Y-1905000I-150000J0D01*
G01*
X5184000Y-1905000D02*
G75*
G03*
X5484000Y-1905000I150000J0D01*
G01*
X5588000Y-19431000D02*
X2032000Y-19431000D01*
X2032000Y-19431000D02*
X2032000Y-1651000D01*
D11*
X2287777Y-19747484D02*
X2287777Y-19547484D01*
X2287777Y-19547484D02*
X2335396Y-19547484D01*
X2335396Y-19547484D02*
X2363967Y-19557008D01*
X2363967Y-19557008D02*
X2383015Y-19576055D01*
X2383015Y-19576055D02*
X2392539Y-19595103D01*
X2392539Y-19595103D02*
X2402063Y-19633198D01*
X2402063Y-19633198D02*
X2402063Y-19661770D01*
X2402063Y-19661770D02*
X2392539Y-19699865D01*
X2392539Y-19699865D02*
X2383015Y-19718912D01*
X2383015Y-19718912D02*
X2363967Y-19737960D01*
X2363967Y-19737960D02*
X2335396Y-19747484D01*
X2335396Y-19747484D02*
X2287777Y-19747484D01*
X2487777Y-19747484D02*
X2487777Y-19614150D01*
X2487777Y-19652246D02*
X2497301Y-19633198D01*
X2497301Y-19633198D02*
X2506824Y-19623674D01*
X2506824Y-19623674D02*
X2525872Y-19614150D01*
X2525872Y-19614150D02*
X2544920Y-19614150D01*
X2611586Y-19747484D02*
X2611586Y-19614150D01*
X2611586Y-19547484D02*
X2602063Y-19557008D01*
X2602063Y-19557008D02*
X2611586Y-19566531D01*
X2611586Y-19566531D02*
X2621110Y-19557008D01*
X2621110Y-19557008D02*
X2611586Y-19547484D01*
X2611586Y-19547484D02*
X2611586Y-19566531D01*
X2735396Y-19747484D02*
X2716348Y-19737960D01*
X2716348Y-19737960D02*
X2706824Y-19718912D01*
X2706824Y-19718912D02*
X2706824Y-19547484D01*
X2840158Y-19747484D02*
X2821110Y-19737960D01*
X2821110Y-19737960D02*
X2811586Y-19718912D01*
X2811586Y-19718912D02*
X2811586Y-19547484D01*
X3068729Y-19747484D02*
X3068729Y-19547484D01*
X3068729Y-19547484D02*
X3135396Y-19690341D01*
X3135396Y-19690341D02*
X3202062Y-19547484D01*
X3202062Y-19547484D02*
X3202062Y-19747484D01*
X3383015Y-19747484D02*
X3383015Y-19642722D01*
X3383015Y-19642722D02*
X3373491Y-19623674D01*
X3373491Y-19623674D02*
X3354443Y-19614150D01*
X3354443Y-19614150D02*
X3316348Y-19614150D01*
X3316348Y-19614150D02*
X3297301Y-19623674D01*
X3383015Y-19737960D02*
X3363967Y-19747484D01*
X3363967Y-19747484D02*
X3316348Y-19747484D01*
X3316348Y-19747484D02*
X3297301Y-19737960D01*
X3297301Y-19737960D02*
X3287777Y-19718912D01*
X3287777Y-19718912D02*
X3287777Y-19699865D01*
X3287777Y-19699865D02*
X3297301Y-19680817D01*
X3297301Y-19680817D02*
X3316348Y-19671293D01*
X3316348Y-19671293D02*
X3363967Y-19671293D01*
X3363967Y-19671293D02*
X3383015Y-19661770D01*
X3478253Y-19614150D02*
X3478253Y-19814150D01*
X3478253Y-19623674D02*
X3497301Y-19614150D01*
X3497301Y-19614150D02*
X3535396Y-19614150D01*
X3535396Y-19614150D02*
X3554443Y-19623674D01*
X3554443Y-19623674D02*
X3563967Y-19633198D01*
X3563967Y-19633198D02*
X3573491Y-19652246D01*
X3573491Y-19652246D02*
X3573491Y-19709389D01*
X3573491Y-19709389D02*
X3563967Y-19728436D01*
X3563967Y-19728436D02*
X3554443Y-19737960D01*
X3554443Y-19737960D02*
X3535396Y-19747484D01*
X3535396Y-19747484D02*
X3497301Y-19747484D01*
X3497301Y-19747484D02*
X3478253Y-19737960D01*
X3659205Y-19728436D02*
X3668729Y-19737960D01*
X3668729Y-19737960D02*
X3659205Y-19747484D01*
X3659205Y-19747484D02*
X3649682Y-19737960D01*
X3649682Y-19737960D02*
X3659205Y-19728436D01*
X3659205Y-19728436D02*
X3659205Y-19747484D01*
X3659205Y-19623674D02*
X3668729Y-19633198D01*
X3668729Y-19633198D02*
X3659205Y-19642722D01*
X3659205Y-19642722D02*
X3649682Y-19633198D01*
X3649682Y-19633198D02*
X3659205Y-19623674D01*
X3659205Y-19623674D02*
X3659205Y-19642722D01*
M02*
