%TF.GenerationSoftware,KiCad,Pcbnew,7.0.11-2.fc39*%
%TF.CreationDate,2024-04-23T12:03:01+00:00*%
%TF.ProjectId,Smart Prusa MK4 enclosure,536d6172-7420-4507-9275-7361204d4b34,1.2*%
%TF.SameCoordinates,Original*%
%TF.FileFunction,Copper,L1,Top*%
%TF.FilePolarity,Positive*%
%FSLAX46Y46*%
G04 Gerber Fmt 4.6, Leading zero omitted, Abs format (unit mm)*
G04 Created by KiCad (PCBNEW 7.0.11-2.fc39) date 2024-04-23 12:03:01*
%MOMM*%
%LPD*%
G01*
G04 APERTURE LIST*
G04 Aperture macros list*
%AMRoundRect*
0 Rectangle with rounded corners*
0 $1 Rounding radius*
0 $2 $3 $4 $5 $6 $7 $8 $9 X,Y pos of 4 corners*
0 Add a 4 corners polygon primitive as box body*
4,1,4,$2,$3,$4,$5,$6,$7,$8,$9,$2,$3,0*
0 Add four circle primitives for the rounded corners*
1,1,$1+$1,$2,$3*
1,1,$1+$1,$4,$5*
1,1,$1+$1,$6,$7*
1,1,$1+$1,$8,$9*
0 Add four rect primitives between the rounded corners*
20,1,$1+$1,$2,$3,$4,$5,0*
20,1,$1+$1,$4,$5,$6,$7,0*
20,1,$1+$1,$6,$7,$8,$9,0*
20,1,$1+$1,$8,$9,$2,$3,0*%
G04 Aperture macros list end*
%TA.AperFunction,ComponentPad*%
%ADD10C,2.800000*%
%TD*%
%TA.AperFunction,ComponentPad*%
%ADD11O,2.800000X2.800000*%
%TD*%
%TA.AperFunction,ComponentPad*%
%ADD12RoundRect,0.250000X-0.600000X-0.725000X0.600000X-0.725000X0.600000X0.725000X-0.600000X0.725000X0*%
%TD*%
%TA.AperFunction,ComponentPad*%
%ADD13O,1.700000X1.950000*%
%TD*%
%TA.AperFunction,ComponentPad*%
%ADD14RoundRect,0.675000X-0.675000X0.675000X-0.675000X-0.675000X0.675000X-0.675000X0.675000X0.675000X0*%
%TD*%
%TA.AperFunction,ComponentPad*%
%ADD15C,2.700000*%
%TD*%
%TA.AperFunction,ComponentPad*%
%ADD16C,1.524000*%
%TD*%
%TA.AperFunction,ComponentPad*%
%ADD17R,3.500000X3.500000*%
%TD*%
%TA.AperFunction,ComponentPad*%
%ADD18RoundRect,0.750000X1.000000X-0.750000X1.000000X0.750000X-1.000000X0.750000X-1.000000X-0.750000X0*%
%TD*%
%TA.AperFunction,ComponentPad*%
%ADD19RoundRect,0.875000X0.875000X-0.875000X0.875000X0.875000X-0.875000X0.875000X-0.875000X-0.875000X0*%
%TD*%
%TA.AperFunction,ComponentPad*%
%ADD20O,2.000000X2.000000*%
%TD*%
%TA.AperFunction,ComponentPad*%
%ADD21R,2.000000X2.000000*%
%TD*%
%TA.AperFunction,ComponentPad*%
%ADD22RoundRect,0.250000X0.600000X0.725000X-0.600000X0.725000X-0.600000X-0.725000X0.600000X-0.725000X0*%
%TD*%
%TA.AperFunction,ComponentPad*%
%ADD23RoundRect,0.250000X-0.600000X-0.750000X0.600000X-0.750000X0.600000X0.750000X-0.600000X0.750000X0*%
%TD*%
%TA.AperFunction,ComponentPad*%
%ADD24O,1.700000X2.000000*%
%TD*%
%TA.AperFunction,ComponentPad*%
%ADD25C,1.600000*%
%TD*%
%TA.AperFunction,Conductor*%
%ADD26C,0.250000*%
%TD*%
%TA.AperFunction,Conductor*%
%ADD27C,2.000000*%
%TD*%
%TA.AperFunction,Conductor*%
%ADD28C,1.000000*%
%TD*%
%TA.AperFunction,Conductor*%
%ADD29C,5.000000*%
%TD*%
G04 APERTURE END LIST*
D10*
%TO.P,R2,1*%
%TO.N,fan_pwm_filtered*%
X48260000Y-83820000D03*
D11*
%TO.P,R2,2*%
%TO.N,fan_pwm*%
X48260000Y-99060000D03*
%TD*%
D12*
%TO.P,SENSOCKET1,1*%
%TO.N,GND*%
X31870000Y-86360000D03*
D13*
%TO.P,SENSOCKET1,2*%
%TO.N,+3.3V*%
X34370000Y-86360000D03*
%TO.P,SENSOCKET1,3*%
%TO.N,Net-(U1-GPIO40{slash}MTDO)*%
X36870000Y-86360000D03*
%TO.P,SENSOCKET1,4*%
%TO.N,Net-(U1-GPIO39{slash}MTCK)*%
X39370000Y-86360000D03*
%TD*%
D14*
%TO.P,F1,1*%
%TO.N,+24V*%
X48260000Y-146910000D03*
X48260000Y-153670000D03*
D15*
%TO.P,F1,2*%
%TO.N,Net-(F1-Pad2)*%
X48260000Y-163260000D03*
X48260000Y-170020000D03*
%TD*%
D16*
%TO.P,MOSLED1,5,GND*%
%TO.N,GND*%
X33020000Y-176160000D03*
%TO.P,MOSLED1,4,PWM*%
%TO.N,Net-(MOSLED1-PWM)*%
X35560000Y-176160000D03*
%TO.P,MOSLED1,3,-*%
%TO.N,GND*%
X30480000Y-148860000D03*
%TO.P,MOSLED1,2,LOAD*%
%TO.N,VDD*%
X34290000Y-148860000D03*
%TO.P,MOSLED1,1,+*%
%TO.N,+24V*%
X38100000Y-148860000D03*
%TD*%
D17*
%TO.P,J1,1*%
%TO.N,Net-(F1-Pad2)*%
X48260000Y-175260000D03*
D18*
%TO.P,J1,2*%
%TO.N,GND*%
X48260000Y-181260000D03*
D19*
%TO.P,J1,3*%
%TO.N,N/C*%
X52960000Y-178260000D03*
%TD*%
D12*
%TO.P,FANSOCKET1,1*%
%TO.N,GND*%
X26710000Y-132080000D03*
D13*
%TO.P,FANSOCKET1,2*%
%TO.N,+24V*%
X29210000Y-132080000D03*
%TO.P,FANSOCKET1,3*%
%TO.N,pulse_counter*%
X31710000Y-132080000D03*
%TO.P,FANSOCKET1,4*%
%TO.N,fan_pwm*%
X34210000Y-132080000D03*
%TD*%
D20*
%TO.P,S1,2,A*%
%TO.N,VDD*%
X43180000Y-129540000D03*
D21*
%TO.P,S1,1,K*%
%TO.N,+24V*%
X48260000Y-129540000D03*
%TD*%
D10*
%TO.P,R1,1*%
%TO.N,pulse_counter*%
X26670000Y-76200000D03*
D11*
%TO.P,R1,2*%
%TO.N,+3.3V*%
X41910000Y-76200000D03*
%TD*%
D22*
%TO.P,CPSOCKET1,1*%
%TO.N,GND*%
X34290000Y-186690000D03*
D13*
%TO.P,CPSOCKET1,2*%
%TO.N,filt_toggle*%
X31790000Y-186690000D03*
%TO.P,CPSOCKET1,3*%
%TO.N,GND*%
X29290000Y-186690000D03*
%TO.P,CPSOCKET1,4*%
%TO.N,led_toggle*%
X26790000Y-186690000D03*
%TD*%
D23*
%TO.P,LEDSOCKET1,1*%
%TO.N,VDD*%
X43180000Y-137160000D03*
D24*
%TO.P,LEDSOCKET1,2*%
%TO.N,+24V*%
X45680000Y-137160000D03*
%TD*%
D25*
%TO.P,C1,1*%
%TO.N,fan_pwm_filtered*%
X48300000Y-77470000D03*
%TO.P,C1,2*%
%TO.N,fan_pwm*%
X50800000Y-77470000D03*
%TD*%
D20*
%TO.P,S2,2,A*%
%TO.N,GND*%
X34290000Y-140970000D03*
D21*
%TO.P,S2,1,K*%
%TO.N,+24V*%
X29210000Y-140970000D03*
%TD*%
D16*
%TO.P,U1,-1*%
%TO.N,N/C*%
X25400000Y-25400000D03*
%TO.P,U1,2,3V3*%
%TO.N,+3.3V*%
X25400000Y-22860000D03*
%TO.P,U1,4,GPIO4/ADC1_CH3*%
%TO.N,unconnected-(U1-GPIO4{slash}ADC1_CH3-Pad4)*%
X25400000Y-27940000D03*
%TO.P,U1,5,GPIO5/ADC1_CH4*%
%TO.N,unconnected-(U1-GPIO5{slash}ADC1_CH4-Pad5)*%
X25400000Y-30480000D03*
%TO.P,U1,6,GPIO6/ADC1_CH5*%
%TO.N,unconnected-(U1-GPIO6{slash}ADC1_CH5-Pad6)*%
X25400000Y-33020000D03*
%TO.P,U1,7,GPIO7/ADC1_CH6*%
%TO.N,unconnected-(U1-GPIO7{slash}ADC1_CH6-Pad7)*%
X25400000Y-35560000D03*
%TO.P,U1,8,GPIO15/ADC2_CH4/32K_P*%
%TO.N,unconnected-(U1-GPIO15{slash}ADC2_CH4{slash}32K_P-Pad8)*%
X25400000Y-38100000D03*
%TO.P,U1,9,GPIO16/ADC2_CH5/32K_N*%
%TO.N,unconnected-(U1-GPIO16{slash}ADC2_CH5{slash}32K_N-Pad9)*%
X25400000Y-40640000D03*
%TO.P,U1,10,GPIO17/ADC2_CH6*%
%TO.N,unconnected-(U1-GPIO17{slash}ADC2_CH6-Pad10)*%
X25400000Y-43180000D03*
%TO.P,U1,11,GPIO18/ADC2_CH7*%
%TO.N,unconnected-(U1-GPIO18{slash}ADC2_CH7-Pad11)*%
X25400000Y-45720000D03*
%TO.P,U1,12,GPIO8/ADC1_CH7*%
%TO.N,unconnected-(U1-GPIO8{slash}ADC1_CH7-Pad12)*%
X25400000Y-48260000D03*
%TO.P,U1,13,GPIO3/ADC1_CH2*%
%TO.N,unconnected-(U1-GPIO3{slash}ADC1_CH2-Pad13)*%
X25400000Y-50800000D03*
%TO.P,U1,14,GPIO46*%
%TO.N,unconnected-(U1-GPIO46-Pad14)*%
X25400000Y-53340000D03*
%TO.P,U1,15,GPIO9/ADC1_CH8*%
%TO.N,unconnected-(U1-GPIO9{slash}ADC1_CH8-Pad15)*%
X25400000Y-55880000D03*
%TO.P,U1,16,GPIO10/ADC1_CH9*%
%TO.N,unconnected-(U1-GPIO10{slash}ADC1_CH9-Pad16)*%
X25400000Y-58420000D03*
%TO.P,U1,17,GPIO11/ADC2_CH0*%
%TO.N,unconnected-(U1-GPIO11{slash}ADC2_CH0-Pad17)*%
X25400000Y-60960000D03*
%TO.P,U1,18,GPIO12/ADC2_CH1*%
%TO.N,unconnected-(U1-GPIO12{slash}ADC2_CH1-Pad18)*%
X25400000Y-63500000D03*
%TO.P,U1,19,GPIO13/ADC2_CH2*%
%TO.N,unconnected-(U1-GPIO13{slash}ADC2_CH2-Pad19)*%
X25400000Y-66040000D03*
%TO.P,U1,20,GPIO14/ADC2_CH3*%
%TO.N,pulse_counter*%
X25400000Y-68580000D03*
%TO.P,U1,21,5V*%
%TO.N,unconnected-(U1-5V-Pad21)*%
X25400000Y-71120000D03*
%TO.P,U1,25,GPIO19/USB_D-*%
%TO.N,unconnected-(U1-GPIO19{slash}USB_D--Pad25)*%
X50800000Y-68580000D03*
%TO.P,U1,26,GPIO20/USB_D+*%
%TO.N,unconnected-(U1-GPIO20{slash}USB_D+-Pad26)*%
X50800000Y-66040000D03*
%TO.P,U1,27,GPIO21*%
%TO.N,fan_pwm_filtered*%
X50800000Y-63500000D03*
%TO.P,U1,28,GPIO47*%
%TO.N,Net-(MOSLED1-PWM)*%
X50800000Y-60960000D03*
%TO.P,U1,29,GPIO48*%
%TO.N,unconnected-(U1-GPIO48-Pad29)*%
X50800000Y-58420000D03*
%TO.P,U1,30,GPIO45*%
%TO.N,unconnected-(U1-GPIO45-Pad30)*%
X50800000Y-55880000D03*
%TO.P,U1,31,GPIO0*%
%TO.N,unconnected-(U1-GPIO0-Pad31)*%
X50800000Y-53340000D03*
%TO.P,U1,32,GPIO35*%
%TO.N,unconnected-(U1-GPIO35-Pad32)*%
X50800000Y-50800000D03*
%TO.P,U1,33,GPIO36*%
%TO.N,unconnected-(U1-GPIO36-Pad33)*%
X50800000Y-48260000D03*
%TO.P,U1,34,GPIO37*%
%TO.N,unconnected-(U1-GPIO37-Pad34)*%
X50800000Y-45720000D03*
%TO.P,U1,35,GPIO38*%
%TO.N,unconnected-(U1-GPIO38-Pad35)*%
X50800000Y-43180000D03*
%TO.P,U1,36,GPIO39/MTCK*%
%TO.N,Net-(U1-GPIO39{slash}MTCK)*%
X50800000Y-40640000D03*
%TO.P,U1,37,GPIO40/MTDO*%
%TO.N,Net-(U1-GPIO40{slash}MTDO)*%
X50800000Y-38100000D03*
%TO.P,U1,38,GPIO41/MTDI*%
%TO.N,unconnected-(U1-GPIO41{slash}MTDI-Pad38)*%
X50800000Y-35560000D03*
%TO.P,U1,39,GPIO42/MTMS*%
%TO.N,unconnected-(U1-GPIO42{slash}MTMS-Pad39)*%
X50800000Y-33020000D03*
%TO.P,U1,40,GPIO2/ADC1_CH1*%
%TO.N,unconnected-(U1-GPIO2{slash}ADC1_CH1-Pad40)*%
X50800000Y-30480000D03*
%TO.P,U1,41,GPIO1/ADC1_CH0*%
%TO.N,unconnected-(U1-GPIO1{slash}ADC1_CH0-Pad41)*%
X50800000Y-27940000D03*
%TO.P,U1,42,GPIO44/U0RXD*%
%TO.N,filt_toggle*%
X50800000Y-25400000D03*
%TO.P,U1,43,GPIO43/U0TXD*%
%TO.N,led_toggle*%
X50800000Y-22860000D03*
%TO.P,U1,44,GND*%
%TO.N,GND*%
X50800000Y-71120000D03*
%TD*%
%TO.P,P1,1,IN*%
%TO.N,+24V*%
X48260000Y-122640000D03*
%TO.P,P1,2,GND*%
%TO.N,GND*%
X34260000Y-122640000D03*
X34260000Y-104140000D03*
%TO.P,P1,3,OUT*%
%TO.N,+3.3V*%
X48260000Y-104140000D03*
%TD*%
D26*
%TO.N,fan_pwm_filtered*%
X48260000Y-66040000D02*
X48260000Y-77430000D01*
X50800000Y-63500000D02*
X48260000Y-66040000D01*
X48300000Y-77470000D02*
X48300000Y-83780000D01*
D27*
%TO.N,+24V*%
X48260000Y-137160000D02*
X48260000Y-149450000D01*
X48260000Y-149450000D02*
X47400000Y-148590000D01*
X48260000Y-137160000D02*
X48260000Y-129540000D01*
X26670000Y-153670000D02*
X26670000Y-143510000D01*
X45680000Y-137160000D02*
X48260000Y-137160000D01*
X38100000Y-148590000D02*
X33020000Y-153670000D01*
X26670000Y-143510000D02*
X29210000Y-140970000D01*
X29210000Y-140970000D02*
X29210000Y-132080000D01*
X47400000Y-148590000D02*
X38100000Y-148590000D01*
X48260000Y-150020000D02*
X48260000Y-153670000D01*
X48260000Y-122640000D02*
X48260000Y-129540000D01*
X33020000Y-153670000D02*
X26670000Y-153670000D01*
D26*
%TO.N,pulse_counter*%
X26670000Y-76200000D02*
X26670000Y-69850000D01*
X26670000Y-69850000D02*
X25400000Y-68580000D01*
X31710000Y-126960000D02*
X26750000Y-122000000D01*
X26750000Y-122000000D02*
X26750000Y-76280000D01*
X31710000Y-132080000D02*
X31710000Y-126960000D01*
D27*
%TO.N,VDD*%
X43180000Y-137160000D02*
X43180000Y-129540000D01*
X34290000Y-148590000D02*
X43180000Y-139700000D01*
X34290000Y-148860000D02*
X34290000Y-148590000D01*
X43180000Y-139700000D02*
X43180000Y-137160000D01*
D28*
%TO.N,+3.3V*%
X41910000Y-39370000D02*
X41910000Y-76200000D01*
X34330000Y-90210000D02*
X34330000Y-83780000D01*
X48260000Y-104140000D02*
X34330000Y-90210000D01*
X34330000Y-83780000D02*
X41910000Y-76200000D01*
X25400000Y-22860000D02*
X41910000Y-39370000D01*
D26*
%TO.N,Net-(MOSLED1-PWM)*%
X54610000Y-158750000D02*
X44450000Y-158750000D01*
X44450000Y-158750000D02*
X35560000Y-167640000D01*
X35560000Y-167640000D02*
X35560000Y-176160000D01*
X50800000Y-60960000D02*
X54610000Y-64770000D01*
X54610000Y-64770000D02*
X54610000Y-158750000D01*
%TO.N,Net-(U1-GPIO39{slash}MTCK)*%
X45720000Y-45720000D02*
X50800000Y-40640000D01*
X39330000Y-86400000D02*
X45720000Y-80010000D01*
X45720000Y-80010000D02*
X45720000Y-45720000D01*
%TO.N,Net-(U1-GPIO40{slash}MTDO)*%
X36870000Y-85050000D02*
X44450000Y-77470000D01*
X44450000Y-77470000D02*
X44450000Y-44450000D01*
X44450000Y-44450000D02*
X50800000Y-38100000D01*
X36870000Y-86360000D02*
X36870000Y-85050000D01*
%TO.N,led_toggle*%
X26670000Y-186690000D02*
X21590000Y-181610000D01*
X30480000Y-22860000D02*
X50800000Y-22860000D01*
X21590000Y-22860000D02*
X25400000Y-19050000D01*
X21590000Y-181610000D02*
X21590000Y-22860000D01*
X25400000Y-19050000D02*
X26670000Y-19050000D01*
X26670000Y-19050000D02*
X30480000Y-22860000D01*
%TO.N,filt_toggle*%
X31750000Y-25400000D02*
X50800000Y-25400000D01*
X25400000Y-20320000D02*
X26670000Y-20320000D01*
X26670000Y-20320000D02*
X31750000Y-25400000D01*
X23075000Y-22645000D02*
X25400000Y-20320000D01*
X23075000Y-177975000D02*
X23075000Y-22645000D01*
X31790000Y-186690000D02*
X23075000Y-177975000D01*
D29*
%TO.N,Net-(F1-Pad2)*%
X48260000Y-175260000D02*
X48260000Y-170020000D01*
D27*
X48260000Y-163260000D02*
X48260000Y-173130000D01*
D26*
%TO.N,fan_pwm*%
X50800000Y-111760000D02*
X34210000Y-128350000D01*
X48260000Y-99060000D02*
X50800000Y-101600000D01*
X50800000Y-96520000D02*
X48260000Y-99060000D01*
X50800000Y-101600000D02*
X50800000Y-111760000D01*
X34210000Y-128350000D02*
X34210000Y-132080000D01*
X50800000Y-77470000D02*
X50800000Y-96520000D01*
%TD*%
%TA.AperFunction,Conductor*%
%TO.N,GND*%
G36*
X31027539Y-128289685D02*
G01*
X31073294Y-128342489D01*
X31084500Y-128394000D01*
X31084500Y-130679773D01*
X31064815Y-130746812D01*
X31031623Y-130781348D01*
X30838597Y-130916505D01*
X30671508Y-131083594D01*
X30611029Y-131169968D01*
X30556452Y-131213592D01*
X30486953Y-131220785D01*
X30424599Y-131189263D01*
X30405645Y-131166665D01*
X30398166Y-131155217D01*
X30332232Y-131083594D01*
X30229744Y-130972262D01*
X30033509Y-130819526D01*
X30033507Y-130819525D01*
X30033506Y-130819524D01*
X29814811Y-130701172D01*
X29814802Y-130701169D01*
X29579616Y-130620429D01*
X29334335Y-130579500D01*
X29085665Y-130579500D01*
X28840383Y-130620429D01*
X28605197Y-130701169D01*
X28605188Y-130701172D01*
X28386493Y-130819524D01*
X28190257Y-130972261D01*
X28021833Y-131155217D01*
X27885826Y-131363393D01*
X27785936Y-131591118D01*
X27724892Y-131832175D01*
X27724890Y-131832186D01*
X27709500Y-132017922D01*
X27709500Y-140297109D01*
X27689815Y-140364148D01*
X27673181Y-140384790D01*
X25680306Y-142377664D01*
X25668794Y-142387832D01*
X25650255Y-142402262D01*
X25588776Y-142469045D01*
X25585231Y-142472739D01*
X25565104Y-142492865D01*
X25565094Y-142492877D01*
X25546689Y-142514608D01*
X25543298Y-142518448D01*
X25481838Y-142585211D01*
X25481835Y-142585214D01*
X25468994Y-142604870D01*
X25459813Y-142617183D01*
X25444635Y-142635104D01*
X25398174Y-142713074D01*
X25395462Y-142717417D01*
X25345829Y-142793389D01*
X25345824Y-142793397D01*
X25336397Y-142814889D01*
X25329367Y-142828546D01*
X25317348Y-142848716D01*
X25317343Y-142848726D01*
X25284347Y-142933288D01*
X25282386Y-142938021D01*
X25245937Y-143021118D01*
X25245935Y-143021123D01*
X25240169Y-143043890D01*
X25235484Y-143058515D01*
X25226953Y-143080379D01*
X25226948Y-143080395D01*
X25208324Y-143169211D01*
X25207170Y-143174201D01*
X25184892Y-143262175D01*
X25184890Y-143262186D01*
X25182952Y-143285577D01*
X25180737Y-143300778D01*
X25175920Y-143323750D01*
X25175919Y-143323763D01*
X25172168Y-143414440D01*
X25171851Y-143419550D01*
X25169500Y-143447934D01*
X25169500Y-143476402D01*
X25169394Y-143481526D01*
X25165642Y-143572219D01*
X25168548Y-143595526D01*
X25169500Y-143610863D01*
X25169500Y-153794336D01*
X25178905Y-153850705D01*
X25180172Y-153860871D01*
X25184891Y-153917815D01*
X25184892Y-153917824D01*
X25198918Y-153973214D01*
X25201020Y-153983238D01*
X25210429Y-154039617D01*
X25228983Y-154093659D01*
X25231907Y-154103480D01*
X25245937Y-154158882D01*
X25268893Y-154211214D01*
X25272611Y-154220745D01*
X25291172Y-154274809D01*
X25291172Y-154274811D01*
X25318376Y-154325078D01*
X25322877Y-154334286D01*
X25345827Y-154386607D01*
X25377081Y-154434446D01*
X25382320Y-154443239D01*
X25409521Y-154493502D01*
X25409526Y-154493510D01*
X25444625Y-154538605D01*
X25450578Y-154546943D01*
X25481835Y-154594784D01*
X25481837Y-154594786D01*
X25520538Y-154636826D01*
X25527159Y-154644644D01*
X25562262Y-154689744D01*
X25562264Y-154689746D01*
X25562265Y-154689747D01*
X25562269Y-154689751D01*
X25579074Y-154705220D01*
X25604313Y-154728455D01*
X25611543Y-154735685D01*
X25624123Y-154749350D01*
X25650248Y-154777731D01*
X25650256Y-154777738D01*
X25695358Y-154812842D01*
X25703169Y-154819458D01*
X25745215Y-154858164D01*
X25745217Y-154858165D01*
X25793050Y-154889416D01*
X25801383Y-154895365D01*
X25846491Y-154930474D01*
X25896765Y-154957680D01*
X25905553Y-154962918D01*
X25953388Y-154994170D01*
X25953393Y-154994173D01*
X26005723Y-155017126D01*
X26014918Y-155021621D01*
X26065190Y-155048828D01*
X26119252Y-155067387D01*
X26128791Y-155071109D01*
X26181119Y-155094063D01*
X26181120Y-155094063D01*
X26181122Y-155094064D01*
X26181121Y-155094064D01*
X26220616Y-155104064D01*
X26236509Y-155108089D01*
X26246315Y-155111008D01*
X26300386Y-155129571D01*
X26300390Y-155129571D01*
X26300391Y-155129572D01*
X26316129Y-155132198D01*
X26356752Y-155138976D01*
X26366768Y-155141076D01*
X26422179Y-155155108D01*
X26479139Y-155159827D01*
X26489296Y-155161093D01*
X26545665Y-155170500D01*
X26607933Y-155170500D01*
X32919136Y-155170500D01*
X32934473Y-155171452D01*
X32957779Y-155174357D01*
X32957779Y-155174356D01*
X32957780Y-155174357D01*
X33048472Y-155170606D01*
X33053596Y-155170500D01*
X33082066Y-155170500D01*
X33082067Y-155170500D01*
X33110444Y-155168147D01*
X33115540Y-155167831D01*
X33206237Y-155164081D01*
X33229227Y-155159259D01*
X33244413Y-155157047D01*
X33267821Y-155155108D01*
X33355848Y-155132815D01*
X33360754Y-155131680D01*
X33449614Y-155113049D01*
X33471486Y-155104513D01*
X33486116Y-155099827D01*
X33508881Y-155094063D01*
X33569702Y-155067384D01*
X33591990Y-155057608D01*
X33596726Y-155055646D01*
X33681274Y-155022656D01*
X33701450Y-155010632D01*
X33715114Y-155003599D01*
X33736607Y-154994173D01*
X33812614Y-154944514D01*
X33816880Y-154941851D01*
X33894894Y-154895366D01*
X33912813Y-154880188D01*
X33925124Y-154871008D01*
X33944785Y-154858164D01*
X34011584Y-154796669D01*
X34015380Y-154793318D01*
X34037126Y-154774902D01*
X34057288Y-154754738D01*
X34060938Y-154751236D01*
X34127738Y-154689744D01*
X34142167Y-154671203D01*
X34152324Y-154659702D01*
X38685209Y-150126819D01*
X38746532Y-150093334D01*
X38772890Y-150090500D01*
X46635500Y-150090500D01*
X46702539Y-150110185D01*
X46748294Y-150162989D01*
X46759500Y-150214500D01*
X46759500Y-152106729D01*
X46739815Y-152173768D01*
X46723181Y-152194410D01*
X46676778Y-152240812D01*
X46676773Y-152240818D01*
X46606018Y-152344107D01*
X46553657Y-152420546D01*
X46553655Y-152420549D01*
X46553655Y-152420550D01*
X46465662Y-152619836D01*
X46465659Y-152619843D01*
X46415786Y-152831890D01*
X46415784Y-152831906D01*
X46409500Y-152922444D01*
X46409500Y-154417555D01*
X46415784Y-154508093D01*
X46415786Y-154508109D01*
X46465659Y-154720156D01*
X46465661Y-154720161D01*
X46465662Y-154720164D01*
X46553657Y-154919454D01*
X46642279Y-155048825D01*
X46676773Y-155099181D01*
X46676778Y-155099187D01*
X46830812Y-155253221D01*
X46830818Y-155253226D01*
X47010546Y-155376343D01*
X47209836Y-155464338D01*
X47209841Y-155464339D01*
X47209843Y-155464340D01*
X47421890Y-155514213D01*
X47421895Y-155514213D01*
X47421901Y-155514215D01*
X47472204Y-155517706D01*
X47512444Y-155520500D01*
X47512448Y-155520500D01*
X49007556Y-155520500D01*
X49043770Y-155517986D01*
X49098099Y-155514215D01*
X49098105Y-155514213D01*
X49098109Y-155514213D01*
X49310156Y-155464340D01*
X49310156Y-155464339D01*
X49310164Y-155464338D01*
X49509454Y-155376343D01*
X49689182Y-155253226D01*
X49843226Y-155099182D01*
X49966343Y-154919454D01*
X50054338Y-154720164D01*
X50061493Y-154689744D01*
X50104213Y-154508109D01*
X50104213Y-154508105D01*
X50104215Y-154508099D01*
X50110500Y-154417552D01*
X50110500Y-152922448D01*
X50104215Y-152831901D01*
X50104213Y-152831895D01*
X50104213Y-152831890D01*
X50054340Y-152619843D01*
X50054339Y-152619841D01*
X50054338Y-152619836D01*
X49966343Y-152420546D01*
X49843226Y-152240818D01*
X49843221Y-152240812D01*
X49796819Y-152194410D01*
X49763334Y-152133087D01*
X49760500Y-152106729D01*
X49760500Y-149957937D01*
X49760499Y-149957921D01*
X49745109Y-149772186D01*
X49745108Y-149772184D01*
X49745108Y-149772179D01*
X49743403Y-149765446D01*
X49743403Y-149704552D01*
X49745108Y-149697821D01*
X49752604Y-149607346D01*
X49753125Y-149602322D01*
X49764357Y-149512221D01*
X49760606Y-149421526D01*
X49760500Y-149416402D01*
X49760500Y-148473270D01*
X49780185Y-148406231D01*
X49796820Y-148385588D01*
X49816831Y-148365577D01*
X49843226Y-148339182D01*
X49966343Y-148159454D01*
X50054338Y-147960164D01*
X50061732Y-147928726D01*
X50104213Y-147748109D01*
X50104213Y-147748105D01*
X50104215Y-147748099D01*
X50109968Y-147665214D01*
X50110500Y-147657555D01*
X50110500Y-146162444D01*
X50104215Y-146071906D01*
X50104215Y-146071901D01*
X50104213Y-146071895D01*
X50104213Y-146071890D01*
X50054340Y-145859843D01*
X50054339Y-145859841D01*
X50054338Y-145859836D01*
X49966343Y-145660546D01*
X49843226Y-145480818D01*
X49843221Y-145480812D01*
X49796819Y-145434410D01*
X49763334Y-145373087D01*
X49760500Y-145346729D01*
X49760500Y-128394000D01*
X49780185Y-128326961D01*
X49832989Y-128281206D01*
X49884500Y-128270000D01*
X53216000Y-128270000D01*
X53283039Y-128289685D01*
X53328794Y-128342489D01*
X53340000Y-128394000D01*
X53340000Y-158000500D01*
X53320315Y-158067539D01*
X53267511Y-158113294D01*
X53216000Y-158124500D01*
X44532743Y-158124500D01*
X44517122Y-158122775D01*
X44517095Y-158123061D01*
X44509333Y-158122326D01*
X44442113Y-158124439D01*
X44438219Y-158124500D01*
X44410650Y-158124500D01*
X44406673Y-158125002D01*
X44395042Y-158125917D01*
X44351374Y-158127289D01*
X44351368Y-158127290D01*
X44332126Y-158132880D01*
X44313087Y-158136823D01*
X44293217Y-158139334D01*
X44293203Y-158139337D01*
X44252598Y-158155413D01*
X44241554Y-158159194D01*
X44199614Y-158171379D01*
X44199610Y-158171381D01*
X44182366Y-158181579D01*
X44164905Y-158190133D01*
X44146274Y-158197510D01*
X44146262Y-158197517D01*
X44110933Y-158223185D01*
X44101173Y-158229596D01*
X44063580Y-158251829D01*
X44049414Y-158265995D01*
X44034624Y-158278627D01*
X44018414Y-158290404D01*
X44018411Y-158290407D01*
X43990573Y-158324058D01*
X43982711Y-158332697D01*
X35176208Y-167139199D01*
X35163951Y-167149020D01*
X35164134Y-167149241D01*
X35158122Y-167154214D01*
X35112098Y-167203223D01*
X35109391Y-167206016D01*
X35089889Y-167225517D01*
X35089875Y-167225534D01*
X35087407Y-167228715D01*
X35079843Y-167237570D01*
X35049937Y-167269418D01*
X35049936Y-167269420D01*
X35040284Y-167286976D01*
X35029610Y-167303226D01*
X35017329Y-167319061D01*
X35017324Y-167319068D01*
X34999975Y-167359158D01*
X34994838Y-167369644D01*
X34973803Y-167407906D01*
X34968822Y-167427307D01*
X34962521Y-167445710D01*
X34954562Y-167464102D01*
X34954561Y-167464105D01*
X34947728Y-167507243D01*
X34945360Y-167518674D01*
X34934501Y-167560971D01*
X34934500Y-167560982D01*
X34934500Y-167581016D01*
X34932973Y-167600415D01*
X34929840Y-167620194D01*
X34929840Y-167620195D01*
X34933950Y-167663674D01*
X34934500Y-167675343D01*
X34934500Y-174992201D01*
X34914815Y-175059240D01*
X34881623Y-175093776D01*
X34745377Y-175189175D01*
X34589175Y-175345377D01*
X34462466Y-175526338D01*
X34462465Y-175526340D01*
X34369107Y-175726548D01*
X34369104Y-175726554D01*
X34311930Y-175939929D01*
X34311929Y-175939937D01*
X34292677Y-176159997D01*
X34292677Y-176160002D01*
X34311929Y-176380062D01*
X34311930Y-176380070D01*
X34369104Y-176593445D01*
X34369105Y-176593447D01*
X34369106Y-176593450D01*
X34460670Y-176789810D01*
X34462466Y-176793662D01*
X34462468Y-176793666D01*
X34589170Y-176974615D01*
X34589175Y-176974621D01*
X34745378Y-177130824D01*
X34745384Y-177130829D01*
X34926333Y-177257531D01*
X34926335Y-177257532D01*
X34926338Y-177257534D01*
X35126550Y-177350894D01*
X35339932Y-177408070D01*
X35497123Y-177421822D01*
X35559998Y-177427323D01*
X35560000Y-177427323D01*
X35560002Y-177427323D01*
X35615017Y-177422509D01*
X35780068Y-177408070D01*
X35993450Y-177350894D01*
X36193662Y-177257534D01*
X36374620Y-177130826D01*
X36530826Y-176974620D01*
X36657534Y-176793662D01*
X36750894Y-176593450D01*
X36808070Y-176380068D01*
X36827323Y-176160000D01*
X36808070Y-175939932D01*
X36750894Y-175726550D01*
X36657534Y-175526339D01*
X36530826Y-175345380D01*
X36374620Y-175189174D01*
X36238376Y-175093775D01*
X36194752Y-175039198D01*
X36185500Y-174992200D01*
X36185500Y-167950452D01*
X36205185Y-167883413D01*
X36221819Y-167862771D01*
X44672771Y-159411819D01*
X44734094Y-159378334D01*
X44760452Y-159375500D01*
X53216000Y-159375500D01*
X53283039Y-159395185D01*
X53328794Y-159447989D01*
X53340000Y-159499500D01*
X53340000Y-175885500D01*
X53320315Y-175952539D01*
X53267511Y-175998294D01*
X53216000Y-176009500D01*
X51991378Y-176009500D01*
X51991370Y-176009500D01*
X51991347Y-176009501D01*
X51938756Y-176012295D01*
X51938755Y-176012295D01*
X51708878Y-176056754D01*
X51708876Y-176056754D01*
X51708874Y-176056755D01*
X51634933Y-176084659D01*
X51489810Y-176139425D01*
X51323855Y-176236811D01*
X51256073Y-176253763D01*
X51189886Y-176231378D01*
X51146308Y-176176764D01*
X51139175Y-176107259D01*
X51142307Y-176094301D01*
X51184565Y-175953150D01*
X51184571Y-175953127D01*
X51245260Y-175608938D01*
X51245259Y-175608938D01*
X51245262Y-175608927D01*
X51260500Y-175347305D01*
X51260500Y-169932695D01*
X51245262Y-169671073D01*
X51245260Y-169671061D01*
X51184571Y-169326872D01*
X51184569Y-169326865D01*
X51084325Y-168992027D01*
X50945892Y-168671104D01*
X50945889Y-168671096D01*
X50771130Y-168368404D01*
X50771129Y-168368402D01*
X50562415Y-168088050D01*
X50562410Y-168088044D01*
X50369349Y-167883413D01*
X50322558Y-167833817D01*
X50119789Y-167663674D01*
X50054813Y-167609152D01*
X50054805Y-167609146D01*
X49816361Y-167452318D01*
X49771167Y-167399033D01*
X49760500Y-167348718D01*
X49760500Y-164384721D01*
X49780185Y-164317682D01*
X49785233Y-164310411D01*
X49797496Y-164294028D01*
X49820716Y-164263011D01*
X49947574Y-164030689D01*
X50040077Y-163782678D01*
X50096343Y-163524026D01*
X50115227Y-163260000D01*
X50096343Y-162995974D01*
X50040077Y-162737322D01*
X49947574Y-162489311D01*
X49820716Y-162256989D01*
X49820714Y-162256986D01*
X49662093Y-162045092D01*
X49662077Y-162045074D01*
X49474925Y-161857922D01*
X49474907Y-161857906D01*
X49263013Y-161699285D01*
X49263005Y-161699280D01*
X49030694Y-161572428D01*
X49030690Y-161572426D01*
X48782673Y-161479921D01*
X48524034Y-161423658D01*
X48524027Y-161423657D01*
X48260001Y-161404773D01*
X48259999Y-161404773D01*
X47995972Y-161423657D01*
X47995965Y-161423658D01*
X47737326Y-161479921D01*
X47489309Y-161572426D01*
X47489305Y-161572428D01*
X47256994Y-161699280D01*
X47256986Y-161699285D01*
X47045092Y-161857906D01*
X47045074Y-161857922D01*
X46857922Y-162045074D01*
X46857906Y-162045092D01*
X46699285Y-162256986D01*
X46699280Y-162256994D01*
X46572428Y-162489305D01*
X46572426Y-162489309D01*
X46479921Y-162737326D01*
X46423658Y-162995965D01*
X46423657Y-162995972D01*
X46404773Y-163259998D01*
X46404773Y-163260001D01*
X46423657Y-163524027D01*
X46423658Y-163524034D01*
X46479921Y-163782673D01*
X46572426Y-164030690D01*
X46572428Y-164030694D01*
X46699280Y-164263005D01*
X46699285Y-164263013D01*
X46734767Y-164310411D01*
X46759184Y-164375875D01*
X46759500Y-164384721D01*
X46759500Y-167348718D01*
X46739815Y-167415757D01*
X46703639Y-167452318D01*
X46465194Y-167609146D01*
X46465186Y-167609152D01*
X46197442Y-167833817D01*
X46197440Y-167833819D01*
X45957589Y-168088044D01*
X45957584Y-168088050D01*
X45748870Y-168368402D01*
X45574113Y-168671091D01*
X45574107Y-168671104D01*
X45435674Y-168992027D01*
X45335430Y-169326865D01*
X45335428Y-169326872D01*
X45274739Y-169671061D01*
X45274738Y-169671072D01*
X45259500Y-169932693D01*
X45259500Y-175347306D01*
X45274738Y-175608927D01*
X45274739Y-175608938D01*
X45335428Y-175953127D01*
X45335430Y-175953134D01*
X45435674Y-176287972D01*
X45574107Y-176608895D01*
X45574113Y-176608908D01*
X45748870Y-176911597D01*
X45957584Y-177191949D01*
X45957589Y-177191955D01*
X46051391Y-177291378D01*
X46197442Y-177446183D01*
X46373903Y-177594251D01*
X46465186Y-177670847D01*
X46465194Y-177670853D01*
X46757203Y-177862911D01*
X46757207Y-177862913D01*
X47069549Y-178019777D01*
X47397989Y-178139319D01*
X47738086Y-178219923D01*
X48085241Y-178260500D01*
X48085248Y-178260500D01*
X48434752Y-178260500D01*
X48434759Y-178260500D01*
X48781914Y-178219923D01*
X49122011Y-178139319D01*
X49450451Y-178019777D01*
X49762793Y-177862913D01*
X49986301Y-177715909D01*
X50054805Y-177670853D01*
X50054805Y-177670852D01*
X50054811Y-177670849D01*
X50322558Y-177446183D01*
X50495306Y-177263080D01*
X50555629Y-177227827D01*
X50625436Y-177230782D01*
X50682564Y-177271009D01*
X50708874Y-177335736D01*
X50709500Y-177348175D01*
X50709500Y-179228613D01*
X50709501Y-179228652D01*
X50712295Y-179281243D01*
X50712295Y-179281244D01*
X50756754Y-179511121D01*
X50756755Y-179511126D01*
X50805326Y-179639832D01*
X50839425Y-179730189D01*
X50957929Y-179932131D01*
X50957934Y-179932138D01*
X51108856Y-180111141D01*
X51108858Y-180111143D01*
X51287861Y-180262065D01*
X51287868Y-180262070D01*
X51489810Y-180380574D01*
X51708874Y-180463245D01*
X51938759Y-180507705D01*
X51991378Y-180510500D01*
X51991386Y-180510500D01*
X53216000Y-180510500D01*
X53283039Y-180530185D01*
X53328794Y-180582989D01*
X53340000Y-180634500D01*
X53340000Y-189106000D01*
X53320315Y-189173039D01*
X53267511Y-189218794D01*
X53216000Y-189230000D01*
X22984000Y-189230000D01*
X22916961Y-189210315D01*
X22871206Y-189157511D01*
X22860000Y-189106000D01*
X22860000Y-184063952D01*
X22879685Y-183996913D01*
X22932489Y-183951158D01*
X23001647Y-183941214D01*
X23065203Y-183970239D01*
X23071681Y-183976271D01*
X25411641Y-186316232D01*
X25445126Y-186377555D01*
X25447488Y-186414719D01*
X25439500Y-186506027D01*
X25439500Y-186873967D01*
X25454936Y-187050403D01*
X25454938Y-187050413D01*
X25516094Y-187278655D01*
X25516096Y-187278659D01*
X25516097Y-187278663D01*
X25566031Y-187385746D01*
X25615964Y-187492828D01*
X25615965Y-187492830D01*
X25751505Y-187686402D01*
X25918597Y-187853493D01*
X25918599Y-187853495D01*
X26015384Y-187921265D01*
X26112165Y-187989032D01*
X26112167Y-187989033D01*
X26112170Y-187989035D01*
X26326337Y-188088903D01*
X26554592Y-188150063D01*
X26742918Y-188166539D01*
X26789999Y-188170659D01*
X26790000Y-188170659D01*
X26790001Y-188170659D01*
X26829234Y-188167226D01*
X27025408Y-188150063D01*
X27253663Y-188088903D01*
X27467829Y-187989035D01*
X27661401Y-187853495D01*
X27828495Y-187686401D01*
X27964035Y-187492829D01*
X28063903Y-187278663D01*
X28125063Y-187050408D01*
X28140500Y-186873966D01*
X28140500Y-186506034D01*
X28125063Y-186329592D01*
X28063903Y-186101337D01*
X27964035Y-185887171D01*
X27828495Y-185693599D01*
X27828494Y-185693597D01*
X27661402Y-185526506D01*
X27661395Y-185526501D01*
X27467834Y-185390967D01*
X27467830Y-185390965D01*
X27253663Y-185291097D01*
X27253659Y-185291096D01*
X27253655Y-185291094D01*
X27025413Y-185229938D01*
X27025403Y-185229936D01*
X26790001Y-185209341D01*
X26789999Y-185209341D01*
X26554596Y-185229936D01*
X26554586Y-185229938D01*
X26326344Y-185291094D01*
X26326330Y-185291099D01*
X26288646Y-185308672D01*
X26219568Y-185319164D01*
X26155785Y-185290644D01*
X26148561Y-185283971D01*
X22896319Y-182031728D01*
X22862834Y-181970405D01*
X22860000Y-181944047D01*
X22860000Y-178943952D01*
X22879685Y-178876913D01*
X22932489Y-178831158D01*
X23001647Y-178821214D01*
X23065203Y-178850239D01*
X23071681Y-178856271D01*
X30423347Y-186207938D01*
X30456832Y-186269261D01*
X30455524Y-186324196D01*
X30455878Y-186324259D01*
X30455467Y-186326585D01*
X30455441Y-186327711D01*
X30454939Y-186329584D01*
X30454936Y-186329597D01*
X30439500Y-186506032D01*
X30439500Y-186873967D01*
X30454936Y-187050403D01*
X30454938Y-187050413D01*
X30516094Y-187278655D01*
X30516096Y-187278659D01*
X30516097Y-187278663D01*
X30566031Y-187385746D01*
X30615964Y-187492828D01*
X30615965Y-187492830D01*
X30751505Y-187686402D01*
X30918597Y-187853493D01*
X30918599Y-187853495D01*
X31015384Y-187921265D01*
X31112165Y-187989032D01*
X31112167Y-187989033D01*
X31112170Y-187989035D01*
X31326337Y-188088903D01*
X31554592Y-188150063D01*
X31742918Y-188166539D01*
X31789999Y-188170659D01*
X31790000Y-188170659D01*
X31790001Y-188170659D01*
X31829234Y-188167226D01*
X32025408Y-188150063D01*
X32253663Y-188088903D01*
X32467829Y-187989035D01*
X32661401Y-187853495D01*
X32828495Y-187686401D01*
X32964035Y-187492829D01*
X33063903Y-187278663D01*
X33125063Y-187050408D01*
X33140500Y-186873966D01*
X33140500Y-186506034D01*
X33125063Y-186329592D01*
X33063903Y-186101337D01*
X32964035Y-185887171D01*
X32828495Y-185693599D01*
X32828494Y-185693597D01*
X32661402Y-185526506D01*
X32661395Y-185526501D01*
X32467834Y-185390967D01*
X32467830Y-185390965D01*
X32253663Y-185291097D01*
X32253659Y-185291096D01*
X32253655Y-185291094D01*
X32025413Y-185229938D01*
X32025403Y-185229936D01*
X31790001Y-185209341D01*
X31789999Y-185209341D01*
X31554596Y-185229936D01*
X31554586Y-185229938D01*
X31355542Y-185283271D01*
X31285692Y-185281608D01*
X31235768Y-185251177D01*
X23736819Y-177752228D01*
X23703334Y-177690905D01*
X23700500Y-177664547D01*
X23700500Y-128394000D01*
X23720185Y-128326961D01*
X23772989Y-128281206D01*
X23824500Y-128270000D01*
X30960500Y-128270000D01*
X31027539Y-128289685D01*
G37*
%TD.AperFunction*%
%TA.AperFunction,Conductor*%
G36*
X42093976Y-128289685D02*
G01*
X42139731Y-128342489D01*
X42149675Y-128411647D01*
X42120650Y-128475203D01*
X42118167Y-128477983D01*
X41991833Y-128615217D01*
X41855826Y-128823393D01*
X41755936Y-129051118D01*
X41694892Y-129292175D01*
X41694890Y-129292187D01*
X41674357Y-129539994D01*
X41674357Y-129540004D01*
X41679076Y-129596948D01*
X41679500Y-129607189D01*
X41679500Y-139027109D01*
X41659815Y-139094148D01*
X41643181Y-139114790D01*
X33300306Y-147457664D01*
X33288794Y-147467832D01*
X33270255Y-147482262D01*
X33208776Y-147549045D01*
X33205231Y-147552739D01*
X33185104Y-147572865D01*
X33185094Y-147572877D01*
X33166689Y-147594608D01*
X33163298Y-147598448D01*
X33101838Y-147665211D01*
X33101835Y-147665214D01*
X33088994Y-147684870D01*
X33079813Y-147697183D01*
X33064635Y-147715104D01*
X33018174Y-147793074D01*
X33015462Y-147797417D01*
X32965829Y-147873389D01*
X32965824Y-147873397D01*
X32956397Y-147894889D01*
X32949367Y-147908546D01*
X32937348Y-147928716D01*
X32937343Y-147928726D01*
X32904347Y-148013288D01*
X32902386Y-148018021D01*
X32865937Y-148101118D01*
X32865935Y-148101123D01*
X32860169Y-148123890D01*
X32855484Y-148138515D01*
X32846953Y-148160379D01*
X32846948Y-148160395D01*
X32828324Y-148249211D01*
X32827170Y-148254201D01*
X32804892Y-148342175D01*
X32804890Y-148342186D01*
X32802952Y-148365577D01*
X32800737Y-148380778D01*
X32795920Y-148403750D01*
X32795919Y-148403763D01*
X32792168Y-148494440D01*
X32791851Y-148499550D01*
X32789500Y-148527934D01*
X32789500Y-148556402D01*
X32789394Y-148561526D01*
X32785642Y-148652219D01*
X32788548Y-148675526D01*
X32789500Y-148690863D01*
X32789500Y-148922077D01*
X32804890Y-149107813D01*
X32804892Y-149107824D01*
X32865936Y-149348881D01*
X32965826Y-149576606D01*
X33101833Y-149784782D01*
X33101836Y-149784785D01*
X33270256Y-149967738D01*
X33466491Y-150120474D01*
X33685190Y-150238828D01*
X33807319Y-150280755D01*
X33920382Y-150319570D01*
X33920384Y-150319570D01*
X33920386Y-150319571D01*
X33952726Y-150324967D01*
X33963881Y-150326829D01*
X34026766Y-150357280D01*
X34063205Y-150416894D01*
X34061630Y-150486746D01*
X34031152Y-150536819D01*
X32434791Y-152133181D01*
X32373468Y-152166666D01*
X32347110Y-152169500D01*
X28294500Y-152169500D01*
X28227461Y-152149815D01*
X28181706Y-152097011D01*
X28170500Y-152045500D01*
X28170500Y-144182888D01*
X28190185Y-144115849D01*
X28206814Y-144095212D01*
X29795208Y-142506817D01*
X29856531Y-142473333D01*
X29882889Y-142470499D01*
X30257871Y-142470499D01*
X30257872Y-142470499D01*
X30317483Y-142464091D01*
X30452331Y-142413796D01*
X30567546Y-142327546D01*
X30653796Y-142212331D01*
X30704091Y-142077483D01*
X30710500Y-142017873D01*
X30710500Y-141020936D01*
X30710500Y-141003588D01*
X30710606Y-140998463D01*
X30714357Y-140907779D01*
X30711452Y-140884472D01*
X30710500Y-140869136D01*
X30710500Y-133392001D01*
X30730185Y-133324962D01*
X30782989Y-133279207D01*
X30852147Y-133269263D01*
X30905622Y-133290425D01*
X31032170Y-133379035D01*
X31246337Y-133478903D01*
X31474592Y-133540063D01*
X31662918Y-133556539D01*
X31709999Y-133560659D01*
X31710000Y-133560659D01*
X31710001Y-133560659D01*
X31749234Y-133557226D01*
X31945408Y-133540063D01*
X32173663Y-133478903D01*
X32387829Y-133379035D01*
X32581401Y-133243495D01*
X32748495Y-133076401D01*
X32858426Y-132919401D01*
X32913001Y-132875778D01*
X32982500Y-132868584D01*
X33044855Y-132900106D01*
X33061571Y-132919398D01*
X33132144Y-133020187D01*
X33171506Y-133076403D01*
X33338597Y-133243493D01*
X33338599Y-133243495D01*
X33435384Y-133311265D01*
X33532165Y-133379032D01*
X33532167Y-133379033D01*
X33532170Y-133379035D01*
X33746337Y-133478903D01*
X33974592Y-133540063D01*
X34162918Y-133556539D01*
X34209999Y-133560659D01*
X34210000Y-133560659D01*
X34210001Y-133560659D01*
X34249234Y-133557226D01*
X34445408Y-133540063D01*
X34673663Y-133478903D01*
X34887829Y-133379035D01*
X35081401Y-133243495D01*
X35248495Y-133076401D01*
X35384035Y-132882829D01*
X35483903Y-132668663D01*
X35545063Y-132440408D01*
X35560500Y-132263966D01*
X35560500Y-131896034D01*
X35545063Y-131719592D01*
X35483903Y-131491337D01*
X35384035Y-131277171D01*
X35371936Y-131259891D01*
X35248494Y-131083597D01*
X35081402Y-130916506D01*
X35081401Y-130916505D01*
X34888376Y-130781347D01*
X34844751Y-130726770D01*
X34835500Y-130679772D01*
X34835500Y-128660452D01*
X34855185Y-128593413D01*
X34871819Y-128572771D01*
X35138271Y-128306319D01*
X35199594Y-128272834D01*
X35225952Y-128270000D01*
X42026937Y-128270000D01*
X42093976Y-128289685D01*
G37*
%TD.AperFunction*%
%TD*%
M02*
