%TF.GenerationSoftware,KiCad,Pcbnew,7.0.11-2.fc39*%
%TF.CreationDate,2024-04-23T12:03:12+00:00*%
%TF.ProjectId,Smart Prusa MK4 enclosure,536d6172-7420-4507-9275-7361204d4b34,1.2*%
%TF.SameCoordinates,Original*%
%TF.FileFunction,Drillmap*%
%TF.FilePolarity,Positive*%
%FSLAX45Y45*%
G04 Gerber Fmt 4.5, Leading zero omitted, Abs format (unit mm)*
G04 Created by KiCad (PCBNEW 7.0.11-2.fc39) date 2024-04-23 12:03:12*
%MOMM*%
%LPD*%
G01*
G04 APERTURE LIST*
%ADD10C,0.100000*%
%ADD11C,0.200000*%
%ADD12C,0.140000*%
%ADD13C,0.170000*%
G04 APERTURE END LIST*
D10*
X5588000Y-1651000D02*
X5588000Y-19431000D01*
X2459000Y-1905000D02*
G75*
G03*
X2159000Y-1905000I-150000J0D01*
G01*
X2159000Y-1905000D02*
G75*
G03*
X2459000Y-1905000I150000J0D01*
G01*
X5484000Y-19177000D02*
G75*
G03*
X5184000Y-19177000I-150000J0D01*
G01*
X5184000Y-19177000D02*
G75*
G03*
X5484000Y-19177000I150000J0D01*
G01*
X2436000Y-19177000D02*
G75*
G03*
X2136000Y-19177000I-150000J0D01*
G01*
X2136000Y-19177000D02*
G75*
G03*
X2436000Y-19177000I150000J0D01*
G01*
X2032000Y-1651000D02*
X5588000Y-1651000D01*
X5484000Y-1905000D02*
G75*
G03*
X5184000Y-1905000I-150000J0D01*
G01*
X5184000Y-1905000D02*
G75*
G03*
X5484000Y-1905000I150000J0D01*
G01*
X5588000Y-19431000D02*
X2032000Y-19431000D01*
X2032000Y-19431000D02*
X2032000Y-1651000D01*
D11*
D10*
X4790000Y-7707000D02*
X4870000Y-7787000D01*
X4870000Y-7707000D02*
X4790000Y-7787000D01*
X5040000Y-7707000D02*
X5120000Y-7787000D01*
X5120000Y-7707000D02*
X5040000Y-7787000D01*
X2583500Y-2286000D02*
G75*
G03*
X2496500Y-2286000I-43500J0D01*
G01*
X2496500Y-2286000D02*
G75*
G03*
X2583500Y-2286000I43500J0D01*
G01*
X2583500Y-2540000D02*
G75*
G03*
X2496500Y-2540000I-43500J0D01*
G01*
X2496500Y-2540000D02*
G75*
G03*
X2583500Y-2540000I43500J0D01*
G01*
X2583500Y-2794000D02*
G75*
G03*
X2496500Y-2794000I-43500J0D01*
G01*
X2496500Y-2794000D02*
G75*
G03*
X2583500Y-2794000I43500J0D01*
G01*
X2583500Y-3048000D02*
G75*
G03*
X2496500Y-3048000I-43500J0D01*
G01*
X2496500Y-3048000D02*
G75*
G03*
X2583500Y-3048000I43500J0D01*
G01*
X2583500Y-3302000D02*
G75*
G03*
X2496500Y-3302000I-43500J0D01*
G01*
X2496500Y-3302000D02*
G75*
G03*
X2583500Y-3302000I43500J0D01*
G01*
X2583500Y-3556000D02*
G75*
G03*
X2496500Y-3556000I-43500J0D01*
G01*
X2496500Y-3556000D02*
G75*
G03*
X2583500Y-3556000I43500J0D01*
G01*
X2583500Y-3810000D02*
G75*
G03*
X2496500Y-3810000I-43500J0D01*
G01*
X2496500Y-3810000D02*
G75*
G03*
X2583500Y-3810000I43500J0D01*
G01*
X2583500Y-4064000D02*
G75*
G03*
X2496500Y-4064000I-43500J0D01*
G01*
X2496500Y-4064000D02*
G75*
G03*
X2583500Y-4064000I43500J0D01*
G01*
X2583500Y-4318000D02*
G75*
G03*
X2496500Y-4318000I-43500J0D01*
G01*
X2496500Y-4318000D02*
G75*
G03*
X2583500Y-4318000I43500J0D01*
G01*
X2583500Y-4572000D02*
G75*
G03*
X2496500Y-4572000I-43500J0D01*
G01*
X2496500Y-4572000D02*
G75*
G03*
X2583500Y-4572000I43500J0D01*
G01*
X2583500Y-4826000D02*
G75*
G03*
X2496500Y-4826000I-43500J0D01*
G01*
X2496500Y-4826000D02*
G75*
G03*
X2583500Y-4826000I43500J0D01*
G01*
X2583500Y-5080000D02*
G75*
G03*
X2496500Y-5080000I-43500J0D01*
G01*
X2496500Y-5080000D02*
G75*
G03*
X2583500Y-5080000I43500J0D01*
G01*
X2583500Y-5334000D02*
G75*
G03*
X2496500Y-5334000I-43500J0D01*
G01*
X2496500Y-5334000D02*
G75*
G03*
X2583500Y-5334000I43500J0D01*
G01*
X2583500Y-5588000D02*
G75*
G03*
X2496500Y-5588000I-43500J0D01*
G01*
X2496500Y-5588000D02*
G75*
G03*
X2583500Y-5588000I43500J0D01*
G01*
X2583500Y-5842000D02*
G75*
G03*
X2496500Y-5842000I-43500J0D01*
G01*
X2496500Y-5842000D02*
G75*
G03*
X2583500Y-5842000I43500J0D01*
G01*
X2583500Y-6096000D02*
G75*
G03*
X2496500Y-6096000I-43500J0D01*
G01*
X2496500Y-6096000D02*
G75*
G03*
X2583500Y-6096000I43500J0D01*
G01*
X2583500Y-6350000D02*
G75*
G03*
X2496500Y-6350000I-43500J0D01*
G01*
X2496500Y-6350000D02*
G75*
G03*
X2583500Y-6350000I43500J0D01*
G01*
X2583500Y-6604000D02*
G75*
G03*
X2496500Y-6604000I-43500J0D01*
G01*
X2496500Y-6604000D02*
G75*
G03*
X2583500Y-6604000I43500J0D01*
G01*
X2583500Y-6858000D02*
G75*
G03*
X2496500Y-6858000I-43500J0D01*
G01*
X2496500Y-6858000D02*
G75*
G03*
X2583500Y-6858000I43500J0D01*
G01*
X2583500Y-7112000D02*
G75*
G03*
X2496500Y-7112000I-43500J0D01*
G01*
X2496500Y-7112000D02*
G75*
G03*
X2583500Y-7112000I43500J0D01*
G01*
X3091500Y-14886000D02*
G75*
G03*
X3004500Y-14886000I-43500J0D01*
G01*
X3004500Y-14886000D02*
G75*
G03*
X3091500Y-14886000I43500J0D01*
G01*
X3345500Y-17616000D02*
G75*
G03*
X3258500Y-17616000I-43500J0D01*
G01*
X3258500Y-17616000D02*
G75*
G03*
X3345500Y-17616000I43500J0D01*
G01*
X3469500Y-10414000D02*
G75*
G03*
X3382500Y-10414000I-43500J0D01*
G01*
X3382500Y-10414000D02*
G75*
G03*
X3469500Y-10414000I43500J0D01*
G01*
X3469500Y-12264000D02*
G75*
G03*
X3382500Y-12264000I-43500J0D01*
G01*
X3382500Y-12264000D02*
G75*
G03*
X3469500Y-12264000I43500J0D01*
G01*
X3472500Y-14886000D02*
G75*
G03*
X3385500Y-14886000I-43500J0D01*
G01*
X3385500Y-14886000D02*
G75*
G03*
X3472500Y-14886000I43500J0D01*
G01*
X3599500Y-17616000D02*
G75*
G03*
X3512500Y-17616000I-43500J0D01*
G01*
X3512500Y-17616000D02*
G75*
G03*
X3599500Y-17616000I43500J0D01*
G01*
X3853500Y-14886000D02*
G75*
G03*
X3766500Y-14886000I-43500J0D01*
G01*
X3766500Y-14886000D02*
G75*
G03*
X3853500Y-14886000I43500J0D01*
G01*
X4869500Y-10414000D02*
G75*
G03*
X4782500Y-10414000I-43500J0D01*
G01*
X4782500Y-10414000D02*
G75*
G03*
X4869500Y-10414000I43500J0D01*
G01*
X4869500Y-12264000D02*
G75*
G03*
X4782500Y-12264000I-43500J0D01*
G01*
X4782500Y-12264000D02*
G75*
G03*
X4869500Y-12264000I43500J0D01*
G01*
X5123500Y-2286000D02*
G75*
G03*
X5036500Y-2286000I-43500J0D01*
G01*
X5036500Y-2286000D02*
G75*
G03*
X5123500Y-2286000I43500J0D01*
G01*
X5123500Y-2540000D02*
G75*
G03*
X5036500Y-2540000I-43500J0D01*
G01*
X5036500Y-2540000D02*
G75*
G03*
X5123500Y-2540000I43500J0D01*
G01*
X5123500Y-2794000D02*
G75*
G03*
X5036500Y-2794000I-43500J0D01*
G01*
X5036500Y-2794000D02*
G75*
G03*
X5123500Y-2794000I43500J0D01*
G01*
X5123500Y-3048000D02*
G75*
G03*
X5036500Y-3048000I-43500J0D01*
G01*
X5036500Y-3048000D02*
G75*
G03*
X5123500Y-3048000I43500J0D01*
G01*
X5123500Y-3302000D02*
G75*
G03*
X5036500Y-3302000I-43500J0D01*
G01*
X5036500Y-3302000D02*
G75*
G03*
X5123500Y-3302000I43500J0D01*
G01*
X5123500Y-3556000D02*
G75*
G03*
X5036500Y-3556000I-43500J0D01*
G01*
X5036500Y-3556000D02*
G75*
G03*
X5123500Y-3556000I43500J0D01*
G01*
X5123500Y-3810000D02*
G75*
G03*
X5036500Y-3810000I-43500J0D01*
G01*
X5036500Y-3810000D02*
G75*
G03*
X5123500Y-3810000I43500J0D01*
G01*
X5123500Y-4064000D02*
G75*
G03*
X5036500Y-4064000I-43500J0D01*
G01*
X5036500Y-4064000D02*
G75*
G03*
X5123500Y-4064000I43500J0D01*
G01*
X5123500Y-4318000D02*
G75*
G03*
X5036500Y-4318000I-43500J0D01*
G01*
X5036500Y-4318000D02*
G75*
G03*
X5123500Y-4318000I43500J0D01*
G01*
X5123500Y-4572000D02*
G75*
G03*
X5036500Y-4572000I-43500J0D01*
G01*
X5036500Y-4572000D02*
G75*
G03*
X5123500Y-4572000I43500J0D01*
G01*
X5123500Y-4826000D02*
G75*
G03*
X5036500Y-4826000I-43500J0D01*
G01*
X5036500Y-4826000D02*
G75*
G03*
X5123500Y-4826000I43500J0D01*
G01*
X5123500Y-5080000D02*
G75*
G03*
X5036500Y-5080000I-43500J0D01*
G01*
X5036500Y-5080000D02*
G75*
G03*
X5123500Y-5080000I43500J0D01*
G01*
X5123500Y-5334000D02*
G75*
G03*
X5036500Y-5334000I-43500J0D01*
G01*
X5036500Y-5334000D02*
G75*
G03*
X5123500Y-5334000I43500J0D01*
G01*
X5123500Y-5588000D02*
G75*
G03*
X5036500Y-5588000I-43500J0D01*
G01*
X5036500Y-5588000D02*
G75*
G03*
X5123500Y-5588000I43500J0D01*
G01*
X5123500Y-5842000D02*
G75*
G03*
X5036500Y-5842000I-43500J0D01*
G01*
X5036500Y-5842000D02*
G75*
G03*
X5123500Y-5842000I43500J0D01*
G01*
X5123500Y-6096000D02*
G75*
G03*
X5036500Y-6096000I-43500J0D01*
G01*
X5036500Y-6096000D02*
G75*
G03*
X5123500Y-6096000I43500J0D01*
G01*
X5123500Y-6350000D02*
G75*
G03*
X5036500Y-6350000I-43500J0D01*
G01*
X5036500Y-6350000D02*
G75*
G03*
X5123500Y-6350000I43500J0D01*
G01*
X5123500Y-6604000D02*
G75*
G03*
X5036500Y-6604000I-43500J0D01*
G01*
X5036500Y-6604000D02*
G75*
G03*
X5123500Y-6604000I43500J0D01*
G01*
X5123500Y-6858000D02*
G75*
G03*
X5036500Y-6858000I-43500J0D01*
G01*
X5036500Y-6858000D02*
G75*
G03*
X5123500Y-6858000I43500J0D01*
G01*
X5123500Y-7112000D02*
G75*
G03*
X5036500Y-7112000I-43500J0D01*
G01*
X5036500Y-7112000D02*
G75*
G03*
X5123500Y-7112000I43500J0D01*
G01*
X2671000Y-13160500D02*
X2671000Y-13255500D01*
X2623500Y-13208000D02*
X2718500Y-13208000D01*
X2679000Y-18621500D02*
X2679000Y-18716500D01*
X2631500Y-18669000D02*
X2726500Y-18669000D01*
X2921000Y-13160500D02*
X2921000Y-13255500D01*
X2873500Y-13208000D02*
X2968500Y-13208000D01*
X2929000Y-18621500D02*
X2929000Y-18716500D01*
X2881500Y-18669000D02*
X2976500Y-18669000D01*
X3171000Y-13160500D02*
X3171000Y-13255500D01*
X3123500Y-13208000D02*
X3218500Y-13208000D01*
X3179000Y-18621500D02*
X3179000Y-18716500D01*
X3131500Y-18669000D02*
X3226500Y-18669000D01*
X3187000Y-8588500D02*
X3187000Y-8683500D01*
X3139500Y-8636000D02*
X3234500Y-8636000D01*
X3421000Y-13160500D02*
X3421000Y-13255500D01*
X3373500Y-13208000D02*
X3468500Y-13208000D01*
X3429000Y-18621500D02*
X3429000Y-18716500D01*
X3381500Y-18669000D02*
X3476500Y-18669000D01*
X3437000Y-8588500D02*
X3437000Y-8683500D01*
X3389500Y-8636000D02*
X3484500Y-8636000D01*
X3687000Y-8588500D02*
X3687000Y-8683500D01*
X3639500Y-8636000D02*
X3734500Y-8636000D01*
X3937000Y-8588500D02*
X3937000Y-8683500D01*
X3889500Y-8636000D02*
X3984500Y-8636000D01*
X2956356Y-14132356D02*
X2956356Y-14061644D01*
X2885644Y-14061644D01*
X2885644Y-14132356D01*
X2956356Y-14132356D01*
X3464356Y-14132356D02*
X3464356Y-14061644D01*
X3393644Y-14061644D01*
X3393644Y-14132356D01*
X3464356Y-14132356D01*
X4353356Y-12989356D02*
X4353356Y-12918644D01*
X4282644Y-12918644D01*
X4282644Y-12989356D01*
X4353356Y-12989356D01*
X4353356Y-13751356D02*
X4353356Y-13680644D01*
X4282644Y-13680644D01*
X4282644Y-13751356D01*
X4353356Y-13751356D01*
X4603356Y-13751356D02*
X4603356Y-13680644D01*
X4532644Y-13680644D01*
X4532644Y-13751356D01*
X4603356Y-13751356D01*
X4861356Y-12989356D02*
X4861356Y-12918644D01*
X4790644Y-12918644D01*
X4790644Y-12989356D01*
X4861356Y-12989356D01*
X4861356Y-17561356D02*
X4861356Y-17490644D01*
X4790644Y-17490644D01*
X4790644Y-17561356D01*
X4861356Y-17561356D01*
X4726000Y-17576000D02*
X4926000Y-17576000D01*
X4926000Y-17576000D02*
G75*
G03*
X4926000Y-17476000I0J50000D01*
G01*
X4926000Y-17476000D02*
X4726000Y-17476000D01*
X4726000Y-17476000D02*
G75*
G03*
X4726000Y-17576000I0J-50000D01*
G01*
X4861356Y-18161356D02*
X4861356Y-18090644D01*
X4790644Y-18090644D01*
X4790644Y-18161356D01*
X4861356Y-18161356D01*
X4726000Y-18176000D02*
X4926000Y-18176000D01*
X4926000Y-18176000D02*
G75*
G03*
X4926000Y-18076000I0J50000D01*
G01*
X4926000Y-18076000D02*
X4726000Y-18076000D01*
X4726000Y-18076000D02*
G75*
G03*
X4726000Y-18176000I0J-50000D01*
G01*
X5331356Y-17861356D02*
X5331356Y-17790644D01*
X5260644Y-17790644D01*
X5260644Y-17861356D01*
X5331356Y-17861356D01*
X5346000Y-17926000D02*
X5346000Y-17726000D01*
X5346000Y-17726000D02*
G75*
G03*
X5246000Y-17726000I-50000J0D01*
G01*
X5246000Y-17726000D02*
X5246000Y-17926000D01*
X5246000Y-17926000D02*
G75*
G03*
X5346000Y-17926000I50000J0D01*
G01*
D12*
X2667000Y-7690000D02*
X2737000Y-7620000D01*
X2667000Y-7550000D01*
X2597000Y-7620000D01*
X2667000Y-7690000D01*
X4191000Y-7690000D02*
X4261000Y-7620000D01*
X4191000Y-7550000D01*
X4121000Y-7620000D01*
X4191000Y-7690000D01*
X4826000Y-8452000D02*
X4896000Y-8382000D01*
X4826000Y-8312000D01*
X4756000Y-8382000D01*
X4826000Y-8452000D01*
X4826000Y-9976000D02*
X4896000Y-9906000D01*
X4826000Y-9836000D01*
X4756000Y-9906000D01*
X4826000Y-9976000D01*
D13*
X4741000Y-14606000D02*
X4911000Y-14776000D01*
X4911000Y-14606000D02*
X4741000Y-14776000D01*
X4911000Y-14691000D02*
G75*
G03*
X4741000Y-14691000I-85000J0D01*
G01*
X4741000Y-14691000D02*
G75*
G03*
X4911000Y-14691000I85000J0D01*
G01*
X4741000Y-15282000D02*
X4911000Y-15452000D01*
X4911000Y-15282000D02*
X4741000Y-15452000D01*
X4911000Y-15367000D02*
G75*
G03*
X4741000Y-15367000I-85000J0D01*
G01*
X4741000Y-15367000D02*
G75*
G03*
X4911000Y-15367000I85000J0D01*
G01*
X4741000Y-16241000D02*
X4911000Y-16411000D01*
X4911000Y-16241000D02*
X4741000Y-16411000D01*
X4911000Y-16326000D02*
G75*
G03*
X4741000Y-16326000I-85000J0D01*
G01*
X4741000Y-16326000D02*
G75*
G03*
X4911000Y-16326000I85000J0D01*
G01*
X4741000Y-16917000D02*
X4911000Y-17087000D01*
X4911000Y-16917000D02*
X4741000Y-17087000D01*
X4911000Y-17002000D02*
G75*
G03*
X4741000Y-17002000I-85000J0D01*
G01*
X4741000Y-17002000D02*
G75*
G03*
X4911000Y-17002000I85000J0D01*
G01*
D11*
X2287777Y-19747484D02*
X2287777Y-19547484D01*
X2287777Y-19547484D02*
X2335396Y-19547484D01*
X2335396Y-19547484D02*
X2363967Y-19557008D01*
X2363967Y-19557008D02*
X2383015Y-19576055D01*
X2383015Y-19576055D02*
X2392539Y-19595103D01*
X2392539Y-19595103D02*
X2402063Y-19633198D01*
X2402063Y-19633198D02*
X2402063Y-19661770D01*
X2402063Y-19661770D02*
X2392539Y-19699865D01*
X2392539Y-19699865D02*
X2383015Y-19718912D01*
X2383015Y-19718912D02*
X2363967Y-19737960D01*
X2363967Y-19737960D02*
X2335396Y-19747484D01*
X2335396Y-19747484D02*
X2287777Y-19747484D01*
X2487777Y-19747484D02*
X2487777Y-19614150D01*
X2487777Y-19652246D02*
X2497301Y-19633198D01*
X2497301Y-19633198D02*
X2506824Y-19623674D01*
X2506824Y-19623674D02*
X2525872Y-19614150D01*
X2525872Y-19614150D02*
X2544920Y-19614150D01*
X2611586Y-19747484D02*
X2611586Y-19614150D01*
X2611586Y-19547484D02*
X2602063Y-19557008D01*
X2602063Y-19557008D02*
X2611586Y-19566531D01*
X2611586Y-19566531D02*
X2621110Y-19557008D01*
X2621110Y-19557008D02*
X2611586Y-19547484D01*
X2611586Y-19547484D02*
X2611586Y-19566531D01*
X2735396Y-19747484D02*
X2716348Y-19737960D01*
X2716348Y-19737960D02*
X2706824Y-19718912D01*
X2706824Y-19718912D02*
X2706824Y-19547484D01*
X2840158Y-19747484D02*
X2821110Y-19737960D01*
X2821110Y-19737960D02*
X2811586Y-19718912D01*
X2811586Y-19718912D02*
X2811586Y-19547484D01*
X3068729Y-19747484D02*
X3068729Y-19547484D01*
X3068729Y-19547484D02*
X3135396Y-19690341D01*
X3135396Y-19690341D02*
X3202062Y-19547484D01*
X3202062Y-19547484D02*
X3202062Y-19747484D01*
X3383015Y-19747484D02*
X3383015Y-19642722D01*
X3383015Y-19642722D02*
X3373491Y-19623674D01*
X3373491Y-19623674D02*
X3354443Y-19614150D01*
X3354443Y-19614150D02*
X3316348Y-19614150D01*
X3316348Y-19614150D02*
X3297301Y-19623674D01*
X3383015Y-19737960D02*
X3363967Y-19747484D01*
X3363967Y-19747484D02*
X3316348Y-19747484D01*
X3316348Y-19747484D02*
X3297301Y-19737960D01*
X3297301Y-19737960D02*
X3287777Y-19718912D01*
X3287777Y-19718912D02*
X3287777Y-19699865D01*
X3287777Y-19699865D02*
X3297301Y-19680817D01*
X3297301Y-19680817D02*
X3316348Y-19671293D01*
X3316348Y-19671293D02*
X3363967Y-19671293D01*
X3363967Y-19671293D02*
X3383015Y-19661770D01*
X3478253Y-19614150D02*
X3478253Y-19814150D01*
X3478253Y-19623674D02*
X3497301Y-19614150D01*
X3497301Y-19614150D02*
X3535396Y-19614150D01*
X3535396Y-19614150D02*
X3554443Y-19623674D01*
X3554443Y-19623674D02*
X3563967Y-19633198D01*
X3563967Y-19633198D02*
X3573491Y-19652246D01*
X3573491Y-19652246D02*
X3573491Y-19709389D01*
X3573491Y-19709389D02*
X3563967Y-19728436D01*
X3563967Y-19728436D02*
X3554443Y-19737960D01*
X3554443Y-19737960D02*
X3535396Y-19747484D01*
X3535396Y-19747484D02*
X3497301Y-19747484D01*
X3497301Y-19747484D02*
X3478253Y-19737960D01*
X3659205Y-19728436D02*
X3668729Y-19737960D01*
X3668729Y-19737960D02*
X3659205Y-19747484D01*
X3659205Y-19747484D02*
X3649682Y-19737960D01*
X3649682Y-19737960D02*
X3659205Y-19728436D01*
X3659205Y-19728436D02*
X3659205Y-19747484D01*
X3659205Y-19623674D02*
X3668729Y-19633198D01*
X3668729Y-19633198D02*
X3659205Y-19642722D01*
X3659205Y-19642722D02*
X3649682Y-19633198D01*
X3649682Y-19633198D02*
X3659205Y-19623674D01*
X3659205Y-19623674D02*
X3659205Y-19642722D01*
D10*
X1947000Y-20036000D02*
X2027000Y-20116000D01*
X2027000Y-20036000D02*
X1947000Y-20116000D01*
D11*
X2325872Y-19967484D02*
X2344920Y-19967484D01*
X2344920Y-19967484D02*
X2363967Y-19977008D01*
X2363967Y-19977008D02*
X2373491Y-19986531D01*
X2373491Y-19986531D02*
X2383015Y-20005579D01*
X2383015Y-20005579D02*
X2392539Y-20043674D01*
X2392539Y-20043674D02*
X2392539Y-20091293D01*
X2392539Y-20091293D02*
X2383015Y-20129389D01*
X2383015Y-20129389D02*
X2373491Y-20148436D01*
X2373491Y-20148436D02*
X2363967Y-20157960D01*
X2363967Y-20157960D02*
X2344920Y-20167484D01*
X2344920Y-20167484D02*
X2325872Y-20167484D01*
X2325872Y-20167484D02*
X2306824Y-20157960D01*
X2306824Y-20157960D02*
X2297301Y-20148436D01*
X2297301Y-20148436D02*
X2287777Y-20129389D01*
X2287777Y-20129389D02*
X2278253Y-20091293D01*
X2278253Y-20091293D02*
X2278253Y-20043674D01*
X2278253Y-20043674D02*
X2287777Y-20005579D01*
X2287777Y-20005579D02*
X2297301Y-19986531D01*
X2297301Y-19986531D02*
X2306824Y-19977008D01*
X2306824Y-19977008D02*
X2325872Y-19967484D01*
X2478253Y-20148436D02*
X2487777Y-20157960D01*
X2487777Y-20157960D02*
X2478253Y-20167484D01*
X2478253Y-20167484D02*
X2468729Y-20157960D01*
X2468729Y-20157960D02*
X2478253Y-20148436D01*
X2478253Y-20148436D02*
X2478253Y-20167484D01*
X2602063Y-20053198D02*
X2583015Y-20043674D01*
X2583015Y-20043674D02*
X2573491Y-20034150D01*
X2573491Y-20034150D02*
X2563967Y-20015103D01*
X2563967Y-20015103D02*
X2563967Y-20005579D01*
X2563967Y-20005579D02*
X2573491Y-19986531D01*
X2573491Y-19986531D02*
X2583015Y-19977008D01*
X2583015Y-19977008D02*
X2602063Y-19967484D01*
X2602063Y-19967484D02*
X2640158Y-19967484D01*
X2640158Y-19967484D02*
X2659205Y-19977008D01*
X2659205Y-19977008D02*
X2668729Y-19986531D01*
X2668729Y-19986531D02*
X2678253Y-20005579D01*
X2678253Y-20005579D02*
X2678253Y-20015103D01*
X2678253Y-20015103D02*
X2668729Y-20034150D01*
X2668729Y-20034150D02*
X2659205Y-20043674D01*
X2659205Y-20043674D02*
X2640158Y-20053198D01*
X2640158Y-20053198D02*
X2602063Y-20053198D01*
X2602063Y-20053198D02*
X2583015Y-20062722D01*
X2583015Y-20062722D02*
X2573491Y-20072246D01*
X2573491Y-20072246D02*
X2563967Y-20091293D01*
X2563967Y-20091293D02*
X2563967Y-20129389D01*
X2563967Y-20129389D02*
X2573491Y-20148436D01*
X2573491Y-20148436D02*
X2583015Y-20157960D01*
X2583015Y-20157960D02*
X2602063Y-20167484D01*
X2602063Y-20167484D02*
X2640158Y-20167484D01*
X2640158Y-20167484D02*
X2659205Y-20157960D01*
X2659205Y-20157960D02*
X2668729Y-20148436D01*
X2668729Y-20148436D02*
X2678253Y-20129389D01*
X2678253Y-20129389D02*
X2678253Y-20091293D01*
X2678253Y-20091293D02*
X2668729Y-20072246D01*
X2668729Y-20072246D02*
X2659205Y-20062722D01*
X2659205Y-20062722D02*
X2640158Y-20053198D01*
X2802062Y-19967484D02*
X2821110Y-19967484D01*
X2821110Y-19967484D02*
X2840158Y-19977008D01*
X2840158Y-19977008D02*
X2849682Y-19986531D01*
X2849682Y-19986531D02*
X2859205Y-20005579D01*
X2859205Y-20005579D02*
X2868729Y-20043674D01*
X2868729Y-20043674D02*
X2868729Y-20091293D01*
X2868729Y-20091293D02*
X2859205Y-20129389D01*
X2859205Y-20129389D02*
X2849682Y-20148436D01*
X2849682Y-20148436D02*
X2840158Y-20157960D01*
X2840158Y-20157960D02*
X2821110Y-20167484D01*
X2821110Y-20167484D02*
X2802062Y-20167484D01*
X2802062Y-20167484D02*
X2783015Y-20157960D01*
X2783015Y-20157960D02*
X2773491Y-20148436D01*
X2773491Y-20148436D02*
X2763967Y-20129389D01*
X2763967Y-20129389D02*
X2754444Y-20091293D01*
X2754444Y-20091293D02*
X2754444Y-20043674D01*
X2754444Y-20043674D02*
X2763967Y-20005579D01*
X2763967Y-20005579D02*
X2773491Y-19986531D01*
X2773491Y-19986531D02*
X2783015Y-19977008D01*
X2783015Y-19977008D02*
X2802062Y-19967484D01*
X2992539Y-19967484D02*
X3011586Y-19967484D01*
X3011586Y-19967484D02*
X3030634Y-19977008D01*
X3030634Y-19977008D02*
X3040158Y-19986531D01*
X3040158Y-19986531D02*
X3049682Y-20005579D01*
X3049682Y-20005579D02*
X3059205Y-20043674D01*
X3059205Y-20043674D02*
X3059205Y-20091293D01*
X3059205Y-20091293D02*
X3049682Y-20129389D01*
X3049682Y-20129389D02*
X3040158Y-20148436D01*
X3040158Y-20148436D02*
X3030634Y-20157960D01*
X3030634Y-20157960D02*
X3011586Y-20167484D01*
X3011586Y-20167484D02*
X2992539Y-20167484D01*
X2992539Y-20167484D02*
X2973491Y-20157960D01*
X2973491Y-20157960D02*
X2963967Y-20148436D01*
X2963967Y-20148436D02*
X2954443Y-20129389D01*
X2954443Y-20129389D02*
X2944920Y-20091293D01*
X2944920Y-20091293D02*
X2944920Y-20043674D01*
X2944920Y-20043674D02*
X2954443Y-20005579D01*
X2954443Y-20005579D02*
X2963967Y-19986531D01*
X2963967Y-19986531D02*
X2973491Y-19977008D01*
X2973491Y-19977008D02*
X2992539Y-19967484D01*
X3144920Y-20167484D02*
X3144920Y-20034150D01*
X3144920Y-20053198D02*
X3154443Y-20043674D01*
X3154443Y-20043674D02*
X3173491Y-20034150D01*
X3173491Y-20034150D02*
X3202063Y-20034150D01*
X3202063Y-20034150D02*
X3221110Y-20043674D01*
X3221110Y-20043674D02*
X3230634Y-20062722D01*
X3230634Y-20062722D02*
X3230634Y-20167484D01*
X3230634Y-20062722D02*
X3240158Y-20043674D01*
X3240158Y-20043674D02*
X3259205Y-20034150D01*
X3259205Y-20034150D02*
X3287777Y-20034150D01*
X3287777Y-20034150D02*
X3306824Y-20043674D01*
X3306824Y-20043674D02*
X3316348Y-20062722D01*
X3316348Y-20062722D02*
X3316348Y-20167484D01*
X3411586Y-20167484D02*
X3411586Y-20034150D01*
X3411586Y-20053198D02*
X3421110Y-20043674D01*
X3421110Y-20043674D02*
X3440158Y-20034150D01*
X3440158Y-20034150D02*
X3468729Y-20034150D01*
X3468729Y-20034150D02*
X3487777Y-20043674D01*
X3487777Y-20043674D02*
X3497301Y-20062722D01*
X3497301Y-20062722D02*
X3497301Y-20167484D01*
X3497301Y-20062722D02*
X3506824Y-20043674D01*
X3506824Y-20043674D02*
X3525872Y-20034150D01*
X3525872Y-20034150D02*
X3554443Y-20034150D01*
X3554443Y-20034150D02*
X3573491Y-20043674D01*
X3573491Y-20043674D02*
X3583015Y-20062722D01*
X3583015Y-20062722D02*
X3583015Y-20167484D01*
X3973491Y-19957960D02*
X3802063Y-20215103D01*
X4230634Y-19967484D02*
X4249682Y-19967484D01*
X4249682Y-19967484D02*
X4268729Y-19977008D01*
X4268729Y-19977008D02*
X4278253Y-19986531D01*
X4278253Y-19986531D02*
X4287777Y-20005579D01*
X4287777Y-20005579D02*
X4297301Y-20043674D01*
X4297301Y-20043674D02*
X4297301Y-20091293D01*
X4297301Y-20091293D02*
X4287777Y-20129389D01*
X4287777Y-20129389D02*
X4278253Y-20148436D01*
X4278253Y-20148436D02*
X4268729Y-20157960D01*
X4268729Y-20157960D02*
X4249682Y-20167484D01*
X4249682Y-20167484D02*
X4230634Y-20167484D01*
X4230634Y-20167484D02*
X4211587Y-20157960D01*
X4211587Y-20157960D02*
X4202063Y-20148436D01*
X4202063Y-20148436D02*
X4192539Y-20129389D01*
X4192539Y-20129389D02*
X4183015Y-20091293D01*
X4183015Y-20091293D02*
X4183015Y-20043674D01*
X4183015Y-20043674D02*
X4192539Y-20005579D01*
X4192539Y-20005579D02*
X4202063Y-19986531D01*
X4202063Y-19986531D02*
X4211587Y-19977008D01*
X4211587Y-19977008D02*
X4230634Y-19967484D01*
X4383015Y-20148436D02*
X4392539Y-20157960D01*
X4392539Y-20157960D02*
X4383015Y-20167484D01*
X4383015Y-20167484D02*
X4373491Y-20157960D01*
X4373491Y-20157960D02*
X4383015Y-20148436D01*
X4383015Y-20148436D02*
X4383015Y-20167484D01*
X4516348Y-19967484D02*
X4535396Y-19967484D01*
X4535396Y-19967484D02*
X4554444Y-19977008D01*
X4554444Y-19977008D02*
X4563968Y-19986531D01*
X4563968Y-19986531D02*
X4573491Y-20005579D01*
X4573491Y-20005579D02*
X4583015Y-20043674D01*
X4583015Y-20043674D02*
X4583015Y-20091293D01*
X4583015Y-20091293D02*
X4573491Y-20129389D01*
X4573491Y-20129389D02*
X4563968Y-20148436D01*
X4563968Y-20148436D02*
X4554444Y-20157960D01*
X4554444Y-20157960D02*
X4535396Y-20167484D01*
X4535396Y-20167484D02*
X4516348Y-20167484D01*
X4516348Y-20167484D02*
X4497301Y-20157960D01*
X4497301Y-20157960D02*
X4487777Y-20148436D01*
X4487777Y-20148436D02*
X4478253Y-20129389D01*
X4478253Y-20129389D02*
X4468729Y-20091293D01*
X4468729Y-20091293D02*
X4468729Y-20043674D01*
X4468729Y-20043674D02*
X4478253Y-20005579D01*
X4478253Y-20005579D02*
X4487777Y-19986531D01*
X4487777Y-19986531D02*
X4497301Y-19977008D01*
X4497301Y-19977008D02*
X4516348Y-19967484D01*
X4649682Y-19967484D02*
X4773491Y-19967484D01*
X4773491Y-19967484D02*
X4706825Y-20043674D01*
X4706825Y-20043674D02*
X4735396Y-20043674D01*
X4735396Y-20043674D02*
X4754444Y-20053198D01*
X4754444Y-20053198D02*
X4763968Y-20062722D01*
X4763968Y-20062722D02*
X4773491Y-20081770D01*
X4773491Y-20081770D02*
X4773491Y-20129389D01*
X4773491Y-20129389D02*
X4763968Y-20148436D01*
X4763968Y-20148436D02*
X4754444Y-20157960D01*
X4754444Y-20157960D02*
X4735396Y-20167484D01*
X4735396Y-20167484D02*
X4678253Y-20167484D01*
X4678253Y-20167484D02*
X4659206Y-20157960D01*
X4659206Y-20157960D02*
X4649682Y-20148436D01*
X4963968Y-20167484D02*
X4849682Y-20167484D01*
X4906825Y-20167484D02*
X4906825Y-19967484D01*
X4906825Y-19967484D02*
X4887777Y-19996055D01*
X4887777Y-19996055D02*
X4868729Y-20015103D01*
X4868729Y-20015103D02*
X4849682Y-20024627D01*
X5144920Y-19967484D02*
X5049682Y-19967484D01*
X5049682Y-19967484D02*
X5040158Y-20062722D01*
X5040158Y-20062722D02*
X5049682Y-20053198D01*
X5049682Y-20053198D02*
X5068729Y-20043674D01*
X5068729Y-20043674D02*
X5116349Y-20043674D01*
X5116349Y-20043674D02*
X5135396Y-20053198D01*
X5135396Y-20053198D02*
X5144920Y-20062722D01*
X5144920Y-20062722D02*
X5154444Y-20081770D01*
X5154444Y-20081770D02*
X5154444Y-20129389D01*
X5154444Y-20129389D02*
X5144920Y-20148436D01*
X5144920Y-20148436D02*
X5135396Y-20157960D01*
X5135396Y-20157960D02*
X5116349Y-20167484D01*
X5116349Y-20167484D02*
X5068729Y-20167484D01*
X5068729Y-20167484D02*
X5049682Y-20157960D01*
X5049682Y-20157960D02*
X5040158Y-20148436D01*
X5230634Y-19967484D02*
X5230634Y-20005579D01*
X5306825Y-19967484D02*
X5306825Y-20005579D01*
X5602063Y-20243674D02*
X5592539Y-20234150D01*
X5592539Y-20234150D02*
X5573491Y-20205579D01*
X5573491Y-20205579D02*
X5563968Y-20186531D01*
X5563968Y-20186531D02*
X5554444Y-20157960D01*
X5554444Y-20157960D02*
X5544920Y-20110341D01*
X5544920Y-20110341D02*
X5544920Y-20072246D01*
X5544920Y-20072246D02*
X5554444Y-20024627D01*
X5554444Y-20024627D02*
X5563968Y-19996055D01*
X5563968Y-19996055D02*
X5573491Y-19977008D01*
X5573491Y-19977008D02*
X5592539Y-19948436D01*
X5592539Y-19948436D02*
X5602063Y-19938912D01*
X5668729Y-19986531D02*
X5678253Y-19977008D01*
X5678253Y-19977008D02*
X5697301Y-19967484D01*
X5697301Y-19967484D02*
X5744920Y-19967484D01*
X5744920Y-19967484D02*
X5763968Y-19977008D01*
X5763968Y-19977008D02*
X5773491Y-19986531D01*
X5773491Y-19986531D02*
X5783015Y-20005579D01*
X5783015Y-20005579D02*
X5783015Y-20024627D01*
X5783015Y-20024627D02*
X5773491Y-20053198D01*
X5773491Y-20053198D02*
X5659206Y-20167484D01*
X5659206Y-20167484D02*
X5783015Y-20167484D01*
X6021110Y-20167484D02*
X6021110Y-19967484D01*
X6106825Y-20167484D02*
X6106825Y-20062722D01*
X6106825Y-20062722D02*
X6097301Y-20043674D01*
X6097301Y-20043674D02*
X6078253Y-20034150D01*
X6078253Y-20034150D02*
X6049682Y-20034150D01*
X6049682Y-20034150D02*
X6030634Y-20043674D01*
X6030634Y-20043674D02*
X6021110Y-20053198D01*
X6230634Y-20167484D02*
X6211587Y-20157960D01*
X6211587Y-20157960D02*
X6202063Y-20148436D01*
X6202063Y-20148436D02*
X6192539Y-20129389D01*
X6192539Y-20129389D02*
X6192539Y-20072246D01*
X6192539Y-20072246D02*
X6202063Y-20053198D01*
X6202063Y-20053198D02*
X6211587Y-20043674D01*
X6211587Y-20043674D02*
X6230634Y-20034150D01*
X6230634Y-20034150D02*
X6259206Y-20034150D01*
X6259206Y-20034150D02*
X6278253Y-20043674D01*
X6278253Y-20043674D02*
X6287777Y-20053198D01*
X6287777Y-20053198D02*
X6297301Y-20072246D01*
X6297301Y-20072246D02*
X6297301Y-20129389D01*
X6297301Y-20129389D02*
X6287777Y-20148436D01*
X6287777Y-20148436D02*
X6278253Y-20157960D01*
X6278253Y-20157960D02*
X6259206Y-20167484D01*
X6259206Y-20167484D02*
X6230634Y-20167484D01*
X6411587Y-20167484D02*
X6392539Y-20157960D01*
X6392539Y-20157960D02*
X6383015Y-20138912D01*
X6383015Y-20138912D02*
X6383015Y-19967484D01*
X6563968Y-20157960D02*
X6544920Y-20167484D01*
X6544920Y-20167484D02*
X6506825Y-20167484D01*
X6506825Y-20167484D02*
X6487777Y-20157960D01*
X6487777Y-20157960D02*
X6478253Y-20138912D01*
X6478253Y-20138912D02*
X6478253Y-20062722D01*
X6478253Y-20062722D02*
X6487777Y-20043674D01*
X6487777Y-20043674D02*
X6506825Y-20034150D01*
X6506825Y-20034150D02*
X6544920Y-20034150D01*
X6544920Y-20034150D02*
X6563968Y-20043674D01*
X6563968Y-20043674D02*
X6573491Y-20062722D01*
X6573491Y-20062722D02*
X6573491Y-20081770D01*
X6573491Y-20081770D02*
X6478253Y-20100817D01*
X6649682Y-20157960D02*
X6668730Y-20167484D01*
X6668730Y-20167484D02*
X6706825Y-20167484D01*
X6706825Y-20167484D02*
X6725872Y-20157960D01*
X6725872Y-20157960D02*
X6735396Y-20138912D01*
X6735396Y-20138912D02*
X6735396Y-20129389D01*
X6735396Y-20129389D02*
X6725872Y-20110341D01*
X6725872Y-20110341D02*
X6706825Y-20100817D01*
X6706825Y-20100817D02*
X6678253Y-20100817D01*
X6678253Y-20100817D02*
X6659206Y-20091293D01*
X6659206Y-20091293D02*
X6649682Y-20072246D01*
X6649682Y-20072246D02*
X6649682Y-20062722D01*
X6649682Y-20062722D02*
X6659206Y-20043674D01*
X6659206Y-20043674D02*
X6678253Y-20034150D01*
X6678253Y-20034150D02*
X6706825Y-20034150D01*
X6706825Y-20034150D02*
X6725872Y-20043674D01*
X6802063Y-20243674D02*
X6811587Y-20234150D01*
X6811587Y-20234150D02*
X6830634Y-20205579D01*
X6830634Y-20205579D02*
X6840158Y-20186531D01*
X6840158Y-20186531D02*
X6849682Y-20157960D01*
X6849682Y-20157960D02*
X6859206Y-20110341D01*
X6859206Y-20110341D02*
X6859206Y-20072246D01*
X6859206Y-20072246D02*
X6849682Y-20024627D01*
X6849682Y-20024627D02*
X6840158Y-19996055D01*
X6840158Y-19996055D02*
X6830634Y-19977008D01*
X6830634Y-19977008D02*
X6811587Y-19948436D01*
X6811587Y-19948436D02*
X6802063Y-19938912D01*
D10*
X2027000Y-20340000D02*
G75*
G03*
X1940000Y-20340000I-43500J0D01*
G01*
X1940000Y-20340000D02*
G75*
G03*
X2027000Y-20340000I43500J0D01*
G01*
D11*
X2325872Y-20231484D02*
X2344920Y-20231484D01*
X2344920Y-20231484D02*
X2363967Y-20241008D01*
X2363967Y-20241008D02*
X2373491Y-20250531D01*
X2373491Y-20250531D02*
X2383015Y-20269579D01*
X2383015Y-20269579D02*
X2392539Y-20307674D01*
X2392539Y-20307674D02*
X2392539Y-20355293D01*
X2392539Y-20355293D02*
X2383015Y-20393389D01*
X2383015Y-20393389D02*
X2373491Y-20412436D01*
X2373491Y-20412436D02*
X2363967Y-20421960D01*
X2363967Y-20421960D02*
X2344920Y-20431484D01*
X2344920Y-20431484D02*
X2325872Y-20431484D01*
X2325872Y-20431484D02*
X2306824Y-20421960D01*
X2306824Y-20421960D02*
X2297301Y-20412436D01*
X2297301Y-20412436D02*
X2287777Y-20393389D01*
X2287777Y-20393389D02*
X2278253Y-20355293D01*
X2278253Y-20355293D02*
X2278253Y-20307674D01*
X2278253Y-20307674D02*
X2287777Y-20269579D01*
X2287777Y-20269579D02*
X2297301Y-20250531D01*
X2297301Y-20250531D02*
X2306824Y-20241008D01*
X2306824Y-20241008D02*
X2325872Y-20231484D01*
X2478253Y-20412436D02*
X2487777Y-20421960D01*
X2487777Y-20421960D02*
X2478253Y-20431484D01*
X2478253Y-20431484D02*
X2468729Y-20421960D01*
X2468729Y-20421960D02*
X2478253Y-20412436D01*
X2478253Y-20412436D02*
X2478253Y-20431484D01*
X2602063Y-20317198D02*
X2583015Y-20307674D01*
X2583015Y-20307674D02*
X2573491Y-20298150D01*
X2573491Y-20298150D02*
X2563967Y-20279103D01*
X2563967Y-20279103D02*
X2563967Y-20269579D01*
X2563967Y-20269579D02*
X2573491Y-20250531D01*
X2573491Y-20250531D02*
X2583015Y-20241008D01*
X2583015Y-20241008D02*
X2602063Y-20231484D01*
X2602063Y-20231484D02*
X2640158Y-20231484D01*
X2640158Y-20231484D02*
X2659205Y-20241008D01*
X2659205Y-20241008D02*
X2668729Y-20250531D01*
X2668729Y-20250531D02*
X2678253Y-20269579D01*
X2678253Y-20269579D02*
X2678253Y-20279103D01*
X2678253Y-20279103D02*
X2668729Y-20298150D01*
X2668729Y-20298150D02*
X2659205Y-20307674D01*
X2659205Y-20307674D02*
X2640158Y-20317198D01*
X2640158Y-20317198D02*
X2602063Y-20317198D01*
X2602063Y-20317198D02*
X2583015Y-20326722D01*
X2583015Y-20326722D02*
X2573491Y-20336246D01*
X2573491Y-20336246D02*
X2563967Y-20355293D01*
X2563967Y-20355293D02*
X2563967Y-20393389D01*
X2563967Y-20393389D02*
X2573491Y-20412436D01*
X2573491Y-20412436D02*
X2583015Y-20421960D01*
X2583015Y-20421960D02*
X2602063Y-20431484D01*
X2602063Y-20431484D02*
X2640158Y-20431484D01*
X2640158Y-20431484D02*
X2659205Y-20421960D01*
X2659205Y-20421960D02*
X2668729Y-20412436D01*
X2668729Y-20412436D02*
X2678253Y-20393389D01*
X2678253Y-20393389D02*
X2678253Y-20355293D01*
X2678253Y-20355293D02*
X2668729Y-20336246D01*
X2668729Y-20336246D02*
X2659205Y-20326722D01*
X2659205Y-20326722D02*
X2640158Y-20317198D01*
X2744920Y-20231484D02*
X2878253Y-20231484D01*
X2878253Y-20231484D02*
X2792539Y-20431484D01*
X2992539Y-20231484D02*
X3011586Y-20231484D01*
X3011586Y-20231484D02*
X3030634Y-20241008D01*
X3030634Y-20241008D02*
X3040158Y-20250531D01*
X3040158Y-20250531D02*
X3049682Y-20269579D01*
X3049682Y-20269579D02*
X3059205Y-20307674D01*
X3059205Y-20307674D02*
X3059205Y-20355293D01*
X3059205Y-20355293D02*
X3049682Y-20393389D01*
X3049682Y-20393389D02*
X3040158Y-20412436D01*
X3040158Y-20412436D02*
X3030634Y-20421960D01*
X3030634Y-20421960D02*
X3011586Y-20431484D01*
X3011586Y-20431484D02*
X2992539Y-20431484D01*
X2992539Y-20431484D02*
X2973491Y-20421960D01*
X2973491Y-20421960D02*
X2963967Y-20412436D01*
X2963967Y-20412436D02*
X2954443Y-20393389D01*
X2954443Y-20393389D02*
X2944920Y-20355293D01*
X2944920Y-20355293D02*
X2944920Y-20307674D01*
X2944920Y-20307674D02*
X2954443Y-20269579D01*
X2954443Y-20269579D02*
X2963967Y-20250531D01*
X2963967Y-20250531D02*
X2973491Y-20241008D01*
X2973491Y-20241008D02*
X2992539Y-20231484D01*
X3144920Y-20431484D02*
X3144920Y-20298150D01*
X3144920Y-20317198D02*
X3154443Y-20307674D01*
X3154443Y-20307674D02*
X3173491Y-20298150D01*
X3173491Y-20298150D02*
X3202063Y-20298150D01*
X3202063Y-20298150D02*
X3221110Y-20307674D01*
X3221110Y-20307674D02*
X3230634Y-20326722D01*
X3230634Y-20326722D02*
X3230634Y-20431484D01*
X3230634Y-20326722D02*
X3240158Y-20307674D01*
X3240158Y-20307674D02*
X3259205Y-20298150D01*
X3259205Y-20298150D02*
X3287777Y-20298150D01*
X3287777Y-20298150D02*
X3306824Y-20307674D01*
X3306824Y-20307674D02*
X3316348Y-20326722D01*
X3316348Y-20326722D02*
X3316348Y-20431484D01*
X3411586Y-20431484D02*
X3411586Y-20298150D01*
X3411586Y-20317198D02*
X3421110Y-20307674D01*
X3421110Y-20307674D02*
X3440158Y-20298150D01*
X3440158Y-20298150D02*
X3468729Y-20298150D01*
X3468729Y-20298150D02*
X3487777Y-20307674D01*
X3487777Y-20307674D02*
X3497301Y-20326722D01*
X3497301Y-20326722D02*
X3497301Y-20431484D01*
X3497301Y-20326722D02*
X3506824Y-20307674D01*
X3506824Y-20307674D02*
X3525872Y-20298150D01*
X3525872Y-20298150D02*
X3554443Y-20298150D01*
X3554443Y-20298150D02*
X3573491Y-20307674D01*
X3573491Y-20307674D02*
X3583015Y-20326722D01*
X3583015Y-20326722D02*
X3583015Y-20431484D01*
X3973491Y-20221960D02*
X3802063Y-20479103D01*
X4230634Y-20231484D02*
X4249682Y-20231484D01*
X4249682Y-20231484D02*
X4268729Y-20241008D01*
X4268729Y-20241008D02*
X4278253Y-20250531D01*
X4278253Y-20250531D02*
X4287777Y-20269579D01*
X4287777Y-20269579D02*
X4297301Y-20307674D01*
X4297301Y-20307674D02*
X4297301Y-20355293D01*
X4297301Y-20355293D02*
X4287777Y-20393389D01*
X4287777Y-20393389D02*
X4278253Y-20412436D01*
X4278253Y-20412436D02*
X4268729Y-20421960D01*
X4268729Y-20421960D02*
X4249682Y-20431484D01*
X4249682Y-20431484D02*
X4230634Y-20431484D01*
X4230634Y-20431484D02*
X4211587Y-20421960D01*
X4211587Y-20421960D02*
X4202063Y-20412436D01*
X4202063Y-20412436D02*
X4192539Y-20393389D01*
X4192539Y-20393389D02*
X4183015Y-20355293D01*
X4183015Y-20355293D02*
X4183015Y-20307674D01*
X4183015Y-20307674D02*
X4192539Y-20269579D01*
X4192539Y-20269579D02*
X4202063Y-20250531D01*
X4202063Y-20250531D02*
X4211587Y-20241008D01*
X4211587Y-20241008D02*
X4230634Y-20231484D01*
X4383015Y-20412436D02*
X4392539Y-20421960D01*
X4392539Y-20421960D02*
X4383015Y-20431484D01*
X4383015Y-20431484D02*
X4373491Y-20421960D01*
X4373491Y-20421960D02*
X4383015Y-20412436D01*
X4383015Y-20412436D02*
X4383015Y-20431484D01*
X4516348Y-20231484D02*
X4535396Y-20231484D01*
X4535396Y-20231484D02*
X4554444Y-20241008D01*
X4554444Y-20241008D02*
X4563968Y-20250531D01*
X4563968Y-20250531D02*
X4573491Y-20269579D01*
X4573491Y-20269579D02*
X4583015Y-20307674D01*
X4583015Y-20307674D02*
X4583015Y-20355293D01*
X4583015Y-20355293D02*
X4573491Y-20393389D01*
X4573491Y-20393389D02*
X4563968Y-20412436D01*
X4563968Y-20412436D02*
X4554444Y-20421960D01*
X4554444Y-20421960D02*
X4535396Y-20431484D01*
X4535396Y-20431484D02*
X4516348Y-20431484D01*
X4516348Y-20431484D02*
X4497301Y-20421960D01*
X4497301Y-20421960D02*
X4487777Y-20412436D01*
X4487777Y-20412436D02*
X4478253Y-20393389D01*
X4478253Y-20393389D02*
X4468729Y-20355293D01*
X4468729Y-20355293D02*
X4468729Y-20307674D01*
X4468729Y-20307674D02*
X4478253Y-20269579D01*
X4478253Y-20269579D02*
X4487777Y-20250531D01*
X4487777Y-20250531D02*
X4497301Y-20241008D01*
X4497301Y-20241008D02*
X4516348Y-20231484D01*
X4649682Y-20231484D02*
X4773491Y-20231484D01*
X4773491Y-20231484D02*
X4706825Y-20307674D01*
X4706825Y-20307674D02*
X4735396Y-20307674D01*
X4735396Y-20307674D02*
X4754444Y-20317198D01*
X4754444Y-20317198D02*
X4763968Y-20326722D01*
X4763968Y-20326722D02*
X4773491Y-20345770D01*
X4773491Y-20345770D02*
X4773491Y-20393389D01*
X4773491Y-20393389D02*
X4763968Y-20412436D01*
X4763968Y-20412436D02*
X4754444Y-20421960D01*
X4754444Y-20421960D02*
X4735396Y-20431484D01*
X4735396Y-20431484D02*
X4678253Y-20431484D01*
X4678253Y-20431484D02*
X4659206Y-20421960D01*
X4659206Y-20421960D02*
X4649682Y-20412436D01*
X4944920Y-20298150D02*
X4944920Y-20431484D01*
X4897301Y-20221960D02*
X4849682Y-20364817D01*
X4849682Y-20364817D02*
X4973491Y-20364817D01*
X5030634Y-20231484D02*
X5154444Y-20231484D01*
X5154444Y-20231484D02*
X5087777Y-20307674D01*
X5087777Y-20307674D02*
X5116349Y-20307674D01*
X5116349Y-20307674D02*
X5135396Y-20317198D01*
X5135396Y-20317198D02*
X5144920Y-20326722D01*
X5144920Y-20326722D02*
X5154444Y-20345770D01*
X5154444Y-20345770D02*
X5154444Y-20393389D01*
X5154444Y-20393389D02*
X5144920Y-20412436D01*
X5144920Y-20412436D02*
X5135396Y-20421960D01*
X5135396Y-20421960D02*
X5116349Y-20431484D01*
X5116349Y-20431484D02*
X5059206Y-20431484D01*
X5059206Y-20431484D02*
X5040158Y-20421960D01*
X5040158Y-20421960D02*
X5030634Y-20412436D01*
X5230634Y-20231484D02*
X5230634Y-20269579D01*
X5306825Y-20231484D02*
X5306825Y-20269579D01*
X5602063Y-20507674D02*
X5592539Y-20498150D01*
X5592539Y-20498150D02*
X5573491Y-20469579D01*
X5573491Y-20469579D02*
X5563968Y-20450531D01*
X5563968Y-20450531D02*
X5554444Y-20421960D01*
X5554444Y-20421960D02*
X5544920Y-20374341D01*
X5544920Y-20374341D02*
X5544920Y-20336246D01*
X5544920Y-20336246D02*
X5554444Y-20288627D01*
X5554444Y-20288627D02*
X5563968Y-20260055D01*
X5563968Y-20260055D02*
X5573491Y-20241008D01*
X5573491Y-20241008D02*
X5592539Y-20212436D01*
X5592539Y-20212436D02*
X5602063Y-20202912D01*
X5763968Y-20298150D02*
X5763968Y-20431484D01*
X5716348Y-20221960D02*
X5668729Y-20364817D01*
X5668729Y-20364817D02*
X5792539Y-20364817D01*
X5878253Y-20431484D02*
X5916348Y-20431484D01*
X5916348Y-20431484D02*
X5935396Y-20421960D01*
X5935396Y-20421960D02*
X5944920Y-20412436D01*
X5944920Y-20412436D02*
X5963968Y-20383865D01*
X5963968Y-20383865D02*
X5973491Y-20345770D01*
X5973491Y-20345770D02*
X5973491Y-20269579D01*
X5973491Y-20269579D02*
X5963968Y-20250531D01*
X5963968Y-20250531D02*
X5954444Y-20241008D01*
X5954444Y-20241008D02*
X5935396Y-20231484D01*
X5935396Y-20231484D02*
X5897301Y-20231484D01*
X5897301Y-20231484D02*
X5878253Y-20241008D01*
X5878253Y-20241008D02*
X5868729Y-20250531D01*
X5868729Y-20250531D02*
X5859206Y-20269579D01*
X5859206Y-20269579D02*
X5859206Y-20317198D01*
X5859206Y-20317198D02*
X5868729Y-20336246D01*
X5868729Y-20336246D02*
X5878253Y-20345770D01*
X5878253Y-20345770D02*
X5897301Y-20355293D01*
X5897301Y-20355293D02*
X5935396Y-20355293D01*
X5935396Y-20355293D02*
X5954444Y-20345770D01*
X5954444Y-20345770D02*
X5963968Y-20336246D01*
X5963968Y-20336246D02*
X5973491Y-20317198D01*
X6211587Y-20431484D02*
X6211587Y-20231484D01*
X6297301Y-20431484D02*
X6297301Y-20326722D01*
X6297301Y-20326722D02*
X6287777Y-20307674D01*
X6287777Y-20307674D02*
X6268730Y-20298150D01*
X6268730Y-20298150D02*
X6240158Y-20298150D01*
X6240158Y-20298150D02*
X6221110Y-20307674D01*
X6221110Y-20307674D02*
X6211587Y-20317198D01*
X6421110Y-20431484D02*
X6402063Y-20421960D01*
X6402063Y-20421960D02*
X6392539Y-20412436D01*
X6392539Y-20412436D02*
X6383015Y-20393389D01*
X6383015Y-20393389D02*
X6383015Y-20336246D01*
X6383015Y-20336246D02*
X6392539Y-20317198D01*
X6392539Y-20317198D02*
X6402063Y-20307674D01*
X6402063Y-20307674D02*
X6421110Y-20298150D01*
X6421110Y-20298150D02*
X6449682Y-20298150D01*
X6449682Y-20298150D02*
X6468730Y-20307674D01*
X6468730Y-20307674D02*
X6478253Y-20317198D01*
X6478253Y-20317198D02*
X6487777Y-20336246D01*
X6487777Y-20336246D02*
X6487777Y-20393389D01*
X6487777Y-20393389D02*
X6478253Y-20412436D01*
X6478253Y-20412436D02*
X6468730Y-20421960D01*
X6468730Y-20421960D02*
X6449682Y-20431484D01*
X6449682Y-20431484D02*
X6421110Y-20431484D01*
X6602063Y-20431484D02*
X6583015Y-20421960D01*
X6583015Y-20421960D02*
X6573491Y-20402912D01*
X6573491Y-20402912D02*
X6573491Y-20231484D01*
X6754444Y-20421960D02*
X6735396Y-20431484D01*
X6735396Y-20431484D02*
X6697301Y-20431484D01*
X6697301Y-20431484D02*
X6678253Y-20421960D01*
X6678253Y-20421960D02*
X6668730Y-20402912D01*
X6668730Y-20402912D02*
X6668730Y-20326722D01*
X6668730Y-20326722D02*
X6678253Y-20307674D01*
X6678253Y-20307674D02*
X6697301Y-20298150D01*
X6697301Y-20298150D02*
X6735396Y-20298150D01*
X6735396Y-20298150D02*
X6754444Y-20307674D01*
X6754444Y-20307674D02*
X6763968Y-20326722D01*
X6763968Y-20326722D02*
X6763968Y-20345770D01*
X6763968Y-20345770D02*
X6668730Y-20364817D01*
X6840158Y-20421960D02*
X6859206Y-20431484D01*
X6859206Y-20431484D02*
X6897301Y-20431484D01*
X6897301Y-20431484D02*
X6916349Y-20421960D01*
X6916349Y-20421960D02*
X6925872Y-20402912D01*
X6925872Y-20402912D02*
X6925872Y-20393389D01*
X6925872Y-20393389D02*
X6916349Y-20374341D01*
X6916349Y-20374341D02*
X6897301Y-20364817D01*
X6897301Y-20364817D02*
X6868730Y-20364817D01*
X6868730Y-20364817D02*
X6849682Y-20355293D01*
X6849682Y-20355293D02*
X6840158Y-20336246D01*
X6840158Y-20336246D02*
X6840158Y-20326722D01*
X6840158Y-20326722D02*
X6849682Y-20307674D01*
X6849682Y-20307674D02*
X6868730Y-20298150D01*
X6868730Y-20298150D02*
X6897301Y-20298150D01*
X6897301Y-20298150D02*
X6916349Y-20307674D01*
X6992539Y-20507674D02*
X7002063Y-20498150D01*
X7002063Y-20498150D02*
X7021111Y-20469579D01*
X7021111Y-20469579D02*
X7030634Y-20450531D01*
X7030634Y-20450531D02*
X7040158Y-20421960D01*
X7040158Y-20421960D02*
X7049682Y-20374341D01*
X7049682Y-20374341D02*
X7049682Y-20336246D01*
X7049682Y-20336246D02*
X7040158Y-20288627D01*
X7040158Y-20288627D02*
X7030634Y-20260055D01*
X7030634Y-20260055D02*
X7021111Y-20241008D01*
X7021111Y-20241008D02*
X7002063Y-20212436D01*
X7002063Y-20212436D02*
X6992539Y-20202912D01*
D10*
X1979500Y-20556500D02*
X1979500Y-20651500D01*
X1932000Y-20604000D02*
X2027000Y-20604000D01*
D11*
X2325872Y-20495484D02*
X2344920Y-20495484D01*
X2344920Y-20495484D02*
X2363967Y-20505008D01*
X2363967Y-20505008D02*
X2373491Y-20514531D01*
X2373491Y-20514531D02*
X2383015Y-20533579D01*
X2383015Y-20533579D02*
X2392539Y-20571674D01*
X2392539Y-20571674D02*
X2392539Y-20619293D01*
X2392539Y-20619293D02*
X2383015Y-20657389D01*
X2383015Y-20657389D02*
X2373491Y-20676436D01*
X2373491Y-20676436D02*
X2363967Y-20685960D01*
X2363967Y-20685960D02*
X2344920Y-20695484D01*
X2344920Y-20695484D02*
X2325872Y-20695484D01*
X2325872Y-20695484D02*
X2306824Y-20685960D01*
X2306824Y-20685960D02*
X2297301Y-20676436D01*
X2297301Y-20676436D02*
X2287777Y-20657389D01*
X2287777Y-20657389D02*
X2278253Y-20619293D01*
X2278253Y-20619293D02*
X2278253Y-20571674D01*
X2278253Y-20571674D02*
X2287777Y-20533579D01*
X2287777Y-20533579D02*
X2297301Y-20514531D01*
X2297301Y-20514531D02*
X2306824Y-20505008D01*
X2306824Y-20505008D02*
X2325872Y-20495484D01*
X2478253Y-20676436D02*
X2487777Y-20685960D01*
X2487777Y-20685960D02*
X2478253Y-20695484D01*
X2478253Y-20695484D02*
X2468729Y-20685960D01*
X2468729Y-20685960D02*
X2478253Y-20676436D01*
X2478253Y-20676436D02*
X2478253Y-20695484D01*
X2583015Y-20695484D02*
X2621110Y-20695484D01*
X2621110Y-20695484D02*
X2640158Y-20685960D01*
X2640158Y-20685960D02*
X2649682Y-20676436D01*
X2649682Y-20676436D02*
X2668729Y-20647865D01*
X2668729Y-20647865D02*
X2678253Y-20609770D01*
X2678253Y-20609770D02*
X2678253Y-20533579D01*
X2678253Y-20533579D02*
X2668729Y-20514531D01*
X2668729Y-20514531D02*
X2659205Y-20505008D01*
X2659205Y-20505008D02*
X2640158Y-20495484D01*
X2640158Y-20495484D02*
X2602063Y-20495484D01*
X2602063Y-20495484D02*
X2583015Y-20505008D01*
X2583015Y-20505008D02*
X2573491Y-20514531D01*
X2573491Y-20514531D02*
X2563967Y-20533579D01*
X2563967Y-20533579D02*
X2563967Y-20581198D01*
X2563967Y-20581198D02*
X2573491Y-20600246D01*
X2573491Y-20600246D02*
X2583015Y-20609770D01*
X2583015Y-20609770D02*
X2602063Y-20619293D01*
X2602063Y-20619293D02*
X2640158Y-20619293D01*
X2640158Y-20619293D02*
X2659205Y-20609770D01*
X2659205Y-20609770D02*
X2668729Y-20600246D01*
X2668729Y-20600246D02*
X2678253Y-20581198D01*
X2859205Y-20495484D02*
X2763967Y-20495484D01*
X2763967Y-20495484D02*
X2754444Y-20590722D01*
X2754444Y-20590722D02*
X2763967Y-20581198D01*
X2763967Y-20581198D02*
X2783015Y-20571674D01*
X2783015Y-20571674D02*
X2830634Y-20571674D01*
X2830634Y-20571674D02*
X2849682Y-20581198D01*
X2849682Y-20581198D02*
X2859205Y-20590722D01*
X2859205Y-20590722D02*
X2868729Y-20609770D01*
X2868729Y-20609770D02*
X2868729Y-20657389D01*
X2868729Y-20657389D02*
X2859205Y-20676436D01*
X2859205Y-20676436D02*
X2849682Y-20685960D01*
X2849682Y-20685960D02*
X2830634Y-20695484D01*
X2830634Y-20695484D02*
X2783015Y-20695484D01*
X2783015Y-20695484D02*
X2763967Y-20685960D01*
X2763967Y-20685960D02*
X2754444Y-20676436D01*
X2992539Y-20495484D02*
X3011586Y-20495484D01*
X3011586Y-20495484D02*
X3030634Y-20505008D01*
X3030634Y-20505008D02*
X3040158Y-20514531D01*
X3040158Y-20514531D02*
X3049682Y-20533579D01*
X3049682Y-20533579D02*
X3059205Y-20571674D01*
X3059205Y-20571674D02*
X3059205Y-20619293D01*
X3059205Y-20619293D02*
X3049682Y-20657389D01*
X3049682Y-20657389D02*
X3040158Y-20676436D01*
X3040158Y-20676436D02*
X3030634Y-20685960D01*
X3030634Y-20685960D02*
X3011586Y-20695484D01*
X3011586Y-20695484D02*
X2992539Y-20695484D01*
X2992539Y-20695484D02*
X2973491Y-20685960D01*
X2973491Y-20685960D02*
X2963967Y-20676436D01*
X2963967Y-20676436D02*
X2954443Y-20657389D01*
X2954443Y-20657389D02*
X2944920Y-20619293D01*
X2944920Y-20619293D02*
X2944920Y-20571674D01*
X2944920Y-20571674D02*
X2954443Y-20533579D01*
X2954443Y-20533579D02*
X2963967Y-20514531D01*
X2963967Y-20514531D02*
X2973491Y-20505008D01*
X2973491Y-20505008D02*
X2992539Y-20495484D01*
X3144920Y-20695484D02*
X3144920Y-20562150D01*
X3144920Y-20581198D02*
X3154443Y-20571674D01*
X3154443Y-20571674D02*
X3173491Y-20562150D01*
X3173491Y-20562150D02*
X3202063Y-20562150D01*
X3202063Y-20562150D02*
X3221110Y-20571674D01*
X3221110Y-20571674D02*
X3230634Y-20590722D01*
X3230634Y-20590722D02*
X3230634Y-20695484D01*
X3230634Y-20590722D02*
X3240158Y-20571674D01*
X3240158Y-20571674D02*
X3259205Y-20562150D01*
X3259205Y-20562150D02*
X3287777Y-20562150D01*
X3287777Y-20562150D02*
X3306824Y-20571674D01*
X3306824Y-20571674D02*
X3316348Y-20590722D01*
X3316348Y-20590722D02*
X3316348Y-20695484D01*
X3411586Y-20695484D02*
X3411586Y-20562150D01*
X3411586Y-20581198D02*
X3421110Y-20571674D01*
X3421110Y-20571674D02*
X3440158Y-20562150D01*
X3440158Y-20562150D02*
X3468729Y-20562150D01*
X3468729Y-20562150D02*
X3487777Y-20571674D01*
X3487777Y-20571674D02*
X3497301Y-20590722D01*
X3497301Y-20590722D02*
X3497301Y-20695484D01*
X3497301Y-20590722D02*
X3506824Y-20571674D01*
X3506824Y-20571674D02*
X3525872Y-20562150D01*
X3525872Y-20562150D02*
X3554443Y-20562150D01*
X3554443Y-20562150D02*
X3573491Y-20571674D01*
X3573491Y-20571674D02*
X3583015Y-20590722D01*
X3583015Y-20590722D02*
X3583015Y-20695484D01*
X3973491Y-20485960D02*
X3802063Y-20743103D01*
X4230634Y-20495484D02*
X4249682Y-20495484D01*
X4249682Y-20495484D02*
X4268729Y-20505008D01*
X4268729Y-20505008D02*
X4278253Y-20514531D01*
X4278253Y-20514531D02*
X4287777Y-20533579D01*
X4287777Y-20533579D02*
X4297301Y-20571674D01*
X4297301Y-20571674D02*
X4297301Y-20619293D01*
X4297301Y-20619293D02*
X4287777Y-20657389D01*
X4287777Y-20657389D02*
X4278253Y-20676436D01*
X4278253Y-20676436D02*
X4268729Y-20685960D01*
X4268729Y-20685960D02*
X4249682Y-20695484D01*
X4249682Y-20695484D02*
X4230634Y-20695484D01*
X4230634Y-20695484D02*
X4211587Y-20685960D01*
X4211587Y-20685960D02*
X4202063Y-20676436D01*
X4202063Y-20676436D02*
X4192539Y-20657389D01*
X4192539Y-20657389D02*
X4183015Y-20619293D01*
X4183015Y-20619293D02*
X4183015Y-20571674D01*
X4183015Y-20571674D02*
X4192539Y-20533579D01*
X4192539Y-20533579D02*
X4202063Y-20514531D01*
X4202063Y-20514531D02*
X4211587Y-20505008D01*
X4211587Y-20505008D02*
X4230634Y-20495484D01*
X4383015Y-20676436D02*
X4392539Y-20685960D01*
X4392539Y-20685960D02*
X4383015Y-20695484D01*
X4383015Y-20695484D02*
X4373491Y-20685960D01*
X4373491Y-20685960D02*
X4383015Y-20676436D01*
X4383015Y-20676436D02*
X4383015Y-20695484D01*
X4516348Y-20495484D02*
X4535396Y-20495484D01*
X4535396Y-20495484D02*
X4554444Y-20505008D01*
X4554444Y-20505008D02*
X4563968Y-20514531D01*
X4563968Y-20514531D02*
X4573491Y-20533579D01*
X4573491Y-20533579D02*
X4583015Y-20571674D01*
X4583015Y-20571674D02*
X4583015Y-20619293D01*
X4583015Y-20619293D02*
X4573491Y-20657389D01*
X4573491Y-20657389D02*
X4563968Y-20676436D01*
X4563968Y-20676436D02*
X4554444Y-20685960D01*
X4554444Y-20685960D02*
X4535396Y-20695484D01*
X4535396Y-20695484D02*
X4516348Y-20695484D01*
X4516348Y-20695484D02*
X4497301Y-20685960D01*
X4497301Y-20685960D02*
X4487777Y-20676436D01*
X4487777Y-20676436D02*
X4478253Y-20657389D01*
X4478253Y-20657389D02*
X4468729Y-20619293D01*
X4468729Y-20619293D02*
X4468729Y-20571674D01*
X4468729Y-20571674D02*
X4478253Y-20533579D01*
X4478253Y-20533579D02*
X4487777Y-20514531D01*
X4487777Y-20514531D02*
X4497301Y-20505008D01*
X4497301Y-20505008D02*
X4516348Y-20495484D01*
X4649682Y-20495484D02*
X4773491Y-20495484D01*
X4773491Y-20495484D02*
X4706825Y-20571674D01*
X4706825Y-20571674D02*
X4735396Y-20571674D01*
X4735396Y-20571674D02*
X4754444Y-20581198D01*
X4754444Y-20581198D02*
X4763968Y-20590722D01*
X4763968Y-20590722D02*
X4773491Y-20609770D01*
X4773491Y-20609770D02*
X4773491Y-20657389D01*
X4773491Y-20657389D02*
X4763968Y-20676436D01*
X4763968Y-20676436D02*
X4754444Y-20685960D01*
X4754444Y-20685960D02*
X4735396Y-20695484D01*
X4735396Y-20695484D02*
X4678253Y-20695484D01*
X4678253Y-20695484D02*
X4659206Y-20685960D01*
X4659206Y-20685960D02*
X4649682Y-20676436D01*
X4840158Y-20495484D02*
X4973491Y-20495484D01*
X4973491Y-20495484D02*
X4887777Y-20695484D01*
X5135396Y-20562150D02*
X5135396Y-20695484D01*
X5087777Y-20485960D02*
X5040158Y-20628817D01*
X5040158Y-20628817D02*
X5163968Y-20628817D01*
X5230634Y-20495484D02*
X5230634Y-20533579D01*
X5306825Y-20495484D02*
X5306825Y-20533579D01*
X5602063Y-20771674D02*
X5592539Y-20762150D01*
X5592539Y-20762150D02*
X5573491Y-20733579D01*
X5573491Y-20733579D02*
X5563968Y-20714531D01*
X5563968Y-20714531D02*
X5554444Y-20685960D01*
X5554444Y-20685960D02*
X5544920Y-20638341D01*
X5544920Y-20638341D02*
X5544920Y-20600246D01*
X5544920Y-20600246D02*
X5554444Y-20552627D01*
X5554444Y-20552627D02*
X5563968Y-20524055D01*
X5563968Y-20524055D02*
X5573491Y-20505008D01*
X5573491Y-20505008D02*
X5592539Y-20476436D01*
X5592539Y-20476436D02*
X5602063Y-20466912D01*
X5783015Y-20695484D02*
X5668729Y-20695484D01*
X5725872Y-20695484D02*
X5725872Y-20495484D01*
X5725872Y-20495484D02*
X5706825Y-20524055D01*
X5706825Y-20524055D02*
X5687777Y-20543103D01*
X5687777Y-20543103D02*
X5668729Y-20552627D01*
X5859206Y-20514531D02*
X5868729Y-20505008D01*
X5868729Y-20505008D02*
X5887777Y-20495484D01*
X5887777Y-20495484D02*
X5935396Y-20495484D01*
X5935396Y-20495484D02*
X5954444Y-20505008D01*
X5954444Y-20505008D02*
X5963968Y-20514531D01*
X5963968Y-20514531D02*
X5973491Y-20533579D01*
X5973491Y-20533579D02*
X5973491Y-20552627D01*
X5973491Y-20552627D02*
X5963968Y-20581198D01*
X5963968Y-20581198D02*
X5849682Y-20695484D01*
X5849682Y-20695484D02*
X5973491Y-20695484D01*
X6211587Y-20695484D02*
X6211587Y-20495484D01*
X6297301Y-20695484D02*
X6297301Y-20590722D01*
X6297301Y-20590722D02*
X6287777Y-20571674D01*
X6287777Y-20571674D02*
X6268730Y-20562150D01*
X6268730Y-20562150D02*
X6240158Y-20562150D01*
X6240158Y-20562150D02*
X6221110Y-20571674D01*
X6221110Y-20571674D02*
X6211587Y-20581198D01*
X6421110Y-20695484D02*
X6402063Y-20685960D01*
X6402063Y-20685960D02*
X6392539Y-20676436D01*
X6392539Y-20676436D02*
X6383015Y-20657389D01*
X6383015Y-20657389D02*
X6383015Y-20600246D01*
X6383015Y-20600246D02*
X6392539Y-20581198D01*
X6392539Y-20581198D02*
X6402063Y-20571674D01*
X6402063Y-20571674D02*
X6421110Y-20562150D01*
X6421110Y-20562150D02*
X6449682Y-20562150D01*
X6449682Y-20562150D02*
X6468730Y-20571674D01*
X6468730Y-20571674D02*
X6478253Y-20581198D01*
X6478253Y-20581198D02*
X6487777Y-20600246D01*
X6487777Y-20600246D02*
X6487777Y-20657389D01*
X6487777Y-20657389D02*
X6478253Y-20676436D01*
X6478253Y-20676436D02*
X6468730Y-20685960D01*
X6468730Y-20685960D02*
X6449682Y-20695484D01*
X6449682Y-20695484D02*
X6421110Y-20695484D01*
X6602063Y-20695484D02*
X6583015Y-20685960D01*
X6583015Y-20685960D02*
X6573491Y-20666912D01*
X6573491Y-20666912D02*
X6573491Y-20495484D01*
X6754444Y-20685960D02*
X6735396Y-20695484D01*
X6735396Y-20695484D02*
X6697301Y-20695484D01*
X6697301Y-20695484D02*
X6678253Y-20685960D01*
X6678253Y-20685960D02*
X6668730Y-20666912D01*
X6668730Y-20666912D02*
X6668730Y-20590722D01*
X6668730Y-20590722D02*
X6678253Y-20571674D01*
X6678253Y-20571674D02*
X6697301Y-20562150D01*
X6697301Y-20562150D02*
X6735396Y-20562150D01*
X6735396Y-20562150D02*
X6754444Y-20571674D01*
X6754444Y-20571674D02*
X6763968Y-20590722D01*
X6763968Y-20590722D02*
X6763968Y-20609770D01*
X6763968Y-20609770D02*
X6668730Y-20628817D01*
X6840158Y-20685960D02*
X6859206Y-20695484D01*
X6859206Y-20695484D02*
X6897301Y-20695484D01*
X6897301Y-20695484D02*
X6916349Y-20685960D01*
X6916349Y-20685960D02*
X6925872Y-20666912D01*
X6925872Y-20666912D02*
X6925872Y-20657389D01*
X6925872Y-20657389D02*
X6916349Y-20638341D01*
X6916349Y-20638341D02*
X6897301Y-20628817D01*
X6897301Y-20628817D02*
X6868730Y-20628817D01*
X6868730Y-20628817D02*
X6849682Y-20619293D01*
X6849682Y-20619293D02*
X6840158Y-20600246D01*
X6840158Y-20600246D02*
X6840158Y-20590722D01*
X6840158Y-20590722D02*
X6849682Y-20571674D01*
X6849682Y-20571674D02*
X6868730Y-20562150D01*
X6868730Y-20562150D02*
X6897301Y-20562150D01*
X6897301Y-20562150D02*
X6916349Y-20571674D01*
X6992539Y-20771674D02*
X7002063Y-20762150D01*
X7002063Y-20762150D02*
X7021111Y-20733579D01*
X7021111Y-20733579D02*
X7030634Y-20714531D01*
X7030634Y-20714531D02*
X7040158Y-20685960D01*
X7040158Y-20685960D02*
X7049682Y-20638341D01*
X7049682Y-20638341D02*
X7049682Y-20600246D01*
X7049682Y-20600246D02*
X7040158Y-20552627D01*
X7040158Y-20552627D02*
X7030634Y-20524055D01*
X7030634Y-20524055D02*
X7021111Y-20505008D01*
X7021111Y-20505008D02*
X7002063Y-20476436D01*
X7002063Y-20476436D02*
X6992539Y-20466912D01*
D10*
X2012356Y-20903356D02*
X2012356Y-20832644D01*
X1941644Y-20832644D01*
X1941644Y-20903356D01*
X2012356Y-20903356D01*
D11*
X2392539Y-20959484D02*
X2278253Y-20959484D01*
X2335396Y-20959484D02*
X2335396Y-20759484D01*
X2335396Y-20759484D02*
X2316348Y-20788055D01*
X2316348Y-20788055D02*
X2297301Y-20807103D01*
X2297301Y-20807103D02*
X2278253Y-20816627D01*
X2478253Y-20940436D02*
X2487777Y-20949960D01*
X2487777Y-20949960D02*
X2478253Y-20959484D01*
X2478253Y-20959484D02*
X2468729Y-20949960D01*
X2468729Y-20949960D02*
X2478253Y-20940436D01*
X2478253Y-20940436D02*
X2478253Y-20959484D01*
X2611586Y-20759484D02*
X2630634Y-20759484D01*
X2630634Y-20759484D02*
X2649682Y-20769008D01*
X2649682Y-20769008D02*
X2659205Y-20778531D01*
X2659205Y-20778531D02*
X2668729Y-20797579D01*
X2668729Y-20797579D02*
X2678253Y-20835674D01*
X2678253Y-20835674D02*
X2678253Y-20883293D01*
X2678253Y-20883293D02*
X2668729Y-20921389D01*
X2668729Y-20921389D02*
X2659205Y-20940436D01*
X2659205Y-20940436D02*
X2649682Y-20949960D01*
X2649682Y-20949960D02*
X2630634Y-20959484D01*
X2630634Y-20959484D02*
X2611586Y-20959484D01*
X2611586Y-20959484D02*
X2592539Y-20949960D01*
X2592539Y-20949960D02*
X2583015Y-20940436D01*
X2583015Y-20940436D02*
X2573491Y-20921389D01*
X2573491Y-20921389D02*
X2563967Y-20883293D01*
X2563967Y-20883293D02*
X2563967Y-20835674D01*
X2563967Y-20835674D02*
X2573491Y-20797579D01*
X2573491Y-20797579D02*
X2583015Y-20778531D01*
X2583015Y-20778531D02*
X2592539Y-20769008D01*
X2592539Y-20769008D02*
X2611586Y-20759484D01*
X2802062Y-20759484D02*
X2821110Y-20759484D01*
X2821110Y-20759484D02*
X2840158Y-20769008D01*
X2840158Y-20769008D02*
X2849682Y-20778531D01*
X2849682Y-20778531D02*
X2859205Y-20797579D01*
X2859205Y-20797579D02*
X2868729Y-20835674D01*
X2868729Y-20835674D02*
X2868729Y-20883293D01*
X2868729Y-20883293D02*
X2859205Y-20921389D01*
X2859205Y-20921389D02*
X2849682Y-20940436D01*
X2849682Y-20940436D02*
X2840158Y-20949960D01*
X2840158Y-20949960D02*
X2821110Y-20959484D01*
X2821110Y-20959484D02*
X2802062Y-20959484D01*
X2802062Y-20959484D02*
X2783015Y-20949960D01*
X2783015Y-20949960D02*
X2773491Y-20940436D01*
X2773491Y-20940436D02*
X2763967Y-20921389D01*
X2763967Y-20921389D02*
X2754444Y-20883293D01*
X2754444Y-20883293D02*
X2754444Y-20835674D01*
X2754444Y-20835674D02*
X2763967Y-20797579D01*
X2763967Y-20797579D02*
X2773491Y-20778531D01*
X2773491Y-20778531D02*
X2783015Y-20769008D01*
X2783015Y-20769008D02*
X2802062Y-20759484D01*
X2992539Y-20759484D02*
X3011586Y-20759484D01*
X3011586Y-20759484D02*
X3030634Y-20769008D01*
X3030634Y-20769008D02*
X3040158Y-20778531D01*
X3040158Y-20778531D02*
X3049682Y-20797579D01*
X3049682Y-20797579D02*
X3059205Y-20835674D01*
X3059205Y-20835674D02*
X3059205Y-20883293D01*
X3059205Y-20883293D02*
X3049682Y-20921389D01*
X3049682Y-20921389D02*
X3040158Y-20940436D01*
X3040158Y-20940436D02*
X3030634Y-20949960D01*
X3030634Y-20949960D02*
X3011586Y-20959484D01*
X3011586Y-20959484D02*
X2992539Y-20959484D01*
X2992539Y-20959484D02*
X2973491Y-20949960D01*
X2973491Y-20949960D02*
X2963967Y-20940436D01*
X2963967Y-20940436D02*
X2954443Y-20921389D01*
X2954443Y-20921389D02*
X2944920Y-20883293D01*
X2944920Y-20883293D02*
X2944920Y-20835674D01*
X2944920Y-20835674D02*
X2954443Y-20797579D01*
X2954443Y-20797579D02*
X2963967Y-20778531D01*
X2963967Y-20778531D02*
X2973491Y-20769008D01*
X2973491Y-20769008D02*
X2992539Y-20759484D01*
X3144920Y-20959484D02*
X3144920Y-20826150D01*
X3144920Y-20845198D02*
X3154443Y-20835674D01*
X3154443Y-20835674D02*
X3173491Y-20826150D01*
X3173491Y-20826150D02*
X3202063Y-20826150D01*
X3202063Y-20826150D02*
X3221110Y-20835674D01*
X3221110Y-20835674D02*
X3230634Y-20854722D01*
X3230634Y-20854722D02*
X3230634Y-20959484D01*
X3230634Y-20854722D02*
X3240158Y-20835674D01*
X3240158Y-20835674D02*
X3259205Y-20826150D01*
X3259205Y-20826150D02*
X3287777Y-20826150D01*
X3287777Y-20826150D02*
X3306824Y-20835674D01*
X3306824Y-20835674D02*
X3316348Y-20854722D01*
X3316348Y-20854722D02*
X3316348Y-20959484D01*
X3411586Y-20959484D02*
X3411586Y-20826150D01*
X3411586Y-20845198D02*
X3421110Y-20835674D01*
X3421110Y-20835674D02*
X3440158Y-20826150D01*
X3440158Y-20826150D02*
X3468729Y-20826150D01*
X3468729Y-20826150D02*
X3487777Y-20835674D01*
X3487777Y-20835674D02*
X3497301Y-20854722D01*
X3497301Y-20854722D02*
X3497301Y-20959484D01*
X3497301Y-20854722D02*
X3506824Y-20835674D01*
X3506824Y-20835674D02*
X3525872Y-20826150D01*
X3525872Y-20826150D02*
X3554443Y-20826150D01*
X3554443Y-20826150D02*
X3573491Y-20835674D01*
X3573491Y-20835674D02*
X3583015Y-20854722D01*
X3583015Y-20854722D02*
X3583015Y-20959484D01*
X3973491Y-20749960D02*
X3802063Y-21007103D01*
X4230634Y-20759484D02*
X4249682Y-20759484D01*
X4249682Y-20759484D02*
X4268729Y-20769008D01*
X4268729Y-20769008D02*
X4278253Y-20778531D01*
X4278253Y-20778531D02*
X4287777Y-20797579D01*
X4287777Y-20797579D02*
X4297301Y-20835674D01*
X4297301Y-20835674D02*
X4297301Y-20883293D01*
X4297301Y-20883293D02*
X4287777Y-20921389D01*
X4287777Y-20921389D02*
X4278253Y-20940436D01*
X4278253Y-20940436D02*
X4268729Y-20949960D01*
X4268729Y-20949960D02*
X4249682Y-20959484D01*
X4249682Y-20959484D02*
X4230634Y-20959484D01*
X4230634Y-20959484D02*
X4211587Y-20949960D01*
X4211587Y-20949960D02*
X4202063Y-20940436D01*
X4202063Y-20940436D02*
X4192539Y-20921389D01*
X4192539Y-20921389D02*
X4183015Y-20883293D01*
X4183015Y-20883293D02*
X4183015Y-20835674D01*
X4183015Y-20835674D02*
X4192539Y-20797579D01*
X4192539Y-20797579D02*
X4202063Y-20778531D01*
X4202063Y-20778531D02*
X4211587Y-20769008D01*
X4211587Y-20769008D02*
X4230634Y-20759484D01*
X4383015Y-20940436D02*
X4392539Y-20949960D01*
X4392539Y-20949960D02*
X4383015Y-20959484D01*
X4383015Y-20959484D02*
X4373491Y-20949960D01*
X4373491Y-20949960D02*
X4383015Y-20940436D01*
X4383015Y-20940436D02*
X4383015Y-20959484D01*
X4516348Y-20759484D02*
X4535396Y-20759484D01*
X4535396Y-20759484D02*
X4554444Y-20769008D01*
X4554444Y-20769008D02*
X4563968Y-20778531D01*
X4563968Y-20778531D02*
X4573491Y-20797579D01*
X4573491Y-20797579D02*
X4583015Y-20835674D01*
X4583015Y-20835674D02*
X4583015Y-20883293D01*
X4583015Y-20883293D02*
X4573491Y-20921389D01*
X4573491Y-20921389D02*
X4563968Y-20940436D01*
X4563968Y-20940436D02*
X4554444Y-20949960D01*
X4554444Y-20949960D02*
X4535396Y-20959484D01*
X4535396Y-20959484D02*
X4516348Y-20959484D01*
X4516348Y-20959484D02*
X4497301Y-20949960D01*
X4497301Y-20949960D02*
X4487777Y-20940436D01*
X4487777Y-20940436D02*
X4478253Y-20921389D01*
X4478253Y-20921389D02*
X4468729Y-20883293D01*
X4468729Y-20883293D02*
X4468729Y-20835674D01*
X4468729Y-20835674D02*
X4478253Y-20797579D01*
X4478253Y-20797579D02*
X4487777Y-20778531D01*
X4487777Y-20778531D02*
X4497301Y-20769008D01*
X4497301Y-20769008D02*
X4516348Y-20759484D01*
X4649682Y-20759484D02*
X4773491Y-20759484D01*
X4773491Y-20759484D02*
X4706825Y-20835674D01*
X4706825Y-20835674D02*
X4735396Y-20835674D01*
X4735396Y-20835674D02*
X4754444Y-20845198D01*
X4754444Y-20845198D02*
X4763968Y-20854722D01*
X4763968Y-20854722D02*
X4773491Y-20873770D01*
X4773491Y-20873770D02*
X4773491Y-20921389D01*
X4773491Y-20921389D02*
X4763968Y-20940436D01*
X4763968Y-20940436D02*
X4754444Y-20949960D01*
X4754444Y-20949960D02*
X4735396Y-20959484D01*
X4735396Y-20959484D02*
X4678253Y-20959484D01*
X4678253Y-20959484D02*
X4659206Y-20949960D01*
X4659206Y-20949960D02*
X4649682Y-20940436D01*
X4868729Y-20959484D02*
X4906825Y-20959484D01*
X4906825Y-20959484D02*
X4925872Y-20949960D01*
X4925872Y-20949960D02*
X4935396Y-20940436D01*
X4935396Y-20940436D02*
X4954444Y-20911865D01*
X4954444Y-20911865D02*
X4963968Y-20873770D01*
X4963968Y-20873770D02*
X4963968Y-20797579D01*
X4963968Y-20797579D02*
X4954444Y-20778531D01*
X4954444Y-20778531D02*
X4944920Y-20769008D01*
X4944920Y-20769008D02*
X4925872Y-20759484D01*
X4925872Y-20759484D02*
X4887777Y-20759484D01*
X4887777Y-20759484D02*
X4868729Y-20769008D01*
X4868729Y-20769008D02*
X4859206Y-20778531D01*
X4859206Y-20778531D02*
X4849682Y-20797579D01*
X4849682Y-20797579D02*
X4849682Y-20845198D01*
X4849682Y-20845198D02*
X4859206Y-20864246D01*
X4859206Y-20864246D02*
X4868729Y-20873770D01*
X4868729Y-20873770D02*
X4887777Y-20883293D01*
X4887777Y-20883293D02*
X4925872Y-20883293D01*
X4925872Y-20883293D02*
X4944920Y-20873770D01*
X4944920Y-20873770D02*
X4954444Y-20864246D01*
X4954444Y-20864246D02*
X4963968Y-20845198D01*
X5135396Y-20826150D02*
X5135396Y-20959484D01*
X5087777Y-20749960D02*
X5040158Y-20892817D01*
X5040158Y-20892817D02*
X5163968Y-20892817D01*
X5230634Y-20759484D02*
X5230634Y-20797579D01*
X5306825Y-20759484D02*
X5306825Y-20797579D01*
X5602063Y-21035674D02*
X5592539Y-21026150D01*
X5592539Y-21026150D02*
X5573491Y-20997579D01*
X5573491Y-20997579D02*
X5563968Y-20978531D01*
X5563968Y-20978531D02*
X5554444Y-20949960D01*
X5554444Y-20949960D02*
X5544920Y-20902341D01*
X5544920Y-20902341D02*
X5544920Y-20864246D01*
X5544920Y-20864246D02*
X5554444Y-20816627D01*
X5554444Y-20816627D02*
X5563968Y-20788055D01*
X5563968Y-20788055D02*
X5573491Y-20769008D01*
X5573491Y-20769008D02*
X5592539Y-20740436D01*
X5592539Y-20740436D02*
X5602063Y-20730912D01*
X5763968Y-20759484D02*
X5725872Y-20759484D01*
X5725872Y-20759484D02*
X5706825Y-20769008D01*
X5706825Y-20769008D02*
X5697301Y-20778531D01*
X5697301Y-20778531D02*
X5678253Y-20807103D01*
X5678253Y-20807103D02*
X5668729Y-20845198D01*
X5668729Y-20845198D02*
X5668729Y-20921389D01*
X5668729Y-20921389D02*
X5678253Y-20940436D01*
X5678253Y-20940436D02*
X5687777Y-20949960D01*
X5687777Y-20949960D02*
X5706825Y-20959484D01*
X5706825Y-20959484D02*
X5744920Y-20959484D01*
X5744920Y-20959484D02*
X5763968Y-20949960D01*
X5763968Y-20949960D02*
X5773491Y-20940436D01*
X5773491Y-20940436D02*
X5783015Y-20921389D01*
X5783015Y-20921389D02*
X5783015Y-20873770D01*
X5783015Y-20873770D02*
X5773491Y-20854722D01*
X5773491Y-20854722D02*
X5763968Y-20845198D01*
X5763968Y-20845198D02*
X5744920Y-20835674D01*
X5744920Y-20835674D02*
X5706825Y-20835674D01*
X5706825Y-20835674D02*
X5687777Y-20845198D01*
X5687777Y-20845198D02*
X5678253Y-20854722D01*
X5678253Y-20854722D02*
X5668729Y-20873770D01*
X6021110Y-20959484D02*
X6021110Y-20759484D01*
X6106825Y-20959484D02*
X6106825Y-20854722D01*
X6106825Y-20854722D02*
X6097301Y-20835674D01*
X6097301Y-20835674D02*
X6078253Y-20826150D01*
X6078253Y-20826150D02*
X6049682Y-20826150D01*
X6049682Y-20826150D02*
X6030634Y-20835674D01*
X6030634Y-20835674D02*
X6021110Y-20845198D01*
X6230634Y-20959484D02*
X6211587Y-20949960D01*
X6211587Y-20949960D02*
X6202063Y-20940436D01*
X6202063Y-20940436D02*
X6192539Y-20921389D01*
X6192539Y-20921389D02*
X6192539Y-20864246D01*
X6192539Y-20864246D02*
X6202063Y-20845198D01*
X6202063Y-20845198D02*
X6211587Y-20835674D01*
X6211587Y-20835674D02*
X6230634Y-20826150D01*
X6230634Y-20826150D02*
X6259206Y-20826150D01*
X6259206Y-20826150D02*
X6278253Y-20835674D01*
X6278253Y-20835674D02*
X6287777Y-20845198D01*
X6287777Y-20845198D02*
X6297301Y-20864246D01*
X6297301Y-20864246D02*
X6297301Y-20921389D01*
X6297301Y-20921389D02*
X6287777Y-20940436D01*
X6287777Y-20940436D02*
X6278253Y-20949960D01*
X6278253Y-20949960D02*
X6259206Y-20959484D01*
X6259206Y-20959484D02*
X6230634Y-20959484D01*
X6411587Y-20959484D02*
X6392539Y-20949960D01*
X6392539Y-20949960D02*
X6383015Y-20930912D01*
X6383015Y-20930912D02*
X6383015Y-20759484D01*
X6563968Y-20949960D02*
X6544920Y-20959484D01*
X6544920Y-20959484D02*
X6506825Y-20959484D01*
X6506825Y-20959484D02*
X6487777Y-20949960D01*
X6487777Y-20949960D02*
X6478253Y-20930912D01*
X6478253Y-20930912D02*
X6478253Y-20854722D01*
X6478253Y-20854722D02*
X6487777Y-20835674D01*
X6487777Y-20835674D02*
X6506825Y-20826150D01*
X6506825Y-20826150D02*
X6544920Y-20826150D01*
X6544920Y-20826150D02*
X6563968Y-20835674D01*
X6563968Y-20835674D02*
X6573491Y-20854722D01*
X6573491Y-20854722D02*
X6573491Y-20873770D01*
X6573491Y-20873770D02*
X6478253Y-20892817D01*
X6649682Y-20949960D02*
X6668730Y-20959484D01*
X6668730Y-20959484D02*
X6706825Y-20959484D01*
X6706825Y-20959484D02*
X6725872Y-20949960D01*
X6725872Y-20949960D02*
X6735396Y-20930912D01*
X6735396Y-20930912D02*
X6735396Y-20921389D01*
X6735396Y-20921389D02*
X6725872Y-20902341D01*
X6725872Y-20902341D02*
X6706825Y-20892817D01*
X6706825Y-20892817D02*
X6678253Y-20892817D01*
X6678253Y-20892817D02*
X6659206Y-20883293D01*
X6659206Y-20883293D02*
X6649682Y-20864246D01*
X6649682Y-20864246D02*
X6649682Y-20854722D01*
X6649682Y-20854722D02*
X6659206Y-20835674D01*
X6659206Y-20835674D02*
X6678253Y-20826150D01*
X6678253Y-20826150D02*
X6706825Y-20826150D01*
X6706825Y-20826150D02*
X6725872Y-20835674D01*
X6973492Y-20883293D02*
X7125873Y-20883293D01*
X7049682Y-20959484D02*
X7049682Y-20807103D01*
X7354444Y-20759484D02*
X7478253Y-20759484D01*
X7478253Y-20759484D02*
X7411587Y-20835674D01*
X7411587Y-20835674D02*
X7440158Y-20835674D01*
X7440158Y-20835674D02*
X7459206Y-20845198D01*
X7459206Y-20845198D02*
X7468730Y-20854722D01*
X7468730Y-20854722D02*
X7478253Y-20873770D01*
X7478253Y-20873770D02*
X7478253Y-20921389D01*
X7478253Y-20921389D02*
X7468730Y-20940436D01*
X7468730Y-20940436D02*
X7459206Y-20949960D01*
X7459206Y-20949960D02*
X7440158Y-20959484D01*
X7440158Y-20959484D02*
X7383015Y-20959484D01*
X7383015Y-20959484D02*
X7363968Y-20949960D01*
X7363968Y-20949960D02*
X7354444Y-20940436D01*
X7706825Y-20949960D02*
X7725873Y-20959484D01*
X7725873Y-20959484D02*
X7763968Y-20959484D01*
X7763968Y-20959484D02*
X7783015Y-20949960D01*
X7783015Y-20949960D02*
X7792539Y-20930912D01*
X7792539Y-20930912D02*
X7792539Y-20921389D01*
X7792539Y-20921389D02*
X7783015Y-20902341D01*
X7783015Y-20902341D02*
X7763968Y-20892817D01*
X7763968Y-20892817D02*
X7735396Y-20892817D01*
X7735396Y-20892817D02*
X7716349Y-20883293D01*
X7716349Y-20883293D02*
X7706825Y-20864246D01*
X7706825Y-20864246D02*
X7706825Y-20854722D01*
X7706825Y-20854722D02*
X7716349Y-20835674D01*
X7716349Y-20835674D02*
X7735396Y-20826150D01*
X7735396Y-20826150D02*
X7763968Y-20826150D01*
X7763968Y-20826150D02*
X7783015Y-20835674D01*
X7906825Y-20959484D02*
X7887777Y-20949960D01*
X7887777Y-20949960D02*
X7878254Y-20930912D01*
X7878254Y-20930912D02*
X7878254Y-20759484D01*
X8011587Y-20959484D02*
X7992539Y-20949960D01*
X7992539Y-20949960D02*
X7983015Y-20940436D01*
X7983015Y-20940436D02*
X7973492Y-20921389D01*
X7973492Y-20921389D02*
X7973492Y-20864246D01*
X7973492Y-20864246D02*
X7983015Y-20845198D01*
X7983015Y-20845198D02*
X7992539Y-20835674D01*
X7992539Y-20835674D02*
X8011587Y-20826150D01*
X8011587Y-20826150D02*
X8040158Y-20826150D01*
X8040158Y-20826150D02*
X8059206Y-20835674D01*
X8059206Y-20835674D02*
X8068730Y-20845198D01*
X8068730Y-20845198D02*
X8078254Y-20864246D01*
X8078254Y-20864246D02*
X8078254Y-20921389D01*
X8078254Y-20921389D02*
X8068730Y-20940436D01*
X8068730Y-20940436D02*
X8059206Y-20949960D01*
X8059206Y-20949960D02*
X8040158Y-20959484D01*
X8040158Y-20959484D02*
X8011587Y-20959484D01*
X8135396Y-20826150D02*
X8211587Y-20826150D01*
X8163968Y-20759484D02*
X8163968Y-20930912D01*
X8163968Y-20930912D02*
X8173492Y-20949960D01*
X8173492Y-20949960D02*
X8192539Y-20959484D01*
X8192539Y-20959484D02*
X8211587Y-20959484D01*
X8268730Y-20949960D02*
X8287777Y-20959484D01*
X8287777Y-20959484D02*
X8325873Y-20959484D01*
X8325873Y-20959484D02*
X8344920Y-20949960D01*
X8344920Y-20949960D02*
X8354444Y-20930912D01*
X8354444Y-20930912D02*
X8354444Y-20921389D01*
X8354444Y-20921389D02*
X8344920Y-20902341D01*
X8344920Y-20902341D02*
X8325873Y-20892817D01*
X8325873Y-20892817D02*
X8297301Y-20892817D01*
X8297301Y-20892817D02*
X8278254Y-20883293D01*
X8278254Y-20883293D02*
X8268730Y-20864246D01*
X8268730Y-20864246D02*
X8268730Y-20854722D01*
X8268730Y-20854722D02*
X8278254Y-20835674D01*
X8278254Y-20835674D02*
X8297301Y-20826150D01*
X8297301Y-20826150D02*
X8325873Y-20826150D01*
X8325873Y-20826150D02*
X8344920Y-20835674D01*
X8421111Y-21035674D02*
X8430635Y-21026150D01*
X8430635Y-21026150D02*
X8449682Y-20997579D01*
X8449682Y-20997579D02*
X8459206Y-20978531D01*
X8459206Y-20978531D02*
X8468730Y-20949960D01*
X8468730Y-20949960D02*
X8478254Y-20902341D01*
X8478254Y-20902341D02*
X8478254Y-20864246D01*
X8478254Y-20864246D02*
X8468730Y-20816627D01*
X8468730Y-20816627D02*
X8459206Y-20788055D01*
X8459206Y-20788055D02*
X8449682Y-20769008D01*
X8449682Y-20769008D02*
X8430635Y-20740436D01*
X8430635Y-20740436D02*
X8421111Y-20730912D01*
D12*
X1957000Y-21202000D02*
X2027000Y-21132000D01*
X1957000Y-21062000D01*
X1887000Y-21132000D01*
X1957000Y-21202000D01*
D11*
X2392539Y-21223484D02*
X2278253Y-21223484D01*
X2335396Y-21223484D02*
X2335396Y-21023484D01*
X2335396Y-21023484D02*
X2316348Y-21052055D01*
X2316348Y-21052055D02*
X2297301Y-21071103D01*
X2297301Y-21071103D02*
X2278253Y-21080627D01*
X2478253Y-21204436D02*
X2487777Y-21213960D01*
X2487777Y-21213960D02*
X2478253Y-21223484D01*
X2478253Y-21223484D02*
X2468729Y-21213960D01*
X2468729Y-21213960D02*
X2478253Y-21204436D01*
X2478253Y-21204436D02*
X2478253Y-21223484D01*
X2659205Y-21090150D02*
X2659205Y-21223484D01*
X2611586Y-21013960D02*
X2563967Y-21156817D01*
X2563967Y-21156817D02*
X2687777Y-21156817D01*
X2802062Y-21023484D02*
X2821110Y-21023484D01*
X2821110Y-21023484D02*
X2840158Y-21033008D01*
X2840158Y-21033008D02*
X2849682Y-21042531D01*
X2849682Y-21042531D02*
X2859205Y-21061579D01*
X2859205Y-21061579D02*
X2868729Y-21099674D01*
X2868729Y-21099674D02*
X2868729Y-21147293D01*
X2868729Y-21147293D02*
X2859205Y-21185389D01*
X2859205Y-21185389D02*
X2849682Y-21204436D01*
X2849682Y-21204436D02*
X2840158Y-21213960D01*
X2840158Y-21213960D02*
X2821110Y-21223484D01*
X2821110Y-21223484D02*
X2802062Y-21223484D01*
X2802062Y-21223484D02*
X2783015Y-21213960D01*
X2783015Y-21213960D02*
X2773491Y-21204436D01*
X2773491Y-21204436D02*
X2763967Y-21185389D01*
X2763967Y-21185389D02*
X2754444Y-21147293D01*
X2754444Y-21147293D02*
X2754444Y-21099674D01*
X2754444Y-21099674D02*
X2763967Y-21061579D01*
X2763967Y-21061579D02*
X2773491Y-21042531D01*
X2773491Y-21042531D02*
X2783015Y-21033008D01*
X2783015Y-21033008D02*
X2802062Y-21023484D01*
X2992539Y-21023484D02*
X3011586Y-21023484D01*
X3011586Y-21023484D02*
X3030634Y-21033008D01*
X3030634Y-21033008D02*
X3040158Y-21042531D01*
X3040158Y-21042531D02*
X3049682Y-21061579D01*
X3049682Y-21061579D02*
X3059205Y-21099674D01*
X3059205Y-21099674D02*
X3059205Y-21147293D01*
X3059205Y-21147293D02*
X3049682Y-21185389D01*
X3049682Y-21185389D02*
X3040158Y-21204436D01*
X3040158Y-21204436D02*
X3030634Y-21213960D01*
X3030634Y-21213960D02*
X3011586Y-21223484D01*
X3011586Y-21223484D02*
X2992539Y-21223484D01*
X2992539Y-21223484D02*
X2973491Y-21213960D01*
X2973491Y-21213960D02*
X2963967Y-21204436D01*
X2963967Y-21204436D02*
X2954443Y-21185389D01*
X2954443Y-21185389D02*
X2944920Y-21147293D01*
X2944920Y-21147293D02*
X2944920Y-21099674D01*
X2944920Y-21099674D02*
X2954443Y-21061579D01*
X2954443Y-21061579D02*
X2963967Y-21042531D01*
X2963967Y-21042531D02*
X2973491Y-21033008D01*
X2973491Y-21033008D02*
X2992539Y-21023484D01*
X3144920Y-21223484D02*
X3144920Y-21090150D01*
X3144920Y-21109198D02*
X3154443Y-21099674D01*
X3154443Y-21099674D02*
X3173491Y-21090150D01*
X3173491Y-21090150D02*
X3202063Y-21090150D01*
X3202063Y-21090150D02*
X3221110Y-21099674D01*
X3221110Y-21099674D02*
X3230634Y-21118722D01*
X3230634Y-21118722D02*
X3230634Y-21223484D01*
X3230634Y-21118722D02*
X3240158Y-21099674D01*
X3240158Y-21099674D02*
X3259205Y-21090150D01*
X3259205Y-21090150D02*
X3287777Y-21090150D01*
X3287777Y-21090150D02*
X3306824Y-21099674D01*
X3306824Y-21099674D02*
X3316348Y-21118722D01*
X3316348Y-21118722D02*
X3316348Y-21223484D01*
X3411586Y-21223484D02*
X3411586Y-21090150D01*
X3411586Y-21109198D02*
X3421110Y-21099674D01*
X3421110Y-21099674D02*
X3440158Y-21090150D01*
X3440158Y-21090150D02*
X3468729Y-21090150D01*
X3468729Y-21090150D02*
X3487777Y-21099674D01*
X3487777Y-21099674D02*
X3497301Y-21118722D01*
X3497301Y-21118722D02*
X3497301Y-21223484D01*
X3497301Y-21118722D02*
X3506824Y-21099674D01*
X3506824Y-21099674D02*
X3525872Y-21090150D01*
X3525872Y-21090150D02*
X3554443Y-21090150D01*
X3554443Y-21090150D02*
X3573491Y-21099674D01*
X3573491Y-21099674D02*
X3583015Y-21118722D01*
X3583015Y-21118722D02*
X3583015Y-21223484D01*
X3973491Y-21013960D02*
X3802063Y-21271103D01*
X4230634Y-21023484D02*
X4249682Y-21023484D01*
X4249682Y-21023484D02*
X4268729Y-21033008D01*
X4268729Y-21033008D02*
X4278253Y-21042531D01*
X4278253Y-21042531D02*
X4287777Y-21061579D01*
X4287777Y-21061579D02*
X4297301Y-21099674D01*
X4297301Y-21099674D02*
X4297301Y-21147293D01*
X4297301Y-21147293D02*
X4287777Y-21185389D01*
X4287777Y-21185389D02*
X4278253Y-21204436D01*
X4278253Y-21204436D02*
X4268729Y-21213960D01*
X4268729Y-21213960D02*
X4249682Y-21223484D01*
X4249682Y-21223484D02*
X4230634Y-21223484D01*
X4230634Y-21223484D02*
X4211587Y-21213960D01*
X4211587Y-21213960D02*
X4202063Y-21204436D01*
X4202063Y-21204436D02*
X4192539Y-21185389D01*
X4192539Y-21185389D02*
X4183015Y-21147293D01*
X4183015Y-21147293D02*
X4183015Y-21099674D01*
X4183015Y-21099674D02*
X4192539Y-21061579D01*
X4192539Y-21061579D02*
X4202063Y-21042531D01*
X4202063Y-21042531D02*
X4211587Y-21033008D01*
X4211587Y-21033008D02*
X4230634Y-21023484D01*
X4383015Y-21204436D02*
X4392539Y-21213960D01*
X4392539Y-21213960D02*
X4383015Y-21223484D01*
X4383015Y-21223484D02*
X4373491Y-21213960D01*
X4373491Y-21213960D02*
X4383015Y-21204436D01*
X4383015Y-21204436D02*
X4383015Y-21223484D01*
X4516348Y-21023484D02*
X4535396Y-21023484D01*
X4535396Y-21023484D02*
X4554444Y-21033008D01*
X4554444Y-21033008D02*
X4563968Y-21042531D01*
X4563968Y-21042531D02*
X4573491Y-21061579D01*
X4573491Y-21061579D02*
X4583015Y-21099674D01*
X4583015Y-21099674D02*
X4583015Y-21147293D01*
X4583015Y-21147293D02*
X4573491Y-21185389D01*
X4573491Y-21185389D02*
X4563968Y-21204436D01*
X4563968Y-21204436D02*
X4554444Y-21213960D01*
X4554444Y-21213960D02*
X4535396Y-21223484D01*
X4535396Y-21223484D02*
X4516348Y-21223484D01*
X4516348Y-21223484D02*
X4497301Y-21213960D01*
X4497301Y-21213960D02*
X4487777Y-21204436D01*
X4487777Y-21204436D02*
X4478253Y-21185389D01*
X4478253Y-21185389D02*
X4468729Y-21147293D01*
X4468729Y-21147293D02*
X4468729Y-21099674D01*
X4468729Y-21099674D02*
X4478253Y-21061579D01*
X4478253Y-21061579D02*
X4487777Y-21042531D01*
X4487777Y-21042531D02*
X4497301Y-21033008D01*
X4497301Y-21033008D02*
X4516348Y-21023484D01*
X4763968Y-21023484D02*
X4668729Y-21023484D01*
X4668729Y-21023484D02*
X4659206Y-21118722D01*
X4659206Y-21118722D02*
X4668729Y-21109198D01*
X4668729Y-21109198D02*
X4687777Y-21099674D01*
X4687777Y-21099674D02*
X4735396Y-21099674D01*
X4735396Y-21099674D02*
X4754444Y-21109198D01*
X4754444Y-21109198D02*
X4763968Y-21118722D01*
X4763968Y-21118722D02*
X4773491Y-21137770D01*
X4773491Y-21137770D02*
X4773491Y-21185389D01*
X4773491Y-21185389D02*
X4763968Y-21204436D01*
X4763968Y-21204436D02*
X4754444Y-21213960D01*
X4754444Y-21213960D02*
X4735396Y-21223484D01*
X4735396Y-21223484D02*
X4687777Y-21223484D01*
X4687777Y-21223484D02*
X4668729Y-21213960D01*
X4668729Y-21213960D02*
X4659206Y-21204436D01*
X4954444Y-21023484D02*
X4859206Y-21023484D01*
X4859206Y-21023484D02*
X4849682Y-21118722D01*
X4849682Y-21118722D02*
X4859206Y-21109198D01*
X4859206Y-21109198D02*
X4878253Y-21099674D01*
X4878253Y-21099674D02*
X4925872Y-21099674D01*
X4925872Y-21099674D02*
X4944920Y-21109198D01*
X4944920Y-21109198D02*
X4954444Y-21118722D01*
X4954444Y-21118722D02*
X4963968Y-21137770D01*
X4963968Y-21137770D02*
X4963968Y-21185389D01*
X4963968Y-21185389D02*
X4954444Y-21204436D01*
X4954444Y-21204436D02*
X4944920Y-21213960D01*
X4944920Y-21213960D02*
X4925872Y-21223484D01*
X4925872Y-21223484D02*
X4878253Y-21223484D01*
X4878253Y-21223484D02*
X4859206Y-21213960D01*
X4859206Y-21213960D02*
X4849682Y-21204436D01*
X5154444Y-21223484D02*
X5040158Y-21223484D01*
X5097301Y-21223484D02*
X5097301Y-21023484D01*
X5097301Y-21023484D02*
X5078253Y-21052055D01*
X5078253Y-21052055D02*
X5059206Y-21071103D01*
X5059206Y-21071103D02*
X5040158Y-21080627D01*
X5230634Y-21023484D02*
X5230634Y-21061579D01*
X5306825Y-21023484D02*
X5306825Y-21061579D01*
X5602063Y-21299674D02*
X5592539Y-21290150D01*
X5592539Y-21290150D02*
X5573491Y-21261579D01*
X5573491Y-21261579D02*
X5563968Y-21242531D01*
X5563968Y-21242531D02*
X5554444Y-21213960D01*
X5554444Y-21213960D02*
X5544920Y-21166341D01*
X5544920Y-21166341D02*
X5544920Y-21128246D01*
X5544920Y-21128246D02*
X5554444Y-21080627D01*
X5554444Y-21080627D02*
X5563968Y-21052055D01*
X5563968Y-21052055D02*
X5573491Y-21033008D01*
X5573491Y-21033008D02*
X5592539Y-21004436D01*
X5592539Y-21004436D02*
X5602063Y-20994912D01*
X5763968Y-21090150D02*
X5763968Y-21223484D01*
X5716348Y-21013960D02*
X5668729Y-21156817D01*
X5668729Y-21156817D02*
X5792539Y-21156817D01*
X6021110Y-21223484D02*
X6021110Y-21023484D01*
X6106825Y-21223484D02*
X6106825Y-21118722D01*
X6106825Y-21118722D02*
X6097301Y-21099674D01*
X6097301Y-21099674D02*
X6078253Y-21090150D01*
X6078253Y-21090150D02*
X6049682Y-21090150D01*
X6049682Y-21090150D02*
X6030634Y-21099674D01*
X6030634Y-21099674D02*
X6021110Y-21109198D01*
X6230634Y-21223484D02*
X6211587Y-21213960D01*
X6211587Y-21213960D02*
X6202063Y-21204436D01*
X6202063Y-21204436D02*
X6192539Y-21185389D01*
X6192539Y-21185389D02*
X6192539Y-21128246D01*
X6192539Y-21128246D02*
X6202063Y-21109198D01*
X6202063Y-21109198D02*
X6211587Y-21099674D01*
X6211587Y-21099674D02*
X6230634Y-21090150D01*
X6230634Y-21090150D02*
X6259206Y-21090150D01*
X6259206Y-21090150D02*
X6278253Y-21099674D01*
X6278253Y-21099674D02*
X6287777Y-21109198D01*
X6287777Y-21109198D02*
X6297301Y-21128246D01*
X6297301Y-21128246D02*
X6297301Y-21185389D01*
X6297301Y-21185389D02*
X6287777Y-21204436D01*
X6287777Y-21204436D02*
X6278253Y-21213960D01*
X6278253Y-21213960D02*
X6259206Y-21223484D01*
X6259206Y-21223484D02*
X6230634Y-21223484D01*
X6411587Y-21223484D02*
X6392539Y-21213960D01*
X6392539Y-21213960D02*
X6383015Y-21194912D01*
X6383015Y-21194912D02*
X6383015Y-21023484D01*
X6563968Y-21213960D02*
X6544920Y-21223484D01*
X6544920Y-21223484D02*
X6506825Y-21223484D01*
X6506825Y-21223484D02*
X6487777Y-21213960D01*
X6487777Y-21213960D02*
X6478253Y-21194912D01*
X6478253Y-21194912D02*
X6478253Y-21118722D01*
X6478253Y-21118722D02*
X6487777Y-21099674D01*
X6487777Y-21099674D02*
X6506825Y-21090150D01*
X6506825Y-21090150D02*
X6544920Y-21090150D01*
X6544920Y-21090150D02*
X6563968Y-21099674D01*
X6563968Y-21099674D02*
X6573491Y-21118722D01*
X6573491Y-21118722D02*
X6573491Y-21137770D01*
X6573491Y-21137770D02*
X6478253Y-21156817D01*
X6649682Y-21213960D02*
X6668730Y-21223484D01*
X6668730Y-21223484D02*
X6706825Y-21223484D01*
X6706825Y-21223484D02*
X6725872Y-21213960D01*
X6725872Y-21213960D02*
X6735396Y-21194912D01*
X6735396Y-21194912D02*
X6735396Y-21185389D01*
X6735396Y-21185389D02*
X6725872Y-21166341D01*
X6725872Y-21166341D02*
X6706825Y-21156817D01*
X6706825Y-21156817D02*
X6678253Y-21156817D01*
X6678253Y-21156817D02*
X6659206Y-21147293D01*
X6659206Y-21147293D02*
X6649682Y-21128246D01*
X6649682Y-21128246D02*
X6649682Y-21118722D01*
X6649682Y-21118722D02*
X6659206Y-21099674D01*
X6659206Y-21099674D02*
X6678253Y-21090150D01*
X6678253Y-21090150D02*
X6706825Y-21090150D01*
X6706825Y-21090150D02*
X6725872Y-21099674D01*
X6802063Y-21299674D02*
X6811587Y-21290150D01*
X6811587Y-21290150D02*
X6830634Y-21261579D01*
X6830634Y-21261579D02*
X6840158Y-21242531D01*
X6840158Y-21242531D02*
X6849682Y-21213960D01*
X6849682Y-21213960D02*
X6859206Y-21166341D01*
X6859206Y-21166341D02*
X6859206Y-21128246D01*
X6859206Y-21128246D02*
X6849682Y-21080627D01*
X6849682Y-21080627D02*
X6840158Y-21052055D01*
X6840158Y-21052055D02*
X6830634Y-21033008D01*
X6830634Y-21033008D02*
X6811587Y-21004436D01*
X6811587Y-21004436D02*
X6802063Y-20994912D01*
D13*
X1857000Y-21311000D02*
X2027000Y-21481000D01*
X2027000Y-21311000D02*
X1857000Y-21481000D01*
X2027000Y-21396000D02*
G75*
G03*
X1857000Y-21396000I-85000J0D01*
G01*
X1857000Y-21396000D02*
G75*
G03*
X2027000Y-21396000I85000J0D01*
G01*
D11*
X2392539Y-21487484D02*
X2278253Y-21487484D01*
X2335396Y-21487484D02*
X2335396Y-21287484D01*
X2335396Y-21287484D02*
X2316348Y-21316055D01*
X2316348Y-21316055D02*
X2297301Y-21335103D01*
X2297301Y-21335103D02*
X2278253Y-21344627D01*
X2478253Y-21468436D02*
X2487777Y-21477960D01*
X2487777Y-21477960D02*
X2478253Y-21487484D01*
X2478253Y-21487484D02*
X2468729Y-21477960D01*
X2468729Y-21477960D02*
X2478253Y-21468436D01*
X2478253Y-21468436D02*
X2478253Y-21487484D01*
X2554444Y-21287484D02*
X2687777Y-21287484D01*
X2687777Y-21287484D02*
X2602063Y-21487484D01*
X2802062Y-21287484D02*
X2821110Y-21287484D01*
X2821110Y-21287484D02*
X2840158Y-21297008D01*
X2840158Y-21297008D02*
X2849682Y-21306531D01*
X2849682Y-21306531D02*
X2859205Y-21325579D01*
X2859205Y-21325579D02*
X2868729Y-21363674D01*
X2868729Y-21363674D02*
X2868729Y-21411293D01*
X2868729Y-21411293D02*
X2859205Y-21449389D01*
X2859205Y-21449389D02*
X2849682Y-21468436D01*
X2849682Y-21468436D02*
X2840158Y-21477960D01*
X2840158Y-21477960D02*
X2821110Y-21487484D01*
X2821110Y-21487484D02*
X2802062Y-21487484D01*
X2802062Y-21487484D02*
X2783015Y-21477960D01*
X2783015Y-21477960D02*
X2773491Y-21468436D01*
X2773491Y-21468436D02*
X2763967Y-21449389D01*
X2763967Y-21449389D02*
X2754444Y-21411293D01*
X2754444Y-21411293D02*
X2754444Y-21363674D01*
X2754444Y-21363674D02*
X2763967Y-21325579D01*
X2763967Y-21325579D02*
X2773491Y-21306531D01*
X2773491Y-21306531D02*
X2783015Y-21297008D01*
X2783015Y-21297008D02*
X2802062Y-21287484D01*
X2992539Y-21287484D02*
X3011586Y-21287484D01*
X3011586Y-21287484D02*
X3030634Y-21297008D01*
X3030634Y-21297008D02*
X3040158Y-21306531D01*
X3040158Y-21306531D02*
X3049682Y-21325579D01*
X3049682Y-21325579D02*
X3059205Y-21363674D01*
X3059205Y-21363674D02*
X3059205Y-21411293D01*
X3059205Y-21411293D02*
X3049682Y-21449389D01*
X3049682Y-21449389D02*
X3040158Y-21468436D01*
X3040158Y-21468436D02*
X3030634Y-21477960D01*
X3030634Y-21477960D02*
X3011586Y-21487484D01*
X3011586Y-21487484D02*
X2992539Y-21487484D01*
X2992539Y-21487484D02*
X2973491Y-21477960D01*
X2973491Y-21477960D02*
X2963967Y-21468436D01*
X2963967Y-21468436D02*
X2954443Y-21449389D01*
X2954443Y-21449389D02*
X2944920Y-21411293D01*
X2944920Y-21411293D02*
X2944920Y-21363674D01*
X2944920Y-21363674D02*
X2954443Y-21325579D01*
X2954443Y-21325579D02*
X2963967Y-21306531D01*
X2963967Y-21306531D02*
X2973491Y-21297008D01*
X2973491Y-21297008D02*
X2992539Y-21287484D01*
X3144920Y-21487484D02*
X3144920Y-21354150D01*
X3144920Y-21373198D02*
X3154443Y-21363674D01*
X3154443Y-21363674D02*
X3173491Y-21354150D01*
X3173491Y-21354150D02*
X3202063Y-21354150D01*
X3202063Y-21354150D02*
X3221110Y-21363674D01*
X3221110Y-21363674D02*
X3230634Y-21382722D01*
X3230634Y-21382722D02*
X3230634Y-21487484D01*
X3230634Y-21382722D02*
X3240158Y-21363674D01*
X3240158Y-21363674D02*
X3259205Y-21354150D01*
X3259205Y-21354150D02*
X3287777Y-21354150D01*
X3287777Y-21354150D02*
X3306824Y-21363674D01*
X3306824Y-21363674D02*
X3316348Y-21382722D01*
X3316348Y-21382722D02*
X3316348Y-21487484D01*
X3411586Y-21487484D02*
X3411586Y-21354150D01*
X3411586Y-21373198D02*
X3421110Y-21363674D01*
X3421110Y-21363674D02*
X3440158Y-21354150D01*
X3440158Y-21354150D02*
X3468729Y-21354150D01*
X3468729Y-21354150D02*
X3487777Y-21363674D01*
X3487777Y-21363674D02*
X3497301Y-21382722D01*
X3497301Y-21382722D02*
X3497301Y-21487484D01*
X3497301Y-21382722D02*
X3506824Y-21363674D01*
X3506824Y-21363674D02*
X3525872Y-21354150D01*
X3525872Y-21354150D02*
X3554443Y-21354150D01*
X3554443Y-21354150D02*
X3573491Y-21363674D01*
X3573491Y-21363674D02*
X3583015Y-21382722D01*
X3583015Y-21382722D02*
X3583015Y-21487484D01*
X3973491Y-21277960D02*
X3802063Y-21535103D01*
X4230634Y-21287484D02*
X4249682Y-21287484D01*
X4249682Y-21287484D02*
X4268729Y-21297008D01*
X4268729Y-21297008D02*
X4278253Y-21306531D01*
X4278253Y-21306531D02*
X4287777Y-21325579D01*
X4287777Y-21325579D02*
X4297301Y-21363674D01*
X4297301Y-21363674D02*
X4297301Y-21411293D01*
X4297301Y-21411293D02*
X4287777Y-21449389D01*
X4287777Y-21449389D02*
X4278253Y-21468436D01*
X4278253Y-21468436D02*
X4268729Y-21477960D01*
X4268729Y-21477960D02*
X4249682Y-21487484D01*
X4249682Y-21487484D02*
X4230634Y-21487484D01*
X4230634Y-21487484D02*
X4211587Y-21477960D01*
X4211587Y-21477960D02*
X4202063Y-21468436D01*
X4202063Y-21468436D02*
X4192539Y-21449389D01*
X4192539Y-21449389D02*
X4183015Y-21411293D01*
X4183015Y-21411293D02*
X4183015Y-21363674D01*
X4183015Y-21363674D02*
X4192539Y-21325579D01*
X4192539Y-21325579D02*
X4202063Y-21306531D01*
X4202063Y-21306531D02*
X4211587Y-21297008D01*
X4211587Y-21297008D02*
X4230634Y-21287484D01*
X4383015Y-21468436D02*
X4392539Y-21477960D01*
X4392539Y-21477960D02*
X4383015Y-21487484D01*
X4383015Y-21487484D02*
X4373491Y-21477960D01*
X4373491Y-21477960D02*
X4383015Y-21468436D01*
X4383015Y-21468436D02*
X4383015Y-21487484D01*
X4516348Y-21287484D02*
X4535396Y-21287484D01*
X4535396Y-21287484D02*
X4554444Y-21297008D01*
X4554444Y-21297008D02*
X4563968Y-21306531D01*
X4563968Y-21306531D02*
X4573491Y-21325579D01*
X4573491Y-21325579D02*
X4583015Y-21363674D01*
X4583015Y-21363674D02*
X4583015Y-21411293D01*
X4583015Y-21411293D02*
X4573491Y-21449389D01*
X4573491Y-21449389D02*
X4563968Y-21468436D01*
X4563968Y-21468436D02*
X4554444Y-21477960D01*
X4554444Y-21477960D02*
X4535396Y-21487484D01*
X4535396Y-21487484D02*
X4516348Y-21487484D01*
X4516348Y-21487484D02*
X4497301Y-21477960D01*
X4497301Y-21477960D02*
X4487777Y-21468436D01*
X4487777Y-21468436D02*
X4478253Y-21449389D01*
X4478253Y-21449389D02*
X4468729Y-21411293D01*
X4468729Y-21411293D02*
X4468729Y-21363674D01*
X4468729Y-21363674D02*
X4478253Y-21325579D01*
X4478253Y-21325579D02*
X4487777Y-21306531D01*
X4487777Y-21306531D02*
X4497301Y-21297008D01*
X4497301Y-21297008D02*
X4516348Y-21287484D01*
X4754444Y-21287484D02*
X4716348Y-21287484D01*
X4716348Y-21287484D02*
X4697301Y-21297008D01*
X4697301Y-21297008D02*
X4687777Y-21306531D01*
X4687777Y-21306531D02*
X4668729Y-21335103D01*
X4668729Y-21335103D02*
X4659206Y-21373198D01*
X4659206Y-21373198D02*
X4659206Y-21449389D01*
X4659206Y-21449389D02*
X4668729Y-21468436D01*
X4668729Y-21468436D02*
X4678253Y-21477960D01*
X4678253Y-21477960D02*
X4697301Y-21487484D01*
X4697301Y-21487484D02*
X4735396Y-21487484D01*
X4735396Y-21487484D02*
X4754444Y-21477960D01*
X4754444Y-21477960D02*
X4763968Y-21468436D01*
X4763968Y-21468436D02*
X4773491Y-21449389D01*
X4773491Y-21449389D02*
X4773491Y-21401770D01*
X4773491Y-21401770D02*
X4763968Y-21382722D01*
X4763968Y-21382722D02*
X4754444Y-21373198D01*
X4754444Y-21373198D02*
X4735396Y-21363674D01*
X4735396Y-21363674D02*
X4697301Y-21363674D01*
X4697301Y-21363674D02*
X4678253Y-21373198D01*
X4678253Y-21373198D02*
X4668729Y-21382722D01*
X4668729Y-21382722D02*
X4659206Y-21401770D01*
X4944920Y-21287484D02*
X4906825Y-21287484D01*
X4906825Y-21287484D02*
X4887777Y-21297008D01*
X4887777Y-21297008D02*
X4878253Y-21306531D01*
X4878253Y-21306531D02*
X4859206Y-21335103D01*
X4859206Y-21335103D02*
X4849682Y-21373198D01*
X4849682Y-21373198D02*
X4849682Y-21449389D01*
X4849682Y-21449389D02*
X4859206Y-21468436D01*
X4859206Y-21468436D02*
X4868729Y-21477960D01*
X4868729Y-21477960D02*
X4887777Y-21487484D01*
X4887777Y-21487484D02*
X4925872Y-21487484D01*
X4925872Y-21487484D02*
X4944920Y-21477960D01*
X4944920Y-21477960D02*
X4954444Y-21468436D01*
X4954444Y-21468436D02*
X4963968Y-21449389D01*
X4963968Y-21449389D02*
X4963968Y-21401770D01*
X4963968Y-21401770D02*
X4954444Y-21382722D01*
X4954444Y-21382722D02*
X4944920Y-21373198D01*
X4944920Y-21373198D02*
X4925872Y-21363674D01*
X4925872Y-21363674D02*
X4887777Y-21363674D01*
X4887777Y-21363674D02*
X4868729Y-21373198D01*
X4868729Y-21373198D02*
X4859206Y-21382722D01*
X4859206Y-21382722D02*
X4849682Y-21401770D01*
X5059206Y-21487484D02*
X5097301Y-21487484D01*
X5097301Y-21487484D02*
X5116349Y-21477960D01*
X5116349Y-21477960D02*
X5125872Y-21468436D01*
X5125872Y-21468436D02*
X5144920Y-21439865D01*
X5144920Y-21439865D02*
X5154444Y-21401770D01*
X5154444Y-21401770D02*
X5154444Y-21325579D01*
X5154444Y-21325579D02*
X5144920Y-21306531D01*
X5144920Y-21306531D02*
X5135396Y-21297008D01*
X5135396Y-21297008D02*
X5116349Y-21287484D01*
X5116349Y-21287484D02*
X5078253Y-21287484D01*
X5078253Y-21287484D02*
X5059206Y-21297008D01*
X5059206Y-21297008D02*
X5049682Y-21306531D01*
X5049682Y-21306531D02*
X5040158Y-21325579D01*
X5040158Y-21325579D02*
X5040158Y-21373198D01*
X5040158Y-21373198D02*
X5049682Y-21392246D01*
X5049682Y-21392246D02*
X5059206Y-21401770D01*
X5059206Y-21401770D02*
X5078253Y-21411293D01*
X5078253Y-21411293D02*
X5116349Y-21411293D01*
X5116349Y-21411293D02*
X5135396Y-21401770D01*
X5135396Y-21401770D02*
X5144920Y-21392246D01*
X5144920Y-21392246D02*
X5154444Y-21373198D01*
X5230634Y-21287484D02*
X5230634Y-21325579D01*
X5306825Y-21287484D02*
X5306825Y-21325579D01*
X5602063Y-21563674D02*
X5592539Y-21554150D01*
X5592539Y-21554150D02*
X5573491Y-21525579D01*
X5573491Y-21525579D02*
X5563968Y-21506531D01*
X5563968Y-21506531D02*
X5554444Y-21477960D01*
X5554444Y-21477960D02*
X5544920Y-21430341D01*
X5544920Y-21430341D02*
X5544920Y-21392246D01*
X5544920Y-21392246D02*
X5554444Y-21344627D01*
X5554444Y-21344627D02*
X5563968Y-21316055D01*
X5563968Y-21316055D02*
X5573491Y-21297008D01*
X5573491Y-21297008D02*
X5592539Y-21268436D01*
X5592539Y-21268436D02*
X5602063Y-21258912D01*
X5763968Y-21354150D02*
X5763968Y-21487484D01*
X5716348Y-21277960D02*
X5668729Y-21420817D01*
X5668729Y-21420817D02*
X5792539Y-21420817D01*
X6021110Y-21487484D02*
X6021110Y-21287484D01*
X6106825Y-21487484D02*
X6106825Y-21382722D01*
X6106825Y-21382722D02*
X6097301Y-21363674D01*
X6097301Y-21363674D02*
X6078253Y-21354150D01*
X6078253Y-21354150D02*
X6049682Y-21354150D01*
X6049682Y-21354150D02*
X6030634Y-21363674D01*
X6030634Y-21363674D02*
X6021110Y-21373198D01*
X6230634Y-21487484D02*
X6211587Y-21477960D01*
X6211587Y-21477960D02*
X6202063Y-21468436D01*
X6202063Y-21468436D02*
X6192539Y-21449389D01*
X6192539Y-21449389D02*
X6192539Y-21392246D01*
X6192539Y-21392246D02*
X6202063Y-21373198D01*
X6202063Y-21373198D02*
X6211587Y-21363674D01*
X6211587Y-21363674D02*
X6230634Y-21354150D01*
X6230634Y-21354150D02*
X6259206Y-21354150D01*
X6259206Y-21354150D02*
X6278253Y-21363674D01*
X6278253Y-21363674D02*
X6287777Y-21373198D01*
X6287777Y-21373198D02*
X6297301Y-21392246D01*
X6297301Y-21392246D02*
X6297301Y-21449389D01*
X6297301Y-21449389D02*
X6287777Y-21468436D01*
X6287777Y-21468436D02*
X6278253Y-21477960D01*
X6278253Y-21477960D02*
X6259206Y-21487484D01*
X6259206Y-21487484D02*
X6230634Y-21487484D01*
X6411587Y-21487484D02*
X6392539Y-21477960D01*
X6392539Y-21477960D02*
X6383015Y-21458912D01*
X6383015Y-21458912D02*
X6383015Y-21287484D01*
X6563968Y-21477960D02*
X6544920Y-21487484D01*
X6544920Y-21487484D02*
X6506825Y-21487484D01*
X6506825Y-21487484D02*
X6487777Y-21477960D01*
X6487777Y-21477960D02*
X6478253Y-21458912D01*
X6478253Y-21458912D02*
X6478253Y-21382722D01*
X6478253Y-21382722D02*
X6487777Y-21363674D01*
X6487777Y-21363674D02*
X6506825Y-21354150D01*
X6506825Y-21354150D02*
X6544920Y-21354150D01*
X6544920Y-21354150D02*
X6563968Y-21363674D01*
X6563968Y-21363674D02*
X6573491Y-21382722D01*
X6573491Y-21382722D02*
X6573491Y-21401770D01*
X6573491Y-21401770D02*
X6478253Y-21420817D01*
X6649682Y-21477960D02*
X6668730Y-21487484D01*
X6668730Y-21487484D02*
X6706825Y-21487484D01*
X6706825Y-21487484D02*
X6725872Y-21477960D01*
X6725872Y-21477960D02*
X6735396Y-21458912D01*
X6735396Y-21458912D02*
X6735396Y-21449389D01*
X6735396Y-21449389D02*
X6725872Y-21430341D01*
X6725872Y-21430341D02*
X6706825Y-21420817D01*
X6706825Y-21420817D02*
X6678253Y-21420817D01*
X6678253Y-21420817D02*
X6659206Y-21411293D01*
X6659206Y-21411293D02*
X6649682Y-21392246D01*
X6649682Y-21392246D02*
X6649682Y-21382722D01*
X6649682Y-21382722D02*
X6659206Y-21363674D01*
X6659206Y-21363674D02*
X6678253Y-21354150D01*
X6678253Y-21354150D02*
X6706825Y-21354150D01*
X6706825Y-21354150D02*
X6725872Y-21363674D01*
X6802063Y-21563674D02*
X6811587Y-21554150D01*
X6811587Y-21554150D02*
X6830634Y-21525579D01*
X6830634Y-21525579D02*
X6840158Y-21506531D01*
X6840158Y-21506531D02*
X6849682Y-21477960D01*
X6849682Y-21477960D02*
X6859206Y-21430341D01*
X6859206Y-21430341D02*
X6859206Y-21392246D01*
X6859206Y-21392246D02*
X6849682Y-21344627D01*
X6849682Y-21344627D02*
X6840158Y-21316055D01*
X6840158Y-21316055D02*
X6830634Y-21297008D01*
X6830634Y-21297008D02*
X6811587Y-21268436D01*
X6811587Y-21268436D02*
X6802063Y-21258912D01*
M02*
