%TF.GenerationSoftware,KiCad,Pcbnew,7.0.11-2.fc39*%
%TF.CreationDate,2024-04-23T12:03:02+00:00*%
%TF.ProjectId,Smart Prusa MK4 enclosure,536d6172-7420-4507-9275-7361204d4b34,1.2*%
%TF.SameCoordinates,Original*%
%TF.FileFunction,Soldermask,Top*%
%TF.FilePolarity,Negative*%
%FSLAX46Y46*%
G04 Gerber Fmt 4.6, Leading zero omitted, Abs format (unit mm)*
G04 Created by KiCad (PCBNEW 7.0.11-2.fc39) date 2024-04-23 12:03:02*
%MOMM*%
%LPD*%
G01*
G04 APERTURE LIST*
G04 Aperture macros list*
%AMRoundRect*
0 Rectangle with rounded corners*
0 $1 Rounding radius*
0 $2 $3 $4 $5 $6 $7 $8 $9 X,Y pos of 4 corners*
0 Add a 4 corners polygon primitive as box body*
4,1,4,$2,$3,$4,$5,$6,$7,$8,$9,$2,$3,0*
0 Add four circle primitives for the rounded corners*
1,1,$1+$1,$2,$3*
1,1,$1+$1,$4,$5*
1,1,$1+$1,$6,$7*
1,1,$1+$1,$8,$9*
0 Add four rect primitives between the rounded corners*
20,1,$1+$1,$2,$3,$4,$5,0*
20,1,$1+$1,$4,$5,$6,$7,0*
20,1,$1+$1,$6,$7,$8,$9,0*
20,1,$1+$1,$8,$9,$2,$3,0*%
G04 Aperture macros list end*
%ADD10C,2.800000*%
%ADD11O,2.800000X2.800000*%
%ADD12RoundRect,0.250000X-0.600000X-0.725000X0.600000X-0.725000X0.600000X0.725000X-0.600000X0.725000X0*%
%ADD13O,1.700000X1.950000*%
%ADD14RoundRect,0.675000X-0.675000X0.675000X-0.675000X-0.675000X0.675000X-0.675000X0.675000X0.675000X0*%
%ADD15C,2.700000*%
%ADD16C,1.524000*%
%ADD17R,3.500000X3.500000*%
%ADD18RoundRect,0.750000X1.000000X-0.750000X1.000000X0.750000X-1.000000X0.750000X-1.000000X-0.750000X0*%
%ADD19RoundRect,0.875000X0.875000X-0.875000X0.875000X0.875000X-0.875000X0.875000X-0.875000X-0.875000X0*%
%ADD20O,2.000000X2.000000*%
%ADD21R,2.000000X2.000000*%
%ADD22RoundRect,0.250000X0.600000X0.725000X-0.600000X0.725000X-0.600000X-0.725000X0.600000X-0.725000X0*%
%ADD23RoundRect,0.250000X-0.600000X-0.750000X0.600000X-0.750000X0.600000X0.750000X-0.600000X0.750000X0*%
%ADD24O,1.700000X2.000000*%
%ADD25C,1.600000*%
G04 APERTURE END LIST*
D10*
%TO.C,R2*%
X48260000Y-83820000D03*
D11*
X48260000Y-99060000D03*
%TD*%
D12*
%TO.C,SENSOCKET1*%
X31870000Y-86360000D03*
D13*
X34370000Y-86360000D03*
X36870000Y-86360000D03*
X39370000Y-86360000D03*
%TD*%
D14*
%TO.C,F1*%
X48260000Y-146910000D03*
X48260000Y-153670000D03*
D15*
X48260000Y-163260000D03*
X48260000Y-170020000D03*
%TD*%
D16*
%TO.C,MOSLED1*%
X33020000Y-176160000D03*
X35560000Y-176160000D03*
X30480000Y-148860000D03*
X34290000Y-148860000D03*
X38100000Y-148860000D03*
%TD*%
D17*
%TO.C,J1*%
X48260000Y-175260000D03*
D18*
X48260000Y-181260000D03*
D19*
X52960000Y-178260000D03*
%TD*%
D12*
%TO.C,FANSOCKET1*%
X26710000Y-132080000D03*
D13*
X29210000Y-132080000D03*
X31710000Y-132080000D03*
X34210000Y-132080000D03*
%TD*%
D20*
%TO.C,S1*%
X43180000Y-129540000D03*
D21*
X48260000Y-129540000D03*
%TD*%
D10*
%TO.C,R1*%
X26670000Y-76200000D03*
D11*
X41910000Y-76200000D03*
%TD*%
D22*
%TO.C,CPSOCKET1*%
X34290000Y-186690000D03*
D13*
X31790000Y-186690000D03*
X29290000Y-186690000D03*
X26790000Y-186690000D03*
%TD*%
D23*
%TO.C,LEDSOCKET1*%
X43180000Y-137160000D03*
D24*
X45680000Y-137160000D03*
%TD*%
D25*
%TO.C,C1*%
X48300000Y-77470000D03*
X50800000Y-77470000D03*
%TD*%
D20*
%TO.C,S2*%
X34290000Y-140970000D03*
D21*
X29210000Y-140970000D03*
%TD*%
D16*
%TO.C,U1*%
X25400000Y-25400000D03*
X25400000Y-22860000D03*
X25400000Y-27940000D03*
X25400000Y-30480000D03*
X25400000Y-33020000D03*
X25400000Y-35560000D03*
X25400000Y-38100000D03*
X25400000Y-40640000D03*
X25400000Y-43180000D03*
X25400000Y-45720000D03*
X25400000Y-48260000D03*
X25400000Y-50800000D03*
X25400000Y-53340000D03*
X25400000Y-55880000D03*
X25400000Y-58420000D03*
X25400000Y-60960000D03*
X25400000Y-63500000D03*
X25400000Y-66040000D03*
X25400000Y-68580000D03*
X25400000Y-71120000D03*
X50800000Y-68580000D03*
X50800000Y-66040000D03*
X50800000Y-63500000D03*
X50800000Y-60960000D03*
X50800000Y-58420000D03*
X50800000Y-55880000D03*
X50800000Y-53340000D03*
X50800000Y-50800000D03*
X50800000Y-48260000D03*
X50800000Y-45720000D03*
X50800000Y-43180000D03*
X50800000Y-40640000D03*
X50800000Y-38100000D03*
X50800000Y-35560000D03*
X50800000Y-33020000D03*
X50800000Y-30480000D03*
X50800000Y-27940000D03*
X50800000Y-25400000D03*
X50800000Y-22860000D03*
X50800000Y-71120000D03*
%TD*%
%TO.C,P1*%
X48260000Y-122640000D03*
X34260000Y-122640000D03*
X34260000Y-104140000D03*
X48260000Y-104140000D03*
%TD*%
M02*
